<svg width="52" height="52" viewBox="0 0 52 52" fill="none" xmlns="http://www.w3.org/2000/svg">
<path d="M34.5938 25.2188H28.1999C28.0833 24.8919 27.8956 24.5951 27.6502 24.3498C27.4049 24.1044 27.1081 23.9167 26.7813 23.8002V14.2812C26.7813 14.074 26.699 13.8753 26.5524 13.7288C26.4059 13.5823 26.2072 13.5 26 13.5C25.7928 13.5 25.5941 13.5823 25.4476 13.7288C25.3011 13.8753 25.2188 14.074 25.2188 14.2812V23.8002C24.8459 23.9313 24.5123 24.1548 24.2492 24.4498C23.9861 24.7449 23.8022 25.1018 23.7145 25.4872C23.6268 25.8727 23.6383 26.274 23.7479 26.6538C23.8575 27.0336 24.0615 27.3795 24.341 27.659C24.6206 27.9385 24.9664 28.1426 25.3462 28.2521C25.726 28.3617 26.1273 28.3732 26.5128 28.2855C26.8982 28.1978 27.2551 28.0139 27.5502 27.7508C27.8452 27.4877 28.0687 27.1542 28.1999 26.7812H34.5938C34.801 26.7812 34.9997 26.6989 35.1462 26.5524C35.2927 26.4059 35.375 26.2072 35.375 26C35.375 25.7928 35.2927 25.5941 35.1462 25.4476C34.9997 25.3011 34.801 25.2188 34.5938 25.2188ZM26 26.7812C25.8455 26.7812 25.6944 26.7354 25.566 26.6496C25.4375 26.5637 25.3374 26.4417 25.2782 26.299C25.2191 26.1562 25.2036 25.9991 25.2338 25.8476C25.2639 25.696 25.3383 25.5568 25.4476 25.4476C25.5568 25.3383 25.696 25.2639 25.8476 25.2338C25.9991 25.2036 26.1562 25.2191 26.299 25.2782C26.4417 25.3374 26.5638 25.4375 26.6496 25.566C26.7354 25.6944 26.7813 25.8455 26.7813 26C26.7811 26.2072 26.6988 26.4058 26.5523 26.5523C26.4058 26.6988 26.2072 26.7811 26 26.7812ZM40.3972 11.6882C40.3835 11.6722 40.3783 11.6521 40.3631 11.6369C40.3479 11.6217 40.3278 11.6165 40.3118 11.6028C36.5121 7.81469 31.3655 5.68749 26 5.68749C20.6345 5.68749 15.4879 7.81469 11.6882 11.6028C11.6722 11.6165 11.6521 11.6217 11.6369 11.6369C11.6217 11.6521 11.6165 11.6722 11.6029 11.6882C7.8147 15.4879 5.6875 20.6345 5.6875 26C5.6875 31.3654 7.8147 36.512 11.6029 40.3118C11.6165 40.3278 11.6217 40.3479 11.6369 40.3631C11.6521 40.3783 11.6722 40.3835 11.6882 40.3971C15.4879 44.1853 20.6345 46.3125 26 46.3125C31.3655 46.3125 36.5121 44.1853 40.3118 40.3971C40.3278 40.3835 40.3479 40.3783 40.3631 40.3631C40.3783 40.3479 40.3835 40.3278 40.3972 40.3118C44.1853 36.512 46.3125 31.3654 46.3125 26C46.3125 20.6345 44.1853 15.4879 40.3972 11.6882ZM39.778 38.6733L38.1536 37.0489C38.0066 36.9048 37.8087 36.8246 37.6029 36.8257C37.3971 36.8267 37.2 36.9089 37.0545 37.0544C36.909 37.2 36.8267 37.3971 36.8257 37.6029C36.8247 37.8087 36.9049 38.0066 37.049 38.1536L38.6733 39.778C35.4205 42.7816 31.2051 44.53 26.7813 44.7104V42.4062C26.7813 42.199 26.699 42.0003 26.5524 41.8538C26.4059 41.7073 26.2072 41.625 26 41.625C25.7928 41.625 25.5941 41.7073 25.4476 41.8538C25.3011 42.0003 25.2188 42.199 25.2188 42.4062V44.7104C20.7949 44.53 16.5796 42.7816 13.3267 39.778L14.9511 38.1536C15.0952 38.0066 15.1754 37.8087 15.1744 37.6029C15.1733 37.3971 15.0911 37.2 14.9456 37.0545C14.8 36.909 14.603 36.8267 14.3971 36.8257C14.1913 36.8247 13.9934 36.9049 13.8464 37.0489L12.222 38.6733C9.21841 35.4204 7.47003 31.2051 7.28959 26.7812H9.59376C9.80096 26.7812 9.99967 26.6989 10.1462 26.5524C10.2927 26.4059 10.375 26.2072 10.375 26C10.375 25.7928 10.2927 25.5941 10.1462 25.4476C9.99967 25.3011 9.80096 25.2188 9.59376 25.2188H7.28959C7.47003 20.7949 9.21841 16.5796 12.222 13.3267L13.8464 14.9511C13.9934 15.0952 14.1913 15.1754 14.3971 15.1743C14.6029 15.1733 14.8 15.0911 14.9455 14.9456C15.0911 14.8 15.1733 14.6029 15.1743 14.3971C15.1754 14.1913 15.0951 13.9934 14.9511 13.8464L13.3267 12.222C16.5796 9.2184 20.7949 7.47002 25.2188 7.28958V9.59375C25.2188 9.80095 25.3011 9.99966 25.4476 10.1462C25.5941 10.2927 25.7928 10.375 26 10.375C26.2072 10.375 26.4059 10.2927 26.5524 10.1462C26.699 9.99966 26.7813 9.80095 26.7813 9.59375V7.28958C31.2051 7.47002 35.4204 9.2184 38.6733 12.222L37.0489 13.8464C36.9752 13.9186 36.9165 14.0048 36.8762 14.0999C36.836 14.195 36.815 14.2971 36.8145 14.4004C36.814 14.5036 36.8339 14.6059 36.8732 14.7014C36.9125 14.7969 36.9703 14.8837 37.0433 14.9567C37.1163 15.0297 37.2031 15.0875 37.2985 15.1268C37.394 15.166 37.4964 15.186 37.5996 15.1855C37.7029 15.1849 37.805 15.164 37.9001 15.1237C37.9952 15.0835 38.0813 15.0248 38.1536 14.9511L39.778 13.3267C42.7816 16.5796 44.53 20.7949 44.7104 25.2188H42.4063C42.1991 25.2188 42.0003 25.3011 41.8538 25.4476C41.7073 25.5941 41.625 25.7928 41.625 26C41.625 26.2072 41.7073 26.4059 41.8538 26.5524C42.0003 26.6989 42.1991 26.7812 42.4063 26.7812H44.7104C44.53 31.2051 42.7816 35.4204 39.778 38.6733ZM26 1C21.0555 1 16.222 2.46622 12.1108 5.21326C7.99953 7.96029 4.79521 11.8648 2.90302 16.4329C1.01083 21.0011 0.515749 26.0277 1.48038 30.8773C2.44501 35.7268 4.82603 40.1814 8.32234 43.6777C11.8187 47.174 16.2732 49.555 21.1228 50.5196C25.9723 51.4843 30.9989 50.9892 35.5671 49.097C40.1352 47.2048 44.0397 44.0005 46.7868 39.8893C49.5338 35.778 51 30.9445 51 26C50.9924 19.3719 48.3561 13.0175 43.6693 8.3307C38.9825 3.64394 32.6281 1.00758 26 1ZM26 49.4375C21.3645 49.4375 16.8331 48.0629 12.9788 45.4876C9.12456 42.9122 6.12051 39.2518 4.34658 34.9691C2.57266 30.6865 2.10852 25.974 3.01286 21.4276C3.9172 16.8811 6.1494 12.705 9.4272 9.42719C12.705 6.14939 16.8812 3.91719 21.4276 3.01285C25.974 2.1085 30.6865 2.57264 34.9692 4.34657C39.2518 6.1205 42.9122 9.12455 45.4876 12.9788C48.0629 16.8331 49.4375 21.3645 49.4375 26C49.4305 32.2139 46.9589 38.1712 42.5651 42.5651C38.1712 46.9589 32.2139 49.4305 26 49.4375Z" fill="#2D2D2D"/>
</svg>
