<svg width="562" height="34" fill="none" xmlns="http://www.w3.org/2000/svg"><path d="M23 16h306" stroke="#462574" stroke-width="1.3"/><path d="M545 16H17" stroke="#929292" stroke-width="1.3"/><circle cx="17" cy="17" r="16.5" fill="#582D7F" stroke="#582D7F"/><path d="M16.675 23v-9.914l-2.61 1.187v-1.68l3.418-1.652h.976V23h-1.784z" fill="#fff"/><circle cx="280" cy="17" r="16.5" fill="#fff" stroke="#929292"/><path d="M276.483 23v-.958l4.632-5.036c.387-.422.671-.744.853-.967a4.03 4.03 0 00.518-.853 2.38 2.38 0 00.246-1.028c0-.55-.216-1.031-.65-1.441-.434-.416-.967-.624-1.6-.624-.673 0-1.236.222-1.687.668-.445.44-.668 1.002-.668 1.687h-1.714c0-1.101.387-1.998 1.16-2.69.774-.69 1.749-1.036 2.927-1.036 1.131 0 2.068.328 2.812.984.75.65 1.126 1.45 1.126 2.4 0 .673-.15 1.265-.449 1.775-.299.51-.767 1.107-1.406 1.793l-3.524 3.814h5.8V23h-8.376z" fill="#929292"/><circle cx="545" cy="17" r="16.5" fill="#fff" stroke="#929292"/><path d="M548.523 22.227c-.761.662-1.778.993-3.049.993-1.272 0-2.277-.346-3.015-1.037-.738-.692-1.107-1.588-1.107-2.69h1.705c0 .674.219 1.237.659 1.688.439.445 1.031.668 1.775.668.768 0 1.368-.22 1.802-.66.439-.439.659-.987.659-1.643 0-.662-.237-1.198-.712-1.608-.469-.416-1.081-.624-1.837-.624h-1.406V16.03h1.406c.586 0 1.087-.187 1.503-.562a1.85 1.85 0 00.633-1.433c0-.55-.193-1.01-.58-1.38-.381-.375-.899-.562-1.556-.562-.638 0-1.148.187-1.529.562-.375.37-.562.835-.562 1.398h-1.714c0-.973.36-1.77 1.081-2.39.72-.628 1.646-.941 2.777-.941 1.102 0 2.007.293 2.716.879.709.58 1.063 1.312 1.063 2.197 0 .662-.199 1.248-.597 1.758-.393.51-.92.867-1.582 1.072.791.182 1.423.542 1.898 1.081.475.539.712 1.198.712 1.977 0 1.032-.381 1.878-1.143 2.54z" fill="#929292"/></svg>