<svg width="295" height="30" fill="none" xmlns="http://www.w3.org/2000/svg"><path d="M265 16H12" stroke="#929292" stroke-width="1.3"/><circle cx="15" cy="15" r="14.5" fill="#582D7F" stroke="#582D7F"/><path d="M14.675 21v-9.914l-2.61 1.187v-1.68l3.418-1.652h.976V21h-1.784z" fill="#fff"/><circle cx="146" cy="15" r="14.5" fill="#fff" stroke="#929292"/><path d="M141.836 21v-.958l4.632-5.036c.387-.422.671-.744.853-.967.187-.229.36-.513.518-.852.164-.346.246-.689.246-1.029 0-.55-.216-1.031-.65-1.441-.434-.416-.967-.624-1.6-.624-.673 0-1.236.222-1.687.668-.445.44-.668 1.002-.668 1.687h-1.714c0-1.101.387-1.998 1.16-2.69.774-.69 1.749-1.036 2.927-1.036 1.131 0 2.068.328 2.812.984.75.65 1.125 1.45 1.125 2.4 0 .673-.149 1.265-.448 1.775-.299.51-.767 1.107-1.406 1.793l-3.524 3.814h5.8V21h-8.376z" fill="#929292"/><circle cx="280" cy="15" r="14.5" fill="#fff" stroke="#929292"/><path d="M283.464 20.227c-.761.662-1.778.993-3.05.993-1.271 0-2.276-.346-3.014-1.037-.738-.692-1.108-1.588-1.108-2.69h1.705c0 .674.22 1.237.66 1.688.439.445 1.031.668 1.775.668.768 0 1.368-.22 1.802-.66.439-.439.659-.987.659-1.643 0-.662-.237-1.198-.712-1.608-.469-.417-1.081-.625-1.837-.625h-1.406V14.03h1.406c.586 0 1.087-.187 1.503-.562a1.85 1.85 0 00.633-1.433c0-.55-.193-1.01-.58-1.38-.381-.375-.9-.562-1.556-.562-.639 0-1.148.187-1.529.562-.375.37-.563.835-.563 1.398h-1.714c0-.973.361-1.77 1.082-2.39.72-.628 1.646-.941 2.777-.941 1.101 0 2.007.293 2.716.879.709.58 1.063 1.312 1.063 2.197 0 .662-.199 1.248-.597 1.758-.393.51-.92.867-1.583 1.072.792.182 1.424.542 1.899 1.081.475.539.712 1.198.712 1.977 0 1.032-.381 1.878-1.143 2.54z" fill="#929292"/></svg>