<svg width="52" height="52" fill="none" xmlns="http://www.w3.org/2000/svg"><g clip-path="url(#clip0_144_747)" fill="#2D2D2D" stroke="#2D2D2D" stroke-width=".5"><path d="M26 1C12.215 1 1 12.215 1 26s11.215 25 25 25 25-11.215 25-25S39.785 1 26 1zm0 48.958C12.79 49.958 2.042 39.211 2.042 26 2.042 12.79 12.79 2.042 26 2.042 39.21 2.042 49.958 12.79 49.958 26c0 13.21-10.747 23.958-23.958 23.958z"/><path d="M26 6.208C15.087 6.208 6.21 15.087 6.21 26c0 10.913 8.878 19.792 19.791 19.792S45.792 36.913 45.792 26c0-10.913-8.879-19.792-19.792-19.792zm0 38.542C15.661 44.75 7.25 36.339 7.25 26S15.661 7.25 26 7.25c10.34 0 18.75 8.411 18.75 18.75S36.34 44.75 26 44.75z"/><path d="M28.085 14.741H21.16c-.01 0-.017-.005-.025-.005a.52.52 0 00-.521.521v9.965h-1.938a.52.52 0 000 1.041h1.938v2.205h-1.938a.52.52 0 000 1.041h1.938v7.234a.52.52 0 001.041 0v-7.234h9.399a.52.52 0 000-1.041h-9.399v-2.205h6.067c3.194 0 5.877-2.327 6.108-5.298 0 0 0 0 0 0a5.756 5.756 0 00-5.744-6.224zm4.705 6.144v0c-.189 2.432-2.415 4.336-5.07 4.336h-6.066v-9.438h6.431a4.714 4.714 0 014.705 5.102z"/></g><defs><clipPath id="clip0_144_747"><path fill="#fff" d="M0 0h52v52H0z"/></clipPath></defs></svg>