<svg width="52" height="52" fill="none" xmlns="http://www.w3.org/2000/svg"><path d="M34.594 25.219H28.2a2.34 2.34 0 00-1.42-1.419v-9.519a.78.78 0 10-1.562 0v9.52a2.338 2.338 0 102.98 2.98h6.395a.781.781 0 100-1.562zM26 26.78a.781.781 0 110-1.562.781.781 0 010 1.562zm14.397-15.093c-.014-.016-.019-.036-.034-.051-.015-.015-.035-.02-.051-.034a20.27 20.27 0 00-28.624 0c-.016.014-.036.019-.051.034-.015.015-.02.035-.034.051a20.27 20.27 0 000 28.624c.014.016.019.036.034.051.015.015.035.02.051.034a20.27 20.27 0 0028.624 0c.016-.014.036-.019.051-.034.015-.015.02-.035.034-.051a20.271 20.271 0 000-28.624zm-.619 26.985l-1.624-1.624a.78.78 0 00-1.105 1.105l1.624 1.624a18.65 18.65 0 01-11.892 4.932v-2.304a.78.78 0 10-1.562 0v2.304a18.65 18.65 0 01-11.892-4.932l1.624-1.624a.781.781 0 00-1.105-1.105l-1.624 1.624A18.65 18.65 0 017.29 26.781h2.304a.781.781 0 000-1.562H7.29a18.65 18.65 0 014.932-11.892l1.624 1.624a.78.78 0 001.105-1.105l-1.624-1.624A18.65 18.65 0 0125.219 7.29v2.304a.781.781 0 001.562 0V7.29a18.65 18.65 0 0111.892 4.932l-1.624 1.624a.782.782 0 101.105 1.105l1.624-1.624a18.65 18.65 0 014.932 11.892h-2.304a.781.781 0 100 1.562h2.304a18.65 18.65 0 01-4.932 11.892zM26 1a25 25 0 1025 25A25.029 25.029 0 0026 1zm0 48.438A23.438 23.438 0 1149.438 26 23.464 23.464 0 0126 49.438z" fill="#2D2D2D"/></svg>