<svg width="53" height="53" viewBox="0 0 53 53" fill="none" xmlns="http://www.w3.org/2000/svg">
<circle cx="26.5" cy="26.5" r="26" stroke="#093B54"/>
<path d="M28.3694 17.268C28.099 16.9107 27.6604 16.9107 27.3896 17.268C27.119 17.6251 27.119 18.2047 27.3896 18.562L32.6369 25.4924H18.695C18.3113 25.4924 18 25.9035 18 26.4104C18 26.9175 18.3113 27.3284 18.695 27.3284H32.6299L27.3827 34.2587C27.2525 34.4301 27.1793 34.6632 27.1793 34.9059C27.1793 35.1488 27.2525 35.3814 27.3827 35.553C27.5128 35.7264 27.6911 35.8224 27.8761 35.8193C28.0605 35.8181 28.2375 35.7227 28.3694 35.553L34.7982 27.0624C34.929 26.8894 35.0019 26.6545 35 26.4104C34.9987 26.1669 34.9264 25.934 34.7982 25.7589L28.3694 17.268Z" fill="#093B54"/>
</svg>
