<svg width="36" height="36" viewBox="0 0 36 36" fill="none" xmlns="http://www.w3.org/2000/svg">
<circle cx="18" cy="18" r="17.5" stroke="#093B54"/>
<path d="M19.2699 11.7289C19.0863 11.4862 18.7883 11.4862 18.6044 11.7289C18.4206 11.9715 18.4206 12.3651 18.6044 12.6079L22.1686 17.3153H12.6987C12.438 17.3153 12.2266 17.5946 12.2266 17.9388C12.2266 18.2833 12.438 18.5624 12.6987 18.5624H22.1639L18.5997 23.2698C18.5113 23.3862 18.4616 23.5445 18.4616 23.7094C18.4616 23.8744 18.5113 24.0324 18.5997 24.1489C18.6881 24.2667 18.8092 24.3319 18.9349 24.3298C19.0601 24.329 19.1803 24.2642 19.2699 24.1489L23.6366 18.3817C23.7255 18.2642 23.775 18.1046 23.7737 17.9388C23.7728 17.7734 23.7237 17.6153 23.6366 17.4963L19.2699 11.7289Z" fill="#093B54"/>
</svg>
