<svg width="53" height="53" viewBox="0 0 53 53" fill="none" xmlns="http://www.w3.org/2000/svg">
<circle r="26" transform="matrix(-1 0 0 1 26.5 26.5)" stroke="#093B54" stroke-opacity="0.5"/>
<path d="M24.6306 17.268C24.901 16.9107 25.3396 16.9107 25.6104 17.268C25.881 17.6251 25.881 18.2047 25.6104 18.562L20.3631 25.4924H34.305C34.6887 25.4924 35 25.9035 35 26.4104C35 26.9175 34.6887 27.3284 34.305 27.3284H20.3701L25.6173 34.2587C25.7475 34.4301 25.8207 34.6632 25.8207 34.9059C25.8207 35.1488 25.7475 35.3814 25.6173 35.553C25.4872 35.7264 25.3089 35.8224 25.1239 35.8193C24.9395 35.8181 24.7625 35.7227 24.6306 35.553L18.2018 27.0624C18.071 26.8894 17.9981 26.6545 18 26.4104C18.0013 26.1669 18.0736 25.934 18.2018 25.7589L24.6306 17.268Z" fill="#093B54" fill-opacity="0.5"/>
</svg>
