<svg width="36" height="36" viewBox="0 0 36 36" fill="none" xmlns="http://www.w3.org/2000/svg">
<circle r="17.5" transform="matrix(-1 0 0 1 18 18)" stroke="#093B54" stroke-opacity="0.5"/>
<path d="M16.7301 11.7289C16.9137 11.4862 17.2117 11.4862 17.3956 11.7289C17.5794 11.9715 17.5794 12.3651 17.3956 12.6079L13.8314 17.3153H23.3013C23.562 17.3153 23.7734 17.5946 23.7734 17.9388C23.7734 18.2833 23.562 18.5624 23.3013 18.5624H13.8361L17.4003 23.2698C17.4887 23.3862 17.5384 23.5445 17.5384 23.7094C17.5384 23.8744 17.4887 24.0324 17.4003 24.1489C17.3119 24.2667 17.1908 24.3319 17.0651 24.3298C16.9399 24.329 16.8197 24.2642 16.7301 24.1489L12.3634 18.3817C12.2745 18.2642 12.225 18.1046 12.2263 17.9388C12.2272 17.7734 12.2763 17.6153 12.3634 17.4963L16.7301 11.7289Z" fill="#093B54" fill-opacity="0.5"/>
</svg>
