<svg width="68" height="68" viewBox="0 0 68 68" fill="none" xmlns="http://www.w3.org/2000/svg">
<g filter="url(#filter0_d_2182_9)">
<rect x="3" y="3" width="60" height="60" rx="10" fill="white"/>
</g>
<path d="M32.6969 13C29.406 13 26.7314 15.6399 26.6511 18.9126C26.6496 18.9172 26.6526 18.9199 26.6511 18.9245C26.6496 18.9714 26.6363 19.0136 26.6363 19.0606C26.6363 19.0879 26.6481 19.1103 26.6511 19.1375C26.6541 19.1633 26.6466 19.1887 26.6511 19.2145L29.492 32.7118C27.889 32.789 26.6067 34.1046 26.6067 35.7243C26.6067 36.8379 27.2175 37.8042 28.1159 38.3314C27.9538 39.4269 27.0181 40.2727 25.8787 40.2727H22.8484C20.7605 40.2727 19.0605 41.9712 19.0605 44.0606V48.6061C19.0605 49.0242 19.3999 49.3636 19.8181 49.3636H20.5757V51.6364C20.5757 52.0545 20.9151 52.3939 21.3333 52.3939H44.0605C44.4787 52.3939 44.8181 52.0545 44.8181 51.6364V49.3636H45.5757C45.9939 49.3636 46.3333 49.0242 46.3333 48.6061V44.0606C46.3333 41.9712 44.6333 40.2727 42.5454 40.2727H39.5151C38.3666 40.2727 37.4235 39.4124 37.272 38.3048C38.1417 37.7715 38.7309 36.8197 38.7309 35.7273C38.7309 34.1242 37.4761 32.8222 35.8989 32.7177L38.7398 19.2145C38.7458 19.1872 38.7382 19.1633 38.7398 19.1375C38.7443 19.1103 38.7575 19.0879 38.7575 19.0606C38.7575 19.0136 38.7442 18.9714 38.7427 18.9245C38.7427 18.9199 38.7442 18.9172 38.7427 18.9126C38.6624 15.6399 35.9878 13 32.6969 13ZM32.6969 14.5152C35.1848 14.5152 37.2077 16.5255 37.2364 19.0073L34.3541 32.697H31.0397L28.1574 19.0073C28.1862 16.5255 30.209 14.5152 32.6969 14.5152ZM29.64 34.2121H30.4242H34.9696H35.7006C36.5354 34.2121 37.2157 34.8909 37.2157 35.7273C37.2157 36.5636 36.5354 37.2424 35.7006 37.2424H29.64C28.8051 37.2424 28.1248 36.5636 28.1248 35.7273C28.1248 34.8909 28.8051 34.2121 29.64 34.2121ZM35.8042 38.7457C35.9178 39.3124 36.1676 39.8273 36.5055 40.2727H28.8913C29.2261 39.8288 29.4745 39.3168 29.5897 38.7517C29.6063 38.7517 29.6233 38.7576 29.64 38.7576H35.7006C35.7354 38.7576 35.7693 38.7473 35.8042 38.7457ZM22.8484 41.7879H25.8787H39.5151H42.5454C43.7984 41.7879 44.8181 42.8076 44.8181 44.0606V47.8485H44.0605H21.3333H20.5757V44.0606C20.5757 42.8076 21.5954 41.7879 22.8484 41.7879ZM22.0908 49.3636H43.303V50.8788H22.0908V49.3636Z" fill="#582D7F"/>
<defs>
<filter id="filter0_d_2182_9" x="0" y="0" width="68" height="68" filterUnits="userSpaceOnUse" color-interpolation-filters="sRGB">
<feFlood flood-opacity="0" result="BackgroundImageFix"/>
<feColorMatrix in="SourceAlpha" type="matrix" values="0 0 0 0 0 0 0 0 0 0 0 0 0 0 0 0 0 0 127 0" result="hardAlpha"/>
<feOffset dx="1" dy="1"/>
<feGaussianBlur stdDeviation="2"/>
<feComposite in2="hardAlpha" operator="out"/>
<feColorMatrix type="matrix" values="0 0 0 0 0 0 0 0 0 0 0 0 0 0 0 0 0 0 0.2 0"/>
<feBlend mode="normal" in2="BackgroundImageFix" result="effect1_dropShadow_2182_9"/>
<feBlend mode="normal" in="SourceGraphic" in2="effect1_dropShadow_2182_9" result="shape"/>
</filter>
</defs>
</svg>
