<svg width="68" height="68" viewBox="0 0 68 68" fill="none" xmlns="http://www.w3.org/2000/svg">
<g filter="url(#filter0_d_2182_19)">
<rect x="3" y="3" width="60" height="60" rx="10" fill="white"/>
</g>
<g clip-path="url(#clip0_2182_19)">
<path d="M28.9126 20.1001C27.8459 21.1664 27.1194 22.525 26.825 24.0042C26.5305 25.4834 26.6813 27.0167 27.2584 28.4102C27.8354 29.8036 28.8127 30.9947 30.0667 31.8326C31.3207 32.6706 32.795 33.1179 34.3032 33.1179C35.8114 33.1179 37.2858 32.6706 38.5398 31.8326C39.7938 30.9947 40.7711 29.8036 41.3481 28.4102C41.9251 27.0167 42.0759 25.4834 41.7815 24.0042C41.487 22.525 40.7605 21.1664 39.6939 20.1001C38.2624 18.6739 36.324 17.873 34.3032 17.873C32.2825 17.873 30.3441 18.6739 28.9126 20.1001ZM38.8376 30.0251C37.9408 30.9219 36.7982 31.5326 35.5543 31.7801C34.3104 32.0275 33.0211 31.9005 31.8493 31.4151C30.6776 30.9298 29.6761 30.1079 28.9715 29.0533C28.2669 27.9988 27.8908 26.759 27.8908 25.4908C27.8908 24.2225 28.2669 22.9827 28.9715 21.9282C29.6761 20.8737 30.6776 20.0517 31.8493 19.5664C33.0211 19.081 34.3104 18.954 35.5543 19.2015C36.7982 19.4489 37.9408 20.0596 38.8376 20.9564C40.0387 22.1598 40.7132 23.7905 40.7132 25.4908C40.7132 27.191 40.0387 28.8217 38.8376 30.0251Z" fill="#582D7F"/>
<path d="M51.8752 38.4625L46.4002 33.3V16.7125C46.4002 16.5467 46.3343 16.3878 46.2171 16.2706C46.0999 16.1533 45.941 16.0875 45.7752 16.0875H42.1252V13.625C42.1252 13.4592 42.0593 13.3003 41.9421 13.1831C41.8249 13.0658 41.666 13 41.5002 13H13.8564C13.6907 13 13.5317 13.0658 13.4145 13.1831C13.2973 13.3003 13.2314 13.4592 13.2314 13.625V49.2875C13.2314 49.4533 13.2973 49.6122 13.4145 49.7294C13.5317 49.8466 13.6907 49.9125 13.8564 49.9125H17.5127V52.4125C17.5127 52.5783 17.5785 52.7372 17.6958 52.8544C17.813 52.9716 17.9719 53.0375 18.1377 53.0375H45.7877C45.9535 53.0375 46.1124 52.9716 46.2296 52.8544C46.3468 52.7372 46.4127 52.5783 46.4127 52.4125V41.475L47.6627 42.6813C47.939 42.9585 48.2672 43.1785 48.6286 43.3286C48.9901 43.4788 49.3776 43.5561 49.7689 43.5562C50.5327 43.5572 51.2664 43.2588 51.8127 42.725C51.9189 42.62 52.0171 42.5072 52.1064 42.3875C52.5585 41.8198 52.7849 41.1051 52.7422 40.3807C52.6995 39.6563 52.3907 38.9732 51.8752 38.4625ZM42.1252 18.625V17.3187H45.1814V32.1437L44.9752 31.95C44.86 31.8446 44.7095 31.7861 44.5533 31.7861C44.3972 31.7861 44.2467 31.8446 44.1314 31.95L43.9564 32.1187L42.9314 31.125C44.1536 29.2542 44.733 27.0361 44.5819 24.8066C44.4308 22.5771 43.5574 20.4575 42.0939 18.7687C42.1091 18.722 42.1196 18.6738 42.1252 18.625ZM43.1002 33L41.8064 34.2938L40.9064 33.3938C41.1377 33.2 41.3689 33 41.5877 32.7687C41.8064 32.5375 42.0064 32.3188 42.2127 32.0875L43.1002 33ZM43.3939 25.5C43.3908 27.6003 42.6599 29.6345 41.3255 31.2564C39.9911 32.8782 38.1357 33.9874 36.0754 34.3951C34.0151 34.8028 31.8772 34.4837 30.0257 33.4922C28.1742 32.5008 26.7236 30.8982 25.9209 28.9574C25.1182 27.0166 25.013 24.8575 25.6233 22.8479C26.2335 20.8382 27.5215 19.1023 29.2679 17.9355C31.0142 16.7688 33.111 16.2434 35.2012 16.4489C37.2914 16.6544 39.2457 17.578 40.7314 19.0625C41.5785 19.9064 42.2499 20.9099 42.7069 22.0148C43.1639 23.1197 43.3974 24.3043 43.3939 25.5ZM14.4627 48.6813V14.2125H40.9127V17.6C38.9376 15.9492 36.4159 15.0978 33.8444 15.2135C31.2729 15.3291 28.8378 16.4035 27.0189 18.225C25.2398 20.0304 24.1888 22.4284 24.0671 24.9603C23.9455 27.4921 24.7616 29.9799 26.3595 31.9476C27.9573 33.9153 30.2246 35.2247 32.7275 35.6253C35.2303 36.0258 37.793 35.4895 39.9252 34.1188L40.9502 35.1437L40.7752 35.3125C40.6597 35.4289 40.5946 35.586 40.5939 35.75C40.5959 35.8321 40.614 35.913 40.6473 35.988C40.6805 36.0631 40.7282 36.1309 40.7877 36.1875L40.9127 36.3V48.6813H14.4627ZM45.1814 51.8063H18.7252V49.875H41.5189C41.6847 49.875 41.8437 49.8092 41.9609 49.6919C42.0781 49.5747 42.1439 49.4158 42.1439 49.25V37.375L45.2002 40.2625L45.1814 51.8063ZM51.1689 41.65C51.0975 41.7403 51.0202 41.8259 50.9377 41.9062C50.6043 42.214 50.1634 42.3786 49.7099 42.3646C49.2563 42.3506 48.8264 42.159 48.5127 41.8313L42.0752 35.75L44.5752 33.25L45.3627 33.9875L51.0314 39.3375C51.3285 39.6382 51.5062 40.0366 51.5314 40.4585C51.5567 40.8804 51.4279 41.2972 51.1689 41.6313V41.65Z" fill="#582D7F"/>
<path d="M35.9686 37.0688H19.3998C19.2647 37.1027 19.1447 37.1808 19.059 37.2906C18.9733 37.4004 18.9268 37.5358 18.9268 37.6751C18.9268 37.8144 18.9733 37.9497 19.059 38.0596C19.1447 38.1694 19.2647 38.2475 19.3998 38.2813H35.9686C36.1037 38.2475 36.2237 38.1694 36.3094 38.0596C36.3951 37.9497 36.4416 37.8144 36.4416 37.6751C36.4416 37.5358 36.3951 37.4004 36.3094 37.2906C36.2237 37.1808 36.1037 37.1027 35.9686 37.0688ZM35.9686 40.6688H19.3998C19.2647 40.7027 19.1447 40.7808 19.059 40.8906C18.9733 41.0005 18.9268 41.1358 18.9268 41.2751C18.9268 41.4144 18.9733 41.5497 19.059 41.6596C19.1447 41.7694 19.2647 41.8475 19.3998 41.8813H35.9686C36.1037 41.8475 36.2237 41.7694 36.3094 41.6596C36.3951 41.5497 36.4416 41.4144 36.4416 41.2751C36.4416 41.1358 36.3951 41.0005 36.3094 40.8906C36.2237 40.7808 36.1037 40.7027 35.9686 40.6688ZM35.9686 44.2501H19.3998C19.2647 44.284 19.1447 44.362 19.059 44.4719C18.9733 44.5817 18.9268 44.717 18.9268 44.8563C18.9268 44.9957 18.9733 45.131 19.059 45.2408C19.1447 45.3507 19.2647 45.4287 19.3998 45.4626H35.9686C36.1037 45.4287 36.2237 45.3507 36.3094 45.2408C36.3951 45.131 36.4416 44.9957 36.4416 44.8563C36.4416 44.717 36.3951 44.5817 36.3094 44.4719C36.2237 44.362 36.1037 44.284 35.9686 44.2501Z" fill="#582D7F"/>
</g>
<defs>
<filter id="filter0_d_2182_19" x="0" y="0" width="68" height="68" filterUnits="userSpaceOnUse" color-interpolation-filters="sRGB">
<feFlood flood-opacity="0" result="BackgroundImageFix"/>
<feColorMatrix in="SourceAlpha" type="matrix" values="0 0 0 0 0 0 0 0 0 0 0 0 0 0 0 0 0 0 127 0" result="hardAlpha"/>
<feOffset dx="1" dy="1"/>
<feGaussianBlur stdDeviation="2"/>
<feComposite in2="hardAlpha" operator="out"/>
<feColorMatrix type="matrix" values="0 0 0 0 0 0 0 0 0 0 0 0 0 0 0 0 0 0 0.2 0"/>
<feBlend mode="normal" in2="BackgroundImageFix" result="effect1_dropShadow_2182_19"/>
<feBlend mode="normal" in="SourceGraphic" in2="effect1_dropShadow_2182_19" result="shape"/>
</filter>
<clipPath id="clip0_2182_19">
<rect width="40" height="40" fill="white" transform="translate(13 13)"/>
</clipPath>
</defs>
</svg>
