<svg width="68" height="68" viewBox="0 0 68 68" fill="none" xmlns="http://www.w3.org/2000/svg">
<g filter="url(#filter0_d_2182_5)">
<rect x="3" y="3" width="60" height="60" rx="10" fill="white"/>
</g>
<g clip-path="url(#clip0_2182_5)">
<path d="M15.4196 27.3813H19.8649C20.0203 27.3813 20.1693 27.3196 20.2792 27.2097C20.3891 27.0998 20.4508 26.9508 20.4508 26.7954C20.4508 26.64 20.3891 26.491 20.2792 26.3811C20.1693 26.2712 20.0203 26.2095 19.8649 26.2095H15.4196C15.2642 26.2095 15.1152 26.2712 15.0053 26.3811C14.8954 26.491 14.8336 26.64 14.8336 26.7954C14.8336 26.9508 14.8954 27.0998 15.0053 27.2097C15.1152 27.3196 15.2642 27.3813 15.4196 27.3813ZM14.2477 29.7251H19.8649C20.0203 29.7251 20.1693 29.6634 20.2792 29.5535C20.3891 29.4436 20.4508 29.2945 20.4508 29.1391C20.4508 28.9837 20.3891 28.8347 20.2792 28.7248C20.1693 28.6149 20.0203 28.5532 19.8649 28.5532H14.2477C14.0923 28.5532 13.9433 28.6149 13.8334 28.7248C13.7235 28.8347 13.6618 28.9837 13.6618 29.1391C13.6618 29.2945 13.7235 29.4436 13.8334 29.5535C13.9433 29.6634 14.0923 29.7251 14.2477 29.7251ZM16.5915 25.0376H19.8649C20.0203 25.0376 20.1693 24.9759 20.2792 24.866C20.3891 24.7561 20.4508 24.607 20.4508 24.4516C20.4508 24.2962 20.3891 24.1472 20.2792 24.0373C20.1693 23.9274 20.0203 23.8657 19.8649 23.8657H16.5915C16.4361 23.8657 16.287 23.9274 16.1771 24.0373C16.0673 24.1472 16.0055 24.2962 16.0055 24.4516C16.0055 24.607 16.0673 24.7561 16.1771 24.866C16.287 24.9759 16.4361 25.0376 16.5915 25.0376ZM52.4141 46.5156H50.8928C51.6236 45.8568 52.1105 44.9704 52.2744 44.0001C52.4631 42.8812 52.2145 41.7325 51.58 40.7917L51.9147 40.5925C51.9809 40.5532 52.0386 40.5012 52.0846 40.4396C52.1307 40.3779 52.1641 40.3078 52.183 40.2332C52.202 40.1586 52.206 40.0811 52.195 40.0049C52.1839 39.9288 52.158 39.8555 52.1187 39.7894C51.5825 38.8898 50.791 38.1699 49.8447 37.7213C48.8984 37.2726 47.8401 37.1154 46.8042 37.2696C46.305 36.081 45.7912 34.3878 45.2935 32.7466C45.0031 31.7891 44.7052 30.807 44.4071 29.9143H44.7252C44.8021 29.9143 44.8783 29.8992 44.9494 29.8697C45.0205 29.8403 45.0851 29.7971 45.1395 29.7427C45.1939 29.6883 45.2371 29.6237 45.2665 29.5526C45.2959 29.4815 45.3111 29.4053 45.3111 29.3284V25.8837C45.3111 25.8068 45.2959 25.7306 45.2665 25.6595C45.2371 25.5884 45.1939 25.5238 45.1395 25.4694C45.0851 25.415 45.0205 25.3718 44.9494 25.3424C44.8783 25.3129 44.8021 25.2978 44.7252 25.2978H42.3529C41.8429 25.2985 41.3474 25.4677 40.9436 25.7792C40.5398 26.0907 40.2503 26.527 40.1202 27.0201H37.8782C37.7228 27.0201 37.5738 27.0819 37.4639 27.1917C37.354 27.3016 37.2923 27.4507 37.2923 27.6061C37.2923 27.7615 37.354 27.9105 37.4639 28.0204C37.5738 28.1303 37.7228 28.192 37.8782 28.192H40.1202C40.2071 28.5218 40.3661 28.8282 40.5858 29.089C40.5909 29.1234 40.5991 29.1573 40.6102 29.1903C40.9366 30.1455 41.5113 32.2914 41.5526 32.4862C42.1935 35.5132 42.2832 39.2699 39.0707 39.9774C38.3689 40.1281 37.6398 40.0902 36.9574 39.8675C36.2751 39.6448 35.6639 39.2453 35.1862 38.7096C33.9775 37.3256 33.8972 35.1956 34.9905 33.5286C35.2922 33.3364 35.5234 33.0515 35.6493 32.7166C35.7753 32.3817 35.7892 32.0151 35.6889 31.6716C35.5886 31.3282 35.3796 31.0266 35.0933 30.8121C34.807 30.5976 34.4588 30.4819 34.101 30.4822H33.6008C33.6106 30.4175 33.6159 30.3522 33.6164 30.2867V28.0582C34.4346 27.9843 35.2208 27.7051 35.9025 27.2466C36.5841 26.7881 37.139 26.1649 37.5158 25.435C37.8926 24.705 38.0792 23.8917 38.0582 23.0705C38.0372 22.2493 37.8093 21.4466 37.3957 20.7368C36.9821 20.027 36.396 19.4331 35.6919 19.01C34.9877 18.5869 34.1882 18.3482 33.3673 18.3162C32.5465 18.2842 31.7308 18.4598 30.9958 18.8268C30.2608 19.1937 29.6303 19.7402 29.1626 20.4156H22.9899C22.6274 20.416 22.2799 20.5602 22.0236 20.8165C21.7673 21.0728 21.6231 21.4203 21.6227 21.7828V30.2867C21.6231 30.6492 21.7673 30.9967 22.0236 31.253C22.2799 31.5093 22.6274 31.6535 22.9899 31.6539H23.9024C23.8101 31.9554 23.8062 32.2771 23.8914 32.5808C23.9765 32.8844 24.1471 33.1572 24.3827 33.3667C24.1804 33.4609 23.9824 33.5626 23.7903 33.6736C21.7825 34.8339 20.0837 37.0939 19.4625 39.4312C19.0756 40.8867 19.1616 42.209 19.7027 43.1602C19.7035 43.1618 19.7044 43.1633 19.7053 43.1649C19.7095 43.1723 19.7131 43.1802 19.7174 43.1875C19.7194 43.1909 19.7219 43.1939 19.724 43.1972C19.7332 43.2124 19.7431 43.2272 19.7538 43.2414C19.7569 43.2457 19.7597 43.2502 19.763 43.2543C19.7768 43.2719 19.7917 43.2886 19.8074 43.3045C19.8118 43.309 19.8165 43.3131 19.821 43.3174C19.8337 43.3295 19.847 43.341 19.8608 43.352C19.8656 43.3557 19.8703 43.3595 19.8752 43.3631C19.8928 43.3763 19.9111 43.3885 19.9301 43.3996L19.9322 43.401C19.9528 43.4127 19.9741 43.4232 19.996 43.4323C20.0005 43.4342 20.0051 43.4357 20.0096 43.4375C20.0265 43.4441 20.0438 43.45 20.0615 43.4552C20.0682 43.4571 20.0749 43.4589 20.0817 43.4606C20.088 43.4622 20.094 43.4643 20.1004 43.4656C20.1114 43.468 20.1224 43.4692 20.1334 43.471C20.1395 43.4719 20.1456 43.4732 20.1518 43.4739C20.176 43.4771 20.2003 43.4788 20.2246 43.479C20.226 43.479 20.2273 43.4786 20.2287 43.4786L20.2314 43.4786L22.3087 43.4516C22.3376 44.0343 22.4824 44.6054 22.7346 45.1315C22.9868 45.6575 23.3413 46.1281 23.7774 46.5156H13.5859C13.4305 46.5156 13.2815 46.5774 13.1716 46.6872C13.0617 46.7971 13 46.9462 13 47.1016C13 47.257 13.0617 47.406 13.1716 47.5159C13.2815 47.6258 13.4305 47.6875 13.5859 47.6875H52.4141C52.5695 47.6875 52.7185 47.6258 52.8284 47.5159C52.9383 47.406 53 47.257 53 47.1016C53 46.9462 52.9383 46.7971 52.8284 46.6872C52.7185 46.5774 52.5695 46.5156 52.4141 46.5156ZM47.5813 38.3861C48.1934 38.3856 48.7979 38.5218 49.3507 38.7848C49.9034 39.0478 50.3904 39.4311 50.776 39.9064L50.4951 40.0736C50.4281 40.0983 50.3661 40.1352 50.3124 40.1823L43.5686 44.1953C43.192 43.2845 43.1556 42.2686 43.466 41.3332C43.7763 40.3977 44.4128 39.6051 45.2591 39.1001L45.4915 38.9618C46.1233 38.5847 46.8455 38.3858 47.5813 38.3861ZM48.8086 43.406C48.7744 43.606 48.6724 43.788 48.5197 43.9216C48.367 44.0552 48.173 44.1321 47.9703 44.1395C47.7676 44.1469 47.5685 44.0843 47.4065 43.9622C47.2445 43.8401 47.1295 43.6659 47.0808 43.469L48.5339 42.6043C48.6432 42.7043 48.7256 42.83 48.7736 42.9701C48.8216 43.1102 48.8337 43.2601 48.8086 43.406H48.8086ZM41.2165 27.6061C41.2168 27.3048 41.3367 27.0159 41.5497 26.8029C41.7627 26.5898 42.0516 26.47 42.3529 26.4697H44.1392V28.7425H42.3529C42.0516 28.7421 41.7627 28.6223 41.5497 28.4092C41.3367 28.1962 41.2168 27.9073 41.2165 27.6061ZM34.101 31.6541C34.2284 31.654 34.3506 31.7044 34.441 31.7941C34.5313 31.8839 34.5825 32.0058 34.5833 32.1332C34.5841 32.2605 34.5345 32.383 34.4452 32.4739C34.356 32.5648 34.2344 32.6167 34.107 32.6182H28.5318C28.1677 32.5975 27.8028 32.5976 27.4388 32.6185H25.4844C25.3565 32.6185 25.2338 32.5677 25.1434 32.4773C25.0529 32.3869 25.0021 32.2642 25.0021 32.1363C25.0021 32.0084 25.0529 31.8857 25.1434 31.7953C25.2338 31.7049 25.3565 31.6541 25.4844 31.6541H34.101ZM33.1736 19.4844C33.9077 19.4843 34.6253 19.7019 35.2357 20.1096C35.8461 20.5174 36.3219 21.097 36.6029 21.7752C36.8839 22.4534 36.9575 23.1996 36.8143 23.9196C36.6712 24.6396 36.3177 25.301 35.7987 25.8201C35.2797 26.3392 34.6183 26.6928 33.8984 26.836C33.1784 26.9793 32.4321 26.9058 31.7539 26.6249C31.0757 26.344 30.496 25.8683 30.0881 25.2579C29.6803 24.6476 29.4626 23.93 29.4626 23.1959C29.4636 22.2119 29.8549 21.2686 30.5506 20.5728C31.2463 19.877 32.1896 19.4856 33.1736 19.4844ZM22.9899 30.482C22.9381 30.482 22.8884 30.4614 22.8518 30.4248C22.8152 30.3881 22.7946 30.3385 22.7945 30.2867V21.7828C22.7946 21.731 22.8152 21.6814 22.8518 21.6448C22.8884 21.6082 22.9381 21.5876 22.9899 21.5875H28.5641C28.3273 22.2651 28.2428 22.9865 28.3166 23.7005C28.3905 24.4144 28.6209 25.1033 28.9915 25.718C29.3621 26.3327 29.8636 26.8581 30.4605 27.2568C31.0573 27.6555 31.7348 27.9177 32.4445 28.0246V30.2867C32.4445 30.3385 32.4239 30.3881 32.3873 30.4248C32.3507 30.4614 32.301 30.482 32.2492 30.482H22.9899ZM20.595 39.7323C21.1403 37.6805 22.6247 35.7006 24.3766 34.6882C25.3246 34.153 26.3841 33.8456 27.4713 33.7904H33.5235C32.6908 35.7232 32.9652 37.9481 34.3036 39.4805C34.9205 40.1732 35.7101 40.6901 36.5917 40.9784C37.4734 41.2667 38.4158 41.3162 39.3228 41.1218C42.5613 40.4086 43.7603 37.2556 42.699 32.2436C42.6591 32.055 42.353 30.9038 42.0565 29.8946C42.1548 29.9075 42.2538 29.9141 42.3529 29.9143H43.1698C43.5037 30.883 43.8428 32.001 44.172 33.0867C44.6586 34.6913 45.1605 36.345 45.6633 37.5773C45.3966 37.6822 45.1387 37.8084 44.8922 37.9548L44.6599 38.093C44.0638 38.4456 43.5434 38.9128 43.1291 39.4678C42.7147 40.0228 42.4146 40.6545 42.246 41.3263C42.1883 41.5551 42.1457 41.7876 42.1187 42.022L33.1439 42.1387C32.552 39.4192 30.6532 37.2404 28.2964 36.6365C26.6913 36.2253 24.8678 36.5477 23.2933 37.521C22.0745 38.2835 21.0831 39.3596 20.4226 40.6366C20.4574 40.3313 20.5151 40.029 20.595 39.7323ZM20.9916 42.2967C21.5062 40.7151 22.5424 39.3628 23.9095 38.5177C25.2145 37.7111 26.7075 37.4391 28.0056 37.7717C29.8717 38.2498 31.3943 39.9709 31.9445 42.1543L20.9916 42.2967ZM27.5724 43.3831C27.5375 43.5864 27.4325 43.7711 27.2757 43.905C27.1189 44.039 26.9201 44.1138 26.7139 44.1165C26.5076 44.1192 26.307 44.0495 26.1467 43.9197C25.9864 43.7899 25.8767 43.608 25.8366 43.4057L27.5724 43.3831ZM26.7027 46.4609C25.8822 46.4599 25.0928 46.1467 24.4947 45.585C23.8966 45.0233 23.5346 44.2551 23.4821 43.4363L24.6565 43.421C24.7036 43.936 24.9432 44.4143 25.3275 44.7604C25.7117 45.1065 26.2123 45.295 26.7294 45.2882C27.2465 45.2815 27.742 45.0801 28.1171 44.7241C28.4922 44.3681 28.7193 43.8838 28.7531 43.3678L29.9274 43.3525C29.8957 44.1869 29.5422 44.9766 28.9411 45.5561C28.3399 46.1356 27.5377 46.4599 26.7027 46.4609ZM29.6281 46.5156C30.0784 46.1152 30.4415 45.6264 30.6947 45.0796C30.9478 44.5328 31.0857 43.9397 31.0997 43.3372L32.6236 43.3174C32.6502 43.3189 32.6769 43.3186 32.7035 43.3164L42.1132 43.194C42.195 43.9454 42.4378 44.6704 42.8253 45.3194C42.8646 45.3855 42.9166 45.4433 42.9783 45.4893C43.0399 45.5353 43.1101 45.5688 43.1846 45.5877C43.2592 45.6067 43.3368 45.6107 43.4129 45.5997C43.4891 45.5886 43.5623 45.5627 43.6284 45.5233L44.0328 45.2827C44.2734 45.7468 44.5949 46.1643 44.982 46.5156H29.6281ZM49.8019 45.8919C49.4207 46.1615 48.9856 46.3452 48.5266 46.4303C48.0675 46.5155 47.5955 46.5 47.143 46.385C46.6905 46.27 46.2683 46.0582 45.9056 45.7642C45.5429 45.4702 45.2484 45.101 45.0422 44.6821L46.0557 44.079C46.1723 44.3461 46.3443 44.5855 46.5605 44.781C46.7767 44.9766 47.0319 45.1239 47.3094 45.2132C47.5869 45.3025 47.8802 45.3317 48.1698 45.2989C48.4595 45.2662 48.7388 45.1721 48.9893 45.0231C49.2398 44.874 49.4557 44.6733 49.6227 44.4344C49.7897 44.1955 49.9039 43.9238 49.9578 43.6373C50.0116 43.3508 50.0039 43.0562 49.9352 42.7729C49.8664 42.4897 49.7381 42.2243 49.5589 41.9944L50.5717 41.3917C50.8168 41.7377 50.9914 42.1286 51.0853 42.542C51.1793 42.9555 51.1909 43.3834 51.1194 43.8014C51.0479 44.2193 50.8948 44.619 50.6687 44.9777C50.4426 45.3365 50.1481 45.6471 49.8019 45.8919V45.8919ZM33.1736 23.7818H34.8633C35.0187 23.7818 35.1677 23.7201 35.2776 23.6102C35.3875 23.5003 35.4492 23.3513 35.4492 23.1959C35.4492 23.0405 35.3875 22.8915 35.2776 22.7816C35.1677 22.6717 35.0187 22.6099 34.8633 22.6099H33.7595V20.9806C33.7595 20.8252 33.6978 20.6762 33.5879 20.5663C33.478 20.4564 33.329 20.3947 33.1736 20.3947C33.0182 20.3947 32.8691 20.4564 32.7592 20.5663C32.6494 20.6762 32.5876 20.8252 32.5876 20.9806V23.1959C32.5876 23.3513 32.6494 23.5003 32.7593 23.6102C32.8691 23.7201 33.0182 23.7818 33.1736 23.7818Z" fill="#582D7F"/>
</g>
<defs>
<filter id="filter0_d_2182_5" x="0" y="0" width="68" height="68" filterUnits="userSpaceOnUse" color-interpolation-filters="sRGB">
<feFlood flood-opacity="0" result="BackgroundImageFix"/>
<feColorMatrix in="SourceAlpha" type="matrix" values="0 0 0 0 0 0 0 0 0 0 0 0 0 0 0 0 0 0 127 0" result="hardAlpha"/>
<feOffset dx="1" dy="1"/>
<feGaussianBlur stdDeviation="2"/>
<feComposite in2="hardAlpha" operator="out"/>
<feColorMatrix type="matrix" values="0 0 0 0 0 0 0 0 0 0 0 0 0 0 0 0 0 0 0.2 0"/>
<feBlend mode="normal" in2="BackgroundImageFix" result="effect1_dropShadow_2182_5"/>
<feBlend mode="normal" in="SourceGraphic" in2="effect1_dropShadow_2182_5" result="shape"/>
</filter>
<clipPath id="clip0_2182_5">
<rect width="40" height="40" fill="white" transform="translate(13 13)"/>
</clipPath>
</defs>
</svg>
