<svg width="68" height="68" viewBox="0 0 68 68" fill="none" xmlns="http://www.w3.org/2000/svg">
<g filter="url(#filter0_d_2182_8)">
<rect x="3" y="3" width="60" height="60" rx="10" fill="white"/>
</g>
<g clip-path="url(#clip0_2182_8)">
<path d="M50.0287 42.5966C49.6342 42.5966 49.3144 42.9164 49.3144 43.3109V45.9252C49.3144 47.1086 48.355 48.068 47.1716 48.068H18.0001C16.8167 48.068 15.8573 47.1086 15.8573 45.9252V23.068C15.8573 21.8845 16.8167 20.9252 18.0001 20.9252H25.0144C25.4089 20.9252 25.7287 20.6054 25.7287 20.2109C25.7287 19.8164 25.4089 19.4966 25.0144 19.4966H18.0001C16.0277 19.4966 14.4287 21.0956 14.4287 23.068V45.9252C14.4287 47.8976 16.0277 49.4966 18.0001 49.4966H47.1716C49.1408 49.4888 50.7352 47.8943 50.743 45.9252V43.3109C50.743 42.9164 50.4232 42.5966 50.0287 42.5966Z" fill="#582D7F"/>
<path d="M50.8574 30.6539H50.7431V23.0682C50.7353 21.099 49.1409 19.5046 47.1717 19.4968C46.7772 19.4968 46.4574 19.8166 46.4574 20.2111C46.4574 20.6056 46.7772 20.9254 47.1717 20.9254C48.3552 20.9254 49.3146 21.8848 49.3146 23.0682V23.4682H48.5146L44.2289 19.1825L41.1146 16.0682C40.9804 15.933 40.7979 15.8569 40.6074 15.8569C40.417 15.8569 40.2344 15.933 40.1003 16.0682L36.3289 19.8396L32.5431 16.0682C32.2605 15.7942 31.8114 15.7942 31.5289 16.0682L24.1289 23.4682H21.5717C21.1772 23.4682 20.8574 23.788 20.8574 24.1825C20.8574 24.577 21.1772 24.8968 21.5717 24.8968H49.3146V30.6111H45.1431C42.3817 30.6111 40.1431 32.8497 40.1431 35.6111V36.1539C40.1431 38.9154 42.3817 41.1539 45.1431 41.1539H50.8574C52.0409 41.1539 53.0003 40.1945 53.0003 39.0111V32.7968C53.0003 31.6133 52.0409 30.6539 50.8574 30.6539ZM40.6146 17.5825L42.686 19.6539C41.4333 20.4956 39.7958 20.4956 38.5431 19.6539L40.6146 17.5825ZM37.5289 20.6682C39.3509 22.059 41.8782 22.059 43.7003 20.6682L46.5574 23.5254H39.9431L37.3289 20.8539L37.5289 20.6682ZM29.2431 23.5254L33.5289 19.2396L34.5289 20.2396L31.2431 23.4682L29.2431 23.5254ZM35.6003 21.1968L38.0003 23.4682H33.2574L35.6003 21.1968ZM32.0431 17.5825L32.5717 18.1111L27.2146 23.4682H26.1574L32.0431 17.5825ZM51.5717 39.0111C51.5717 39.4056 51.2519 39.7254 50.8574 39.7254H45.1431C44.1959 39.7254 43.2875 39.3491 42.6178 38.6793C41.948 38.0095 41.5717 37.1011 41.5717 36.1539V35.6111C41.5717 33.6386 43.1707 32.0396 45.1431 32.0396H50.8574C51.2519 32.0396 51.5717 32.3594 51.5717 32.7539V39.0111Z" fill="#582D7F"/>
<path d="M44.5428 35.8571C45.3318 35.8571 45.9714 35.2176 45.9714 34.4286C45.9714 33.6396 45.3318 33 44.5428 33C43.7539 33 43.1143 33.6396 43.1143 34.4286C43.1143 35.2176 43.7539 35.8571 44.5428 35.8571Z" fill="#582D7F"/>
</g>
<defs>
<filter id="filter0_d_2182_8" x="0" y="0" width="68" height="68" filterUnits="userSpaceOnUse" color-interpolation-filters="sRGB">
<feFlood flood-opacity="0" result="BackgroundImageFix"/>
<feColorMatrix in="SourceAlpha" type="matrix" values="0 0 0 0 0 0 0 0 0 0 0 0 0 0 0 0 0 0 127 0" result="hardAlpha"/>
<feOffset dx="1" dy="1"/>
<feGaussianBlur stdDeviation="2"/>
<feComposite in2="hardAlpha" operator="out"/>
<feColorMatrix type="matrix" values="0 0 0 0 0 0 0 0 0 0 0 0 0 0 0 0 0 0 0.2 0"/>
<feBlend mode="normal" in2="BackgroundImageFix" result="effect1_dropShadow_2182_8"/>
<feBlend mode="normal" in="SourceGraphic" in2="effect1_dropShadow_2182_8" result="shape"/>
</filter>
<clipPath id="clip0_2182_8">
<rect width="40" height="40" fill="white" transform="translate(13 13)"/>
</clipPath>
</defs>
</svg>
