<svg width="68" height="68" viewBox="0 0 68 68" fill="none" xmlns="http://www.w3.org/2000/svg">
<g filter="url(#filter0_d_2181_2)">
<rect x="3" y="3" width="60" height="60" rx="10" fill="white"/>
</g>
<g clip-path="url(#clip0_2181_2)">
<path d="M27.7915 42.3749C26.2637 42.3749 25.0137 41.1249 25.0137 39.5971C25.0137 38.0693 26.2637 36.8193 27.7915 36.8193C29.3192 36.8193 30.5692 38.0693 30.5692 39.5971C30.5692 41.1249 29.3192 42.3749 27.7915 42.3749ZM27.7915 37.5138C26.6109 37.5138 25.7081 38.4166 25.7081 39.5971C25.7081 40.7777 26.6109 41.6804 27.7915 41.6804C28.972 41.6804 29.8748 40.7777 29.8748 39.5971C29.8748 38.4166 28.972 37.5138 27.7915 37.5138Z" fill="#582D7F" stroke="#582D7F" stroke-width="0.3"/>
<path d="M28.0001 38.2084L28.2778 38.8334C28.2778 38.9028 28.3473 38.9028 28.4167 38.9723L29.1112 39.0417C29.2501 39.0417 29.3195 39.2501 29.2501 39.3889L28.7639 39.8751C28.6945 39.9445 28.6945 40.0139 28.6945 40.0139L28.8334 40.7084C28.8334 40.8473 28.6945 40.9862 28.5556 40.9167L27.9306 40.5695H27.7223L27.0973 40.9167C26.9584 40.9862 26.8195 40.8473 26.8195 40.7084L26.9584 40.0139C26.9584 39.9445 26.9584 39.8751 26.8889 39.8751L26.4028 39.3889C26.2639 39.2501 26.3334 39.1112 26.5417 39.0417L27.2362 38.9723C27.3056 38.9723 27.3751 38.9028 27.3751 38.8334L27.6528 38.2084C27.7223 38.0695 27.8612 38.0695 28.0001 38.2084ZM44.4584 23.2778H27.0973C26.8889 23.2778 26.7501 23.1389 26.7501 22.9306C26.7501 22.7223 26.8889 22.5834 27.0973 22.5834H44.4584C44.6667 22.5834 44.8056 22.7223 44.8056 22.9306C44.8056 23.1389 44.6667 23.2778 44.4584 23.2778ZM44.4584 25.3612H23.6251C23.4167 25.3612 23.2778 25.2223 23.2778 25.0139C23.2778 24.8056 23.4167 24.6667 23.6251 24.6667H44.4584C44.6667 24.6667 44.8056 24.8056 44.8056 25.0139C44.8056 25.2223 44.6667 25.3612 44.4584 25.3612ZM44.4584 27.4445H23.6251C23.4167 27.4445 23.2778 27.3056 23.2778 27.0973C23.2778 26.8889 23.4167 26.7501 23.6251 26.7501H44.4584C44.6667 26.7501 44.8056 26.8889 44.8056 27.0973C44.8056 27.3056 44.6667 27.4445 44.4584 27.4445ZM44.4584 29.5278H23.6251C23.4167 29.5278 23.2778 29.3889 23.2778 29.1806C23.2778 28.9723 23.4167 28.8334 23.6251 28.8334H44.4584C44.6667 28.8334 44.8056 28.9723 44.8056 29.1806C44.8056 29.3889 44.6667 29.5278 44.4584 29.5278ZM44.4584 31.6112H23.6251C23.4167 31.6112 23.2778 31.4723 23.2778 31.2639C23.2778 31.0556 23.4167 30.9167 23.6251 30.9167H44.4584C44.6667 30.9167 44.8056 31.0556 44.8056 31.2639C44.8056 31.4723 44.6667 31.6112 44.4584 31.6112ZM38.9028 33.6945H23.6251C23.4167 33.6945 23.2778 33.5556 23.2778 33.3473C23.2778 33.1389 23.4167 33.0001 23.6251 33.0001H38.9028C39.1112 33.0001 39.2501 33.1389 39.2501 33.3473C39.2501 33.5556 39.1112 33.6945 38.9028 33.6945ZM44.4584 35.7778H38.2084C38.0001 35.7778 37.8612 35.6389 37.8612 35.4306C37.8612 35.2223 38.0001 35.0834 38.2084 35.0834H44.4584C44.6667 35.0834 44.8056 35.2223 44.8056 35.4306C44.8056 35.6389 44.6667 35.7778 44.4584 35.7778ZM44.4584 37.8612H35.4306C35.2223 37.8612 35.0834 37.7223 35.0834 37.5139C35.0834 37.3056 35.2223 37.1667 35.4306 37.1667H44.4584C44.6667 37.1667 44.8056 37.3056 44.8056 37.5139C44.8056 37.7223 44.6667 37.8612 44.4584 37.8612ZM44.4584 39.9445H35.4306C35.2223 39.9445 35.0834 39.8056 35.0834 39.5973C35.0834 39.3889 35.2223 39.2501 35.4306 39.2501H44.4584C44.6667 39.2501 44.8056 39.3889 44.8056 39.5973C44.8056 39.8056 44.6667 39.9445 44.4584 39.9445ZM44.4584 44.1112H35.4306C35.2223 44.1112 35.0834 43.9723 35.0834 43.7639C35.0834 43.5556 35.2223 43.4167 35.4306 43.4167H44.4584C44.6667 43.4167 44.8056 43.5556 44.8056 43.7639C44.8056 43.9723 44.6667 44.1112 44.4584 44.1112ZM40.9862 19.8056H27.0973C26.8889 19.8056 26.7501 19.6667 26.7501 19.4584V17.3751C26.7501 17.1667 26.8889 17.0278 27.0973 17.0278H40.9862C41.1945 17.0278 41.3334 17.1667 41.3334 17.3751V19.4584C41.3334 19.6667 41.1945 19.8056 40.9862 19.8056ZM27.4445 19.1112H40.6389V17.7223H27.4445V19.1112Z" fill="#582D7F" stroke="#582D7F" stroke-width="0.3"/>
<path d="M47.9307 46.1945C47.7223 46.1945 47.5834 46.0557 47.5834 45.8473V17.0279C47.5834 15.5001 46.3334 14.2501 44.8057 14.2501H17.0279C16.8196 14.2501 16.6807 14.1112 16.6807 13.9029C16.6807 13.6946 16.8196 13.5557 17.0279 13.5557H44.8057C46.7501 13.5557 48.2779 15.0834 48.2779 17.0279V45.8473C48.2779 46.0557 48.139 46.1945 47.9307 46.1945Z" fill="#582D7F" stroke="#582D7F" stroke-width="0.3"/>
<path d="M20.1529 49.3195C19.9446 49.3195 19.8057 49.1807 19.8057 48.9723V17.0279C19.8057 16.8196 19.9446 16.6807 20.1529 16.6807C20.3612 16.6807 20.5001 16.8196 20.5001 17.0279V48.9723C20.5001 49.1807 20.3612 49.3195 20.1529 49.3195Z" fill="#582D7F" stroke="#582D7F" stroke-width="0.3"/>
<path d="M48.9723 52.4445H23.2779C21.3334 52.4445 19.8057 50.9168 19.8057 48.9723C19.8057 48.764 19.9446 48.6251 20.1529 48.6251C20.3612 48.6251 20.5001 48.764 20.5001 48.9723C20.5001 50.5001 21.7501 51.7501 23.2779 51.7501C24.8057 51.7501 26.0557 50.5001 26.0557 48.9723C26.0557 47.4445 24.8057 46.1945 23.2779 46.1945C23.0696 46.1945 22.9307 46.0557 22.9307 45.8473C22.9307 45.639 23.0696 45.5001 23.2779 45.5001H48.9723C50.9168 45.5001 52.4445 47.0279 52.4445 48.9723C52.4445 50.9168 50.9168 52.4445 48.9723 52.4445ZM25.3612 51.7501H48.9723C50.5001 51.7501 51.7501 50.5001 51.7501 48.9723C51.7501 47.4445 50.5001 46.1945 48.9723 46.1945H25.3612C26.1946 46.8195 26.7501 47.8612 26.7501 48.9723C26.7501 50.0834 26.1946 51.1251 25.3612 51.7501ZM20.1529 20.5001H17.0279C15.0834 20.5001 13.5557 18.9723 13.5557 17.0279C13.5557 15.0834 15.0834 13.5557 17.0279 13.5557C18.9723 13.5557 20.5001 15.0834 20.5001 17.0279V20.1529C20.5001 20.3612 20.3612 20.5001 20.1529 20.5001ZM17.0279 14.2501C15.5001 14.2501 14.2501 15.5001 14.2501 17.0279C14.2501 18.5557 15.5001 19.8057 17.0279 19.8057H19.8057V17.0279C19.8057 15.5001 18.5557 14.2501 17.0279 14.2501ZM28.6946 44.1112C28.4862 44.1112 28.2779 44.0418 28.0696 43.9029C27.9307 43.8334 27.7223 43.8334 27.5834 43.9029C27.3057 44.1112 26.9584 44.1112 26.6112 44.0418C26.264 43.9723 26.0557 43.764 25.8473 43.4168C25.7779 43.2779 25.5696 43.139 25.4307 43.139C25.0834 43.139 24.8057 43.0001 24.5279 42.7918C24.2501 42.5834 24.1807 42.2362 24.1807 41.889C24.1807 41.6807 24.1112 41.5418 23.9029 41.4723C23.6251 41.3334 23.4168 41.0557 23.2779 40.7084C23.2084 40.3612 23.2779 40.014 23.4168 39.7362C23.4862 39.5973 23.4862 39.389 23.4168 39.2501C23.2084 38.9723 23.2084 38.6251 23.2779 38.2779C23.3473 37.9307 23.5557 37.7223 23.9029 37.514C24.0418 37.4445 24.1807 37.2362 24.1807 37.0973C24.1807 36.7501 24.3196 36.4723 24.5279 36.1945C24.7362 35.9862 25.0834 35.8473 25.4307 35.8473C25.639 35.8473 25.7779 35.7779 25.8473 35.5696C25.9862 35.2918 26.264 35.0834 26.6112 34.9445C26.9584 34.8751 27.3057 34.9445 27.5834 35.0834C27.7223 35.1529 27.9307 35.1529 28.0696 35.0834C28.3473 34.8751 28.6946 34.8751 29.0418 34.9445C29.389 35.014 29.5973 35.2223 29.8057 35.5696C29.8751 35.7084 30.0834 35.8473 30.2223 35.8473C30.5696 35.8473 30.8473 35.9862 31.1251 36.1945C31.4029 36.4029 31.4723 36.7501 31.4723 37.0973C31.4723 37.3057 31.5418 37.4445 31.7501 37.514C32.0279 37.6529 32.2362 37.9307 32.3751 38.2779C32.4446 38.6251 32.3751 38.9723 32.2362 39.2501C32.1668 39.389 32.1668 39.5973 32.2362 39.7362C32.4445 40.014 32.4446 40.3612 32.3751 40.7084C32.3057 41.0557 32.0973 41.264 31.7501 41.4723C31.6112 41.5418 31.4723 41.7501 31.4723 41.889C31.4723 42.2362 31.3334 42.514 31.1251 42.7918C30.9168 43.0001 30.5696 43.139 30.2223 43.139C30.014 43.139 29.8751 43.2084 29.8057 43.4168C29.6668 43.6945 29.389 43.9029 29.0418 44.0418C28.9029 44.1112 28.764 44.1112 28.6946 44.1112ZM27.7918 43.139C28.0001 43.139 28.2084 43.2084 28.4168 43.3473C28.5557 43.4168 28.6946 43.4168 28.8334 43.4168C28.9723 43.3473 29.0418 43.2779 29.1112 43.139C29.3196 42.7223 29.7362 42.4445 30.2223 42.514C30.3612 42.514 30.5001 42.4445 30.5696 42.3751C30.639 42.3057 30.7084 42.1668 30.7084 42.0279C30.7084 41.5418 30.9168 41.1251 31.3334 40.9168C31.4723 40.8473 31.5418 40.7779 31.6112 40.639C31.6807 40.5001 31.6112 40.3612 31.5418 40.2223C31.264 39.8057 31.264 39.3195 31.5418 38.9723C31.6112 38.8334 31.6112 38.6945 31.6112 38.5557C31.5418 38.4168 31.4723 38.3473 31.3334 38.2779C30.9168 38.0695 30.7084 37.6529 30.7084 37.1668C30.7084 37.0279 30.639 36.889 30.5696 36.8195C30.5001 36.7501 30.3612 36.6807 30.2223 36.6807C29.7362 36.6807 29.3196 36.4723 29.1112 36.0557C29.0418 35.9168 28.9723 35.8473 28.8334 35.7779C28.6946 35.7779 28.5557 35.7779 28.4168 35.8473C28.0001 36.1251 27.514 36.1251 27.1668 35.8473C27.0279 35.7779 26.889 35.7779 26.7501 35.7779C26.6112 35.8473 26.5418 35.9168 26.4723 36.0557C26.264 36.4723 25.8473 36.7501 25.3612 36.6807C25.2223 36.6807 25.0834 36.7501 25.014 36.8195C24.9446 36.889 24.8751 37.0279 24.8751 37.1668C24.8751 37.6529 24.6668 38.0695 24.2501 38.2779C24.1112 38.3473 24.0418 38.4168 23.9723 38.5557C23.9029 38.6945 23.9723 38.8334 24.0418 38.9723C24.3196 39.389 24.3196 39.8751 24.0418 40.2223C23.9723 40.3612 23.9723 40.5001 23.9723 40.639C24.0418 40.7779 24.1112 40.8473 24.2501 40.9168C24.6668 41.1251 24.8751 41.5418 24.8751 42.0279C24.8751 42.1668 24.9446 42.3057 25.014 42.3751C25.0834 42.4445 25.2223 42.514 25.3612 42.514C25.8473 42.514 26.264 42.7223 26.4723 43.139C26.5418 43.2779 26.6112 43.3473 26.7501 43.4168C26.889 43.4168 27.0279 43.4168 27.1668 43.3473C27.3751 43.2084 27.5834 43.139 27.7918 43.139ZM44.2501 42.7223C44.1112 42.7223 44.0418 42.6529 43.9723 42.514C43.6251 41.889 42.6529 41.8195 42.2362 42.4445C42.1668 42.514 42.0973 42.5834 42.0279 42.5834C41.9584 42.5834 41.8195 42.5834 41.7501 42.514C41.4723 42.3057 41.1251 42.3057 40.8473 42.5834C40.7779 42.6529 40.639 42.7223 40.5001 42.6529C40.3612 42.5834 40.2918 42.514 40.2918 42.3751C40.2918 42.1668 40.1529 42.0279 39.9445 42.0279C39.7362 42.0279 39.5973 42.1668 39.5973 42.3751C39.5973 42.514 39.5279 42.6529 39.389 42.6529C39.2501 42.7223 39.1112 42.6529 39.0418 42.5834C38.8334 42.3751 38.4168 42.3057 38.139 42.514C38.0696 42.5834 38.0001 42.5834 37.8612 42.5834C37.7918 42.5834 37.6529 42.514 37.6529 42.4445C37.2362 41.889 36.264 41.9584 35.9168 42.514C35.8473 42.6529 35.639 42.7223 35.4307 42.6529C35.2918 42.5834 35.2223 42.3751 35.2918 42.1668C35.5695 41.6112 36.1945 41.264 36.8195 41.264C37.2362 41.264 37.6529 41.4029 38.0001 41.7501C38.3473 41.6112 38.764 41.6112 39.1112 41.7501C39.2501 41.5418 39.5973 41.3334 39.9445 41.3334C40.2918 41.3334 40.639 41.5418 40.7779 41.8195C41.1251 41.6807 41.5418 41.6807 41.889 41.8195C42.2362 41.5418 42.6529 41.3334 43.0695 41.3334C43.6945 41.3334 44.2501 41.6807 44.5973 42.2362C44.6668 42.3751 44.6668 42.5834 44.4584 42.7223H44.2501Z" fill="#582D7F" stroke="#582D7F" stroke-width="0.3"/>
</g>
<defs>
<filter id="filter0_d_2181_2" x="0" y="0" width="68" height="68" filterUnits="userSpaceOnUse" color-interpolation-filters="sRGB">
<feFlood flood-opacity="0" result="BackgroundImageFix"/>
<feColorMatrix in="SourceAlpha" type="matrix" values="0 0 0 0 0 0 0 0 0 0 0 0 0 0 0 0 0 0 127 0" result="hardAlpha"/>
<feOffset dx="1" dy="1"/>
<feGaussianBlur stdDeviation="2"/>
<feComposite in2="hardAlpha" operator="out"/>
<feColorMatrix type="matrix" values="0 0 0 0 0 0 0 0 0 0 0 0 0 0 0 0 0 0 0.2 0"/>
<feBlend mode="normal" in2="BackgroundImageFix" result="effect1_dropShadow_2181_2"/>
<feBlend mode="normal" in="SourceGraphic" in2="effect1_dropShadow_2181_2" result="shape"/>
</filter>
<clipPath id="clip0_2181_2">
<rect width="40" height="40" fill="white" transform="translate(13 13)"/>
</clipPath>
</defs>
</svg>
