<svg width="68" height="68" viewBox="0 0 68 68" fill="none" xmlns="http://www.w3.org/2000/svg">
<g filter="url(#filter0_d_2182_11)">
<rect x="3" y="3" width="60" height="60" rx="10" fill="white"/>
</g>
<path d="M20.8279 29.3759C20.7924 29.4242 20.7629 29.4766 20.7399 29.5319C20.7399 29.5319 20.7399 29.5519 20.7399 29.5639C20.7225 29.6196 20.7131 29.6775 20.7119 29.7359V29.7359C20.7131 29.7956 20.7225 29.8548 20.7399 29.9119C20.7399 29.9119 20.7399 29.9319 20.7399 29.9399C20.762 29.9957 20.7916 30.0482 20.8279 30.0959V30.0959L32.5279 44.7759C32.5562 44.8153 32.5915 44.8491 32.6319 44.8759H32.6559C32.694 44.9039 32.7357 44.9268 32.7799 44.9439H32.8239C32.9355 44.9811 33.0563 44.9811 33.1679 44.9439H33.2119C33.2561 44.9268 33.2978 44.9039 33.3359 44.8759H33.3599C33.4003 44.8491 33.4356 44.8153 33.4639 44.7759L45.1639 30.0959C45.2473 29.9891 45.2925 29.8574 45.2925 29.7219C45.2925 29.5864 45.2473 29.4547 45.1639 29.3479L40.6959 23.7479C40.6386 23.678 40.5666 23.6217 40.485 23.583C40.4034 23.5443 40.3142 23.5241 40.2239 23.5239H25.7719C25.6816 23.5241 25.5924 23.5443 25.5108 23.583C25.4292 23.6217 25.3572 23.678 25.2999 23.7479L20.8319 29.3479C20.8319 29.3479 20.8279 29.3719 20.8279 29.3759ZM28.2959 30.3399L31.5799 41.6719L22.5479 30.3399H28.2959ZM43.4519 30.3399L34.4199 41.6719L37.7039 30.3399H43.4519ZM32.9999 42.2639L29.5439 30.3399H36.4559L32.9999 42.2639ZM43.4519 29.1399H37.7039L36.4279 24.7399H39.9399L43.4519 29.1399ZM35.1799 24.7399L36.4559 29.1399H29.5439L30.8199 24.7399H35.1799ZM26.0599 24.7399H29.5719L28.2959 29.1399H22.5479L26.0599 24.7399ZM22.0039 22.8519C22.0594 22.9078 22.1255 22.9522 22.1983 22.9824C22.2711 23.0126 22.3491 23.0281 22.4279 23.0279C22.5867 23.0265 22.7388 22.9634 22.8519 22.8519C22.9633 22.7389 23.0257 22.5866 23.0257 22.4279C23.0257 22.2692 22.9633 22.1169 22.8519 22.0039L20.6959 19.8479C20.5822 19.7419 20.4317 19.6842 20.2763 19.687C20.1208 19.6897 19.9725 19.7527 19.8626 19.8626C19.7527 19.9725 19.6897 20.1208 19.687 20.2763C19.6842 20.4317 19.7419 20.5822 19.8479 20.6959L22.0039 22.8519ZM18.0479 32.3999H14.9999C14.8408 32.3999 14.6882 32.4631 14.5756 32.5756C14.4631 32.6882 14.3999 32.8408 14.3999 32.9999C14.3999 33.159 14.4631 33.3116 14.5756 33.4242C14.6882 33.5367 14.8408 33.5999 14.9999 33.5999H18.0479C18.207 33.5999 18.3596 33.5367 18.4722 33.4242C18.5847 33.3116 18.6479 33.159 18.6479 32.9999C18.6479 32.8408 18.5847 32.6882 18.4722 32.5756C18.3596 32.4631 18.207 32.3999 18.0479 32.3999V32.3999ZM22.0039 43.1479L19.8479 45.3039C19.7918 45.3593 19.7472 45.4254 19.7168 45.4981C19.6864 45.5709 19.6708 45.649 19.6708 45.7279C19.6708 45.8068 19.6864 45.8849 19.7168 45.9577C19.7472 46.0304 19.7918 46.0965 19.8479 46.1519C19.9604 46.2643 20.1129 46.3274 20.2719 46.3274C20.4309 46.3274 20.5834 46.2643 20.6959 46.1519L22.8519 43.9959C22.9579 43.8822 23.0156 43.7317 23.0128 43.5763C23.0101 43.4208 22.9471 43.2725 22.8372 43.1626C22.7273 43.0527 22.579 42.9897 22.4235 42.987C22.2681 42.9842 22.1176 43.0419 22.0039 43.1479V43.1479ZM32.9999 47.3519C32.8408 47.3519 32.6882 47.4151 32.5756 47.5276C32.4631 47.6402 32.3999 47.7928 32.3999 47.9519V50.9999C32.3999 51.159 32.4631 51.3116 32.5756 51.4242C32.6882 51.5367 32.8408 51.5999 32.9999 51.5999C33.159 51.5999 33.3116 51.5367 33.4242 51.4242C33.5367 51.3116 33.5999 51.159 33.5999 50.9999V47.9519C33.5999 47.7928 33.5367 47.6402 33.4242 47.5276C33.3116 47.4151 33.159 47.3519 32.9999 47.3519V47.3519ZM43.9959 43.1479C43.8822 43.0419 43.7317 42.9842 43.5763 42.987C43.4208 42.9897 43.2725 43.0527 43.1626 43.1626C43.0527 43.2725 42.9897 43.4208 42.987 43.5763C42.9842 43.7317 43.0419 43.8822 43.1479 43.9959L45.3039 46.1519C45.4164 46.2643 45.5689 46.3274 45.7279 46.3274C45.8869 46.3274 46.0394 46.2643 46.1519 46.1519C46.208 46.0965 46.2526 46.0304 46.283 45.9577C46.3134 45.8849 46.329 45.8068 46.329 45.7279C46.329 45.649 46.3134 45.5709 46.283 45.4981C46.2526 45.4254 46.208 45.3593 46.1519 45.3039L43.9959 43.1479ZM50.9999 32.3999H47.9519C47.7928 32.3999 47.6402 32.4631 47.5276 32.5756C47.4151 32.6882 47.3519 32.8408 47.3519 32.9999C47.3519 33.159 47.4151 33.3116 47.5276 33.4242C47.6402 33.5367 47.7928 33.5999 47.9519 33.5999H50.9999C51.159 33.5999 51.3116 33.5367 51.4242 33.4242C51.5367 33.3116 51.5999 33.159 51.5999 32.9999C51.5999 32.8408 51.5367 32.6882 51.4242 32.5756C51.3116 32.4631 51.159 32.3999 50.9999 32.3999V32.3999ZM45.3039 19.8479L43.1479 22.0039C43.0365 22.1169 42.9741 22.2692 42.9741 22.4279C42.9741 22.5866 43.0365 22.7389 43.1479 22.8519C43.261 22.9634 43.4131 23.0265 43.5719 23.0279C43.6507 23.0281 43.7287 23.0126 43.8015 22.9824C43.8743 22.9522 43.9404 22.9078 43.9959 22.8519L46.1519 20.6959C46.2579 20.5822 46.3156 20.4317 46.3128 20.2763C46.3101 20.1208 46.2471 19.9725 46.1372 19.8626C46.0273 19.7527 45.879 19.6897 45.7235 19.687C45.5681 19.6842 45.4176 19.7419 45.3039 19.8479ZM32.9999 18.6479C33.159 18.6479 33.3116 18.5847 33.4242 18.4722C33.5367 18.3596 33.5999 18.207 33.5999 18.0479V14.9999C33.5999 14.8408 33.5367 14.6882 33.4242 14.5756C33.3116 14.4631 33.159 14.3999 32.9999 14.3999C32.8408 14.3999 32.6882 14.4631 32.5756 14.5756C32.4631 14.6882 32.3999 14.8408 32.3999 14.9999V18.0479C32.3999 18.207 32.4631 18.3596 32.5756 18.4722C32.6882 18.5847 32.8408 18.6479 32.9999 18.6479V18.6479Z" fill="#582D7F"/>
<defs>
<filter id="filter0_d_2182_11" x="0" y="0" width="68" height="68" filterUnits="userSpaceOnUse" color-interpolation-filters="sRGB">
<feFlood flood-opacity="0" result="BackgroundImageFix"/>
<feColorMatrix in="SourceAlpha" type="matrix" values="0 0 0 0 0 0 0 0 0 0 0 0 0 0 0 0 0 0 127 0" result="hardAlpha"/>
<feOffset dx="1" dy="1"/>
<feGaussianBlur stdDeviation="2"/>
<feComposite in2="hardAlpha" operator="out"/>
<feColorMatrix type="matrix" values="0 0 0 0 0 0 0 0 0 0 0 0 0 0 0 0 0 0 0.2 0"/>
<feBlend mode="normal" in2="BackgroundImageFix" result="effect1_dropShadow_2182_11"/>
<feBlend mode="normal" in="SourceGraphic" in2="effect1_dropShadow_2182_11" result="shape"/>
</filter>
</defs>
</svg>
