<svg width="68" height="68" viewBox="0 0 68 68" fill="none" xmlns="http://www.w3.org/2000/svg">
<g filter="url(#filter0_d_2182_15)">
<rect x="3" y="3" width="60" height="60" rx="10" fill="white"/>
</g>
<g clip-path="url(#clip0_2182_15)">
<path d="M38.4906 27.367C38.4363 27.3125 38.3717 27.2694 38.3007 27.2399C38.2296 27.2104 38.1535 27.1953 38.0766 27.1953C37.9996 27.1953 37.9235 27.2104 37.8524 27.2399C37.7814 27.2694 37.7168 27.3125 37.6625 27.367L27.3672 37.6623C27.3096 37.7159 27.2634 37.7806 27.2314 37.8525C27.1994 37.9244 27.1822 38.0019 27.1808 38.0806C27.1794 38.1593 27.1939 38.2374 27.2233 38.3104C27.2528 38.3834 27.2967 38.4496 27.3523 38.5053C27.408 38.5609 27.4742 38.6048 27.5472 38.6343C27.6201 38.6637 27.6983 38.6782 27.777 38.6768C27.8556 38.6754 27.9332 38.6582 28.0051 38.6262C28.077 38.5941 28.1417 38.548 28.1953 38.4904L38.4906 28.1951C38.545 28.1407 38.5882 28.0762 38.6177 28.0051C38.6471 27.9341 38.6623 27.8579 38.6623 27.781C38.6623 27.7041 38.6471 27.628 38.6177 27.5569C38.5882 27.4859 38.545 27.4213 38.4906 27.367ZM29.5688 32.4123C30.2266 32.4119 30.864 32.1834 31.3724 31.7657C31.8807 31.348 32.2284 30.767 32.3564 30.1217C32.4844 29.4764 32.3847 28.8066 32.0742 28.2266C31.7638 27.6466 31.2618 27.1921 30.6538 26.9407C30.0459 26.6892 29.3696 26.6564 28.7401 26.8476C28.1106 27.0389 27.567 27.4426 27.2017 27.9898C26.8365 28.537 26.6723 29.1939 26.7371 29.8486C26.8018 30.5033 27.0916 31.1153 27.557 31.5802C27.821 31.8446 28.1347 32.0541 28.4799 32.1969C28.8251 32.3397 29.1952 32.4129 29.5688 32.4123ZM28.3852 28.3849C28.6192 28.1509 28.9174 27.9915 29.242 27.9269C29.5666 27.8623 29.9031 27.8954 30.2089 28.0221C30.5147 28.1487 30.7761 28.3632 30.9599 28.6384C31.1438 28.9136 31.242 29.2372 31.242 29.5681C31.242 29.8991 31.1438 30.2227 30.9599 30.4979C30.7761 30.7731 30.5147 30.9876 30.2089 31.1142C29.9031 31.2409 29.5666 31.274 29.242 31.2094C28.9174 31.1448 28.6192 30.9854 28.3852 30.7513C28.2294 30.5962 28.1058 30.4118 28.0215 30.2087C27.9372 30.0057 27.8938 29.788 27.8938 29.5681C27.8938 29.3483 27.9372 29.1306 28.0215 28.9276C28.1058 28.7245 28.2294 28.5401 28.3852 28.3849ZM51.432 30.4943C50.9156 30.0006 50.382 29.4896 50.2836 29.0584C50.1789 28.5974 50.4445 27.8865 50.7016 27.1974C51.068 26.2154 51.4469 25.1998 51.0258 24.3271C50.5969 23.4396 49.5547 23.1013 48.5469 22.7732C47.857 22.549 47.1445 22.3177 46.8594 21.9607C46.5742 21.6037 46.5023 20.8506 46.4359 20.1256C46.3359 19.074 46.2367 17.9873 45.4703 17.3748C44.7039 16.7623 43.6297 16.906 42.5859 17.0482C41.8609 17.1443 41.1109 17.2435 40.6898 17.0412C40.2844 16.8451 39.9016 16.2068 39.532 15.5888C38.9852 14.6763 38.4195 13.7318 37.45 13.5115C36.5125 13.299 35.6148 13.8912 34.7438 14.4631C34.1242 14.8748 33.4836 15.2927 33 15.2927C32.5164 15.2927 31.8758 14.8748 31.2562 14.4646C30.3852 13.8927 29.4844 13.3013 28.5469 13.5131C27.5773 13.7334 27.0117 14.6779 26.4648 15.5904C26.0953 16.2084 25.7125 16.8467 25.307 17.0427C24.8859 17.2451 24.1352 17.1459 23.4109 17.0498C22.3672 16.9115 21.2883 16.7677 20.5266 17.3763C19.7648 17.9849 19.6641 19.074 19.5672 20.1248C19.5008 20.8498 19.432 21.599 19.1438 21.9599C18.8555 22.3209 18.1461 22.5482 17.4563 22.7724C16.4484 23.0998 15.4062 23.4388 14.9773 24.3263C14.5562 25.199 14.9352 26.2146 15.3016 27.1967C15.5586 27.8849 15.8242 28.5967 15.7195 29.0576C15.6211 29.4888 15.0875 29.9998 14.5711 30.4935C13.7984 31.2326 13 31.9967 13 32.9998C13 34.0029 13.7984 34.767 14.5711 35.506C15.0875 35.9998 15.6211 36.5107 15.7195 36.942C15.8242 37.4029 15.5586 38.1138 15.3016 38.8029C14.9352 39.7849 14.5562 40.8006 14.9773 41.6732C15.4062 42.5607 16.4484 42.899 17.4531 43.2271C18.143 43.4513 18.8555 43.6826 19.1406 44.0396C19.4258 44.3967 19.4977 45.1498 19.5641 45.8748C19.6609 46.9256 19.7602 48.0123 20.5266 48.6232C21.293 49.2342 22.3672 49.0881 23.4109 48.9498C24.1359 48.8537 24.8859 48.7545 25.307 48.9568C25.7125 49.1529 26.0953 49.7912 26.4648 50.4092C27.0117 51.3217 27.5773 52.2662 28.5469 52.4865C28.6774 52.5156 28.8108 52.5303 28.9445 52.5303C29.7375 52.5303 30.507 52.0256 31.2531 51.5349C31.8727 51.1279 32.5133 50.7068 32.9969 50.7068C33.4805 50.7068 34.1211 51.1279 34.7406 51.5349C35.6117 52.1068 36.5117 52.6982 37.4469 52.4865C38.4164 52.2662 38.982 51.3217 39.5289 50.4092C39.8984 49.7912 40.2813 49.1529 40.6867 48.9568C41.1078 48.7545 41.8586 48.8537 42.5828 48.9498C43.6266 49.0881 44.7055 49.2318 45.4672 48.6232C46.2289 48.0146 46.3328 46.9256 46.4297 45.8748C46.4961 45.1498 46.5648 44.4006 46.8531 44.0396C47.1414 43.6787 47.8508 43.4513 48.5406 43.2271C49.5484 42.8998 50.5906 42.5607 51.0195 41.6732C51.4406 40.8006 51.0617 39.7849 50.6953 38.8029C50.4383 38.1146 50.1727 37.4029 50.2773 36.942C50.3758 36.5107 50.9094 35.9998 51.4258 35.506C52.2016 34.767 53 34.0029 53 32.9998C53 31.9967 52.2016 31.2326 51.4289 30.4935L51.432 30.4943ZM50.6219 34.6599C49.9805 35.274 49.3172 35.9099 49.1414 36.6826C48.9586 37.4857 49.2867 38.3638 49.6031 39.2138C49.8844 39.9654 50.1742 40.7428 49.9703 41.167C49.7594 41.6037 48.9586 41.8638 48.1844 42.1154C47.3312 42.3935 46.4484 42.6802 45.9437 43.3115C45.4391 43.9427 45.3508 44.874 45.2687 45.7709C45.1945 46.5771 45.1188 47.4115 44.743 47.7107C44.3672 48.0099 43.5437 47.8974 42.743 47.7888C41.8469 47.6701 40.9211 47.5474 40.1844 47.9021C39.4625 48.2506 38.9883 49.042 38.5297 49.8076C38.1094 50.5107 37.675 51.2349 37.1937 51.3443C36.7445 51.4467 36.0562 50.9935 35.3906 50.556C34.6273 50.0545 33.8375 49.5357 33.0031 49.5357C32.1688 49.5357 31.3789 50.0545 30.6156 50.556C29.95 50.9935 29.2609 51.4459 28.8125 51.3443C28.3312 51.2349 27.8969 50.5092 27.4766 49.8076C27.018 49.042 26.5437 48.2506 25.8219 47.9021C25.457 47.7263 25.0461 47.6677 24.6156 47.6677C24.1627 47.6788 23.711 47.7192 23.2633 47.7888C22.4625 47.8951 21.6352 48.0045 21.2633 47.7107C20.8914 47.417 20.8125 46.574 20.7344 45.7677C20.6562 44.8748 20.5672 43.9435 20.0594 43.3123C19.5516 42.681 18.6719 42.3904 17.8187 42.1123C17.0445 41.8607 16.2438 41.6006 16.0328 41.1638C15.8289 40.742 16.1188 39.9646 16.4 39.2107C16.7125 38.3607 17.0445 37.4826 16.8617 36.6795C16.6859 35.9052 16.0227 35.2732 15.3812 34.6568C14.7867 34.0935 14.1719 33.5021 14.1719 32.9998C14.1719 32.4974 14.7867 31.906 15.3812 31.3404C16.0227 30.7263 16.6859 30.0904 16.8656 29.3177C17.0484 28.5146 16.7203 27.6365 16.4039 26.7865C16.1227 26.0349 15.8328 25.2576 16.0367 24.8334C16.2477 24.3967 17.0523 24.1365 17.8227 23.8849C18.6758 23.6068 19.5586 23.3201 20.0633 22.6888C20.568 22.0576 20.6562 21.1287 20.7344 20.2318C20.8125 19.4256 20.8844 18.5912 21.2602 18.292C21.6359 17.9927 22.4594 18.1052 23.2602 18.2138C24.1562 18.3326 25.082 18.4552 25.8188 18.1006C26.5406 17.7521 27.0148 16.9607 27.4734 16.1951C27.8937 15.492 28.3281 14.7677 28.8094 14.6584C29.2586 14.556 29.9469 15.0092 30.6125 15.4467C31.3758 15.9482 32.1656 16.467 33 16.467C33.8344 16.467 34.6242 15.9482 35.3875 15.4467C36.0531 15.0092 36.7414 14.5568 37.1906 14.6584C37.6719 14.7677 38.1062 15.4935 38.5266 16.1951C38.9852 16.9607 39.4594 17.7521 40.1813 18.1006C40.918 18.4552 41.8445 18.3349 42.7398 18.2138C43.5406 18.1076 44.368 17.9974 44.7398 18.292C45.1117 18.5865 45.1914 19.4256 45.2656 20.2318C45.3477 21.1287 45.4328 22.056 45.9406 22.6912C46.4484 23.3263 47.3281 23.6092 48.1813 23.8873C48.9555 24.1388 49.7562 24.399 49.9672 24.8357C50.1711 25.2576 49.8813 26.0349 49.6 26.7888C49.2836 27.6388 48.9555 28.517 49.1383 29.3201C49.3141 30.0943 49.9773 30.7263 50.6187 31.3427C51.2133 31.906 51.8281 32.4974 51.8281 32.9998C51.8281 33.5021 51.2133 34.0935 50.6187 34.6592L50.6219 34.6599ZM33 19.0271C25.2953 19.0271 19.0273 25.2951 19.0273 32.9998C19.0273 40.7045 25.2953 46.9724 33 46.9724C40.7047 46.9724 46.9727 40.7045 46.9727 32.9998C46.9727 25.2951 40.7047 19.0271 33 19.0271ZM33 45.8006C25.9414 45.8006 20.1992 40.0584 20.1992 32.9998C20.1992 25.9412 25.9414 20.199 33 20.199C40.0586 20.199 45.8008 25.9412 45.8008 32.9998C45.8008 40.0584 40.0586 45.8006 33 45.8006ZM34.4195 34.4193C34.0215 34.8172 33.7505 35.3242 33.6407 35.8762C33.5308 36.4281 33.5871 37.0002 33.8025 37.5202C34.0178 38.0401 34.3825 38.4845 34.8504 38.7972C35.3183 39.1099 35.8685 39.2768 36.4313 39.2768C36.994 39.2768 37.5442 39.1099 38.0121 38.7972C38.48 38.4845 38.8447 38.0401 39.06 37.5202C39.2754 37.0002 39.3317 36.4281 39.2218 35.8762C39.112 35.3242 38.841 34.8172 38.443 34.4193C37.9091 33.8864 37.1856 33.5871 36.4313 33.5871C35.6769 33.5871 34.9534 33.8864 34.4195 34.4193ZM37.6148 37.6146C37.3808 37.8487 37.0826 38.0081 36.758 38.0727C36.4334 38.1373 36.0969 38.1042 35.7911 37.9775C35.4853 37.8509 35.2239 37.6364 35.0401 37.3612C34.8562 37.086 34.758 36.7624 34.758 36.4314C34.758 36.1004 34.8562 35.7769 35.0401 35.5017C35.2239 35.2265 35.4853 35.012 35.7911 34.8853C36.0969 34.7587 36.4334 34.7256 36.758 34.7902C37.0826 34.8547 37.3808 35.0142 37.6148 35.2482C37.9282 35.5622 38.1042 35.9878 38.1042 36.4314C38.1042 36.8751 37.9282 37.3006 37.6148 37.6146Z" fill="#582D7F" stroke="black" stroke-width="0.1"/>
</g>
<defs>
<filter id="filter0_d_2182_15" x="0" y="0" width="68" height="68" filterUnits="userSpaceOnUse" color-interpolation-filters="sRGB">
<feFlood flood-opacity="0" result="BackgroundImageFix"/>
<feColorMatrix in="SourceAlpha" type="matrix" values="0 0 0 0 0 0 0 0 0 0 0 0 0 0 0 0 0 0 127 0" result="hardAlpha"/>
<feOffset dx="1" dy="1"/>
<feGaussianBlur stdDeviation="2"/>
<feComposite in2="hardAlpha" operator="out"/>
<feColorMatrix type="matrix" values="0 0 0 0 0 0 0 0 0 0 0 0 0 0 0 0 0 0 0.2 0"/>
<feBlend mode="normal" in2="BackgroundImageFix" result="effect1_dropShadow_2182_15"/>
<feBlend mode="normal" in="SourceGraphic" in2="effect1_dropShadow_2182_15" result="shape"/>
</filter>
<clipPath id="clip0_2182_15">
<rect width="40" height="40" fill="white" transform="translate(13 13)"/>
</clipPath>
</defs>
</svg>
