<svg width="68" height="68" viewBox="0 0 68 68" fill="none" xmlns="http://www.w3.org/2000/svg">
<g filter="url(#filter0_d_2182_10)">
<rect x="3" y="3" width="60" height="60" rx="10" fill="white"/>
</g>
<path d="M40.5052 51.3038V45.3331C40.5052 44.1961 41.4333 43.2679 42.5704 43.2679H48.541V15.4217C48.541 15.0239 48.2136 14.6964 47.8158 14.6964H26.0809V17.4025H43.7436V30.0148H26.0809V51.3038H40.5052ZM24.7409 14.6964H22.3684C21.9706 14.6964 21.6431 15.0239 21.6431 15.4217V17.4025H24.7409V14.6964ZM24.7409 30.0148H21.6431V50.5785C21.6431 50.9763 21.9706 51.3038 22.3684 51.3038H24.7409V30.0148ZM20.3031 33.5385L16.3696 30.0148H16.3174V17.4025H20.3031V15.4217C20.3031 14.2846 21.2313 13.3564 22.3684 13.3564H47.8158C48.9529 13.3564 49.881 14.2846 49.881 15.4217V44.2141L41.4534 52.6417H22.3704C21.2333 52.6417 20.3052 51.7136 20.3052 50.5765V33.5365L20.3031 33.5385ZM18.3685 30.0148L20.3031 31.7485V30.0148H18.3685ZM42.4037 18.7425H17.6574V28.6748H42.4037V18.7425ZM47.5948 44.6079H42.5704C42.1726 44.6079 41.8452 44.9354 41.8452 45.3331V50.3575L47.5948 44.6079Z" fill="#582D7F"/>
<path d="M21.0829 25.5105C21.3501 25.5105 21.5952 25.4683 21.8182 25.3819C22.0412 25.2955 22.23 25.175 22.3867 25.0143C22.5434 24.8556 22.666 24.6667 22.7543 24.4498C22.8427 24.2328 22.8869 23.9917 22.8869 23.7245V23.7065C22.8869 23.4453 22.8427 23.2022 22.7543 22.9812C22.666 22.7582 22.5434 22.5694 22.3867 22.4087C22.23 22.25 22.0412 22.1254 21.8182 22.037C21.5952 21.9486 21.3521 21.9044 21.0829 21.9044H20.0664V25.5085H21.0829V25.5105ZM18.7505 20.7192H21.0829C21.549 20.7192 21.9789 20.7955 22.3686 20.9462C22.7584 21.0968 23.0939 21.3058 23.3771 21.573C23.6584 21.8401 23.8774 22.1556 24.03 22.5172C24.1847 22.8788 24.2611 23.2705 24.2611 23.6924V23.7105C24.2611 24.1324 24.1847 24.5241 24.03 24.8897C23.8753 25.2533 23.6584 25.5708 23.3771 25.8379C23.0959 26.1051 22.7584 26.3161 22.3686 26.4708C21.9789 26.6255 21.551 26.7018 21.0829 26.7018H18.7505V20.7232V20.7192ZM27.606 25.5868C27.8671 25.5868 28.1102 25.5386 28.3312 25.4422C28.5542 25.3458 28.7431 25.2112 28.8998 25.0404C29.0564 24.8696 29.179 24.6708 29.2674 24.4478C29.3558 24.2228 29.4 23.9817 29.4 23.7265V23.7085C29.4 23.4513 29.3558 23.2102 29.2674 22.9832C29.179 22.7562 29.0544 22.5553 28.8917 22.3846C28.729 22.2138 28.5381 22.0792 28.3151 21.9788C28.0921 21.8783 27.8511 21.8301 27.5899 21.8301C27.3227 21.8301 27.0796 21.8783 26.8607 21.9747C26.6417 22.0712 26.4528 22.2058 26.2961 22.3765C26.1394 22.5473 26.0169 22.7462 25.9285 22.9692C25.8401 23.1942 25.7959 23.4352 25.7959 23.6904V23.7085C25.7959 23.9656 25.8401 24.2067 25.9285 24.4337C26.0169 24.6607 26.1414 24.8616 26.3042 25.0324C26.4669 25.2031 26.6578 25.3377 26.8767 25.4382C27.0957 25.5386 27.3388 25.5868 27.608 25.5868H27.606ZM27.5879 26.8002C27.1258 26.8002 26.7019 26.7199 26.3162 26.5572C25.9285 26.3944 25.595 26.1755 25.3117 25.9002C25.0305 25.625 24.8115 25.2996 24.6548 24.9259C24.4981 24.5522 24.4198 24.1524 24.4198 23.7265V23.7085C24.4198 23.2806 24.5001 22.8808 24.6588 22.5091C24.8175 22.1355 25.0385 21.808 25.3198 21.5268C25.601 21.2455 25.9385 21.0225 26.3283 20.8598C26.718 20.6971 27.1439 20.6167 27.606 20.6167C28.068 20.6167 28.4919 20.6971 28.8777 20.8598C29.2654 21.0225 29.5989 21.2415 29.8821 21.5167C30.1634 21.7919 30.3824 22.1174 30.5391 22.491C30.6958 22.8647 30.7741 23.2645 30.7741 23.6904V23.7085C30.7741 24.1364 30.6938 24.5362 30.535 24.9078C30.3763 25.2815 30.1554 25.6089 29.8741 25.8902C29.5928 26.1714 29.2553 26.3944 28.8656 26.5572C28.4759 26.7199 28.05 26.8002 27.5879 26.8002ZM34.0005 26.8002C33.5625 26.8002 33.1547 26.7199 32.7791 26.5612C32.4034 26.4025 32.0779 26.1835 31.8047 25.9083C31.5315 25.633 31.3185 25.3056 31.1638 24.9299C31.0092 24.5542 30.9328 24.1524 30.9328 23.7265V23.7085C30.9328 23.2806 31.0092 22.8808 31.1638 22.5091C31.3185 22.1355 31.5315 21.808 31.8047 21.5268C32.0779 21.2455 32.4054 21.0225 32.7871 20.8598C33.1688 20.6971 33.5907 20.6167 34.0507 20.6167C34.33 20.6167 34.5851 20.6388 34.8161 20.685C35.0472 20.7312 35.2561 20.7935 35.4429 20.8738C35.6318 20.9542 35.8045 21.0506 35.9633 21.1651C36.122 21.2797 36.2706 21.4042 36.4072 21.5408L35.5695 22.5051C35.3365 22.2942 35.0974 22.1294 34.8563 22.0089C34.6152 21.8884 34.342 21.8301 34.0407 21.8301C33.7896 21.8301 33.5585 21.8783 33.3456 21.9747C33.1326 22.0712 32.9478 22.2058 32.7951 22.3765C32.6404 22.5473 32.5219 22.7462 32.4355 22.9692C32.3491 23.1942 32.3069 23.4352 32.3069 23.6904V23.7085C32.3069 23.9656 32.3491 24.2067 32.4355 24.4337C32.5219 24.6607 32.6384 24.8616 32.7891 25.0324C32.9398 25.2031 33.1226 25.3377 33.3355 25.4382C33.5485 25.5386 33.7835 25.5868 34.0407 25.5868C34.3822 25.5868 34.6715 25.5246 34.9085 25.398C35.1456 25.2734 35.3807 25.1027 35.6137 24.8857L36.4514 25.7315C36.2967 25.8962 36.138 26.0449 35.9733 26.1755C35.8086 26.306 35.6278 26.4185 35.4309 26.513C35.234 26.6074 35.019 26.6777 34.786 26.7259C34.553 26.7741 34.2898 26.7982 34.0005 26.7982V26.8002ZM38.3881 23.6562L36.3892 20.7192H37.926L39.1816 22.6578L40.4452 20.7192H41.9399L39.941 23.6402L42.0243 26.6978H40.4874L39.1475 24.6487L37.7974 26.6978H36.3028L38.3861 23.6562H38.3881Z" fill="#582D7F"/>
<defs>
<filter id="filter0_d_2182_10" x="0" y="0" width="68" height="68" filterUnits="userSpaceOnUse" color-interpolation-filters="sRGB">
<feFlood flood-opacity="0" result="BackgroundImageFix"/>
<feColorMatrix in="SourceAlpha" type="matrix" values="0 0 0 0 0 0 0 0 0 0 0 0 0 0 0 0 0 0 127 0" result="hardAlpha"/>
<feOffset dx="1" dy="1"/>
<feGaussianBlur stdDeviation="2"/>
<feComposite in2="hardAlpha" operator="out"/>
<feColorMatrix type="matrix" values="0 0 0 0 0 0 0 0 0 0 0 0 0 0 0 0 0 0 0.2 0"/>
<feBlend mode="normal" in2="BackgroundImageFix" result="effect1_dropShadow_2182_10"/>
<feBlend mode="normal" in="SourceGraphic" in2="effect1_dropShadow_2182_10" result="shape"/>
</filter>
</defs>
</svg>
