<svg width="68" height="68" viewBox="0 0 68 68" fill="none" xmlns="http://www.w3.org/2000/svg">
<g filter="url(#filter0_d_2182_17)">
<rect x="3" y="3" width="60" height="60" rx="10" fill="white"/>
</g>
<g clip-path="url(#clip0_2182_17)">
<path d="M32.9954 26.7285C31.0106 26.7285 29.396 28.3472 29.396 30.3365C29.396 32.3209 31.0106 33.9355 32.9954 33.9355C34.9849 33.9355 36.6036 32.3209 36.6036 30.3365C36.6036 28.3472 34.9849 26.7285 32.9954 26.7285ZM32.9954 33.3295C31.345 33.3295 30.0021 31.9866 30.0021 30.3365C30.0021 28.6811 31.345 27.3346 32.9954 27.3346C34.6508 27.3346 35.9976 28.6811 35.9976 30.3365C35.9976 31.9866 34.6508 33.3295 32.9954 33.3295Z" fill="#582D7F"/>
<path d="M51.7878 32.3938H49.3654C49.0523 23.8426 42.1566 16.9469 33.606 16.6338V14.212C33.606 13.877 33.3346 13.606 32.9999 13.606C32.6652 13.606 32.3938 13.877 32.3938 14.212V16.6338C23.8432 16.9469 16.9475 23.8426 16.6344 32.3938H14.212C13.8774 32.3938 13.606 32.6649 13.606 32.9999C13.606 33.3349 13.8774 33.606 14.212 33.606H16.6344C16.9475 42.1566 23.8432 49.0523 32.3938 49.3654V51.7878C32.3938 52.1227 32.6652 52.3938 32.9999 52.3938C33.3346 52.3938 33.606 52.1227 33.606 51.7878V49.3654C42.1566 49.0523 49.0523 42.1566 49.3654 33.606H51.7878C52.1227 33.606 52.3938 33.3349 52.3938 32.9999C52.3938 32.6649 52.1227 32.3938 51.7878 32.3938ZM48.1532 32.3938H44.8809C44.5725 26.3098 39.6897 21.4267 33.606 21.1183V17.846C41.4884 18.1577 47.8415 24.5113 48.1532 32.3938ZM41.2462 33.606H44.2748C44.1323 36.2754 43.0644 38.6969 41.3806 40.5614C40.6709 38.2593 39.0591 36.3497 36.87 35.2786C36.7703 35.2294 36.6519 35.2395 36.5607 35.304C35.5105 36.0533 34.2765 36.4492 32.9921 36.4492C31.7049 36.4492 30.4738 36.0533 29.4321 35.3046C29.3407 35.2401 29.222 35.2288 29.1211 35.2791C26.9377 36.3557 25.3292 38.2649 24.6194 40.5615C22.9354 38.697 21.8675 36.2754 21.725 33.606H24.7536C25.0883 33.606 25.3597 33.3349 25.3597 32.9999C25.3597 32.6649 25.0883 32.3938 24.7536 32.3938H21.725C22.032 26.6441 26.6442 22.0314 32.3938 21.7244V24.7536C32.3938 25.0886 32.6652 25.3597 32.9999 25.3597C33.3346 25.3597 33.606 25.0886 33.606 24.7536V21.7244C39.3556 22.0314 43.9678 26.6441 44.2748 32.3938H41.2462C40.9115 32.3938 40.6401 32.6649 40.6401 32.9999C40.6401 33.3349 40.9115 33.606 41.2462 33.606ZM32.9999 40.6396C32.6652 40.6396 32.3938 40.9107 32.3938 41.2457V44.2749C29.5616 44.1237 27.0026 42.9359 25.0984 41.0715C25.6854 38.842 27.1744 36.972 29.2304 35.903C30.3427 36.6576 31.6392 37.0554 32.9922 37.0554C34.3422 37.0554 35.6417 36.657 36.7617 35.9024C38.8228 36.9663 40.3149 38.8366 40.9017 41.0713C38.9974 42.9359 36.4383 44.1237 33.606 44.2749V41.2457C33.606 40.9106 33.3346 40.6396 32.9999 40.6396ZM32.3938 17.846V21.1183C26.3101 21.4267 21.4273 26.3098 21.1189 32.3938H17.8466C18.1583 24.5113 24.5114 18.1577 32.3938 17.846ZM17.8466 33.606H21.1189C21.4267 39.6792 26.2548 44.5697 32.3938 44.8809V48.1532C24.5114 47.8415 18.1583 41.4884 17.8466 33.606ZM33.606 48.1532V44.8809C39.7516 44.5694 44.5735 39.6712 44.8809 33.606H48.1532C47.8415 41.4884 41.4884 47.8415 33.606 48.1532Z" fill="#582D7F"/>
</g>
<defs>
<filter id="filter0_d_2182_17" x="0" y="0" width="68" height="68" filterUnits="userSpaceOnUse" color-interpolation-filters="sRGB">
<feFlood flood-opacity="0" result="BackgroundImageFix"/>
<feColorMatrix in="SourceAlpha" type="matrix" values="0 0 0 0 0 0 0 0 0 0 0 0 0 0 0 0 0 0 127 0" result="hardAlpha"/>
<feOffset dx="1" dy="1"/>
<feGaussianBlur stdDeviation="2"/>
<feComposite in2="hardAlpha" operator="out"/>
<feColorMatrix type="matrix" values="0 0 0 0 0 0 0 0 0 0 0 0 0 0 0 0 0 0 0.2 0"/>
<feBlend mode="normal" in2="BackgroundImageFix" result="effect1_dropShadow_2182_17"/>
<feBlend mode="normal" in="SourceGraphic" in2="effect1_dropShadow_2182_17" result="shape"/>
</filter>
<clipPath id="clip0_2182_17">
<rect width="40" height="40" fill="white" transform="translate(13 13)"/>
</clipPath>
</defs>
</svg>
