<svg width="68" height="68" viewBox="0 0 68 68" fill="none" xmlns="http://www.w3.org/2000/svg">
<g filter="url(#filter0_d_2182_18)">
<rect x="3" y="3" width="60" height="60" rx="10" fill="white"/>
</g>
<g clip-path="url(#clip0_2182_18)">
<path d="M32.9998 13.769C22.3959 13.769 13.769 22.3959 13.769 32.9998C13.769 43.6037 22.3959 52.2306 32.9998 52.2306C43.6037 52.2306 52.2306 43.6037 52.2306 32.9998C52.2306 22.3959 43.6037 13.769 32.9998 13.769ZM32.9998 51.4293C22.8379 51.4293 14.5704 43.1618 14.5704 32.9998C14.5704 22.8379 22.8379 14.5704 32.9998 14.5704C43.1618 14.5704 51.4293 22.8379 51.4293 32.9998C51.4293 43.1618 43.1618 51.4293 32.9998 51.4293Z" fill="#582D7F" stroke="#582D7F" stroke-width="0.5"/>
<path d="M33.0003 17.7754C24.6056 17.7754 17.7759 24.6051 17.7759 32.9998C17.7759 41.3945 24.6056 48.2242 33.0003 48.2242C41.3949 48.2242 48.2246 41.3945 48.2246 32.9998C48.2246 24.6051 41.3949 17.7754 33.0003 17.7754ZM33.0003 47.4228C25.0473 47.4228 18.5772 40.9527 18.5772 32.9998C18.5772 25.0468 25.0473 18.5767 33.0003 18.5767C40.9532 18.5767 47.4233 25.0468 47.4233 32.9998C47.4233 40.9527 40.9532 47.4228 33.0003 47.4228Z" fill="#582D7F" stroke="#582D7F" stroke-width="0.5"/>
<path d="M26.0771 31.952L31.6346 37.6155L40.6925 28.3848" stroke="#582D7F" stroke-width="1.5" stroke-miterlimit="10" stroke-linecap="round"/>
</g>
<defs>
<filter id="filter0_d_2182_18" x="0" y="0" width="68" height="68" filterUnits="userSpaceOnUse" color-interpolation-filters="sRGB">
<feFlood flood-opacity="0" result="BackgroundImageFix"/>
<feColorMatrix in="SourceAlpha" type="matrix" values="0 0 0 0 0 0 0 0 0 0 0 0 0 0 0 0 0 0 127 0" result="hardAlpha"/>
<feOffset dx="1" dy="1"/>
<feGaussianBlur stdDeviation="2"/>
<feComposite in2="hardAlpha" operator="out"/>
<feColorMatrix type="matrix" values="0 0 0 0 0 0 0 0 0 0 0 0 0 0 0 0 0 0 0.2 0"/>
<feBlend mode="normal" in2="BackgroundImageFix" result="effect1_dropShadow_2182_18"/>
<feBlend mode="normal" in="SourceGraphic" in2="effect1_dropShadow_2182_18" result="shape"/>
</filter>
<clipPath id="clip0_2182_18">
<rect width="40" height="40" fill="white" transform="translate(13 13)"/>
</clipPath>
</defs>
</svg>
