<svg width="68" height="68" viewBox="0 0 68 68" fill="none" xmlns="http://www.w3.org/2000/svg">
<g filter="url(#filter0_d_2182_20)">
<rect x="3" y="3" width="60" height="60" rx="10" fill="white"/>
</g>
<path d="M32.9999 52.7016C33.0596 52.7016 33.1193 52.7016 33.179 52.6419C42.9104 49.3583 49.4179 40.2837 49.4179 30.015V19.5673C49.4179 19.2091 49.179 18.9703 48.8208 18.9703C39.4477 18.9703 33.7761 13.6568 33.3581 13.418C33.1193 13.2389 32.8805 13.2389 32.6417 13.418C32.2238 13.6568 26.4925 18.9703 17.179 18.9703C16.8208 18.9703 16.582 19.2091 16.582 19.5673V30.015C16.582 40.2837 23.0895 49.3583 32.8208 52.7016C32.8805 52.7016 32.9402 52.7016 32.9999 52.7016ZM17.7761 30.015V20.1643C26.9701 19.9255 32.7014 14.7912 32.9999 14.612C33.3582 14.7912 38.9701 19.9255 48.2238 20.1643V30.015C48.2238 39.6867 42.1343 48.2837 32.9999 51.5076C23.8656 48.2837 17.7761 39.6867 17.7761 30.015Z" fill="#582D7F"/>
<path d="M33.2387 49.4775C41.2387 46.3134 46.4327 38.6716 46.4327 30.0149V22.4328C46.4327 22.1343 46.1939 21.8955 45.8954 21.8358C41.3581 21.3581 36.9999 19.7462 33.2984 17.1193C33.1193 16.9999 32.8208 16.9999 32.6417 17.1193C28.9402 19.6865 24.582 21.2984 20.0446 21.8358C19.7461 21.8955 19.5073 22.1343 19.5073 22.4328V30.0149C19.5073 38.6716 24.7014 46.3134 32.7611 49.4775C32.8208 49.4775 32.8805 49.5373 32.9999 49.5373C33.1193 49.5373 33.1193 49.5373 33.2387 49.4775ZM20.7611 30.0149V22.9104C25.1193 22.3731 29.3581 20.7611 32.9999 18.3134C36.6417 20.7611 40.8805 22.3731 45.2387 22.9104V29.9552C45.2387 38.0746 40.4626 45.2387 32.9999 48.2835C25.5372 45.2387 20.7611 38.0746 20.7611 30.0149Z" fill="#582D7F"/>
<path d="M40.1045 28.3432C39.8657 28.1044 39.5074 28.1044 39.2686 28.3432L30.4328 37.1193L26.9104 33.5969C26.6716 33.3581 26.3134 33.3581 26.0746 33.5969C25.8358 33.8357 25.8358 34.1939 26.0746 34.4327L30.0149 38.373C30.1343 38.4924 30.2537 38.5521 30.4328 38.5521C30.6119 38.5521 30.7313 38.4924 30.8507 38.373L40.1045 29.1193C40.3433 28.9402 40.3433 28.582 40.1045 28.3432Z" fill="#582D7F"/>
<defs>
<filter id="filter0_d_2182_20" x="0" y="0" width="68" height="68" filterUnits="userSpaceOnUse" color-interpolation-filters="sRGB">
<feFlood flood-opacity="0" result="BackgroundImageFix"/>
<feColorMatrix in="SourceAlpha" type="matrix" values="0 0 0 0 0 0 0 0 0 0 0 0 0 0 0 0 0 0 127 0" result="hardAlpha"/>
<feOffset dx="1" dy="1"/>
<feGaussianBlur stdDeviation="2"/>
<feComposite in2="hardAlpha" operator="out"/>
<feColorMatrix type="matrix" values="0 0 0 0 0 0 0 0 0 0 0 0 0 0 0 0 0 0 0.2 0"/>
<feBlend mode="normal" in2="BackgroundImageFix" result="effect1_dropShadow_2182_20"/>
<feBlend mode="normal" in="SourceGraphic" in2="effect1_dropShadow_2182_20" result="shape"/>
</filter>
</defs>
</svg>
