<svg width="68" height="68" viewBox="0 0 68 68" fill="none" xmlns="http://www.w3.org/2000/svg">
<g filter="url(#filter0_d_228_145)">
<rect x="3" y="3" width="60" height="60" rx="10" fill="white"/>
</g>
<g clip-path="url(#clip0_228_145)">
<path d="M39.6104 32.3989H34.692C34.6024 32.1475 34.458 31.9191 34.2692 31.7304C34.0805 31.5417 33.8522 31.3973 33.6008 31.3076V23.9854C33.6008 23.826 33.5375 23.6731 33.4248 23.5604C33.3121 23.4477 33.1592 23.3844 32.9998 23.3844C32.8404 23.3844 32.6876 23.4477 32.5749 23.5604C32.4622 23.6731 32.3989 23.826 32.3989 23.9854V31.3076C32.112 31.4085 31.8554 31.5804 31.653 31.8074C31.4507 32.0343 31.3092 32.3089 31.2417 32.6054C31.1743 32.9019 31.1831 33.2106 31.2674 33.5028C31.3517 33.7949 31.5087 34.0609 31.7237 34.2759C31.9387 34.4909 32.2047 34.6479 32.4969 34.7322C32.789 34.8165 33.0978 34.8253 33.3943 34.7579C33.6908 34.6905 33.9653 34.5489 34.1923 34.3466C34.4192 34.1442 34.5912 33.8876 34.692 33.6008H39.6104C39.7698 33.6008 39.9226 33.5375 40.0353 33.4248C40.148 33.3121 40.2114 33.1592 40.2114 32.9998C40.2114 32.8404 40.148 32.6876 40.0353 32.5749C39.9226 32.4622 39.7698 32.3989 39.6104 32.3989ZM32.9998 33.6008C32.881 33.6008 32.7648 33.5655 32.6659 33.4995C32.5671 33.4335 32.4901 33.3396 32.4446 33.2298C32.3991 33.12 32.3872 32.9991 32.4104 32.8826C32.4336 32.766 32.4908 32.6589 32.5749 32.5749C32.6589 32.4908 32.766 32.4336 32.8826 32.4104C32.9992 32.3872 33.12 32.3991 33.2298 32.4446C33.3396 32.4901 33.4335 32.5671 33.4995 32.6659C33.5655 32.7648 33.6008 32.881 33.6008 32.9998C33.6007 33.1592 33.5373 33.312 33.4246 33.4246C33.312 33.5373 33.1592 33.6007 32.9998 33.6008ZM44.0745 21.9907C44.0641 21.9784 44.06 21.9629 44.0484 21.9513C44.0367 21.9396 44.0212 21.9356 44.0089 21.9251C41.086 19.0111 37.1271 17.3748 32.9998 17.3748C28.8725 17.3748 24.9136 19.0111 21.9907 21.9251C21.9784 21.9356 21.9629 21.9396 21.9513 21.9513C21.9396 21.9629 21.9356 21.9784 21.9251 21.9907C19.0111 24.9136 17.3748 28.8725 17.3748 32.9998C17.3748 37.1271 19.0111 41.086 21.9251 44.0089C21.9356 44.0212 21.9396 44.0367 21.9513 44.0483C21.9629 44.06 21.9784 44.064 21.9907 44.0745C24.9136 46.9885 28.8725 48.6248 32.9998 48.6248C37.1271 48.6248 41.086 46.9885 44.0089 44.0745C44.0212 44.064 44.0367 44.06 44.0484 44.0483C44.06 44.0367 44.0641 44.0212 44.0745 44.0089C46.9885 41.086 48.6248 37.1271 48.6248 32.9998C48.6248 28.8725 46.9885 24.9136 44.0745 21.9907ZM43.5983 42.7485L42.3488 41.499C42.2357 41.3881 42.0835 41.3264 41.9251 41.3272C41.7668 41.328 41.6152 41.3913 41.5033 41.5032C41.3913 41.6152 41.3281 41.7668 41.3273 41.9251C41.3265 42.0834 41.3882 42.2356 41.499 42.3487L42.7485 43.5983C40.2463 45.9087 37.0037 47.2536 33.6008 47.3924V45.62C33.6008 45.4606 33.5375 45.3078 33.4248 45.1951C33.3121 45.0824 33.1592 45.019 32.9998 45.019C32.8404 45.019 32.6876 45.0824 32.5749 45.1951C32.4622 45.3078 32.3989 45.4606 32.3989 45.62V47.3924C28.9959 47.2536 25.7534 45.9087 23.2511 43.5983L24.5007 42.3488C24.6115 42.2357 24.6732 42.0834 24.6724 41.9251C24.6716 41.7668 24.6084 41.6152 24.4964 41.5033C24.3845 41.3913 24.2329 41.3281 24.0745 41.3273C23.9162 41.3265 23.764 41.3882 23.6509 41.499L22.4013 42.7485C20.0909 40.2463 18.746 37.0037 18.6072 33.6008H20.3796C20.539 33.6008 20.6919 33.5375 20.8046 33.4248C20.9173 33.3121 20.9806 33.1592 20.9806 32.9998C20.9806 32.8404 20.9173 32.6876 20.8046 32.5749C20.6919 32.4622 20.539 32.3989 20.3796 32.3989H18.6072C18.746 28.9959 20.0909 25.7533 22.4013 23.2511L23.6509 24.5007C23.764 24.6115 23.9162 24.6732 24.0745 24.6724C24.2328 24.6716 24.3844 24.6083 24.4964 24.4964C24.6083 24.3844 24.6716 24.2328 24.6724 24.0745C24.6732 23.9162 24.6115 23.764 24.5006 23.6509L23.2511 22.4013C25.7534 20.0909 28.9959 18.746 32.3989 18.6072V20.3796C32.3989 20.539 32.4622 20.6919 32.5749 20.8046C32.6876 20.9173 32.8404 20.9806 32.9998 20.9806C33.1592 20.9806 33.3121 20.9173 33.4248 20.8046C33.5375 20.6919 33.6008 20.539 33.6008 20.3796V18.6072C37.0037 18.746 40.2463 20.0909 42.7485 22.4013L41.499 23.6509C41.4422 23.7065 41.3971 23.7727 41.3662 23.8459C41.3352 23.919 41.3191 23.9976 41.3187 24.077C41.3183 24.1564 41.3336 24.2351 41.3638 24.3086C41.394 24.382 41.4385 24.4488 41.4947 24.5049C41.5508 24.5611 41.6176 24.6056 41.691 24.6358C41.7645 24.666 41.8432 24.6813 41.9226 24.6809C42.002 24.6805 42.0806 24.6644 42.1537 24.6334C42.2269 24.6025 42.2931 24.5574 42.3487 24.5006L43.5983 23.2511C45.9087 25.7533 47.2537 28.9959 47.3925 32.3989H45.62C45.4606 32.3989 45.3078 32.4622 45.1951 32.5749C45.0824 32.6876 45.0191 32.8404 45.0191 32.9998C45.0191 33.1592 45.0824 33.3121 45.1951 33.4248C45.3078 33.5375 45.4606 33.6008 45.62 33.6008H47.3925C47.2537 37.0037 45.9087 40.2463 43.5983 42.7485ZM32.9998 13.769C29.1963 13.769 25.4783 14.8969 22.3158 17.01C19.1533 19.1231 16.6884 22.1266 15.2329 25.6405C13.7774 29.1545 13.3965 33.0211 14.1386 36.7516C14.8806 40.482 16.7121 43.9085 19.4016 46.598C22.0911 49.2875 25.5177 51.119 29.2481 51.8611C32.9785 52.6031 36.8452 52.2223 40.3591 50.7667C43.8731 49.3112 46.8765 46.8463 48.9896 43.6839C51.1027 40.5214 52.2306 36.8033 52.2306 32.9998C52.2248 27.9013 50.1968 23.0133 46.5916 19.408C42.9864 15.8028 38.0983 13.7749 32.9998 13.769ZM32.9998 51.0287C29.4341 51.0287 25.9484 49.9713 22.9835 47.9902C20.0187 46.0092 17.7079 43.1935 16.3433 39.8992C14.9788 36.6048 14.6217 32.9798 15.3174 29.4826C16.013 25.9853 17.7301 22.7729 20.2515 20.2515C22.7729 17.7301 25.9853 16.013 29.4826 15.3174C32.9798 14.6217 36.6048 14.9788 39.8992 16.3433C43.1935 17.7079 46.0092 20.0187 47.9903 22.9835C49.9713 25.9484 51.0287 29.434 51.0287 32.9998C51.0233 37.7797 49.1221 42.3623 45.7422 45.7422C42.3623 49.1221 37.7797 51.0233 32.9998 51.0287Z" fill="#582D7F"/>
</g>
<defs>
<filter id="filter0_d_228_145" x="0" y="0" width="68" height="68" filterUnits="userSpaceOnUse" color-interpolation-filters="sRGB">
<feFlood flood-opacity="0" result="BackgroundImageFix"/>
<feColorMatrix in="SourceAlpha" type="matrix" values="0 0 0 0 0 0 0 0 0 0 0 0 0 0 0 0 0 0 127 0" result="hardAlpha"/>
<feOffset dx="1" dy="1"/>
<feGaussianBlur stdDeviation="2"/>
<feComposite in2="hardAlpha" operator="out"/>
<feColorMatrix type="matrix" values="0 0 0 0 0 0 0 0 0 0 0 0 0 0 0 0 0 0 0.2 0"/>
<feBlend mode="normal" in2="BackgroundImageFix" result="effect1_dropShadow_228_145"/>
<feBlend mode="normal" in="SourceGraphic" in2="effect1_dropShadow_228_145" result="shape"/>
</filter>
<clipPath id="clip0_228_145">
<rect width="40" height="40" fill="white" transform="translate(13 13)"/>
</clipPath>
</defs>
</svg>
