<svg width="68" height="68" viewBox="0 0 68 68" fill="none" xmlns="http://www.w3.org/2000/svg">
<g filter="url(#filter0_d_2182_7)">
<rect x="3" y="3" width="60" height="60" rx="10" fill="white"/>
</g>
<path d="M44.3595 44.9765C44.3595 47.7675 42.0969 50.03 39.3059 50.03H19.5V50.0285V50.0074V49.9859V49.9639V49.9416V49.9189V49.8957V49.8722V49.8482V49.8239V49.7991V49.774V49.7484V49.7224V49.6961V49.6693V49.6421V49.6146V49.5866V49.5583V49.5296V49.5005V49.471V49.4411V49.4108V49.3801V49.3491V49.3176V49.2858V49.2536V49.2211V49.1881V49.1548V49.1211V49.0871V49.0526V49.0178V48.9826V48.9471V48.9112V48.8749V48.8382V48.8012V48.7639V48.7261V48.688V48.6496V48.6108V48.5716V48.5321V48.4922V48.452V48.4115V48.3705V48.3293V48.2877V48.2457V48.2034V48.1607V48.1178V48.0744V48.0308V47.9868V47.9424V47.8977V47.8527V47.8074V47.7617V47.7157V47.6694V47.6227V47.5757V47.5284V47.4807V47.4328V47.3845V47.3359V47.287V47.2377V47.1882V47.1383V47.0881V47.0376V46.9868V46.9357V46.8842V46.8325V46.7804V46.7281V46.6754V46.6225V46.5692V46.5157V46.4618V46.4076V46.3532V46.2984V46.2434V46.1881V46.1324V46.0765V46.0203V45.9638V45.907V45.85V45.7926V45.735V45.6771V45.6189V45.5604V45.5017V45.4426V45.3833V45.3238V45.2639V45.2038V45.1434V45.0828V45.0218V44.9606V44.8992V44.8375V44.7755V44.7132V44.6507V44.588V44.5249V44.4617V44.3981V44.3344V44.2703V44.206V44.1415V44.0767V44.0117V43.9464V43.8809V43.8151V43.7491V43.6828V43.6163V43.5496V43.4826V43.4154V43.348V43.2803V43.2124V43.1443V43.0759V43.0073V42.9385V42.8695V42.8002V42.7307V42.661V42.591V42.5209V42.4505V42.3799V42.3091V42.2381V42.1668V42.0954V42.0237V41.9518V41.8798V41.8075V41.735V41.6623V41.5894V41.5163V41.443V41.3695V41.2958V41.2219V41.1478V41.0735V40.999V40.9243V40.8495V40.7744V40.6992V40.6237V40.5481V40.4723V40.3963V40.3202V40.2438V40.1673V40.0906V40.0137V39.9366V39.8594V39.782V39.7044V39.6267V39.5488V39.4707V39.3924V39.314V39.2354V39.1567V39.0778V38.9987V38.9195V38.8401V38.7606V38.6809V38.601V38.521V38.4409V38.3605V38.2801V38.1995V38.1187V38.0378V37.9568V37.8756V37.7943V37.7128V37.6312V37.5495V37.4676V37.3856V37.3034V37.2211V37.1387V37.0562V36.9735V36.8907V36.8078V36.7247V36.6416V36.5583V36.4748V36.3913V36.3076V36.2238V36.1399V36.0559V35.9718V35.8876V35.8032V35.7188V35.6342V35.5495V35.4647V35.3798V35.2948V35.2098V35.1246V35.0393V34.9539V34.8684V34.7828V34.6971V34.6113V34.5254V34.4395V34.3534V34.2673V34.1811V34.0947V34.0083V33.9218V33.8353V33.7486V33.6619V33.5751V33.4882V33.4012V33.3142V33.2271V33.1399V33.0527V32.9653V32.8779V32.7905V32.7029V32.6153V32.5277V32.44V32.3522V32.2644V32.1765V32.0885V32.0005V31.9124V31.8243V31.7361V31.6479V31.5596V31.4713V31.3829V31.2945V31.206V31.1175V31.029V30.9404V30.8518V30.7631V30.6744V30.5857V30.4969V30.4081V30.3192V30.2304V30.1415V30.0525V29.9636V29.8746V29.7856V29.6965V29.6075V29.5184V29.4293V29.3402V29.2511V29.1619V29.0728V28.9836V28.8944V28.8052V28.716V28.6268V28.5376V28.4483V28.3591V28.2698V28.1806V28.0914V28.0021V27.9129V27.8237V27.7344V27.6452V27.556V27.4668V27.3776V27.2884V27.1992V27.11V27.0209V26.9317V26.8426V26.7535V26.6644V26.5754V26.4863V26.3973V26.3083V26.2194V26.1304V26.0415V25.9526V25.8638V25.7749V25.6862V25.5974V25.5087V25.42V25.3314V25.2428V25.1542V25.0657V24.9772V24.8888V24.8004V24.712V24.6237V24.5355V24.4473V24.3592V24.2711V24.183V24.0951V24.0071V23.9193V23.8315V23.7437V23.6561V23.5684V23.4809V23.3934V23.306V23.2186V23.1314V23.0441V22.957V22.8699V22.783V22.696V22.6092V22.5224V22.4358V22.3492V22.2627V22.1762V22.0899V22.0036V21.9174V21.8313V21.7454V21.6594V21.5736V21.4879V21.4023V21.3168V21.2313V21.146V21.0608V20.9756V20.8906V20.8057V20.7209V20.6361V20.5515V20.467V20.3826V20.2984V20.2142V20.1301V20.0462V19.9624V19.8787V19.7951V19.7116V19.6283V19.5451V19.462V19.379V19.2961V19.2134V19.1308V19.0484V18.966V18.8838V18.8018V18.7198V18.6381V18.5564V18.4749V18.3935V18.3123V18.2312V18.1502V18.0694V17.9888V17.9083V17.8279V17.7477V17.6676V17.5877V17.508V17.4284V17.3489V17.2696V17.1905V17.1116V17.0328V16.9541V16.8756V16.7973V16.7192V16.6412V16.5634C19.5 16.2372 19.7674 15.9697 20.0937 15.9697H43.7658C44.0921 15.9697 44.3595 16.2372 44.3595 16.5634V44.9765Z" stroke="#582D7F"/>
<path d="M32.9037 44.9766C32.9037 47.088 33.9847 48.9469 35.6233 50.0301H19.1776C16.3866 50.0301 14.124 47.7676 14.124 44.9766V43.9444C14.124 43.8312 14.2177 43.7375 14.3309 43.7375H32.6968C32.81 43.7375 32.9037 43.8313 32.9037 43.9444V44.9766Z" stroke="#582D7F"/>
<path fill-rule="evenodd" clip-rule="evenodd" d="M38.5031 32.6758H34.7306V34.918H38.5031V32.6758ZM33.4806 32.6758H23.7388V34.918H33.4806V32.6758ZM34.7306 25.6913V27.9336H38.5031V25.9183C38.5031 25.8563 38.4775 25.7995 38.4363 25.7582C38.395 25.717 38.3383 25.6913 38.2763 25.6913H34.7306ZM34.7306 29.1836V31.4258H38.5031V29.1836H34.7306ZM34.7306 36.168V38.4102H38.2763C38.3384 38.4102 38.395 38.3845 38.4363 38.3433C38.4775 38.302 38.5031 38.2453 38.5031 38.1833V36.168H34.7306ZM33.4806 38.4102V36.168H23.7388V38.1832C23.7388 38.2452 23.7644 38.302 23.8056 38.3432C23.8469 38.3845 23.9036 38.4101 23.9656 38.4101H33.4806V38.4102ZM33.4806 31.4258V29.1836H23.7388V31.4258H33.4806ZM33.4806 27.9336V25.6913H23.9657C23.9036 25.6913 23.847 25.717 23.8057 25.7582C23.7645 25.7995 23.7388 25.8562 23.7388 25.9183V27.9336H33.4806ZM23.9657 24.4413H38.2763C38.6834 24.4413 39.0528 24.6071 39.3201 24.8745C39.5874 25.1418 39.7532 25.5112 39.7532 25.9183V28.5586V32.0508V35.543V38.1832C39.7532 38.5903 39.5874 38.9597 39.3201 39.227C39.0528 39.4944 38.6834 39.6602 38.2763 39.6602H23.9657C23.5586 39.6602 23.1892 39.4944 22.9219 39.227C22.6546 38.9597 22.4888 38.5903 22.4888 38.1832V35.543V32.0508V28.5586V25.9183C22.4888 25.5112 22.6546 25.1418 22.9219 24.8745C23.1892 24.6071 23.5585 24.4413 23.9657 24.4413ZM39.1281 18.2759C39.4733 18.2759 39.7531 18.5557 39.7531 18.9009C39.7531 19.246 39.4733 19.5259 39.1281 19.5259H29.1167C28.7715 19.5259 28.4917 19.246 28.4917 18.9009C28.4917 18.5557 28.7715 18.2759 29.1167 18.2759H39.1281ZM39.1281 20.6999C39.4733 20.6999 39.7531 20.9798 39.7531 21.3249C39.7531 21.6701 39.4733 21.9499 39.1281 21.9499H33.781C33.4359 21.9499 33.156 21.6701 33.156 21.3249C33.156 20.9798 33.4359 20.6999 33.781 20.6999H39.1281Z" fill="#582D7F"/>
<path d="M44.9675 32.774C48.9999 32.9973 52.0878 36.4473 51.8644 40.4797C51.6411 44.5121 48.1912 47.6 44.1588 47.3766C40.1264 47.1533 37.0385 43.7034 37.2618 39.671C37.4852 35.6386 40.9351 32.5507 44.9675 32.774Z" fill="white" stroke="#582D7F"/>
<path fill-rule="evenodd" clip-rule="evenodd" d="M43.5742 35.6305C44.3947 36.4505 44.398 37.7797 43.5773 38.601C42.7573 39.4215 41.4281 39.4248 40.6068 38.6041C39.7863 37.7841 39.7829 36.4549 40.6036 35.6336C41.4236 34.8131 42.7529 34.8098 43.5742 35.6305ZM41.4875 36.5126C41.155 36.8453 41.1522 37.3871 41.4857 37.7204C41.8185 38.0529 42.3603 38.0555 42.6935 37.7221C43.026 37.3894 43.0287 36.8476 42.6953 36.5143C42.3626 36.1818 41.8207 36.179 41.4875 36.5126ZM48.5201 41.5502C49.3351 42.3646 49.3383 43.7051 48.5233 44.5208C47.7034 45.3412 46.374 45.3447 45.5528 44.5239C44.7322 43.7039 44.7289 42.3747 45.5496 41.5533C46.3695 40.7328 47.6989 40.7295 48.5201 41.5502ZM47.6412 42.434C47.3085 42.1015 46.7666 42.0988 46.4334 42.4322C46.101 42.765 46.0982 43.3069 46.4317 43.6401C46.7643 43.9725 47.3063 43.9752 47.6395 43.6418C47.9714 43.3096 47.974 42.7666 47.6412 42.434ZM42.3215 44.2519C42.1302 44.5177 41.7596 44.5781 41.4938 44.3868C41.228 44.1955 41.1676 43.8248 41.3589 43.559L46.8953 35.8484C47.0867 35.5826 47.4573 35.5222 47.7231 35.7136C47.9889 35.9049 48.0493 36.2755 47.8579 36.5413L42.3215 44.2519Z" fill="#582D7F"/>
<rect x="19" y="44.2402" width="1" height="5.29" fill="white"/>
<defs>
<filter id="filter0_d_2182_7" x="0" y="0" width="68" height="68" filterUnits="userSpaceOnUse" color-interpolation-filters="sRGB">
<feFlood flood-opacity="0" result="BackgroundImageFix"/>
<feColorMatrix in="SourceAlpha" type="matrix" values="0 0 0 0 0 0 0 0 0 0 0 0 0 0 0 0 0 0 127 0" result="hardAlpha"/>
<feOffset dx="1" dy="1"/>
<feGaussianBlur stdDeviation="2"/>
<feComposite in2="hardAlpha" operator="out"/>
<feColorMatrix type="matrix" values="0 0 0 0 0 0 0 0 0 0 0 0 0 0 0 0 0 0 0.2 0"/>
<feBlend mode="normal" in2="BackgroundImageFix" result="effect1_dropShadow_2182_7"/>
<feBlend mode="normal" in="SourceGraphic" in2="effect1_dropShadow_2182_7" result="shape"/>
</filter>
</defs>
</svg>
