<svg width="68" height="68" viewBox="0 0 68 68" fill="none" xmlns="http://www.w3.org/2000/svg">
<g filter="url(#filter0_d_2182_16)">
<rect x="3" y="3" width="60" height="60" rx="10" fill="white"/>
</g>
<path d="M26.7502 46.7473H26.4314C25.9533 46.5879 25.7939 46.1098 25.9533 45.6316L37.7471 18.5379C37.9064 18.0598 38.3846 17.9004 38.8627 18.0598C39.3408 18.3785 39.5002 18.8566 39.3408 19.1754L27.5471 46.2691C27.3877 46.5879 27.0689 46.7473 26.7502 46.7473V46.7473Z" fill="#582D7F"/>
<path d="M46.6721 48.3408C46.5127 48.3408 46.3533 48.3408 46.1939 48.1814L39.9783 43.5596H29.1408C28.8221 43.5596 28.3439 43.5596 28.0252 43.4002C27.5471 43.2408 27.3877 42.9221 27.5471 42.4439C27.7064 41.9658 28.0252 41.8064 28.5033 41.9658C28.6627 41.9658 28.9814 42.1252 29.1408 42.1252H40.2971C40.4564 42.1252 40.6158 42.1252 40.7752 42.2846L45.8752 45.9502V42.7627C45.8752 42.2846 46.1939 41.9658 46.6721 41.9658H48.2658C49.5408 41.9658 50.6564 40.8502 50.6564 39.5752V28.4189C50.6564 27.1439 49.5408 26.0283 48.2658 26.0283H35.8346C35.3564 26.0283 35.0377 25.7096 35.0377 25.2314C35.0377 24.7533 35.3564 24.4346 35.8346 24.4346H48.2658C50.4971 24.4346 52.2502 26.1877 52.2502 28.4189V39.5752C52.2502 41.8064 50.4971 43.5596 48.2658 43.5596H47.4689V47.5439C47.4689 47.8627 47.3096 48.1814 46.9908 48.1814C46.8314 48.3408 46.8314 48.3408 46.6721 48.3408Z" fill="#582D7F"/>
<path d="M43.4844 38.7783C43.0062 38.7783 42.6875 38.4596 42.6875 37.9814V31.6064C42.6875 31.1283 42.3688 30.8096 41.8906 30.8096H38.7031C38.225 30.8096 37.9062 31.1283 37.9062 31.6064V37.9814C37.9062 38.4596 37.5875 38.7783 37.1094 38.7783C36.6312 38.7783 36.3125 38.4596 36.3125 37.9814V31.6064C36.3125 30.3314 37.4281 29.2158 38.7031 29.2158H41.8906C43.1656 29.2158 44.2812 30.3314 44.2812 31.6064V37.9814C44.2812 38.4596 43.9625 38.7783 43.4844 38.7783Z" fill="#582D7F"/>
<path d="M42.6875 35.5908H37.9062C37.4281 35.5908 37.1094 35.2721 37.1094 34.7939C37.1094 34.3158 37.4281 33.9971 37.9062 33.9971H42.6875C43.1656 33.9971 43.4844 34.3158 43.4844 34.7939C43.4844 35.2721 43.1656 35.5908 42.6875 35.5908ZM19.5781 45.1533C19.4187 45.1533 19.2594 45.1533 19.2594 44.9939C18.9406 44.9939 18.7812 44.6752 18.7812 44.3564V40.3721H17.9844C15.7531 40.3721 14 38.6189 14 36.3877V25.2314C14 23.0002 15.7531 21.2471 17.9844 21.2471H37.1094C37.5875 21.2471 37.9062 21.7252 37.9062 22.0439C37.9062 22.3627 37.5875 22.8408 37.1094 22.8408H17.9844C16.7094 22.8408 15.5938 23.9564 15.5938 25.2314V36.3877C15.5938 37.6627 16.7094 38.7783 17.9844 38.7783H19.5781C20.0563 38.7783 20.375 39.0971 20.375 39.5752V42.7627L25.475 38.9377C25.6344 38.7783 25.7937 38.7783 25.9531 38.7783H29.1406C29.6188 38.7783 29.9375 39.0971 29.9375 39.5752C29.9375 40.0533 29.6188 40.3721 29.1406 40.3721H26.2719L20.0563 44.9939C19.8969 45.1533 19.7375 45.1533 19.5781 45.1533V45.1533Z" fill="#582D7F"/>
<path d="M29.1406 27.6221H21.1719C20.6937 27.6221 20.375 27.3033 20.375 26.8252C20.375 26.3471 20.6937 26.0283 21.1719 26.0283H29.1406C29.6188 26.0283 29.9375 26.3471 29.9375 26.8252C29.9375 27.3033 29.6188 27.6221 29.1406 27.6221Z" fill="#582D7F"/>
<path d="M28.9811 37.1844C28.8217 37.1844 28.6623 37.1844 28.6623 37.025C24.8373 35.1125 22.2873 31.1281 22.1279 26.9844C22.1279 26.5062 22.4467 26.1875 22.9248 26.1875C23.4029 26.1875 23.7217 26.5062 23.7217 26.9844C23.8811 30.65 26.1123 33.9969 29.4592 35.75C29.7779 35.9094 29.9373 36.3875 29.7779 36.8656C29.4592 37.025 29.1404 37.1844 28.9811 37.1844V37.1844Z" fill="#582D7F"/>
<path d="M22.7655 35.9096C22.4468 35.9096 22.2874 35.7502 22.128 35.5908C21.9687 35.2721 21.9687 34.7939 22.4468 34.4752C24.9968 32.7221 26.5905 30.0127 26.7499 26.8252C26.7499 26.3471 27.0687 26.0283 27.5468 26.0283C28.0249 26.0283 28.3437 26.5064 28.3437 26.8252C28.1843 30.4908 26.2718 33.8377 23.2437 35.7502C23.0843 35.9096 22.9249 35.9096 22.7655 35.9096V35.9096ZM25.1562 27.6221C24.678 27.6221 24.3593 27.3033 24.3593 26.8252V25.2314C24.3593 24.7533 24.678 24.4346 25.1562 24.4346C25.6343 24.4346 25.953 24.7533 25.953 25.2314V26.8252C25.953 27.3033 25.6343 27.6221 25.1562 27.6221Z" fill="#582D7F"/>
<defs>
<filter id="filter0_d_2182_16" x="0" y="0" width="68" height="68" filterUnits="userSpaceOnUse" color-interpolation-filters="sRGB">
<feFlood flood-opacity="0" result="BackgroundImageFix"/>
<feColorMatrix in="SourceAlpha" type="matrix" values="0 0 0 0 0 0 0 0 0 0 0 0 0 0 0 0 0 0 127 0" result="hardAlpha"/>
<feOffset dx="1" dy="1"/>
<feGaussianBlur stdDeviation="2"/>
<feComposite in2="hardAlpha" operator="out"/>
<feColorMatrix type="matrix" values="0 0 0 0 0 0 0 0 0 0 0 0 0 0 0 0 0 0 0.2 0"/>
<feBlend mode="normal" in2="BackgroundImageFix" result="effect1_dropShadow_2182_16"/>
<feBlend mode="normal" in="SourceGraphic" in2="effect1_dropShadow_2182_16" result="shape"/>
</filter>
</defs>
</svg>
