<svg width="1005" height="75" viewBox="0 0 1005 75" fill="none" xmlns="http://www.w3.org/2000/svg">
<circle cx="38" cy="38" r="29.5" fill="white" stroke="#582D7F"/>
<circle cx="37.5" cy="37.5" r="37" stroke="white"/>
<path d="M39.864 30.2V47H36.744V32.816H33.192V30.2H39.864Z" fill="#582D7F"/>
<circle cx="355" cy="37" r="29.5" stroke="white"/>
<path d="M361.224 43.36V46H348.84V43.912L355.512 37.576C356.264 36.856 356.768 36.232 357.024 35.704C357.296 35.16 357.432 34.624 357.432 34.096C357.432 33.312 357.168 32.712 356.64 32.296C356.112 31.88 355.336 31.672 354.312 31.672C352.6 31.672 351.288 32.256 350.376 33.424L348.192 31.744C348.848 30.864 349.728 30.184 350.832 29.704C351.952 29.208 353.2 28.96 354.576 28.96C356.4 28.96 357.856 29.392 358.944 30.256C360.032 31.12 360.576 32.296 360.576 33.784C360.576 34.696 360.384 35.552 360 36.352C359.616 37.152 358.88 38.064 357.792 39.088L353.304 43.36H361.224Z" fill="white"/>
<circle cx="665" cy="37" r="29.5" stroke="white"/>
<path d="M666.208 36.136C667.76 36.328 668.944 36.856 669.76 37.72C670.576 38.584 670.984 39.664 670.984 40.96C670.984 41.936 670.736 42.824 670.24 43.624C669.744 44.424 668.992 45.064 667.984 45.544C666.992 46.008 665.776 46.24 664.336 46.24C663.136 46.24 661.976 46.072 660.856 45.736C659.752 45.384 658.808 44.904 658.024 44.296L659.368 41.872C659.976 42.384 660.712 42.792 661.576 43.096C662.456 43.384 663.36 43.528 664.288 43.528C665.392 43.528 666.256 43.304 666.88 42.856C667.52 42.392 667.84 41.768 667.84 40.984C667.84 40.2 667.536 39.592 666.928 39.16C666.336 38.712 665.424 38.488 664.192 38.488H662.656V36.352L666.472 31.816H658.84V29.2H670.288V31.288L666.208 36.136Z" fill="white"/>
<circle cx="975" cy="37" r="29.5" stroke="white"/>
<path d="M983.032 42.184H980.056V46H977.032V42.184H967.816V40.024L976.096 29.2H979.432L971.632 39.544H977.128V36.16H980.056V39.544H983.032V42.184Z" fill="white"/>
<line x1="120" y1="39.5" x2="280" y2="39.5" stroke="white"/>
<line x1="430" y1="39.5" x2="590" y2="39.5" stroke="white"/>
<line x1="740" y1="39.5" x2="900" y2="39.5" stroke="white"/>
</svg>
