<svg width="60" height="60" viewBox="0 0 60 60" fill="none" xmlns="http://www.w3.org/2000/svg">
<circle cx="30" cy="30" r="29.5" stroke="white"/>
<path d="M36.224 36.36V39H23.84V36.912L30.512 30.576C31.264 29.856 31.768 29.232 32.024 28.704C32.296 28.16 32.432 27.624 32.432 27.096C32.432 26.312 32.168 25.712 31.64 25.296C31.112 24.88 30.336 24.672 29.312 24.672C27.6 24.672 26.288 25.256 25.376 26.424L23.192 24.744C23.848 23.864 24.728 23.184 25.832 22.704C26.952 22.208 28.2 21.96 29.576 21.96C31.4 21.96 32.856 22.392 33.944 23.256C35.032 24.12 35.576 25.296 35.576 26.784C35.576 27.696 35.384 28.552 35 29.352C34.616 30.152 33.88 31.064 32.792 32.088L28.304 36.36H36.224Z" fill="white"/>
</svg>
