<svg width="60" height="60" viewBox="0 0 60 60" fill="none" xmlns="http://www.w3.org/2000/svg">
<circle cx="30" cy="30" r="29.5" stroke="white"/>
<path d="M31.208 29.136C32.76 29.328 33.944 29.856 34.76 30.72C35.576 31.584 35.984 32.664 35.984 33.96C35.984 34.936 35.736 35.824 35.24 36.624C34.744 37.424 33.992 38.064 32.984 38.544C31.992 39.008 30.776 39.24 29.336 39.24C28.136 39.24 26.976 39.072 25.856 38.736C24.752 38.384 23.808 37.904 23.024 37.296L24.368 34.872C24.976 35.384 25.712 35.792 26.576 36.096C27.456 36.384 28.36 36.528 29.288 36.528C30.392 36.528 31.256 36.304 31.88 35.856C32.52 35.392 32.84 34.768 32.84 33.984C32.84 33.2 32.536 32.592 31.928 32.16C31.336 31.712 30.424 31.488 29.192 31.488H27.656V29.352L31.472 24.816H23.84V22.2H35.288V24.288L31.208 29.136Z" fill="white"/>
</svg>
