<svg width="68" height="68" fill="none" xmlns="http://www.w3.org/2000/svg"><g filter="url(#filter0_d_2182_7)"><rect x="3" y="3" width="60" height="60" rx="10" fill="#fff"/></g><path d="M44.36 44.977a5.054 5.054 0 01-5.054 5.053H19.5V16.563c0-.326.267-.593.594-.593h23.672c.326 0 .593.267.593.593v28.414z" stroke="#582D7F"/><path d="M32.904 44.977a6.048 6.048 0 002.72 5.053H19.177a5.054 5.054 0 01-5.054-5.053v-1.033c0-.113.094-.207.207-.207h18.366c.113 0 .207.094.207.207v1.033z" stroke="#582D7F"/><path fill-rule="evenodd" clip-rule="evenodd" d="M38.503 32.676h-3.772v2.242h3.772v-2.242zm-5.022 0h-9.742v2.242h9.742v-2.242zm1.25-6.985v2.243h3.772v-2.016a.227.227 0 00-.227-.227h-3.545zm0 3.493v2.242h3.772v-2.242h-3.772zm0 6.984v2.242h3.545a.226.226 0 00.227-.227v-2.015h-3.772zm-1.25 2.242v-2.242h-9.742v2.015c0 .062.025.119.067.16a.226.226 0 00.16.067h9.515zm0-6.984v-2.242h-9.742v2.242h9.742zm0-3.492V25.69h-9.515a.227.227 0 00-.227.227v2.016h9.742zm-9.515-3.493h14.31c.407 0 .777.166 1.044.434.267.267.433.636.433 1.043v12.265c0 .407-.166.777-.433 1.044a1.472 1.472 0 01-1.044.433h-14.31c-.407 0-.777-.166-1.044-.433a1.473 1.473 0 01-.433-1.044V25.92c0-.408.166-.777.433-1.044a1.472 1.472 0 011.044-.434zm15.162-6.165a.625.625 0 110 1.25H29.117a.625.625 0 010-1.25h10.011zm0 2.424a.625.625 0 010 1.25h-5.347a.625.625 0 010-1.25h5.347z" fill="#582D7F"/><path d="M44.968 32.774a7.312 7.312 0 11-.81 14.602 7.312 7.312 0 01.81-14.602z" fill="#fff" stroke="#582D7F"/><path fill-rule="evenodd" clip-rule="evenodd" d="M43.574 35.63a2.1 2.1 0 11-2.966 2.974 2.1 2.1 0 012.966-2.974zm-2.087.883a.855.855 0 001.206 1.21.855.855 0 00-1.206-1.21zm7.033 5.037a2.11 2.11 0 01.003 2.97 2.1 2.1 0 11-.003-2.97zm-.879.884a.855.855 0 00-1.21 1.206.855.855 0 001.21-1.206zm-5.32 1.818a.593.593 0 11-.962-.693l5.536-7.71a.593.593 0 01.963.692l-5.536 7.71z" fill="#582D7F"/><path fill="#fff" d="M19 44.24h1v5.29h-1z"/><defs><filter id="filter0_d_2182_7" x="0" y="0" width="68" height="68" filterUnits="userSpaceOnUse" color-interpolation-filters="sRGB"><feFlood flood-opacity="0" result="BackgroundImageFix"/><feColorMatrix in="SourceAlpha" values="0 0 0 0 0 0 0 0 0 0 0 0 0 0 0 0 0 0 127 0" result="hardAlpha"/><feOffset dx="1" dy="1"/><feGaussianBlur stdDeviation="2"/><feComposite in2="hardAlpha" operator="out"/><feColorMatrix values="0 0 0 0 0 0 0 0 0 0 0 0 0 0 0 0 0 0 0.2 0"/><feBlend in2="BackgroundImageFix" result="effect1_dropShadow_2182_7"/><feBlend in="SourceGraphic" in2="effect1_dropShadow_2182_7" result="shape"/></filter></defs></svg>