<svg width="68" height="68" fill="none" xmlns="http://www.w3.org/2000/svg"><g filter="url(#filter0_d_2182_17)"><rect x="3" y="3" width="60" height="60" rx="10" fill="#fff"/></g><g clip-path="url(#clip0_2182_17)" fill="#582D7F"><path d="M32.995 26.729a3.603 3.603 0 103.608 3.608 3.612 3.612 0 00-3.608-3.608zm0 6.6a2.997 2.997 0 11.007-5.993 2.997 2.997 0 01-.007 5.994z"/><path d="M51.788 32.394h-2.423c-.313-8.551-7.208-15.447-15.759-15.76v-2.422a.606.606 0 10-1.212 0v2.422c-8.55.313-15.446 7.209-15.76 15.76h-2.422a.606.606 0 100 1.212h2.422c.314 8.55 7.21 15.446 15.76 15.76v2.422a.606.606 0 101.212 0v-2.423c8.55-.313 15.446-7.208 15.76-15.759h2.422a.606.606 0 100-1.212zm-3.635 0h-3.272c-.309-6.084-5.191-10.967-11.275-11.276v-3.272c7.882.312 14.236 6.665 14.547 14.548zm-6.907 1.212h3.029a11.244 11.244 0 01-2.894 6.955 8.719 8.719 0 00-4.511-5.282.303.303 0 00-.31.025 6.111 6.111 0 01-3.568 1.145 6.064 6.064 0 01-3.56-1.144.303.303 0 00-.31-.026 8.752 8.752 0 00-4.503 5.282 11.243 11.243 0 01-2.894-6.955h3.029a.606.606 0 100-1.212h-3.029c.307-5.75 4.92-10.363 10.669-10.67v3.03a.606.606 0 101.212 0v-3.03c5.75.307 10.362 4.92 10.669 10.67h-3.029a.606.606 0 100 1.212zM33 40.64a.606.606 0 00-.606.606v3.029a11.26 11.26 0 01-7.296-3.203 8.148 8.148 0 014.132-5.169 6.663 6.663 0 003.762 1.152c1.35 0 2.65-.398 3.77-1.153a8.118 8.118 0 014.14 5.17 11.26 11.26 0 01-7.296 3.203v-3.03A.606.606 0 0033 40.64zm-.606-22.794v3.272c-6.084.309-10.967 5.192-11.275 11.276h-3.272c.311-7.883 6.664-14.236 14.547-14.548zm-14.547 15.76h3.272a11.875 11.875 0 0011.275 11.275v3.272c-7.883-.311-14.236-6.665-14.547-14.547zm15.759 14.547v-3.272a11.876 11.876 0 0011.275-11.275h3.272c-.311 7.882-6.665 14.236-14.547 14.547z"/></g><defs><clipPath id="clip0_2182_17"><path fill="#fff" transform="translate(13 13)" d="M0 0h40v40H0z"/></clipPath><filter id="filter0_d_2182_17" x="0" y="0" width="68" height="68" filterUnits="userSpaceOnUse" color-interpolation-filters="sRGB"><feFlood flood-opacity="0" result="BackgroundImageFix"/><feColorMatrix in="SourceAlpha" values="0 0 0 0 0 0 0 0 0 0 0 0 0 0 0 0 0 0 127 0" result="hardAlpha"/><feOffset dx="1" dy="1"/><feGaussianBlur stdDeviation="2"/><feComposite in2="hardAlpha" operator="out"/><feColorMatrix values="0 0 0 0 0 0 0 0 0 0 0 0 0 0 0 0 0 0 0.2 0"/><feBlend in2="BackgroundImageFix" result="effect1_dropShadow_2182_17"/><feBlend in="SourceGraphic" in2="effect1_dropShadow_2182_17" result="shape"/></filter></defs></svg>