<svg width="68" height="68" fill="none" xmlns="http://www.w3.org/2000/svg"><g filter="url(#filter0_d_228_145)"><rect x="3" y="3" width="60" height="60" rx="10" fill="#fff"/></g><g clip-path="url(#clip0_228_145)"><path d="M39.61 32.399h-4.918a1.8 1.8 0 00-1.091-1.091v-7.323a.601.601 0 10-1.202 0v7.323a1.799 1.799 0 102.293 2.293h4.918a.6.6 0 100-1.202zM33 33.6a.602.602 0 110-1.204.602.602 0 010 1.204zm11.075-11.61c-.01-.013-.015-.028-.027-.04-.011-.011-.027-.015-.04-.026a15.593 15.593 0 00-22.017 0c-.013.01-.028.015-.04.026-.011.012-.015.027-.026.04a15.593 15.593 0 000 22.018c.01.012.015.028.026.04.012.011.027.015.04.026a15.593 15.593 0 0022.018 0c.012-.011.028-.015.04-.027.011-.011.015-.027.026-.04a15.593 15.593 0 000-22.017zm-.477 20.758l-1.25-1.25a.6.6 0 00-.849.85l1.25 1.25a14.346 14.346 0 01-9.148 3.793V45.62a.6.6 0 10-1.202 0v1.772a14.347 14.347 0 01-9.148-3.794l1.25-1.25a.601.601 0 00-.85-.849l-1.25 1.25a14.346 14.346 0 01-3.794-9.148h1.773a.601.601 0 100-1.202h-1.773a14.346 14.346 0 013.794-9.148l1.25 1.25a.6.6 0 00.85-.85l-1.25-1.25a14.347 14.347 0 019.148-3.794v1.773a.601.601 0 101.202 0v-1.773a14.346 14.346 0 019.148 3.794l-1.25 1.25a.598.598 0 00-.004.854.6.6 0 00.854-.004l1.25-1.25a14.347 14.347 0 013.794 9.148H45.62a.6.6 0 100 1.202h1.773a14.347 14.347 0 01-3.795 9.148zM33 13.768a19.23 19.23 0 1019.23 19.23A19.253 19.253 0 0033 13.77zm0 37.26a18.029 18.029 0 1118.029-18.03 18.05 18.05 0 01-18.03 18.03z" fill="#582D7F"/></g><defs><clipPath id="clip0_228_145"><path fill="#fff" transform="translate(13 13)" d="M0 0h40v40H0z"/></clipPath><filter id="filter0_d_228_145" x="0" y="0" width="68" height="68" filterUnits="userSpaceOnUse" color-interpolation-filters="sRGB"><feFlood flood-opacity="0" result="BackgroundImageFix"/><feColorMatrix in="SourceAlpha" values="0 0 0 0 0 0 0 0 0 0 0 0 0 0 0 0 0 0 127 0" result="hardAlpha"/><feOffset dx="1" dy="1"/><feGaussianBlur stdDeviation="2"/><feComposite in2="hardAlpha" operator="out"/><feColorMatrix values="0 0 0 0 0 0 0 0 0 0 0 0 0 0 0 0 0 0 0.2 0"/><feBlend in2="BackgroundImageFix" result="effect1_dropShadow_228_145"/><feBlend in="SourceGraphic" in2="effect1_dropShadow_228_145" result="shape"/></filter></defs></svg>