<svg width="68" height="68" fill="none" xmlns="http://www.w3.org/2000/svg"><g filter="url(#filter0_d_2182_8)"><rect x="3" y="3" width="60" height="60" rx="10" fill="#fff"/></g><g clip-path="url(#clip0_2182_8)" fill="#582D7F"><path d="M50.029 42.597a.714.714 0 00-.715.714v2.614a2.142 2.142 0 01-2.142 2.143H18a2.143 2.143 0 01-2.143-2.143V23.068c0-1.184.96-2.143 2.143-2.143h7.014a.714.714 0 100-1.428H18a3.571 3.571 0 00-3.571 3.571v22.857A3.571 3.571 0 0018 49.497h29.172a3.586 3.586 0 003.571-3.572v-2.614a.714.714 0 00-.714-.714z"/><path d="M50.857 30.654h-.114v-7.586a3.586 3.586 0 00-3.571-3.571.714.714 0 100 1.428c1.183 0 2.143.96 2.143 2.143v.4h-.8l-4.286-4.285-3.114-3.115a.715.715 0 00-1.015 0l-3.77 3.772-3.786-3.772a.728.728 0 00-1.014 0l-7.4 7.4h-2.557a.714.714 0 100 1.429h27.743v5.714h-4.172a5 5 0 00-5 5v.543a5 5 0 005 5h5.714c1.184 0 2.143-.96 2.143-2.143v-6.214c0-1.184-.96-2.143-2.143-2.143zM40.615 17.582l2.071 2.072a3.714 3.714 0 01-4.143 0l2.072-2.072zm-3.086 3.086a5.086 5.086 0 006.171 0l2.857 2.857h-6.614l-2.614-2.671.2-.186zm-8.286 2.857l4.286-4.285 1 1-3.286 3.228-2 .057zm6.357-2.328l2.4 2.271h-4.743l2.343-2.271zm-3.557-3.614l.529.528-5.357 5.357h-1.058l5.886-5.886zM51.572 39.01c0 .395-.32.714-.715.714h-5.714a3.571 3.571 0 01-3.571-3.571v-.543a3.571 3.571 0 013.571-3.571h5.714c.395 0 .715.32.715.714v6.257z"/><path d="M44.543 35.857a1.429 1.429 0 100-2.857 1.429 1.429 0 000 2.857z"/></g><defs><clipPath id="clip0_2182_8"><path fill="#fff" transform="translate(13 13)" d="M0 0h40v40H0z"/></clipPath><filter id="filter0_d_2182_8" x="0" y="0" width="68" height="68" filterUnits="userSpaceOnUse" color-interpolation-filters="sRGB"><feFlood flood-opacity="0" result="BackgroundImageFix"/><feColorMatrix in="SourceAlpha" values="0 0 0 0 0 0 0 0 0 0 0 0 0 0 0 0 0 0 127 0" result="hardAlpha"/><feOffset dx="1" dy="1"/><feGaussianBlur stdDeviation="2"/><feComposite in2="hardAlpha" operator="out"/><feColorMatrix values="0 0 0 0 0 0 0 0 0 0 0 0 0 0 0 0 0 0 0.2 0"/><feBlend in2="BackgroundImageFix" result="effect1_dropShadow_2182_8"/><feBlend in="SourceGraphic" in2="effect1_dropShadow_2182_8" result="shape"/></filter></defs></svg>