<svg width="68" height="68" fill="none" xmlns="http://www.w3.org/2000/svg"><g filter="url(#filter0_d_2182_9)"><rect x="3" y="3" width="60" height="60" rx="10" fill="#fff"/></g><path d="M32.697 13c-3.291 0-5.966 2.64-6.046 5.913-.001.004.002.007 0 .011-.001.047-.015.09-.015.137 0 .027.012.05.015.076.003.026-.004.052 0 .078l2.841 13.497a3.024 3.024 0 00-2.885 3.012c0 1.114.61 2.08 1.509 2.607a2.268 2.268 0 01-2.237 1.942h-3.03a3.792 3.792 0 00-3.788 3.788v4.545c0 .418.339.758.757.758h.758v2.272c0 .418.34.758.757.758H44.06c.419 0 .758-.34.758-.758v-2.272h.758c.418 0 .757-.34.757-.758v-4.545c0-2.09-1.7-3.788-3.788-3.788h-3.03a2.271 2.271 0 01-2.243-1.968 3.026 3.026 0 001.459-2.578 3.024 3.024 0 00-2.832-3.01l2.84-13.502c.007-.028 0-.052 0-.078.005-.027.019-.05.019-.076 0-.047-.014-.09-.015-.137v-.011C38.663 15.64 35.988 13 32.697 13zm0 1.515c2.488 0 4.51 2.01 4.54 4.492l-2.883 13.69H31.04l-2.883-13.69a4.546 4.546 0 014.54-4.492zM29.64 34.212h6.06a1.516 1.516 0 01.001 3.03H29.64a1.517 1.517 0 01-1.515-1.515c0-.836.68-1.515 1.515-1.515zm6.164 4.534a3.77 3.77 0 00.701 1.527h-7.614a3.78 3.78 0 00.699-1.521c.016 0 .033.006.05.006h6.06c.035 0 .07-.01.104-.012zm-12.956 3.042h19.697a2.275 2.275 0 012.273 2.273v3.788H20.576V44.06a2.275 2.275 0 012.272-2.273zm-.757 7.576h21.212v1.515H22.091v-1.515z" fill="#582D7F"/><defs><filter id="filter0_d_2182_9" x="0" y="0" width="68" height="68" filterUnits="userSpaceOnUse" color-interpolation-filters="sRGB"><feFlood flood-opacity="0" result="BackgroundImageFix"/><feColorMatrix in="SourceAlpha" values="0 0 0 0 0 0 0 0 0 0 0 0 0 0 0 0 0 0 127 0" result="hardAlpha"/><feOffset dx="1" dy="1"/><feGaussianBlur stdDeviation="2"/><feComposite in2="hardAlpha" operator="out"/><feColorMatrix values="0 0 0 0 0 0 0 0 0 0 0 0 0 0 0 0 0 0 0.2 0"/><feBlend in2="BackgroundImageFix" result="effect1_dropShadow_2182_9"/><feBlend in="SourceGraphic" in2="effect1_dropShadow_2182_9" result="shape"/></filter></defs></svg>