<svg width="68" height="68" fill="none" xmlns="http://www.w3.org/2000/svg"><g filter="url(#filter0_d_2182_10)"><rect x="3" y="3" width="60" height="60" rx="10" fill="#fff"/></g><path d="M40.505 51.304v-5.97a2.07 2.07 0 012.065-2.066h5.971V15.422a.729.729 0 00-.725-.726H26.08v2.707h17.663v12.612H26.08v21.289h14.424zM24.741 14.696h-2.373a.729.729 0 00-.725.726v1.98h3.098v-2.706zm0 15.319h-3.098v20.563a.73.73 0 00.725.726h2.373v-21.29zm-4.438 3.523l-3.933-3.523h-.053V17.402h3.986v-1.98a2.07 2.07 0 012.065-2.066h25.448a2.07 2.07 0 012.065 2.066v28.792l-8.428 8.428H22.37a2.07 2.07 0 01-2.065-2.066v-17.04l-.002.002zm-1.934-3.523l1.934 1.733v-1.733H18.37zm24.035-11.273H17.657v9.933h24.747v-9.933zm5.19 25.866H42.57a.729.729 0 00-.725.725v5.025l5.75-5.75z" fill="#582D7F"/><path d="M21.083 25.51c.267 0 .512-.042.735-.128a1.57 1.57 0 00.569-.368c.156-.158.279-.347.367-.564.089-.217.133-.458.133-.726v-.018a1.94 1.94 0 00-.133-.725 1.634 1.634 0 00-.936-.944 1.97 1.97 0 00-.735-.133h-1.017v3.605h1.017v.002zm-2.332-4.79h2.332c.466 0 .896.076 1.286.226.39.15.725.36 1.008.627.281.267.5.583.653.944.155.362.231.753.231 1.175v.018c0 .422-.076.814-.231 1.18a2.808 2.808 0 01-.653.948 3.116 3.116 0 01-1.008.633 3.47 3.47 0 01-1.286.23H18.75V20.72zm8.855 4.867c.261 0 .504-.048.725-.145a1.65 1.65 0 00.569-.402 1.912 1.912 0 00.5-1.313v-.018c0-.258-.044-.499-.133-.726a1.81 1.81 0 00-.375-.598 1.813 1.813 0 00-.577-.406 1.74 1.74 0 00-.725-.149c-.267 0-.51.048-.73.145a1.675 1.675 0 00-.564.401 1.911 1.911 0 00-.5 1.314v.018c0 .258.044.499.133.726a1.81 1.81 0 00.948 1.004c.219.1.462.149.731.149h-.002zm-.018 1.213a3.202 3.202 0 01-2.276-.9c-.281-.275-.5-.6-.657-.974a3.07 3.07 0 01-.235-1.2v-.017a3.077 3.077 0 01.9-2.182 3.097 3.097 0 011.008-.667 3.28 3.28 0 011.278-.243c.462 0 .886.08 1.272.243a3.2 3.2 0 011.004.657c.281.275.5.6.657.974.157.374.235.774.235 1.2v.018a3.077 3.077 0 01-.9 2.182 3.103 3.103 0 01-1.008.666 3.28 3.28 0 01-1.278.243zm6.413 0c-.438 0-.846-.08-1.222-.239a3.01 3.01 0 01-.974-.653 2.987 2.987 0 01-.641-.978 3.133 3.133 0 01-.231-1.203v-.018a3.091 3.091 0 01.872-2.182c.273-.282.6-.505.982-.667a3.192 3.192 0 011.264-.243c.279 0 .534.022.765.068.231.046.44.109.627.189.189.08.361.177.52.291.159.115.308.24.444.376l-.837.964a3.202 3.202 0 00-.714-.496 1.802 1.802 0 00-.815-.179 1.64 1.64 0 00-1.246.546 1.89 1.89 0 00-.36.593 1.996 1.996 0 00-.128.721v.018a2.018 2.018 0 00.482 1.324 1.632 1.632 0 001.252.554c.341 0 .63-.061.867-.188a3.29 3.29 0 00.706-.512l.837.846a4.468 4.468 0 01-.478.444 2.795 2.795 0 01-1.187.55 3.902 3.902 0 01-.785.072v.002zm4.387-3.144L36.39 20.72h1.537l1.256 1.939 1.263-1.939h1.495l-2.001 2.92 2.083 3.058h-1.537l-1.34-2.05-1.35 2.05h-1.494l2.083-3.042h.002z" fill="#582D7F"/><defs><filter id="filter0_d_2182_10" x="0" y="0" width="68" height="68" filterUnits="userSpaceOnUse" color-interpolation-filters="sRGB"><feFlood flood-opacity="0" result="BackgroundImageFix"/><feColorMatrix in="SourceAlpha" values="0 0 0 0 0 0 0 0 0 0 0 0 0 0 0 0 0 0 127 0" result="hardAlpha"/><feOffset dx="1" dy="1"/><feGaussianBlur stdDeviation="2"/><feComposite in2="hardAlpha" operator="out"/><feColorMatrix values="0 0 0 0 0 0 0 0 0 0 0 0 0 0 0 0 0 0 0.2 0"/><feBlend in2="BackgroundImageFix" result="effect1_dropShadow_2182_10"/><feBlend in="SourceGraphic" in2="effect1_dropShadow_2182_10" result="shape"/></filter></defs></svg>