<svg width="68" height="68" fill="none" xmlns="http://www.w3.org/2000/svg"><g filter="url(#filter0_d_2182_16)"><rect x="3" y="3" width="60" height="60" rx="10" fill="#fff"/></g><path d="M26.75 46.747h-.319c-.478-.16-.637-.637-.478-1.115l11.794-27.094c.16-.478.638-.638 1.116-.478.478.319.637.797.478 1.115L27.547 46.27a.877.877 0 01-.797.478z" fill="#582D7F"/><path d="M46.672 48.34c-.16 0-.319 0-.478-.159l-6.216-4.621H29.141c-.319 0-.797 0-1.116-.16-.478-.16-.637-.478-.478-.956.16-.478.478-.638.956-.478.16 0 .478.16.638.16h11.156c.16 0 .319 0 .478.159l5.1 3.665v-3.187c0-.478.319-.797.797-.797h1.594c1.275 0 2.39-1.116 2.39-2.39V28.418c0-1.275-1.115-2.39-2.39-2.39H35.835c-.479 0-.797-.32-.797-.798 0-.478.318-.796.797-.796h12.43a3.946 3.946 0 013.985 3.984v11.156a3.946 3.946 0 01-3.984 3.985h-.797v3.984c0 .319-.16.637-.478.637-.16.16-.16.16-.319.16z" fill="#582D7F"/><path d="M43.484 38.778c-.478 0-.797-.318-.797-.797v-6.375c0-.478-.318-.796-.796-.796h-3.188c-.478 0-.797.318-.797.796v6.375c0 .479-.319.797-.797.797-.478 0-.797-.318-.797-.797v-6.375c0-1.275 1.116-2.39 2.391-2.39h3.188c1.275 0 2.39 1.115 2.39 2.39v6.375c0 .479-.319.797-.797.797z" fill="#582D7F"/><path d="M42.688 35.59h-4.782c-.478 0-.797-.318-.797-.796 0-.478.32-.797.797-.797h4.782c.478 0 .796.319.796.797 0 .478-.318.797-.797.797zm-23.11 9.563c-.16 0-.319 0-.319-.16-.318 0-.478-.318-.478-.637v-3.984h-.797A3.946 3.946 0 0114 36.388V25.23a3.946 3.946 0 013.984-3.984H37.11c.478 0 .797.478.797.797 0 .319-.319.797-.797.797H17.984c-1.275 0-2.39 1.115-2.39 2.39v11.157c0 1.275 1.115 2.39 2.39 2.39h1.594c.478 0 .797.32.797.797v3.188l5.1-3.825c.16-.16.319-.16.478-.16h3.188c.478 0 .797.32.797.797 0 .478-.32.797-.797.797h-2.87l-6.215 4.622c-.16.16-.319.16-.478.16z" fill="#582D7F"/><path d="M29.14 27.622h-7.968c-.478 0-.797-.319-.797-.797 0-.478.319-.797.797-.797h7.969c.478 0 .797.32.797.797 0 .478-.32.797-.797.797z" fill="#582D7F"/><path d="M28.981 37.184c-.16 0-.319 0-.319-.159-3.825-1.913-6.375-5.897-6.534-10.04 0-.479.319-.797.797-.797.478 0 .797.318.797.796.16 3.666 2.39 7.013 5.737 8.766.319.16.478.638.319 1.116-.319.159-.638.318-.797.318z" fill="#582D7F"/><path d="M22.765 35.91c-.318 0-.478-.16-.637-.32-.16-.318-.16-.796.319-1.115 2.55-1.753 4.143-4.462 4.303-7.65 0-.478.319-.797.797-.797.478 0 .797.478.797.797-.16 3.666-2.072 7.013-5.1 8.925-.16.16-.32.16-.479.16zm2.391-8.288c-.478 0-.797-.319-.797-.797v-1.594c0-.478.319-.796.797-.796.478 0 .797.318.797.796v1.594c0 .478-.319.797-.797.797z" fill="#582D7F"/><defs><filter id="filter0_d_2182_16" x="0" y="0" width="68" height="68" filterUnits="userSpaceOnUse" color-interpolation-filters="sRGB"><feFlood flood-opacity="0" result="BackgroundImageFix"/><feColorMatrix in="SourceAlpha" values="0 0 0 0 0 0 0 0 0 0 0 0 0 0 0 0 0 0 127 0" result="hardAlpha"/><feOffset dx="1" dy="1"/><feGaussianBlur stdDeviation="2"/><feComposite in2="hardAlpha" operator="out"/><feColorMatrix values="0 0 0 0 0 0 0 0 0 0 0 0 0 0 0 0 0 0 0.2 0"/><feBlend in2="BackgroundImageFix" result="effect1_dropShadow_2182_16"/><feBlend in="SourceGraphic" in2="effect1_dropShadow_2182_16" result="shape"/></filter></defs></svg>