<svg width="1005" height="75" fill="none" xmlns="http://www.w3.org/2000/svg"><circle cx="38" cy="38" r="29.5" fill="#fff" stroke="#582D7F"/><circle cx="37.5" cy="37.5" r="37" stroke="#fff"/><path d="M39.864 30.2V47h-3.12V32.816h-3.552V30.2h6.672z" fill="#582D7F"/><circle cx="355" cy="37" r="29.5" stroke="#fff"/><path d="M361.224 43.36V46H348.84v-2.088l6.672-6.336c.752-.72 1.256-1.344 1.512-1.872.272-.544.408-1.08.408-1.608 0-.784-.264-1.384-.792-1.8-.528-.416-1.304-.624-2.328-.624-1.712 0-3.024.584-3.936 1.752l-2.184-1.68c.656-.88 1.536-1.56 2.64-2.04 1.12-.496 2.368-.744 3.744-.744 1.824 0 3.28.432 4.368 1.296 1.088.864 1.632 2.04 1.632 3.528 0 .912-.192 1.768-.576 2.568-.384.8-1.12 1.712-2.208 2.736l-4.488 4.272h7.92z" fill="#fff"/><circle cx="665" cy="37" r="29.5" stroke="#fff"/><path d="M666.208 36.136c1.552.192 2.736.72 3.552 1.584.816.864 1.224 1.944 1.224 3.24 0 .976-.248 1.864-.744 2.664s-1.248 1.44-2.256 1.92c-.992.464-2.208.696-3.648.696-1.2 0-2.36-.168-3.48-.504-1.104-.352-2.048-.832-2.832-1.44l1.344-2.424c.608.512 1.344.92 2.208 1.224.88.288 1.784.432 2.712.432 1.104 0 1.968-.224 2.592-.672.64-.464.96-1.088.96-1.872s-.304-1.392-.912-1.824c-.592-.448-1.504-.672-2.736-.672h-1.536v-2.136l3.816-4.536h-7.632V29.2h11.448v2.088l-4.08 4.848z" fill="#fff"/><circle cx="975" cy="37" r="29.5" stroke="#fff"/><path d="M983.032 42.184h-2.976V46h-3.024v-3.816h-9.216v-2.16l8.28-10.824h3.336l-7.8 10.344h5.496V36.16h2.928v3.384h2.976v2.64z" fill="#fff"/><path stroke="#fff" d="M120 39.5h160m150 0h160m150 0h160"/></svg>