<svg width="60" height="60" fill="none" xmlns="http://www.w3.org/2000/svg"><circle cx="30" cy="30" r="29.5" stroke="#fff"/><path d="M31.208 29.136c1.552.192 2.736.72 3.552 1.584.816.864 1.224 1.944 1.224 3.24 0 .976-.248 1.864-.744 2.664s-1.248 1.44-2.256 1.92c-.992.464-2.208.696-3.648.696-1.2 0-2.36-.168-3.48-.504-1.104-.352-2.048-.832-2.832-1.44l1.344-2.424c.608.512 1.344.92 2.208 1.224.88.288 1.784.432 2.712.432 1.104 0 1.968-.224 2.592-.672.64-.464.96-1.088.96-1.872s-.304-1.392-.912-1.824c-.592-.448-1.504-.672-2.736-.672h-1.536v-2.136l3.816-4.536H23.84V22.2h11.448v2.088l-4.08 4.848z" fill="#fff"/></svg>