<svg width="60" height="60" fill="none" xmlns="http://www.w3.org/2000/svg"><circle cx="30" cy="30" r="29.5" stroke="#fff"/><path d="M36.224 36.36V39H23.84v-2.088l6.672-6.336c.752-.72 1.256-1.344 1.512-1.872.272-.544.408-1.08.408-1.608 0-.784-.264-1.384-.792-1.8-.528-.416-1.304-.624-2.328-.624-1.712 0-3.024.584-3.936 1.752l-2.184-1.68c.656-.88 1.536-1.56 2.64-2.04 1.12-.496 2.368-.744 3.744-.744 1.824 0 3.28.432 4.368 1.296 1.088.864 1.632 2.04 1.632 3.528 0 .912-.192 1.768-.576 2.568-.384.8-1.12 1.712-2.208 2.736l-4.488 4.272h7.92z" fill="#fff"/></svg>