<svg width="36" height="36" fill="none" xmlns="http://www.w3.org/2000/svg"><circle r="17.5" transform="matrix(-1 0 0 1 18 18)" stroke="#093B54" stroke-opacity=".5"/><path d="M16.73 11.729c.184-.243.482-.243.666 0a.77.77 0 010 .879l-3.565 4.707h9.47c.261 0 .472.28.472.624s-.211.623-.472.623h-9.465L17.4 23.27a.734.734 0 01.138.44c0 .164-.05.322-.138.439a.415.415 0 01-.335.18.432.432 0 01-.335-.18l-4.367-5.767a.731.731 0 01-.137-.443.764.764 0 01.137-.443l4.367-5.767z" fill="#093B54" fill-opacity=".5"/></svg>