<svg width="53" height="53" fill="none" xmlns="http://www.w3.org/2000/svg"><circle r="26" transform="matrix(-1 0 0 1 26.5 26.5)" stroke="#093B54" stroke-opacity=".5"/><path d="M24.63 17.268c.271-.357.71-.357.98 0 .271.357.271.937 0 1.294l-5.247 6.93h13.942c.384 0 .695.412.695.918 0 .508-.311.918-.695.918H20.37l5.247 6.93c.13.172.204.405.204.648s-.074.475-.204.647c-.13.173-.308.27-.493.266a.636.636 0 01-.493-.266l-6.43-8.49A1.077 1.077 0 0118 26.41a1.12 1.12 0 01.202-.651l6.429-8.491z" fill="#093B54" fill-opacity=".5"/></svg>