<svg width="68" height="68" fill="none" xmlns="http://www.w3.org/2000/svg"><g filter="url(#filter0_d_2181_2)"><rect x="3" y="3" width="60" height="60" rx="10" fill="#fff"/></g><g clip-path="url(#clip0_2181_2)" fill="#582D7F" stroke="#582D7F" stroke-width=".3"><path d="M27.791 42.375a2.786 2.786 0 01-2.777-2.778 2.786 2.786 0 012.777-2.778 2.786 2.786 0 012.778 2.778 2.786 2.786 0 01-2.777 2.778zm0-4.861c-1.18 0-2.083.903-2.083 2.083 0 1.18.903 2.083 2.084 2.083 1.18 0 2.083-.902 2.083-2.083 0-1.18-.903-2.083-2.084-2.083z"/><path d="M28 38.208l.278.625c0 .07.07.07.139.14l.694.069c.14 0 .209.208.14.347l-.487.486c-.07.07-.07.139-.07.139l.14.694c0 .14-.14.278-.278.209l-.625-.348h-.209l-.625.348c-.139.07-.277-.07-.277-.209l.138-.694c0-.07 0-.139-.07-.139l-.485-.486c-.14-.139-.07-.278.139-.347l.694-.07a.15.15 0 00.14-.139l.277-.625c.07-.139.208-.139.347 0zm16.458-14.93h-17.36c-.21 0-.348-.14-.348-.347 0-.209.139-.348.347-.348h17.361c.209 0 .348.14.348.348 0 .208-.14.347-.348.347zm0 2.083H23.625c-.208 0-.347-.139-.347-.347 0-.208.139-.347.347-.347h20.833c.209 0 .348.139.348.347 0 .208-.14.347-.348.347zm0 2.084H23.625c-.208 0-.347-.14-.347-.348 0-.208.139-.347.347-.347h20.833c.209 0 .348.139.348.347 0 .209-.14.348-.348.348zm0 2.083H23.625c-.208 0-.347-.14-.347-.347 0-.209.139-.348.347-.348h20.833c.209 0 .348.14.348.348 0 .208-.14.347-.348.347zm0 2.083H23.625c-.208 0-.347-.139-.347-.347 0-.208.139-.347.347-.347h20.833c.209 0 .348.139.348.347 0 .208-.14.347-.348.347zm-5.555 2.083H23.625c-.208 0-.347-.138-.347-.347 0-.208.139-.347.347-.347h15.278c.208 0 .347.139.347.347 0 .209-.139.347-.347.347zm5.555 2.084h-6.25c-.208 0-.347-.14-.347-.347 0-.209.14-.348.347-.348h6.25c.209 0 .348.14.348.348 0 .208-.14.347-.348.347zm0 2.083h-9.027c-.209 0-.348-.139-.348-.347 0-.208.14-.347.348-.347h9.027c.209 0 .348.139.348.347 0 .208-.14.347-.348.347zm0 2.084h-9.027c-.209 0-.348-.14-.348-.348 0-.208.14-.347.348-.347h9.027c.209 0 .348.139.348.347 0 .209-.14.347-.348.347zm0 4.166h-9.027c-.209 0-.348-.139-.348-.347 0-.208.14-.347.348-.347h9.027c.209 0 .348.139.348.347 0 .208-.14.347-.348.347zm-3.472-24.305H27.097c-.208 0-.347-.14-.347-.348v-2.083c0-.208.139-.347.347-.347h13.89c.207 0 .346.139.346.347v2.083c0 .209-.139.348-.347.348zm-13.541-.695h13.194v-1.389H27.444v1.39z"/><path d="M47.93 46.194c-.208 0-.347-.138-.347-.347v-28.82a2.786 2.786 0 00-2.777-2.777H17.028c-.208 0-.347-.139-.347-.347 0-.208.139-.347.347-.347h27.778a3.438 3.438 0 013.472 3.472v28.82c0 .208-.139.346-.347.346z"/><path d="M20.153 49.32c-.208 0-.347-.14-.347-.348V17.028c0-.208.139-.347.347-.347.208 0 .347.139.347.347v31.944c0 .209-.139.347-.347.347z"/><path d="M48.972 52.444H23.278a3.438 3.438 0 01-3.472-3.472c0-.208.139-.347.347-.347.208 0 .347.139.347.347a2.786 2.786 0 002.778 2.778 2.786 2.786 0 002.778-2.778 2.786 2.786 0 00-2.778-2.778c-.208 0-.347-.138-.347-.347 0-.208.139-.347.347-.347h25.694a3.438 3.438 0 013.472 3.472 3.438 3.438 0 01-3.472 3.472zm-23.61-.694h23.61a2.786 2.786 0 002.778-2.778 2.786 2.786 0 00-2.778-2.778h-23.61a3.52 3.52 0 011.388 2.778 3.52 3.52 0 01-1.389 2.778zm-5.21-31.25h-3.124a3.438 3.438 0 01-3.472-3.472 3.438 3.438 0 013.472-3.472 3.438 3.438 0 013.472 3.472v3.125c0 .208-.139.347-.347.347zm-3.124-6.25a2.786 2.786 0 00-2.778 2.778 2.786 2.786 0 002.778 2.778h2.778v-2.778a2.786 2.786 0 00-2.778-2.778zm11.667 29.861a1.12 1.12 0 01-.625-.208.593.593 0 00-.487 0c-.277.208-.625.208-.972.139-.347-.07-.555-.278-.764-.625-.07-.14-.277-.278-.416-.278-.348 0-.625-.139-.903-.347-.278-.209-.347-.556-.347-.903 0-.208-.07-.347-.278-.417-.278-.139-.486-.416-.625-.764-.07-.347 0-.694.139-.972a.593.593 0 000-.486c-.209-.278-.209-.625-.14-.972.07-.347.279-.556.626-.764.139-.07.278-.278.278-.417 0-.347.139-.625.347-.903.208-.208.555-.347.903-.347.208 0 .347-.07.416-.277.14-.278.417-.487.764-.626.347-.069.695 0 .972.14.14.069.348.069.487 0 .277-.209.625-.209.972-.14.347.07.555.278.764.626.07.138.277.277.416.277.348 0 .625.14.903.347.278.209.347.556.347.903 0 .209.07.347.278.417.278.139.486.417.625.764.07.347 0 .694-.139.972a.593.593 0 000 .486c.209.278.209.625.14.972-.07.348-.279.556-.626.764-.139.07-.278.278-.278.417 0 .347-.139.625-.347.903-.208.208-.555.347-.903.347-.208 0-.347.07-.416.278-.14.277-.417.486-.764.625-.14.07-.278.07-.347.07zm-.903-.972c.208 0 .416.07.625.208.139.07.278.07.416.07a.542.542 0 00.278-.278c.209-.417.625-.695 1.111-.625.14 0 .278-.07.348-.139a.53.53 0 00.138-.347c0-.486.209-.903.625-1.111a.542.542 0 00.278-.278c.07-.139 0-.278-.07-.417-.277-.416-.277-.903 0-1.25.07-.139.07-.278.07-.416a.542.542 0 00-.278-.278c-.416-.209-.625-.625-.625-1.111a.53.53 0 00-.138-.348.53.53 0 00-.348-.138c-.486 0-.902-.209-1.11-.625a.542.542 0 00-.279-.278c-.138 0-.277 0-.416.07-.417.277-.903.277-1.25 0-.14-.07-.278-.07-.417-.07a.542.542 0 00-.278.278c-.208.416-.625.694-1.11.625a.53.53 0 00-.348.139.531.531 0 00-.139.347c0 .486-.208.902-.625 1.11a.542.542 0 00-.278.279c-.07.139 0 .277.07.416.278.417.278.903 0 1.25-.07.14-.07.278-.07.417a.55.55 0 00.278.278c.417.208.625.625.625 1.11 0 .14.07.279.139.348a.53.53 0 00.347.139c.486 0 .903.208 1.111.625a.55.55 0 00.278.278c.139 0 .278 0 .417-.07a1.12 1.12 0 01.625-.208zm16.458-.417c-.139 0-.208-.07-.278-.208-.347-.625-1.32-.695-1.736-.07-.07.07-.139.14-.208.14-.07 0-.209 0-.278-.07-.278-.208-.625-.208-.903.07-.07.069-.208.138-.347.069-.139-.07-.208-.139-.208-.278 0-.208-.14-.347-.348-.347-.208 0-.347.139-.347.347 0 .139-.07.278-.208.278-.139.07-.278 0-.347-.07-.209-.208-.625-.277-.903-.069-.07.07-.139.07-.278.07-.07 0-.208-.07-.208-.14-.417-.555-1.389-.486-1.736.07-.07.139-.278.208-.486.139-.14-.07-.209-.278-.14-.486.279-.556.904-.903 1.529-.903.416 0 .833.139 1.18.486a1.533 1.533 0 011.111 0c.14-.208.486-.417.834-.417.347 0 .694.209.833.486a1.534 1.534 0 011.111 0c.347-.277.764-.486 1.18-.486.625 0 1.181.348 1.528.903.07.14.07.347-.139.486h-.208z"/></g><defs><clipPath id="clip0_2181_2"><path fill="#fff" transform="translate(13 13)" d="M0 0h40v40H0z"/></clipPath><filter id="filter0_d_2181_2" x="0" y="0" width="68" height="68" filterUnits="userSpaceOnUse" color-interpolation-filters="sRGB"><feFlood flood-opacity="0" result="BackgroundImageFix"/><feColorMatrix in="SourceAlpha" values="0 0 0 0 0 0 0 0 0 0 0 0 0 0 0 0 0 0 127 0" result="hardAlpha"/><feOffset dx="1" dy="1"/><feGaussianBlur stdDeviation="2"/><feComposite in2="hardAlpha" operator="out"/><feColorMatrix values="0 0 0 0 0 0 0 0 0 0 0 0 0 0 0 0 0 0 0.2 0"/><feBlend in2="BackgroundImageFix" result="effect1_dropShadow_2181_2"/><feBlend in="SourceGraphic" in2="effect1_dropShadow_2181_2" result="shape"/></filter></defs></svg>