<svg width="68" height="68" fill="none" xmlns="http://www.w3.org/2000/svg"><g filter="url(#filter0_d_2182_20)"><rect x="3" y="3" width="60" height="60" rx="10" fill="#fff"/></g><path d="M33 52.702c.06 0 .12 0 .179-.06a23.83 23.83 0 0016.239-22.627V19.567c0-.358-.239-.597-.597-.597-9.373 0-15.045-5.313-15.463-5.552-.239-.18-.477-.18-.716 0-.418.239-6.15 5.552-15.463 5.552-.358 0-.597.24-.597.597v10.448c0 10.269 6.508 19.343 16.239 22.687H33zM17.776 30.015v-9.85c9.194-.24 14.925-5.374 15.224-5.553.358.18 5.97 5.313 15.224 5.552v9.851c0 9.672-6.09 18.269-15.224 21.493a22.778 22.778 0 01-15.224-21.493z" fill="#582D7F"/><path d="M33.239 49.477c8-3.164 13.194-10.805 13.194-19.462v-7.582c0-.299-.24-.538-.538-.597-4.537-.478-8.895-2.09-12.597-4.717a.647.647 0 00-.656 0c-3.702 2.567-8.06 4.18-12.597 4.717-.299.06-.538.298-.538.597v7.582c0 8.657 5.194 16.298 13.254 19.462.06 0 .12.06.239.06.12 0 .12 0 .239-.06zM20.76 30.015V22.91c4.358-.537 8.597-2.149 12.239-4.597 3.642 2.448 7.88 4.06 12.239 4.597v7.045c0 8.12-4.776 15.284-12.24 18.328-7.462-3.044-12.238-10.208-12.238-18.268z" fill="#582D7F"/><path d="M40.105 28.343a.577.577 0 00-.836 0l-8.836 8.776-3.523-3.522a.577.577 0 00-.835 0 .577.577 0 000 .836l3.94 3.94c.12.12.239.18.418.18s.298-.06.418-.18l9.254-9.254c.238-.179.238-.537 0-.776z" fill="#582D7F"/><defs><filter id="filter0_d_2182_20" x="0" y="0" width="68" height="68" filterUnits="userSpaceOnUse" color-interpolation-filters="sRGB"><feFlood flood-opacity="0" result="BackgroundImageFix"/><feColorMatrix in="SourceAlpha" values="0 0 0 0 0 0 0 0 0 0 0 0 0 0 0 0 0 0 127 0" result="hardAlpha"/><feOffset dx="1" dy="1"/><feGaussianBlur stdDeviation="2"/><feComposite in2="hardAlpha" operator="out"/><feColorMatrix values="0 0 0 0 0 0 0 0 0 0 0 0 0 0 0 0 0 0 0.2 0"/><feBlend in2="BackgroundImageFix" result="effect1_dropShadow_2182_20"/><feBlend in="SourceGraphic" in2="effect1_dropShadow_2182_20" result="shape"/></filter></defs></svg>