<svg width="68" height="68" fill="none" xmlns="http://www.w3.org/2000/svg"><g filter="url(#filter0_d_2182_11)"><rect x="3" y="3" width="60" height="60" rx="10" fill="#fff"/></g><path d="M20.828 29.376a.75.75 0 00-.088.156v.032a.62.62 0 00-.028.172c.001.06.01.119.028.176v.028a.657.657 0 00.088.156l11.7 14.68a.4.4 0 00.104.1h.024c.038.028.08.05.124.068h.044a.544.544 0 00.344 0h.044a.536.536 0 00.124-.068h.024a.4.4 0 00.104-.1l11.7-14.68a.608.608 0 000-.748l-4.468-5.6a.612.612 0 00-.472-.224H25.772a.613.613 0 00-.472.224l-4.468 5.6-.004.028zm7.468.964l3.284 11.332-9.032-11.332h5.748zm15.156 0L34.42 41.672l3.284-11.332h5.748zM33 42.264L29.544 30.34h6.912L33 42.264zM43.452 29.14h-5.748l-1.276-4.4h3.512l3.512 4.4zm-8.272-4.4l1.276 4.4h-6.912l1.276-4.4h4.36zm-9.12 0h3.512l-1.276 4.4h-5.748l3.512-4.4zm-4.056-1.888a.596.596 0 00.848 0 .604.604 0 000-.848l-2.156-2.156a.6.6 0 00-.848.848l2.156 2.156zM18.048 32.4H15a.6.6 0 000 1.2h3.048a.6.6 0 000-1.2zm3.956 10.748l-2.156 2.156a.597.597 0 000 .848.6.6 0 00.848 0l2.156-2.156a.6.6 0 00-.848-.848zM33 47.352a.6.6 0 00-.6.6V51a.6.6 0 001.2 0v-3.048a.6.6 0 00-.6-.6zm10.996-4.204a.6.6 0 00-.848.848l2.156 2.156a.6.6 0 00.848-.848l-2.156-2.156zM51 32.4h-3.048a.6.6 0 000 1.2H51a.6.6 0 000-1.2zm-5.696-12.552l-2.156 2.156a.604.604 0 000 .848.595.595 0 00.848 0l2.156-2.156a.6.6 0 00-.848-.848zM33 18.648a.6.6 0 00.6-.6V15a.6.6 0 00-1.2 0v3.048a.6.6 0 00.6.6z" fill="#582D7F"/><defs><filter id="filter0_d_2182_11" x="0" y="0" width="68" height="68" filterUnits="userSpaceOnUse" color-interpolation-filters="sRGB"><feFlood flood-opacity="0" result="BackgroundImageFix"/><feColorMatrix in="SourceAlpha" values="0 0 0 0 0 0 0 0 0 0 0 0 0 0 0 0 0 0 127 0" result="hardAlpha"/><feOffset dx="1" dy="1"/><feGaussianBlur stdDeviation="2"/><feComposite in2="hardAlpha" operator="out"/><feColorMatrix values="0 0 0 0 0 0 0 0 0 0 0 0 0 0 0 0 0 0 0.2 0"/><feBlend in2="BackgroundImageFix" result="effect1_dropShadow_2182_11"/><feBlend in="SourceGraphic" in2="effect1_dropShadow_2182_11" result="shape"/></filter></defs></svg>