<svg width="68" height="68" fill="none" xmlns="http://www.w3.org/2000/svg"><g filter="url(#filter0_d_2182_5)"><rect x="3" y="3" width="60" height="60" rx="10" fill="#fff"/></g><g clip-path="url(#clip0_2182_5)"><path d="M15.42 27.381h4.445a.586.586 0 100-1.172H15.42a.586.586 0 100 1.172zm-1.172 2.344h5.617a.586.586 0 100-1.172h-5.617a.586.586 0 100 1.172zm2.344-4.687h3.273a.586.586 0 100-1.172h-3.273a.586.586 0 100 1.172zm35.822 21.478h-1.521A4.366 4.366 0 0052.274 44a4.423 4.423 0 00-.694-3.208l.335-.2a.584.584 0 00.204-.803 5.28 5.28 0 00-5.315-2.52c-.499-1.188-1.013-2.881-1.51-4.522-.29-.958-.589-1.94-.887-2.833h.318a.585.585 0 00.586-.586v-3.444a.587.587 0 00-.586-.586h-2.372a2.312 2.312 0 00-2.233 1.722h-2.242a.586.586 0 000 1.172h2.242c.087.33.246.636.466.897a.589.589 0 00.024.101c.327.955.901 3.101.943 3.296.64 3.027.73 6.784-2.482 7.491a4.062 4.062 0 01-3.885-1.267c-1.209-1.384-1.289-3.514-.196-5.181a1.652 1.652 0 00-.889-3.047h-.5c.01-.064.015-.13.015-.195v-2.229a4.883 4.883 0 10-4.453-7.642H22.99a1.369 1.369 0 00-1.367 1.367v8.504a1.369 1.369 0 001.367 1.367h.912a1.647 1.647 0 00.48 1.713 7.57 7.57 0 00-.592.307c-2.008 1.16-3.706 3.42-4.328 5.757-.386 1.456-.3 2.778.24 3.73l.003.004c.005.007.008.015.012.023l.007.01.03.043.009.013a.588.588 0 00.044.05l.014.013a.598.598 0 00.04.035l.014.011a.574.574 0 00.055.037l.002.001a.58.58 0 00.064.031l.014.005a.633.633 0 00.072.024l.018.005.033.005c.007 0 .013.002.019.003a.592.592 0 00.073.005h.006l2.078-.027a4.39 4.39 0 001.468 3.064H13.586a.586.586 0 000 1.172h38.828a.586.586 0 100-1.172zm-4.833-8.13a4.11 4.11 0 013.195 1.52l-.28.168a.583.583 0 00-.184.108l-6.743 4.013a4.106 4.106 0 011.69-5.095l.233-.138a4.074 4.074 0 012.09-.576zm1.228 5.02a.883.883 0 01-1.728.063l1.453-.865a.884.884 0 01.275.802zm-7.592-15.8a1.138 1.138 0 011.136-1.136h1.786v2.273h-1.786a1.138 1.138 0 01-1.136-1.137zM34.1 31.654a.482.482 0 01.006.964h-5.575a9.58 9.58 0 00-1.093 0h-1.955a.482.482 0 110-.964H34.1zm-.927-12.17a3.712 3.712 0 110 7.424 3.712 3.712 0 010-7.424zM22.99 30.482a.195.195 0 01-.195-.195v-8.504a.196.196 0 01.195-.196h5.574a4.883 4.883 0 003.88 6.438v2.262a.196.196 0 01-.195.195h-9.26zm-2.395 9.25c.545-2.051 2.03-4.031 3.782-5.044a7.019 7.019 0 013.094-.898h6.052c-.832 1.933-.558 4.158.78 5.69a5.249 5.249 0 005.02 1.642c3.238-.713 4.437-3.866 3.376-8.878a60.15 60.15 0 00-.642-2.35c.098.014.197.02.296.02h.817c.334.969.673 2.087 1.002 3.173.487 1.604.989 3.258 1.491 4.49a5.332 5.332 0 00-.77.378l-.233.138a5.238 5.238 0 00-2.541 3.929l-8.975.117c-.592-2.72-2.49-4.899-4.848-5.503-1.605-.41-3.428-.088-5.003.885a8.022 8.022 0 00-2.87 3.116c.034-.306.092-.608.172-.905zm.397 2.565c.514-1.582 1.55-2.934 2.918-3.78 1.305-.806 2.797-1.078 4.096-.745 1.866.478 3.388 2.199 3.939 4.382l-10.953.143zm6.58 1.086a.883.883 0 01-1.735.023l1.735-.023zm-.87 3.078a3.231 3.231 0 01-3.22-3.025l1.175-.015a2.054 2.054 0 004.096-.053l1.174-.016a3.231 3.231 0 01-3.224 3.109zm2.926.055a4.39 4.39 0 001.472-3.179l1.524-.02a.576.576 0 00.08 0l9.41-.123a5.25 5.25 0 00.711 2.125.585.585 0 00.803.204l.405-.24a4.4 4.4 0 00.949 1.233H29.628zm20.174-.624a3.228 3.228 0 01-4.76-1.21l1.014-.603a2.055 2.055 0 103.503-2.085l1.013-.602a3.227 3.227 0 01-.77 4.5zm-16.628-22.11h1.69a.586.586 0 100-1.172H33.76v-1.63a.586.586 0 10-1.172 0v2.216a.586.586 0 00.586.586z" fill="#582D7F"/></g><defs><clipPath id="clip0_2182_5"><path fill="#fff" transform="translate(13 13)" d="M0 0h40v40H0z"/></clipPath><filter id="filter0_d_2182_5" x="0" y="0" width="68" height="68" filterUnits="userSpaceOnUse" color-interpolation-filters="sRGB"><feFlood flood-opacity="0" result="BackgroundImageFix"/><feColorMatrix in="SourceAlpha" values="0 0 0 0 0 0 0 0 0 0 0 0 0 0 0 0 0 0 127 0" result="hardAlpha"/><feOffset dx="1" dy="1"/><feGaussianBlur stdDeviation="2"/><feComposite in2="hardAlpha" operator="out"/><feColorMatrix values="0 0 0 0 0 0 0 0 0 0 0 0 0 0 0 0 0 0 0.2 0"/><feBlend in2="BackgroundImageFix" result="effect1_dropShadow_2182_5"/><feBlend in="SourceGraphic" in2="effect1_dropShadow_2182_5" result="shape"/></filter></defs></svg>