<svg width="68" height="68" fill="none" xmlns="http://www.w3.org/2000/svg"><g filter="url(#filter0_d_2182_15)"><rect x="3" y="3" width="60" height="60" rx="10" fill="#fff"/></g><g clip-path="url(#clip0_2182_15)"><path d="M38.49 27.367a.585.585 0 00-.828 0L27.367 37.662a.584.584 0 00.41 1.015.587.587 0 00.418-.187l10.296-10.295a.587.587 0 000-.828zm-8.921 5.045a2.844 2.844 0 10-.004-5.688 2.844 2.844 0 00.004 5.688zm-1.184-4.027a1.674 1.674 0 112.367 2.367 1.674 1.674 0 01-2.367-2.367zm23.047 2.11c-.516-.494-1.05-1.005-1.148-1.437-.105-.46.16-1.171.418-1.86.366-.983.745-1.998.324-2.87-.43-.888-1.471-1.227-2.48-1.555-.689-.224-1.401-.455-1.687-.812-.285-.357-.357-1.11-.423-1.835-.1-1.052-.2-2.139-.966-2.751-.766-.613-1.84-.469-2.884-.327-.725.096-1.475.196-1.896-.007-.406-.196-.788-.834-1.158-1.452-.547-.913-1.112-1.857-2.082-2.078-.938-.212-1.835.38-2.706.952-.62.412-1.26.83-1.744.83s-1.124-.418-1.744-.828c-.87-.572-1.772-1.164-2.71-.952-.969.22-1.534 1.165-2.081 2.077-.37.618-.753 1.257-1.158 1.453-.421.202-1.172.103-1.896.007-1.044-.139-2.123-.282-2.884.326-.762.609-.863 1.698-.96 2.749-.066.725-.135 1.474-.423 1.835-.288.36-.998.588-1.688.812-1.008.328-2.05.667-2.479 1.554-.42.873-.042 1.889.325 2.87.257.689.522 1.4.418 1.862-.099.43-.633.942-1.149 1.436C13.798 31.233 13 31.997 13 33s.798 1.767 1.571 2.506c.517.494 1.05 1.005 1.149 1.436.104.46-.161 1.172-.418 1.86-.367.983-.746 1.999-.325 2.871.43.888 1.471 1.226 2.476 1.554.69.224 1.402.456 1.688.813.285.357.357 1.11.423 1.835.097 1.05.196 2.137.963 2.748.766.611 1.84.465 2.884.327.725-.096 1.475-.196 1.896.007.405.196.788.834 1.158 1.452.547.913 1.112 1.857 2.082 2.078.13.029.264.043.398.043.793 0 1.562-.504 2.308-.995.62-.407 1.26-.828 1.744-.828.483 0 1.124.42 1.744.828.87.572 1.77 1.163 2.706.952.97-.22 1.535-1.165 2.082-2.078.37-.618.752-1.256 1.158-1.452.42-.203 1.172-.103 1.896-.007 1.044.138 2.123.282 2.884-.327.762-.608.866-1.697.963-2.748.066-.725.135-1.474.423-1.835s.998-.589 1.688-.813c1.007-.327 2.05-.666 2.479-1.554.42-.872.042-1.888-.325-2.87-.257-.688-.522-1.4-.418-1.861.099-.431.632-.942 1.149-1.436C52.202 34.767 53 34.003 53 33s-.798-1.767-1.571-2.506h.003zm-.81 4.165c-.642.614-1.305 1.25-1.48 2.023-.183.803.145 1.68.461 2.53.281.752.571 1.53.367 1.954-.21.437-1.011.697-1.786.948-.853.279-1.736.565-2.24 1.197-.505.63-.593 1.562-.675 2.459-.075.806-.15 1.64-.526 1.94-.376.299-1.2.186-2 .078-.896-.119-1.822-.242-2.559.113-.721.349-1.196 1.14-1.654 1.906-.42.703-.855 1.427-1.336 1.536-.45.103-1.138-.35-1.803-.788-.764-.502-1.553-1.02-2.388-1.02-.834 0-1.624.518-2.387 1.02-.666.438-1.355.89-1.803.788-.482-.11-.916-.835-1.336-1.536-.459-.766-.933-1.557-1.655-1.906-.365-.176-.776-.234-1.206-.234-.453.01-.905.051-1.353.12-.8.107-1.628.217-2-.077-.372-.294-.45-1.137-.529-1.943-.078-.893-.167-1.825-.675-2.456-.507-.631-1.387-.922-2.24-1.2-.774-.251-1.575-.511-1.786-.948-.204-.422.086-1.2.367-1.953.313-.85.645-1.728.462-2.532-.176-.774-.84-1.406-1.48-2.022-.595-.563-1.21-1.155-1.21-1.657 0-.503.615-1.094 1.21-1.66.64-.614 1.304-1.25 1.484-2.022.182-.803-.146-1.681-.462-2.532-.281-.751-.571-1.528-.367-1.953.21-.436 1.015-.696 1.786-.948.853-.278 1.736-.565 2.24-1.196.505-.631.593-1.56.671-2.457.078-.806.15-1.64.526-1.94.376-.3 1.2-.187 2-.078.896.119 1.822.241 2.559-.113.722-.349 1.196-1.14 1.654-1.906.42-.703.855-1.427 1.336-1.537.45-.102 1.138.351 1.803.789.764.501 1.554 1.02 2.388 1.02.834 0 1.624-.519 2.388-1.02.665-.438 1.353-.89 1.803-.789.48.11.915.835 1.336 1.537.458.766.932 1.557 1.654 1.906.737.354 1.663.234 2.559.113.8-.106 1.628-.217 2 .078.372.294.451 1.134.526 1.94.082.897.167 1.824.675 2.46.507.634 1.387.917 2.24 1.195.775.252 1.575.512 1.786.949.204.422-.086 1.199-.367 1.953-.316.85-.645 1.728-.462 2.531.176.774.84 1.406 1.48 2.023.595.563 1.21 1.154 1.21 1.657 0 .502-.615 1.093-1.21 1.66h.004zM33 19.027c-7.705 0-13.973 6.268-13.973 13.973 0 7.705 6.268 13.972 13.973 13.972 7.705 0 13.973-6.267 13.973-13.972 0-7.705-6.268-13.973-13.973-13.973zm0 26.774c-7.059 0-12.8-5.743-12.8-12.801 0-7.059 5.741-12.801 12.8-12.801 7.059 0 12.8 5.742 12.8 12.8 0 7.06-5.741 12.802-12.8 12.802zm1.42-11.382a2.845 2.845 0 104.022 4.024 2.845 2.845 0 00-4.023-4.024zm3.195 3.196a1.673 1.673 0 11-2.367-2.366 1.673 1.673 0 012.367 2.366z" fill="#582D7F" stroke="#000" stroke-width=".1"/></g><defs><clipPath id="clip0_2182_15"><path fill="#fff" transform="translate(13 13)" d="M0 0h40v40H0z"/></clipPath><filter id="filter0_d_2182_15" x="0" y="0" width="68" height="68" filterUnits="userSpaceOnUse" color-interpolation-filters="sRGB"><feFlood flood-opacity="0" result="BackgroundImageFix"/><feColorMatrix in="SourceAlpha" values="0 0 0 0 0 0 0 0 0 0 0 0 0 0 0 0 0 0 127 0" result="hardAlpha"/><feOffset dx="1" dy="1"/><feGaussianBlur stdDeviation="2"/><feComposite in2="hardAlpha" operator="out"/><feColorMatrix values="0 0 0 0 0 0 0 0 0 0 0 0 0 0 0 0 0 0 0.2 0"/><feBlend in2="BackgroundImageFix" result="effect1_dropShadow_2182_15"/><feBlend in="SourceGraphic" in2="effect1_dropShadow_2182_15" result="shape"/></filter></defs></svg>