<svg width="68" height="68" fill="none" xmlns="http://www.w3.org/2000/svg"><g filter="url(#filter0_d_2182_18)"><rect x="3" y="3" width="60" height="60" rx="10" fill="#fff"/></g><g clip-path="url(#clip0_2182_18)" stroke="#582D7F"><path d="M33 13.769c-10.604 0-19.231 8.627-19.231 19.23 0 10.605 8.627 19.232 19.23 19.232 10.605 0 19.232-8.627 19.232-19.231 0-10.604-8.627-19.231-19.231-19.231zm0 37.66c-10.162 0-18.43-8.267-18.43-18.43 0-10.161 8.268-18.429 18.43-18.429 10.162 0 18.43 8.268 18.43 18.43 0 10.162-8.268 18.43-18.43 18.43z" fill="#582D7F" stroke-width=".5"/><path d="M33 17.775c-8.394 0-15.224 6.83-15.224 15.225S24.606 48.224 33 48.224c8.395 0 15.225-6.83 15.225-15.224 0-8.395-6.83-15.225-15.225-15.225zm0 29.648c-7.953 0-14.423-6.47-14.423-14.423S25.047 18.577 33 18.577 47.423 25.047 47.423 33 40.953 47.423 33 47.423z" fill="#582D7F" stroke-width=".5"/><path d="M26.077 31.952l5.558 5.663 9.058-9.23" stroke-width="1.5" stroke-miterlimit="10" stroke-linecap="round"/></g><defs><clipPath id="clip0_2182_18"><path fill="#fff" transform="translate(13 13)" d="M0 0h40v40H0z"/></clipPath><filter id="filter0_d_2182_18" x="0" y="0" width="68" height="68" filterUnits="userSpaceOnUse" color-interpolation-filters="sRGB"><feFlood flood-opacity="0" result="BackgroundImageFix"/><feColorMatrix in="SourceAlpha" values="0 0 0 0 0 0 0 0 0 0 0 0 0 0 0 0 0 0 127 0" result="hardAlpha"/><feOffset dx="1" dy="1"/><feGaussianBlur stdDeviation="2"/><feComposite in2="hardAlpha" operator="out"/><feColorMatrix values="0 0 0 0 0 0 0 0 0 0 0 0 0 0 0 0 0 0 0.2 0"/><feBlend in2="BackgroundImageFix" result="effect1_dropShadow_2182_18"/><feBlend in="SourceGraphic" in2="effect1_dropShadow_2182_18" result="shape"/></filter></defs></svg>