<svg width="68" height="68" fill="none" xmlns="http://www.w3.org/2000/svg"><g filter="url(#filter0_d_2182_6)"><rect x="3" y="3" width="60" height="60" rx="10" fill="#fff"/></g><g clip-path="url(#clip0_2182_6)" fill="#582D7F"><path d="M18.625 52.995a.625.625 0 00.625-.625v-6.904c0-1.366.729-2.654 1.901-3.356l4.893-2.936 2.685 3.356a.628.628 0 00.454.234l.035.001a.626.626 0 00.442-.182l1.203-1.203v.761a.625.625 0 00.625.625h.058l-1.042 9.538a.628.628 0 00.552.7.625.625 0 00.69-.565l1.058-9.673h.392l1.058 9.673a.626.626 0 001.244-.135l-1.043-9.538h.059a.625.625 0 00.625-.625v-.761l1.202 1.203a.626.626 0 00.443.182l.035-.001a.63.63 0 00.453-.234l2.686-3.356 4.893 2.936a3.937 3.937 0 011.899 3.356v6.904a.625.625 0 101.25 0v-6.904a5.19 5.19 0 00-2.508-4.427L40.21 37.87l-1.98-2.2a.611.611 0 00-.66-.155V33.06a7.482 7.482 0 002.926-5.93v-2.84l1.206-5.582a3.76 3.76 0 00-.628-2.854 3.76 3.76 0 00-2.474-1.556l-7.448-1.242a3.72 3.72 0 00-3.017.832 3.703 3.703 0 00-1.276 2.35 3.168 3.168 0 00-1.887 1.127 3.187 3.187 0 00-.63 2.7l1.154 4.212v2.852a7.484 7.484 0 002.927 5.931v2.454a.615.615 0 00-.654.156l-1.979 2.199-5.282 3.17A5.189 5.189 0 0018 45.466v6.904a.625.625 0 00.625.625zm15.263-12.746v1.266h-1.776v-1.266c0-.035-.015-.067-.02-.1L33 39.24l.909.909c-.006.032-.021.064-.021.099zm5.102-1.868l-2.259 2.824-2.663-2.664 3.546-1.688 1.376 1.528zm-13.046-20.23a1.923 1.923 0 011.501-.716c.345 0 .625-.364.625-.709a2.465 2.465 0 012.878-2.437l7.447 1.241a2.518 2.518 0 011.656 1.041c.394.56.544 1.239.425 1.891l-.936 4.332-1.18-1.466v-1.36a.625.625 0 00-.625-.624h-9.477a.625.625 0 00-.625.625v1.36l-1.23 1.531-.847-3.091a1.929 1.929 0 01.388-1.618zm.802 8.978V24.43l2-2.491a.628.628 0 00.138-.391v-.955h8.227v.955c0 .142.049.28.138.391l1.998 2.481v2.707a6.257 6.257 0 01-6.25 6.25 6.257 6.257 0 01-6.25-6.25zm6.25 7.5a7.44 7.44 0 003.324-.786v2.24L33 37.666l-3.328-1.585v-2.239a7.447 7.447 0 003.324.788zm-4.61 2.224l3.547 1.688-2.664 2.664-2.259-2.824 1.376-1.529z"/><path d="M24.875 52.995a.625.625 0 00.625-.625v-2.927a5.15 5.15 0 00-1.351-3.483l-.946-1.036a.627.627 0 00-1.087.394.626.626 0 00.163.45l.946 1.036a3.9 3.9 0 011.025 2.639v2.927a.625.625 0 00.625.625zm17.923-8.071l-.947 1.037a5.147 5.147 0 00-1.35 3.482v2.927a.625.625 0 101.25 0v-2.927c0-.98.363-1.917 1.023-2.64l.946-1.035a.624.624 0 00-.726-.989.623.623 0 00-.196.145z"/></g><defs><clipPath id="clip0_2182_6"><path fill="#fff" transform="translate(13 13)" d="M0 0h40v40H0z"/></clipPath><filter id="filter0_d_2182_6" x="0" y="0" width="68" height="68" filterUnits="userSpaceOnUse" color-interpolation-filters="sRGB"><feFlood flood-opacity="0" result="BackgroundImageFix"/><feColorMatrix in="SourceAlpha" values="0 0 0 0 0 0 0 0 0 0 0 0 0 0 0 0 0 0 127 0" result="hardAlpha"/><feOffset dx="1" dy="1"/><feGaussianBlur stdDeviation="2"/><feComposite in2="hardAlpha" operator="out"/><feColorMatrix values="0 0 0 0 0 0 0 0 0 0 0 0 0 0 0 0 0 0 0.2 0"/><feBlend in2="BackgroundImageFix" result="effect1_dropShadow_2182_6"/><feBlend in="SourceGraphic" in2="effect1_dropShadow_2182_6" result="shape"/></filter></defs></svg>