<svg width="68" height="68" fill="none" xmlns="http://www.w3.org/2000/svg"><g filter="url(#filter0_d_2182_19)"><rect x="3" y="3" width="60" height="60" rx="10" fill="#fff"/></g><g clip-path="url(#clip0_2182_19)" fill="#582D7F"><path d="M28.913 20.1a7.625 7.625 0 1010.78 0 7.638 7.638 0 00-10.78 0zm9.925 9.925a6.413 6.413 0 110-9.069 6.419 6.419 0 010 9.07z"/><path d="M51.875 38.462L46.4 33.3V16.713a.625.625 0 00-.625-.626h-3.65v-2.462A.625.625 0 0041.5 13H13.856a.625.625 0 00-.625.625v35.663a.625.625 0 00.625.625h3.657v2.5a.624.624 0 00.625.625h27.65a.625.625 0 00.625-.625V41.474l1.25 1.206a2.975 2.975 0 002.106.875 2.919 2.919 0 002.337-1.168 2.943 2.943 0 00-.23-3.925zm-9.75-19.837v-1.306h3.056v14.825l-.206-.194a.625.625 0 00-.844 0l-.175.169-1.025-.994a10.281 10.281 0 00-.837-12.356.736.736 0 00.031-.144zM43.1 33l-1.294 1.294-.9-.9c.232-.194.463-.394.682-.625.218-.231.418-.45.625-.681L43.1 33zm.294-7.5a9.081 9.081 0 11-2.663-6.438 9.05 9.05 0 012.663 6.438zM14.463 48.681V14.213h26.45V17.6a10.3 10.3 0 00-13.894.625 10.3 10.3 0 0012.906 15.894l1.025 1.025-.175.169a.625.625 0 00-.181.437.624.624 0 00.194.438l.125.112v12.381h-26.45zm30.718 3.125H18.725v-1.931H41.52a.625.625 0 00.625-.625V37.375l3.056 2.888-.019 11.543zM51.17 41.65a2.66 2.66 0 01-.231.256 1.731 1.731 0 01-2.425-.075l-6.438-6.081 2.5-2.5.788.737 5.668 5.35a1.743 1.743 0 01.138 2.294v.019z"/><path d="M35.969 37.069h-16.57a.626.626 0 000 1.212h16.57a.625.625 0 000-1.212zm0 3.6h-16.57a.626.626 0 000 1.212h16.57a.625.625 0 000-1.212zm0 3.581h-16.57a.625.625 0 000 1.213h16.57a.625.625 0 000-1.213z"/></g><defs><clipPath id="clip0_2182_19"><path fill="#fff" transform="translate(13 13)" d="M0 0h40v40H0z"/></clipPath><filter id="filter0_d_2182_19" x="0" y="0" width="68" height="68" filterUnits="userSpaceOnUse" color-interpolation-filters="sRGB"><feFlood flood-opacity="0" result="BackgroundImageFix"/><feColorMatrix in="SourceAlpha" values="0 0 0 0 0 0 0 0 0 0 0 0 0 0 0 0 0 0 127 0" result="hardAlpha"/><feOffset dx="1" dy="1"/><feGaussianBlur stdDeviation="2"/><feComposite in2="hardAlpha" operator="out"/><feColorMatrix values="0 0 0 0 0 0 0 0 0 0 0 0 0 0 0 0 0 0 0.2 0"/><feBlend in2="BackgroundImageFix" result="effect1_dropShadow_2182_19"/><feBlend in="SourceGraphic" in2="effect1_dropShadow_2182_19" result="shape"/></filter></defs></svg>