<svg width="15" height="17" viewBox="0 0 15 17" fill="none" xmlns="http://www.w3.org/2000/svg">
<path d="M0.213624 10.3694C-0.0712086 10.099 -0.0712086 9.6604 0.213624 9.38962C0.498228 9.11905 0.960193 9.11905 1.24503 9.38962L6.7689 14.6369L6.7689 0.695036C6.7689 0.311275 7.09658 3.10201e-07 7.50057 3.2786e-07C7.90479 3.45529e-07 8.23225 0.311275 8.23225 0.695036L8.23225 14.6299L13.7561 9.38265C13.8927 9.25248 14.0785 9.17934 14.2719 9.17934C14.4656 9.17934 14.6509 9.25248 14.7878 9.38265C14.9259 9.51282 15.0025 9.6911 14.9999 9.87612C14.999 10.0605 14.9229 10.2375 14.7878 10.3694L8.02028 16.7982C7.88234 16.929 7.69512 17.0019 7.50057 17C7.30648 16.9987 7.12087 16.9264 6.98132 16.7982L0.213624 10.3694Z" fill="#093B54"/>
</svg>
