<svg width="295" height="30" viewBox="0 0 295 30" fill="none" xmlns="http://www.w3.org/2000/svg">
<path d="M265 16L12 16" stroke="#929292" stroke-width="1.3"/>
<circle cx="15" cy="15" r="14.5" fill="#582D7F" stroke="#582D7F"/>
<path d="M14.6749 21V11.0859L12.0646 12.2725V10.5938L15.4835 8.94141H16.4591V21H14.6749Z" fill="white"/>
<circle cx="146" cy="15" r="14.5" fill="white" stroke="#929292"/>
<path d="M141.836 21V20.042L146.468 15.0059C146.855 14.584 147.139 14.2617 147.321 14.0391C147.508 13.8105 147.681 13.5264 147.839 13.1865C148.003 12.8408 148.085 12.498 148.085 12.1582C148.085 11.6074 147.869 11.127 147.435 10.7168C147.001 10.3008 146.468 10.0928 145.835 10.0928C145.162 10.0928 144.599 10.3154 144.148 10.7607C143.703 11.2002 143.48 11.7627 143.48 12.4482H141.766C141.766 11.3467 142.153 10.4502 142.926 9.75879C143.7 9.06738 144.675 8.72168 145.853 8.72168C146.984 8.72168 147.921 9.0498 148.665 9.70605C149.415 10.3564 149.79 11.1562 149.79 12.1055C149.79 12.7793 149.641 13.3711 149.342 13.8809C149.043 14.3906 148.575 14.9883 147.936 15.6738L144.412 19.4883H150.212V21H141.836Z" fill="#929292"/>
<circle cx="280" cy="15" r="14.5" fill="white" stroke="#929292"/>
<path d="M283.464 20.2266C282.703 20.8887 281.686 21.2197 280.414 21.2197C279.143 21.2197 278.138 20.874 277.4 20.1826C276.662 19.4912 276.292 18.5947 276.292 17.4932H277.997C277.997 18.167 278.217 18.7295 278.657 19.1807C279.096 19.626 279.688 19.8486 280.432 19.8486C281.2 19.8486 281.8 19.6289 282.234 19.1895C282.673 18.75 282.893 18.2021 282.893 17.5459C282.893 16.8838 282.656 16.3477 282.181 15.9375C281.712 15.5215 281.1 15.3135 280.344 15.3135H278.938V14.0303H280.344C280.93 14.0303 281.431 13.8428 281.847 13.4678C282.269 13.0869 282.48 12.6094 282.48 12.0352C282.48 11.4844 282.287 11.0244 281.9 10.6553C281.519 10.2803 281 10.0928 280.344 10.0928C279.705 10.0928 279.196 10.2803 278.815 10.6553C278.44 11.0244 278.252 11.4902 278.252 12.0527H276.538C276.538 11.0801 276.899 10.2832 277.62 9.66211C278.34 9.03516 279.266 8.72168 280.397 8.72168C281.498 8.72168 282.404 9.01465 283.113 9.60059C283.822 10.1807 284.176 10.9131 284.176 11.7979C284.176 12.46 283.977 13.0459 283.579 13.5557C283.186 14.0654 282.659 14.4229 281.996 14.6279C282.788 14.8096 283.42 15.1699 283.895 15.709C284.37 16.248 284.607 16.9072 284.607 17.6865C284.607 18.7178 284.226 19.5645 283.464 20.2266Z" fill="#929292"/>
</svg>
