<svg width="562" height="34" viewBox="0 0 562 34" fill="none" xmlns="http://www.w3.org/2000/svg">
<path d="M23 16H329" stroke="#462574" stroke-width="1.3"/>
<path d="M545 16L17 16" stroke="#929292" stroke-width="1.3"/>
<circle cx="17" cy="17" r="16.5" fill="#582D7F" stroke="#582D7F"/>
<path d="M16.6748 23V13.0859L14.0645 14.2725V12.5938L17.4834 10.9414H18.459V23H16.6748Z" fill="white"/>
<circle cx="280" cy="17" r="16.5" fill="white" stroke="#929292"/>
<path d="M276.483 23V22.042L281.115 17.0059C281.502 16.584 281.786 16.2617 281.968 16.0391C282.155 15.8105 282.328 15.5264 282.486 15.1865C282.65 14.8408 282.732 14.498 282.732 14.1582C282.732 13.6074 282.516 13.127 282.082 12.7168C281.648 12.3008 281.115 12.0928 280.482 12.0928C279.809 12.0928 279.246 12.3154 278.795 12.7607C278.35 13.2002 278.127 13.7627 278.127 14.4482H276.413C276.413 13.3467 276.8 12.4502 277.573 11.7588C278.347 11.0674 279.322 10.7217 280.5 10.7217C281.631 10.7217 282.568 11.0498 283.312 11.7061C284.062 12.3564 284.438 13.1562 284.438 14.1055C284.438 14.7793 284.288 15.3711 283.989 15.8809C283.69 16.3906 283.222 16.9883 282.583 17.6738L279.059 21.4883H284.859V23H276.483Z" fill="#929292"/>
<circle cx="545" cy="17" r="16.5" fill="white" stroke="#929292"/>
<path d="M548.523 22.2266C547.762 22.8887 546.745 23.2197 545.474 23.2197C544.202 23.2197 543.197 22.874 542.459 22.1826C541.721 21.4912 541.352 20.5947 541.352 19.4932H543.057C543.057 20.167 543.276 20.7295 543.716 21.1807C544.155 21.626 544.747 21.8486 545.491 21.8486C546.259 21.8486 546.859 21.6289 547.293 21.1895C547.732 20.75 547.952 20.2021 547.952 19.5459C547.952 18.8838 547.715 18.3477 547.24 17.9375C546.771 17.5215 546.159 17.3135 545.403 17.3135H543.997V16.0303H545.403C545.989 16.0303 546.49 15.8428 546.906 15.4678C547.328 15.0869 547.539 14.6094 547.539 14.0352C547.539 13.4844 547.346 13.0244 546.959 12.6553C546.578 12.2803 546.06 12.0928 545.403 12.0928C544.765 12.0928 544.255 12.2803 543.874 12.6553C543.499 13.0244 543.312 13.4902 543.312 14.0527H541.598C541.598 13.0801 541.958 12.2832 542.679 11.6621C543.399 11.0352 544.325 10.7217 545.456 10.7217C546.558 10.7217 547.463 11.0146 548.172 11.6006C548.881 12.1807 549.235 12.9131 549.235 13.7979C549.235 14.46 549.036 15.0459 548.638 15.5557C548.245 16.0654 547.718 16.4229 547.056 16.6279C547.847 16.8096 548.479 17.1699 548.954 17.709C549.429 18.248 549.666 18.9072 549.666 19.6865C549.666 20.7178 549.285 21.5645 548.523 22.2266Z" fill="#929292"/>
</svg>
