<svg width="20" height="20" fill="none" xmlns="http://www.w3.org/2000/svg"><g clip-path="url(#clip0_291_17)" fill="#582D7F"><path d="M9.765 1.765h4c.94 0 1.412.235 1.764.353.471.235.824.353 1.177.706.353.352.588.705.706 1.176.117.353.235.824.353 1.765v8c0 .94-.236 1.412-.353 1.764-.235.471-.353.824-.706 1.177-.353.353-.706.588-1.177.706-.352.117-.823.235-1.764.353h-8c-.941 0-1.412-.236-1.765-.353-.47-.235-.824-.353-1.176-.706-.353-.353-.589-.706-.706-1.177-.118-.352-.236-.823-.353-1.764v-8c0-.941.235-1.412.353-1.765.235-.47.353-.824.706-1.176.352-.353.705-.589 1.176-.706.353-.118.824-.236 1.765-.353h4zm0-1.765h-4C4.705 0 4 .235 3.412.47a5.137 5.137 0 00-1.765 1.177C1.06 2.235.824 2.706.471 3.412.235 4 .118 4.706 0 5.765v8c0 1.058.235 1.764.47 2.353a5.137 5.137 0 001.177 1.764c.588.589 1.059.824 1.765 1.177.588.235 1.294.353 2.353.47h8c1.058 0 1.764-.235 2.353-.47a5.138 5.138 0 001.764-1.177c.589-.588.824-1.059 1.177-1.764.235-.589.353-1.294.47-2.353v-8c0-1.06-.235-1.765-.47-2.353a5.137 5.137 0 00-1.177-1.765c-.588-.588-1.059-.823-1.764-1.176C15.529.235 14.824.118 13.765 0h-4z"/><path d="M9.765 4.706a5.021 5.021 0 00-5.06 5.059 5.021 5.021 0 005.06 5.058 5.021 5.021 0 005.058-5.058 5.021 5.021 0 00-5.058-5.06zm0 8.353A3.288 3.288 0 016.47 9.765 3.288 3.288 0 019.765 6.47a3.288 3.288 0 013.294 3.294c0 1.764-1.53 3.294-3.294 3.294zm5.176-7.294a1.176 1.176 0 100-2.353 1.176 1.176 0 000 2.353z"/></g><defs><clipPath id="clip0_291_17"><path fill="#fff" d="M0 0h20v20H0z"/></clipPath></defs></svg>