<svg width="20" height="20" fill="none" xmlns="http://www.w3.org/2000/svg"><g clip-path="url(#clip0_291_20)"><path fill-rule="evenodd" clip-rule="evenodd" d="M17.176 3.883c-1.764-1.765-4.117-2.706-6.588-2.706-5.176 0-9.412 4.235-9.412 9.412 0 1.647.47 3.294 1.294 4.705L1.176 20l4.941-1.294c1.412.706 2.942 1.177 4.471 1.177 5.177 0 9.412-4.236 9.412-9.412C20 8 18.94 5.647 17.176 3.883zm-6.588 14.47c-1.412 0-2.823-.353-4-1.059l-.235-.117L3.412 18l.823-2.823L4 14.824c-.824-1.294-1.177-2.706-1.177-4.118 0-4.235 3.53-7.765 7.765-7.765 2.118 0 4 .824 5.53 2.236 1.529 1.53 2.235 3.412 2.235 5.53 0 4.117-3.412 7.646-7.765 7.646zm4.235-5.882c-.235-.118-1.411-.706-1.647-.706-.235-.118-.353-.118-.47.118-.118.235-.588.706-.706.94-.118.118-.236.118-.47.118-.236-.117-.942-.353-1.883-1.176-.706-.588-1.177-1.412-1.294-1.647-.118-.235 0-.353.117-.47l.353-.354c.118-.117.118-.235.236-.353.117-.117 0-.235 0-.352 0-.118-.471-1.295-.706-1.765-.118-.353-.353-.353-.47-.353h-.471a.76.76 0 00-.589.235c-.235.235-.823.824-.823 2 0 1.177.823 2.236.941 2.47.118.118 1.647 2.589 4 3.53 2 .824 2.353.588 2.823.588.471 0 1.412-.588 1.53-1.058.235-.589.235-1.06.118-1.06-.118-.588-.353-.588-.589-.705z" fill="#582D7F"/></g><defs><clipPath id="clip0_291_20"><path fill="#fff" d="M0 0h20v20H0z"/></clipPath></defs></svg>