<svg width="21" height="19" viewBox="0 0 21 19" fill="none" xmlns="http://www.w3.org/2000/svg">
<path d="M12.8092 18.7294C12.4753 19.0902 11.9334 19.0902 11.5989 18.7294C11.2647 18.3689 11.2647 17.7838 11.5989 17.423L18.0809 10.4261L0.858575 10.4261C0.384517 10.4261 1.57169e-06 10.011 1.66116e-06 9.49927C1.75068e-06 8.98726 0.384518 8.57249 0.858575 8.57249L18.0723 8.57249L11.5903 1.57558C11.4295 1.40259 11.3392 1.16719 11.3392 0.922216C11.3392 0.676951 11.4295 0.442133 11.5903 0.26885C11.7511 0.0938264 11.9714 -0.00311833 12.1999 7.46123e-05C12.4277 0.00123432 12.6463 0.0975993 12.8092 0.268851L20.7507 8.84098C20.9123 9.01571 21.0024 9.25285 21 9.49928C20.9983 9.74512 20.9091 9.98023 20.7507 10.157L12.8092 18.7294Z" fill="#093B54" fill-opacity="0.5"/>
</svg>
