<svg width="1154" height="34" viewBox="0 0 1154 34" fill="none" xmlns="http://www.w3.org/2000/svg">
<path d="M1154 16L4 16" stroke="#C4C4C4" stroke-width="1.3"/>
<circle cx="17" cy="17" r="16.5" fill="#093B54" stroke="#093B54"/>
<path d="M16.6748 23V13.0859L14.0645 14.2725V12.5938L17.4834 10.9414H18.459V23H16.6748Z" fill="white"/>
<circle cx="579" cy="17" r="16.5" fill="white" stroke="#C4C4C4"/>
<path d="M575.483 23V22.042L580.115 17.0059C580.502 16.584 580.786 16.2617 580.968 16.0391C581.155 15.8105 581.328 15.5264 581.486 15.1865C581.65 14.8408 581.732 14.498 581.732 14.1582C581.732 13.6074 581.516 13.127 581.082 12.7168C580.648 12.3008 580.115 12.0928 579.482 12.0928C578.809 12.0928 578.246 12.3154 577.795 12.7607C577.35 13.2002 577.127 13.7627 577.127 14.4482H575.413C575.413 13.3467 575.8 12.4502 576.573 11.7588C577.347 11.0674 578.322 10.7217 579.5 10.7217C580.631 10.7217 581.568 11.0498 582.312 11.7061C583.062 12.3564 583.438 13.1562 583.438 14.1055C583.438 14.7793 583.288 15.3711 582.989 15.8809C582.69 16.3906 582.222 16.9883 581.583 17.6738L578.059 21.4883H583.859V23H575.483Z" fill="#C4C4C4"/>
<circle cx="1137" cy="17" r="16.5" fill="white" stroke="#C4C4C4"/>
<path d="M1140.52 22.2266C1139.76 22.8887 1138.75 23.2197 1137.47 23.2197C1136.2 23.2197 1135.2 22.874 1134.46 22.1826C1133.72 21.4912 1133.35 20.5947 1133.35 19.4932H1135.06C1135.06 20.167 1135.28 20.7295 1135.72 21.1807C1136.16 21.626 1136.75 21.8486 1137.49 21.8486C1138.26 21.8486 1138.86 21.6289 1139.29 21.1895C1139.73 20.75 1139.95 20.2021 1139.95 19.5459C1139.95 18.8838 1139.71 18.3477 1139.24 17.9375C1138.77 17.5215 1138.16 17.3135 1137.4 17.3135H1136V16.0303H1137.4C1137.99 16.0303 1138.49 15.8428 1138.91 15.4678C1139.33 15.0869 1139.54 14.6094 1139.54 14.0352C1139.54 13.4844 1139.35 13.0244 1138.96 12.6553C1138.58 12.2803 1138.06 12.0928 1137.4 12.0928C1136.76 12.0928 1136.25 12.2803 1135.87 12.6553C1135.5 13.0244 1135.31 13.4902 1135.31 14.0527H1133.6C1133.6 13.0801 1133.96 12.2832 1134.68 11.6621C1135.4 11.0352 1136.33 10.7217 1137.46 10.7217C1138.56 10.7217 1139.46 11.0146 1140.17 11.6006C1140.88 12.1807 1141.24 12.9131 1141.24 13.7979C1141.24 14.46 1141.04 15.0459 1140.64 15.5557C1140.25 16.0654 1139.72 16.4229 1139.06 16.6279C1139.85 16.8096 1140.48 17.1699 1140.95 17.709C1141.43 18.248 1141.67 18.9072 1141.67 19.6865C1141.67 20.7178 1141.29 21.5645 1140.52 22.2266Z" fill="#C4C4C4"/>
</svg>
