<svg width="20" height="20" fill="none" xmlns="http://www.w3.org/2000/svg"><path d="M2.094 9.115c5.053-2.201 8.422-3.653 10.108-4.354 4.813-2.002 5.814-2.35 6.466-2.361.143-.003.464.033.671.201a.73.73 0 01.247.47c.023.134.052.442.029.682-.26 2.74-1.39 9.392-1.964 12.461-.243 1.3-.721 1.735-1.184 1.777-1.007.093-1.771-.665-2.746-1.304-1.526-1-2.387-1.622-3.868-2.598-1.712-1.128-.602-1.748.373-2.76.255-.266 4.69-4.3 4.776-4.666.01-.045.02-.216-.08-.306-.102-.09-.252-.06-.36-.035-.152.035-2.59 1.646-7.31 4.833-.692.475-1.319.706-1.88.694-.62-.014-1.81-.35-2.695-.638-1.085-.353-1.948-.54-1.873-1.138.04-.312.47-.632 1.29-.958z" fill="#582D7F"/></svg>