<?xml version="1.0" standalone="no"?>
<!DOCTYPE svg PUBLIC "-//W3C//DTD SVG 20010904//EN"
 "http://www.w3.org/TR/2001/REC-SVG-20010904/DTD/svg10.dtd">
<svg version="1.0" xmlns="http://www.w3.org/2000/svg"
 width="700.000000pt" height="700.000000pt" viewBox="0 0 700.000000 700.000000"
 preserveAspectRatio="xMidYMid meet">
<metadata>
Created by potrace 1.14, written by Peter Selinger 2001-2017
</metadata>
<g transform="translate(0.000000,700.000000) scale(0.100000,-0.100000)"
fill="#000000" stroke="none">
<path d="M1017 6993 c-4 -3 -2 -12 3 -18 6 -7 11 -24 12 -39 1 -14 6 -26 10
-26 4 0 8 -16 8 -36 0 -25 3 -33 13 -28 8 6 8 3 -2 -9 -9 -11 -18 -14 -30 -8
-9 5 -22 6 -30 3 -9 -3 -11 0 -6 8 6 9 4 11 -6 5 -19 -13 -114 -6 -138 9 -10
6 -12 5 -7 -2 4 -7 1 -12 -9 -12 -10 0 -14 5 -10 13 4 6 -1 3 -9 -7 -9 -11
-16 -15 -16 -10 0 14 -73 14 -82 0 -4 -6 -8 -6 -8 -1 0 6 -23 9 -52 8 -70 -2
-70 -2 -65 -10 3 -5 -14 -9 -36 -9 -63 -2 -97 -8 -97 -16 0 -4 -7 -4 -17 -1
-12 5 -14 3 -8 -8 6 -11 5 -11 -4 -3 -9 9 -22 7 -49 -6 -20 -10 -40 -16 -44
-13 -5 2 -8 -1 -8 -7 0 -7 -7 -10 -15 -6 -8 3 -15 1 -15 -5 0 -6 -4 -7 -10 -4
-5 3 -10 2 -10 -3 0 -4 -16 -16 -35 -25 -19 -9 -35 -22 -35 -27 0 -6 -4 -8
-10 -5 -5 3 -10 1 -10 -4 0 -6 -7 -11 -16 -11 -8 0 -12 -4 -9 -10 3 -5 -1 -10
-9 -10 -9 0 -15 -6 -13 -12 1 -7 -3 -12 -10 -11 -6 1 -17 -5 -25 -14 -11 -14
-11 -16 2 -8 13 8 13 6 1 -8 -7 -9 -18 -14 -24 -10 -5 3 -7 1 -3 -5 3 -6 1
-17 -6 -24 -23 -24 -39 -59 -33 -68 4 -6 -1 -10 -9 -10 -9 0 -13 -7 -11 -20 2
-11 -1 -20 -6 -20 -6 0 -9 -10 -8 -22 2 -13 0 -28 -3 -34 -8 -11 -3 -348 5
-374 2 -8 7 -23 11 -32 4 -9 5 -22 1 -28 -3 -5 -1 -10 5 -10 6 0 8 -4 5 -10
-3 -5 -2 -10 4 -10 5 0 8 -9 6 -20 -2 -11 2 -25 8 -32 7 -7 12 -20 12 -28 -1
-8 5 -25 13 -37 8 -12 11 -27 7 -33 -3 -5 -1 -10 5 -10 6 0 8 -4 5 -10 -3 -5
-1 -10 6 -10 6 0 9 -8 6 -20 -3 -11 -2 -18 3 -15 9 6 22 -23 15 -35 -3 -4 2
-11 11 -14 9 -3 14 -12 12 -18 -3 -7 1 -19 9 -26 7 -7 13 -22 13 -33 0 -10 5
-19 12 -19 6 0 8 -3 5 -7 -4 -3 1 -12 11 -20 9 -8 12 -12 5 -9 -8 5 -8 0 0
-18 7 -13 15 -22 20 -19 5 3 7 -3 5 -13 -2 -12 2 -18 10 -16 8 1 12 -3 10 -10
-3 -7 6 -30 19 -50 12 -21 23 -42 23 -48 0 -5 5 -10 10 -10 6 0 10 -6 10 -13
0 -7 9 -23 20 -35 12 -12 17 -22 13 -22 -4 0 1 -7 11 -15 11 -8 14 -15 8 -15
-7 0 -12 -5 -12 -11 0 -5 4 -8 9 -5 12 8 34 -21 26 -34 -3 -5 0 -10 8 -10 8 0
20 -13 25 -29 6 -16 18 -38 27 -48 37 -42 65 -82 65 -92 0 -6 5 -11 10 -11 6
0 10 -7 10 -15 0 -9 7 -18 15 -21 8 -4 13 -10 10 -14 -3 -4 8 -18 24 -31 21
-16 26 -26 18 -31 -8 -5 -6 -8 6 -8 9 0 17 -6 17 -13 0 -8 11 -24 25 -37 14
-13 25 -28 25 -33 0 -5 12 -21 27 -35 16 -13 21 -21 13 -17 -8 4 -3 -4 12 -17
15 -14 25 -28 21 -31 -3 -4 2 -9 11 -13 9 -3 16 -13 16 -21 0 -8 4 -12 9 -9 8
5 24 -29 22 -46 0 -4 6 -5 14 -2 9 4 15 0 15 -9 0 -8 7 -18 16 -21 9 -4 14
-13 10 -21 -3 -8 -2 -14 2 -14 4 1 14 1 22 0 13 -1 13 -2 0 -11 -13 -8 -12
-10 3 -10 9 0 17 -3 17 -8 0 -4 11 -20 25 -35 14 -15 22 -27 18 -27 -4 0 6 -9
22 -20 17 -11 26 -20 20 -20 -5 0 -2 -5 8 -11 9 -5 17 -17 17 -25 0 -8 4 -13
9 -10 9 6 26 -22 23 -36 -1 -4 5 -5 13 -2 11 4 15 -1 15 -17 0 -12 3 -20 6
-16 8 8 28 -12 37 -37 4 -11 13 -16 23 -12 9 3 12 2 8 -5 -7 -12 31 -51 41
-41 4 4 6 2 5 -3 -5 -21 0 -36 10 -30 5 3 10 2 10 -3 0 -13 77 -92 90 -92 5 0
7 -7 4 -15 -4 -10 0 -15 11 -15 9 0 13 -4 10 -10 -3 -5 0 -10 8 -10 17 0 57
-42 57 -60 0 -7 3 -11 6 -7 7 7 34 -15 28 -24 -2 -3 7 -12 20 -19 14 -7 27
-21 29 -32 3 -11 10 -17 16 -13 6 3 11 2 11 -3 0 -12 68 -82 80 -82 5 0 12 -5
16 -12 4 -7 3 -8 -5 -4 -7 4 17 -21 53 -57 36 -35 72 -67 80 -70 9 -4 16 -14
16 -22 0 -9 4 -13 10 -10 5 3 15 -5 22 -19 6 -14 16 -26 22 -26 16 0 46 -37
38 -45 -4 -4 -2 -6 3 -5 20 4 36 0 31 -8 -7 -12 30 -42 52 -42 13 0 14 -2 4
-9 -11 -7 -10 -9 3 -15 9 -3 13 -11 9 -17 -4 -8 -3 -9 4 -5 6 4 20 -2 32 -14
11 -11 26 -20 33 -20 8 0 7 -4 -3 -10 -12 -7 -12 -10 -1 -10 14 0 40 -21 96
-77 18 -18 37 -33 42 -33 5 0 16 -11 23 -25 7 -13 17 -22 22 -19 4 3 8 0 8 -6
0 -6 5 -8 10 -5 9 6 14 -8 11 -28 -1 -5 3 -6 9 -2 5 3 13 -1 16 -9 3 -9 12
-16 20 -16 8 0 14 -7 14 -15 0 -8 3 -14 8 -14 19 3 33 -2 28 -10 -3 -5 4 -16
17 -24 12 -8 42 -33 66 -56 24 -22 49 -37 55 -34 6 3 8 3 4 -1 -6 -8 46 -66
59 -66 5 0 15 -9 23 -20 8 -11 20 -20 27 -20 7 0 13 -7 13 -16 0 -10 6 -14 14
-11 9 4 17 -1 20 -11 3 -9 19 -23 36 -30 16 -8 28 -17 27 -20 -1 -4 2 -8 6 -9
5 -1 17 -11 26 -22 10 -12 21 -21 24 -21 12 0 55 -49 48 -56 -3 -4 -1 -4 6 0
6 3 23 -5 37 -19 14 -14 30 -25 36 -25 5 0 10 -4 10 -10 0 -5 7 -10 16 -10 8
0 13 -4 10 -9 -3 -5 4 -11 15 -14 13 -4 18 -10 13 -18 -4 -8 -3 -10 4 -5 7 4
12 2 12 -3 0 -6 7 -11 15 -11 7 0 19 -8 24 -17 6 -10 11 -14 11 -10 0 8 27
-15 75 -61 15 -15 29 -21 37 -16 7 4 10 4 6 -1 -8 -9 15 -35 31 -35 6 0 11 -4
11 -10 0 -5 4 -10 10 -10 9 0 33 -18 64 -46 6 -5 19 -13 29 -17 11 -4 15 -12
11 -19 -5 -7 -2 -9 8 -6 8 4 21 -2 29 -13 7 -10 19 -19 26 -19 7 0 13 -4 13
-9 0 -5 9 -13 20 -16 20 -6 20 -7 -2 -34 -13 -16 -26 -27 -29 -25 -3 2 -12 -6
-19 -17 -8 -10 -20 -19 -27 -19 -7 0 -13 -7 -13 -16 0 -8 -4 -13 -8 -10 -5 3
-15 -4 -22 -15 -8 -10 -20 -19 -27 -19 -6 0 -15 -10 -18 -21 -6 -17 -9 -19
-16 -8 -7 11 -9 10 -9 -5 0 -11 -3 -16 -6 -13 -6 6 -44 -23 -115 -88 -15 -13
-29 -21 -33 -18 -3 4 -6 -1 -6 -10 0 -10 -7 -17 -15 -17 -8 0 -23 -9 -34 -21
-11 -13 -24 -18 -32 -14 -8 5 -10 4 -5 -3 4 -7 2 -12 -4 -12 -6 0 -8 -5 -4
-11 4 -7 1 -10 -7 -7 -8 3 -26 -8 -41 -24 -18 -19 -28 -24 -31 -16 -3 8 -6 6
-6 -4 -1 -10 -6 -18 -12 -18 -5 0 -24 -15 -41 -32 -18 -18 -25 -24 -18 -13 11
15 7 14 -15 -5 -17 -14 -33 -29 -36 -34 -4 -5 -12 -5 -19 -1 -7 5 -11 4 -8 -1
5 -8 -20 -39 -32 -39 -3 0 -4 -4 -2 -8 1 -5 -2 -6 -8 -2 -5 3 -10 1 -10 -5 0
-6 -4 -9 -8 -6 -5 3 -18 -4 -30 -14 -12 -11 -26 -20 -31 -20 -6 0 -16 -9 -23
-20 -7 -11 -16 -20 -21 -20 -4 0 -5 6 -1 12 5 7 -7 -2 -25 -20 -18 -17 -36
-30 -41 -27 -4 3 -11 -2 -14 -11 -3 -8 -10 -13 -14 -10 -5 3 -14 -4 -22 -14
-8 -10 -17 -17 -21 -15 -4 3 -12 -2 -19 -10 -7 -8 -19 -15 -26 -15 -8 0 -14
-5 -14 -11 0 -5 -4 -8 -9 -5 -5 3 -11 -1 -15 -9 -3 -8 -12 -15 -19 -15 -8 0
-24 -9 -37 -20 -13 -11 -31 -20 -40 -20 -10 0 -21 -7 -24 -16 -3 -8 -10 -12
-16 -9 -5 3 -10 1 -10 -4 0 -6 -7 -11 -16 -11 -9 0 -12 -5 -8 -12 5 -7 3 -8
-6 -3 -7 4 -16 2 -21 -6 -4 -8 -12 -14 -16 -14 -16 -1 -73 -30 -73 -38 0 -5
-5 -5 -10 -2 -6 3 -13 -1 -16 -10 -4 -8 -11 -14 -18 -13 -6 1 -30 -8 -52 -20
-23 -11 -44 -18 -48 -15 -3 4 -6 2 -6 -4 0 -10 -36 -26 -53 -24 -4 1 -10 -6
-14 -15 -5 -13 -7 -13 -14 -2 -7 10 -9 11 -9 0 0 -7 -4 -10 -10 -7 -5 3 -10 2
-10 -4 0 -5 -9 -8 -20 -6 -11 2 -18 0 -15 -6 6 -9 1 -11 -27 -13 -7 -1 -16 -4
-19 -9 -3 -4 -15 -10 -27 -12 -12 -3 -31 -7 -43 -10 -11 -2 -33 -11 -50 -19
-19 -9 -27 -10 -22 -3 4 7 0 6 -10 -2 -9 -7 -17 -10 -17 -7 0 4 -8 2 -18 -3
-13 -7 -23 -6 -32 2 -10 9 -11 9 -6 0 4 -7 4 -13 -1 -14 -4 -1 -24 -2 -43 -4
-19 -2 -41 -3 -48 -4 -8 -1 -10 -6 -6 -14 6 -9 5 -9 -7 0 -12 10 -18 10 -29 0
-10 -9 -11 -9 -6 1 9 16 -6 16 -23 -1 -8 -6 -11 -7 -8 -1 5 8 -13 12 -56 12
-86 1 -111 5 -120 19 -4 7 -14 10 -21 7 -8 -3 -26 2 -40 11 -14 9 -31 13 -37
9 -8 -4 -9 -3 -5 4 6 11 -13 17 -37 13 -5 -1 -6 3 -2 9 3 6 11 7 17 4 7 -4 8
-2 4 5 -4 6 -11 9 -15 7 -10 -7 -81 58 -81 73 0 7 -5 9 -10 6 -6 -3 -10 0 -10
8 0 8 -7 20 -15 27 -8 7 -12 16 -9 21 3 5 1 9 -5 9 -14 0 -3 26 12 28 7 1 30
3 52 5 38 3 40 5 43 41 2 22 -1 36 -6 32 -5 -3 -12 3 -15 14 -3 11 -1 18 4 14
5 -3 5 5 0 19 -6 14 -7 28 -4 31 4 3 2 6 -3 6 -5 0 -11 12 -12 27 -1 15 -8 30
-15 35 -9 6 -9 8 1 8 9 0 10 5 4 18 -5 9 -9 29 -8 44 1 16 -2 28 -6 28 -4 0
-4 7 -1 17 4 10 2 14 -4 10 -5 -3 -10 0 -10 8 0 8 4 12 9 9 4 -3 8 0 8 5 0 6
-4 11 -10 11 -5 0 -10 5 -10 11 0 5 6 7 13 3 9 -6 9 -5 0 7 -6 8 -11 23 -9 34
2 11 0 34 -5 52 -4 21 -3 33 3 33 6 0 4 8 -3 17 -12 14 -12 16 1 9 8 -4 6 0
-4 8 -11 9 -14 16 -8 16 7 0 12 5 12 11 0 5 -6 7 -13 3 -9 -6 -9 -4 1 7 15 16
16 33 0 23 -7 -5 -8 -3 -3 6 10 17 13 60 4 60 -8 0 -5 47 4 56 4 4 2 13 -4 20
-7 8 -7 14 1 19 5 3 10 11 10 16 0 6 -6 7 -12 3 -10 -6 -10 -5 -1 7 10 12 10
18 0 29 -8 8 -8 11 -1 7 7 -4 15 0 18 9 3 8 2 12 -4 9 -6 -4 -8 5 -5 22 9 44
13 135 7 155 -3 14 -7 16 -18 7 -8 -6 -14 -16 -14 -21 0 -5 -7 -16 -15 -25 -8
-8 -12 -19 -9 -25 4 -6 2 -8 -3 -5 -6 4 -16 -7 -23 -23 -7 -17 -16 -30 -21
-30 -5 0 -9 -6 -9 -14 0 -7 -7 -19 -15 -26 -9 -7 -13 -15 -10 -18 2 -3 -3 -11
-13 -19 -9 -8 -11 -12 -5 -8 9 4 11 1 7 -9 -3 -9 -10 -13 -15 -10 -8 4 -14
-17 -10 -38 0 -5 -3 -8 -8 -8 -14 0 -42 -60 -34 -73 3 -6 1 -7 -5 -3 -7 4 -12
2 -12 -3 0 -18 -3 -26 -17 -39 -7 -8 -11 -18 -8 -23 4 -5 1 -9 -5 -9 -6 0 -8
-5 -5 -10 3 -6 1 -10 -5 -10 -6 0 -8 -5 -5 -10 3 -6 2 -10 -3 -10 -5 0 -9 -7
-10 -15 -1 -8 -3 -22 -4 -30 -1 -8 -5 -12 -10 -9 -7 5 -12 -10 -9 -29 0 -4 -4
-7 -9 -7 -5 0 -9 -3 -8 -7 1 -5 -6 -25 -15 -47 -9 -21 -14 -42 -11 -47 3 -5 0
-9 -5 -9 -6 0 -11 -9 -11 -21 0 -13 -4 -18 -12 -13 -8 5 -9 2 -5 -9 3 -9 2
-19 -4 -22 -5 -4 -7 -11 -4 -16 4 -5 2 -9 -3 -9 -5 0 -9 -6 -9 -12 -1 -22 -8
-43 -17 -49 -5 -4 -8 -18 -8 -33 0 -15 -5 -23 -11 -19 -6 4 -8 -4 -5 -21 4
-18 1 -29 -8 -33 -8 -3 -12 -9 -9 -13 3 -5 1 -19 -4 -32 -20 -50 -24 -63 -22
-75 1 -7 -3 -13 -9 -13 -5 0 -10 -5 -10 -11 0 -5 6 -7 12 -3 10 6 10 5 1 -8
-7 -8 -10 -18 -6 -21 3 -4 1 -7 -4 -7 -6 0 -10 -8 -8 -17 2 -10 4 -22 4 -27 1
-5 8 -3 16 4 12 10 15 10 15 -1 0 -11 2 -11 9 -1 4 7 26 14 49 15 23 1 42 5
42 9 0 4 10 8 23 8 12 0 18 -4 12 -8 -5 -4 -11 -29 -12 -57 -1 -27 -3 -51 -4
-52 -1 -2 -3 -7 -4 -13 -1 -5 -4 -13 -5 -17 -6 -20 -4 -39 5 -45 6 -5 6 -8 -2
-8 -6 0 -10 -11 -8 -25 1 -14 -3 -25 -9 -25 -6 0 -4 -5 4 -10 12 -8 12 -10 1
-10 -11 0 -11 -3 -1 -15 7 -8 8 -15 3 -15 -12 0 -10 -160 2 -180 5 -9 4 -11
-3 -6 -7 4 -12 3 -12 -3 0 -5 4 -12 8 -15 5 -3 7 -20 6 -38 -1 -18 3 -39 9
-47 10 -12 9 -13 -1 -7 -12 7 -12 4 -1 -15 7 -13 12 -32 10 -41 -1 -10 2 -26
8 -36 7 -13 7 -23 -2 -31 -9 -10 -9 -12 3 -9 10 2 15 -4 14 -19 -1 -13 3 -20
7 -17 8 5 13 -27 7 -42 -2 -3 5 -10 15 -15 9 -6 15 -14 12 -20 -4 -5 -2 -9 3
-9 8 0 36 -50 32 -58 0 -2 14 -17 32 -34 18 -17 32 -35 31 -39 -2 -4 6 -11 17
-14 11 -4 20 -11 20 -16 0 -6 4 -8 8 -5 5 3 16 -4 25 -15 10 -11 22 -17 27
-14 6 3 10 1 10 -4 0 -6 7 -11 15 -11 8 0 15 -5 15 -11 0 -5 4 -8 9 -4 5 3 12
1 16 -4 3 -6 12 -8 20 -4 8 3 15 0 15 -7 0 -7 8 -9 19 -5 11 3 22 1 26 -5 3
-6 11 -8 16 -5 5 4 9 2 9 -3 0 -5 18 -8 40 -7 26 2 38 -1 33 -8 -4 -6 -1 -7 6
-2 17 10 82 12 87 3 3 -5 10 -8 15 -8 6 0 8 4 5 8 -3 5 1 9 9 9 8 0 12 -4 9
-9 -3 -4 0 -8 5 -8 6 0 11 6 11 13 0 8 4 7 10 -3 5 -8 10 -10 10 -4 0 6 15 10
35 9 19 -1 35 3 35 8 0 6 3 8 6 4 3 -3 17 -2 30 3 17 7 24 6 24 -3 0 -9 2 -9
9 1 4 7 12 12 17 10 5 -1 20 4 33 11 14 8 21 9 17 2 -4 -6 -2 -11 3 -11 6 0
11 5 11 12 0 6 3 8 6 5 4 -3 16 -1 28 5 11 7 29 11 39 9 9 -1 17 2 17 8 0 5 9
8 20 6 11 -2 20 1 20 7 0 5 6 8 14 5 8 -3 16 -1 18 5 2 6 17 12 33 14 16 2 31
8 33 14 2 5 8 10 13 10 6 0 7 -5 4 -11 -4 -6 2 -5 13 2 12 7 19 16 17 19 -2 3
4 6 13 6 29 1 46 8 60 24 12 13 13 13 6 0 -7 -12 -5 -13 8 -3 8 7 19 9 23 5 5
-4 5 -1 0 7 -6 11 -3 13 13 9 12 -4 20 -2 16 3 -3 5 2 9 10 9 9 0 16 4 16 8 0
4 10 9 22 9 13 1 27 8 33 16 5 8 16 12 22 10 7 -3 16 2 19 10 3 9 14 14 25 12
11 -2 17 0 14 6 -6 8 8 13 20 7 2 -2 11 6 20 17 9 11 14 13 10 5 -4 -10 -2 -9
8 3 8 9 18 17 22 17 5 0 17 8 27 17 18 16 18 16 12 -1 -5 -12 1 -10 20 9 14
14 31 23 38 19 6 -4 8 -3 5 3 -7 10 20 28 36 25 4 -1 7 2 7 8 0 6 6 9 13 8 6
-2 11 3 9 10 -1 8 2 11 7 8 5 -4 15 0 23 7 7 8 19 12 27 9 8 -3 11 0 7 7 -6
10 6 15 27 12 4 0 7 6 7 14 0 8 3 15 8 14 15 -2 52 14 52 22 0 5 5 9 11 9 15
0 39 26 31 34 -3 4 0 4 9 1 9 -3 28 5 45 20 16 14 35 25 42 25 6 0 12 5 12 10
0 6 7 10 15 10 8 0 15 7 15 15 0 8 3 15 8 14 17 -3 51 14 46 22 -3 5 0 9 6 9
7 0 19 8 28 18 10 10 13 11 7 2 -6 -9 -1 -8 15 5 13 11 30 25 38 30 7 6 22 18
33 28 10 9 26 17 35 17 8 0 13 4 10 9 -6 9 11 20 27 17 5 0 15 10 22 24 8 14
14 21 15 17 0 -5 7 -1 16 7 8 9 20 13 26 10 7 -5 8 -2 4 5 -5 8 0 14 13 18 12
3 21 9 21 13 0 5 16 18 35 30 19 12 32 27 29 32 -4 6 -2 8 3 5 6 -4 23 5 38
19 15 14 38 30 51 35 13 4 23 12 22 16 -2 5 -1 8 2 8 11 0 38 30 33 38 -2 4
-1 6 4 5 16 -5 53 23 53 40 0 15 2 15 10 2 8 -13 10 -12 10 2 0 10 4 17 9 15
5 -1 18 9 30 22 12 13 21 21 21 17 0 -4 13 7 30 24 16 16 34 30 40 30 5 0 10
7 10 16 0 8 4 13 9 9 6 -3 15 4 21 16 7 11 14 19 16 16 3 -3 30 19 60 48 30
29 54 50 54 47 0 -4 5 1 11 11 6 9 15 14 21 11 6 -4 9 -3 6 2 -3 5 0 15 8 22
8 7 14 9 14 5 1 -4 7 3 15 17 8 14 14 22 15 18 0 -5 8 0 18 10 11 9 17 20 15
25 -3 4 0 6 5 5 5 -2 24 12 41 29 17 18 31 31 31 28 0 -3 10 5 22 17 13 13 22
26 21 30 -2 5 3 8 10 8 7 0 19 9 27 19 7 11 17 18 22 15 4 -3 8 2 8 10 0 9 7
16 16 16 8 0 13 4 10 8 -3 5 4 15 16 23 11 8 50 43 87 79 36 36 71 63 76 62 6
-2 7 0 3 4 -8 7 29 44 44 44 5 0 6 5 3 10 -3 6 2 10 11 10 10 0 15 3 12 6 -4
3 2 14 13 25 10 10 24 19 31 19 6 0 8 3 5 6 -3 4 5 15 18 26 14 11 25 27 25
36 0 15 2 15 10 2 9 -13 10 -13 11 0 1 8 1 18 0 22 0 4 5 5 12 2 8 -3 18 6 25
21 6 14 18 25 27 25 8 0 14 4 12 8 -1 5 30 39 68 77 39 38 69 73 67 78 -1 5 2
6 7 3 9 -6 26 11 26 26 0 3 4 10 9 15 6 5 6 2 1 -7 -8 -13 -6 -13 8 -1 9 7 15
17 12 21 -3 5 4 11 15 15 11 4 18 10 15 15 -3 5 4 11 15 15 11 3 19 12 17 18
-1 7 4 11 11 10 6 -2 12 4 12 13 0 8 5 12 10 9 6 -3 10 1 10 9 0 9 5 16 10 16
6 0 10 6 10 13 0 8 11 20 25 27 14 7 25 16 25 20 0 4 23 30 50 58 28 29 48 52
45 52 -3 0 3 8 13 18 9 11 20 17 25 15 4 -2 7 1 7 8 0 6 16 27 36 45 19 19 32
34 29 34 -4 0 12 18 34 40 23 23 41 48 41 56 0 10 6 14 15 10 13 -5 20 5 16
27 0 4 6 7 14 7 8 0 14 3 13 8 -1 4 12 22 30 41 18 18 29 37 26 42 -3 5 2 6
10 3 10 -4 16 -1 16 9 0 8 14 29 30 47 17 18 30 37 30 42 0 6 7 8 14 5 10 -4
13 -1 9 9 -3 7 0 14 6 14 6 0 10 6 8 13 -1 6 4 11 11 10 6 -2 12 4 12 13 0 8
4 12 10 9 6 -4 7 1 3 11 -4 12 -3 15 5 10 7 -4 12 -3 12 2 0 8 11 23 50 69 5
7 10 14 10 17 0 5 44 58 77 93 13 13 23 26 23 28 0 3 0 13 0 23 0 14 2 15 10
2 8 -13 10 -12 10 3 0 11 4 15 12 11 6 -4 8 -3 4 4 -3 6 2 15 11 21 10 6 14
11 9 11 -4 0 0 8 11 17 10 10 12 14 4 8 -8 -5 6 16 32 48 26 32 44 63 41 69
-4 6 -3 8 3 5 11 -7 87 97 88 118 1 6 6 9 13 8 7 -2 13 2 13 7 1 6 2 15 3 20
0 6 8 15 16 20 8 5 11 10 6 10 -5 0 1 9 13 19 12 11 22 22 22 25 -2 19 0 29 5
23 4 -3 14 8 24 26 40 76 47 86 52 82 3 -3 11 8 18 25 7 16 17 30 22 30 5 0 7
4 3 9 -3 5 0 16 7 23 18 19 48 69 55 91 3 11 12 16 20 13 8 -3 11 -1 8 4 -9
14 17 70 32 70 7 0 10 9 8 20 -2 11 0 18 4 16 4 -3 14 10 21 29 8 19 18 35 22
35 5 0 7 4 4 9 -4 5 -2 11 3 13 5 1 11 10 13 18 2 8 11 21 21 28 9 7 15 18 12
23 -4 5 3 23 15 39 12 17 23 38 25 48 1 9 7 16 13 15 6 -2 9 6 7 17 -2 11 0
20 6 20 5 0 9 7 9 16 0 8 4 13 8 10 5 -3 9 1 10 9 1 8 3 22 4 30 1 8 6 15 11
15 5 0 6 7 3 16 -3 8 -2 13 2 11 11 -7 29 17 26 35 -1 9 4 19 12 22 7 3 11 12
8 19 -3 8 2 17 10 20 9 4 13 13 10 22 -4 8 -1 15 6 15 7 0 10 6 7 14 -3 8 1
17 9 20 9 3 13 10 10 15 -3 5 1 14 9 21 8 7 15 23 15 37 0 16 4 22 12 17 8 -5
9 -2 5 9 -3 10 -2 17 4 17 6 0 7 5 4 10 -3 6 -1 10 4 10 6 0 10 3 10 8 -4 22
2 42 10 37 6 -3 8 4 6 15 -2 11 1 20 7 20 5 0 8 7 4 15 -3 8 -1 15 4 15 6 0
10 9 10 21 0 11 4 17 10 14 6 -3 7 1 4 9 -3 9 -1 16 5 16 6 0 8 6 5 14 -3 8
-1 17 5 21 6 3 11 15 11 26 0 10 4 19 10 19 5 0 9 3 9 8 -4 24 2 42 13 36 6
-4 8 -3 4 4 -3 6 -1 23 6 39 6 15 10 32 9 37 -1 5 4 13 11 17 7 4 12 20 13 34
0 14 7 30 15 35 12 8 12 10 1 10 -10 0 -11 3 -2 13 6 8 8 17 4 20 -3 4 -1 7 5
7 7 0 11 3 11 8 -1 4 0 9 1 12 3 10 11 45 12 58 1 6 5 12 10 12 4 0 8 11 8 24
0 14 5 28 11 32 8 4 7 9 -2 15 -12 7 -12 9 0 9 7 0 11 6 7 15 -3 8 -1 15 5 15
6 0 7 5 4 10 -3 6 -1 10 6 10 7 0 10 3 6 6 -3 3 1 26 8 52 8 25 12 49 9 54 -3
4 0 8 6 8 6 0 8 5 5 10 -3 6 0 10 7 10 9 0 9 3 -2 10 -10 6 -11 10 -2 10 6 0
12 11 12 25 0 14 6 25 13 25 8 0 7 4 -3 10 -8 5 -10 10 -3 10 6 0 10 11 8 25
-1 14 2 25 8 25 6 0 7 3 4 7 -4 3 -1 13 6 21 10 13 9 14 -3 7 -13 -8 -13 -6
-2 8 8 9 11 21 7 27 -3 5 -2 10 3 10 6 0 8 10 4 22 -3 13 -1 19 5 15 6 -4 9 7
8 28 -1 19 3 35 8 35 5 0 7 6 4 14 -3 8 -1 17 6 20 8 3 8 5 -2 5 -11 1 -11 4
-1 16 7 8 9 15 5 15 -4 0 -2 6 4 14 9 10 9 16 1 21 -8 5 -6 14 7 28 12 14 13
18 3 12 -12 -7 -13 -6 -4 6 5 8 10 23 10 34 -1 11 4 23 9 27 6 5 5 8 -3 8 -7
0 -10 5 -7 10 4 6 12 7 18 3 8 -4 7 -1 -1 9 -7 9 -9 19 -4 22 4 2 8 25 7 51 0
36 2 44 14 40 11 -5 11 -2 -2 13 -9 10 -17 23 -17 28 0 5 4 3 9 -5 6 -9 11
-10 15 -2 4 6 2 11 -5 11 -9 0 -9 3 0 14 9 11 8 15 -5 20 -11 4 -15 2 -11 -8
3 -7 1 -18 -3 -22 -5 -5 -11 -26 -14 -47 -2 -20 -12 -44 -20 -53 -19 -19 -21
-28 -3 -18 6 4 4 -2 -6 -13 -10 -11 -17 -27 -15 -34 2 -8 -2 -13 -8 -12 -6 1
-10 -8 -10 -20 1 -12 -4 -21 -10 -20 -5 1 -9 -11 -8 -27 1 -20 -7 -38 -25 -56
-14 -15 -20 -24 -13 -20 16 10 15 -5 -3 -30 -8 -12 -11 -24 -8 -28 3 -3 1 -6
-5 -6 -7 0 -11 -3 -10 -7 1 -5 -3 -18 -10 -30 -7 -13 -9 -23 -5 -23 4 0 4 -4
-2 -8 -15 -11 -39 -56 -25 -47 7 4 7 -1 -2 -14 -7 -12 -16 -21 -21 -21 -4 0
-5 -4 -2 -10 3 -5 2 -10 -4 -10 -6 0 -8 -7 -5 -15 4 -8 1 -15 -5 -15 -6 0 -11
-6 -11 -14 0 -7 -7 -19 -15 -26 -8 -7 -12 -16 -9 -21 3 -5 -2 -16 -10 -25 -9
-9 -14 -20 -11 -25 4 -5 1 -9 -4 -9 -6 0 -11 -9 -11 -21 0 -11 -4 -17 -10 -14
-9 5 -15 -24 -11 -48 1 -5 -4 -5 -10 -1 -9 5 -10 2 -6 -10 4 -9 3 -14 -2 -11
-5 3 -13 -5 -17 -17 -3 -12 -13 -28 -20 -36 -8 -7 -12 -18 -9 -23 4 -5 1 -9
-5 -9 -6 0 -8 -4 -5 -10 3 -5 1 -10 -4 -10 -6 0 -10 -6 -8 -12 1 -7 -3 -12
-10 -11 -7 2 -10 -4 -7 -12 4 -8 1 -15 -6 -15 -6 0 -8 -4 -5 -10 3 -5 2 -10
-4 -10 -6 0 -13 -11 -17 -25 -3 -14 -9 -23 -13 -21 -4 3 -8 -5 -8 -17 -1 -12
-7 -23 -13 -25 -5 -2 -10 -10 -10 -18 0 -9 -4 -13 -8 -10 -4 2 -9 -5 -9 -17
-1 -12 -12 -30 -25 -40 -13 -10 -17 -16 -10 -12 11 6 11 3 0 -14 -7 -12 -16
-21 -21 -21 -4 0 -5 -4 -2 -10 3 -5 1 -10 -4 -10 -6 0 -11 -7 -11 -15 0 -8 -5
-15 -11 -15 -5 0 -8 -4 -5 -9 4 -5 3 -11 -2 -13 -15 -6 -52 -80 -46 -90 4 -6
3 -8 -3 -5 -11 7 -45 -28 -36 -37 4 -3 1 -6 -6 -6 -7 0 -9 -4 -6 -10 3 -5 1
-10 -4 -10 -6 0 -11 -6 -11 -14 0 -8 -7 -16 -15 -20 -8 -3 -15 -15 -15 -26 0
-11 -7 -23 -15 -26 -8 -4 -15 -12 -15 -20 0 -8 -5 -14 -11 -14 -6 0 -9 -7 -6
-14 4 -10 1 -13 -8 -10 -10 4 -13 0 -10 -15 2 -12 0 -19 -6 -16 -5 4 -9 2 -9
-3 0 -5 -11 -22 -25 -38 -13 -15 -22 -30 -20 -33 3 -2 -4 -11 -15 -18 -11 -8
-18 -19 -15 -24 4 -5 1 -9 -4 -9 -6 0 -10 -3 -8 -8 1 -4 -7 -17 -18 -29 -34
-37 -46 -53 -40 -53 4 0 0 -7 -7 -15 -28 -31 -39 -45 -34 -45 3 0 -6 -12 -19
-26 -14 -15 -22 -30 -19 -35 3 -5 -2 -9 -11 -9 -9 0 -13 -5 -10 -10 3 -6 -1
-13 -9 -16 -9 -3 -16 -11 -16 -18 0 -6 -9 -19 -20 -29 -11 -9 -20 -24 -20 -32
0 -8 -5 -14 -12 -12 -7 1 -12 -4 -13 -11 0 -7 -6 -16 -13 -21 -8 -5 -14 -12
-15 -17 -1 -5 -6 -8 -10 -6 -5 1 -6 -1 -3 -6 3 -5 -10 -26 -29 -47 -18 -21
-34 -41 -33 -44 2 -19 -4 -24 -12 -11 -8 12 -10 11 -10 -7 0 -13 -4 -23 -10
-23 -5 0 -10 -6 -10 -14 0 -8 -9 -21 -20 -29 -11 -8 -17 -16 -14 -20 3 -3 -4
-11 -16 -17 -12 -6 -19 -14 -17 -17 7 -6 -36 -49 -45 -46 -4 2 -5 -4 -2 -12 4
-9 0 -15 -10 -15 -10 0 -13 -5 -9 -17 4 -11 3 -14 -5 -9 -7 4 -12 1 -12 -7 0
-8 -7 -18 -16 -21 -8 -3 -12 -11 -9 -16 4 -6 1 -9 -7 -8 -7 2 -12 -2 -11 -9 2
-7 -7 -17 -18 -23 -12 -7 -18 -18 -15 -26 3 -7 2 -13 -2 -13 -17 3 -35 -2 -29
-7 3 -4 1 -12 -6 -19 -7 -6 -23 -26 -36 -43 -13 -17 -28 -29 -34 -25 -6 3 -7
1 -3 -5 4 -7 2 -12 -3 -12 -6 0 -10 -3 -9 -7 4 -12 -35 -53 -44 -47 -4 3 -5
-1 -3 -9 3 -7 -7 -24 -25 -37 -16 -13 -30 -28 -30 -34 0 -6 -11 -20 -25 -30
-14 -10 -25 -23 -25 -28 0 -4 -16 -23 -35 -42 -19 -18 -31 -36 -28 -40 4 -3
-1 -6 -10 -6 -9 0 -17 -5 -17 -10 0 -6 -21 -31 -46 -55 -25 -25 -43 -45 -39
-45 3 0 0 -7 -9 -15 -8 -8 -20 -15 -26 -15 -6 0 -8 -5 -5 -10 3 -6 1 -10 -5
-10 -6 0 -9 -3 -7 -7 3 -5 -1 -14 -9 -21 -8 -7 -14 -10 -14 -7 0 9 -23 -16
-43 -48 -11 -16 -23 -25 -30 -21 -7 4 -9 4 -5 -1 4 -4 -13 -28 -37 -52 -25
-25 -45 -49 -45 -54 0 -5 -7 -9 -16 -9 -8 0 -12 -4 -9 -10 3 -5 2 -10 -4 -10
-5 0 -12 -9 -16 -19 -4 -12 -12 -18 -21 -14 -7 3 -14 0 -14 -6 0 -15 -51 -67
-62 -64 -4 2 -7 0 -6 -5 3 -18 -16 -42 -34 -42 -14 0 -18 -5 -14 -15 3 -9 0
-15 -10 -15 -11 0 -14 -6 -10 -16 3 -8 2 -13 -2 -10 -4 3 -27 -15 -50 -40 -24
-24 -47 -44 -52 -44 -6 0 -10 -7 -10 -15 0 -8 -3 -14 -8 -12 -10 3 -52 -40
-44 -47 5 -6 -14 -10 -31 -7 -5 1 -6 -3 -2 -9 3 -5 -1 -13 -9 -16 -9 -3 -13
-10 -10 -15 3 -5 -2 -9 -11 -9 -9 0 -13 -4 -10 -10 3 -6 -1 -10 -9 -10 -9 0
-16 -7 -16 -17 0 -9 -3 -14 -6 -10 -6 6 -69 -53 -69 -65 0 -5 -4 -8 -10 -9
-18 -1 -35 -21 -28 -32 3 -6 1 -7 -5 -3 -12 7 -74 -48 -65 -58 6 -6 -13 -10
-30 -7 -5 1 -6 -3 -3 -8 3 -5 0 -14 -8 -20 -11 -9 -17 -9 -27 1 -36 35 -72 57
-83 51 -6 -4 -5 1 3 10 12 15 11 17 -3 17 -9 0 -28 11 -42 25 -14 14 -30 23
-35 20 -5 -4 -9 1 -9 9 0 9 -4 16 -10 16 -5 0 -20 11 -34 25 -14 14 -29 25
-34 25 -5 0 -14 10 -20 23 -6 12 -11 16 -11 9 -1 -8 -10 -4 -25 10 -13 13 -21
26 -19 31 4 7 -12 11 -30 8 -5 -1 -11 8 -14 19 -3 11 -10 20 -17 20 -6 0 -17
9 -24 20 -7 11 -18 20 -25 20 -8 0 -30 19 -50 42 -21 23 -37 36 -37 28 -1 -8
-7 -3 -15 12 -8 15 -24 29 -34 33 -11 3 -23 14 -26 24 -3 10 -13 18 -22 17 -9
0 -23 10 -30 24 -7 14 -13 22 -13 18 0 -5 -19 10 -42 32 -24 21 -62 57 -86 80
-24 22 -48 40 -53 40 -5 0 -9 7 -9 15 0 8 -6 15 -13 15 -14 0 -53 41 -49 53 1
4 -7 7 -18 7 -11 0 -20 4 -20 10 0 16 -51 61 -62 54 -6 -4 -8 -3 -5 3 3 5 -3
16 -14 23 -10 8 -19 21 -19 29 0 8 -3 11 -6 8 -8 -8 -80 63 -77 75 2 4 0 7 -5
7 -20 -3 -32 2 -29 14 1 6 -4 11 -12 9 -9 -2 -11 3 -7 15 4 9 4 14 0 10 -10
-9 -64 31 -64 49 0 8 -7 14 -16 14 -9 0 -18 9 -21 20 -3 11 -12 20 -20 20 -10
0 -13 6 -9 16 3 8 2 13 -2 10 -11 -7 -52 22 -52 35 0 15 -26 39 -34 32 -3 -4
-6 1 -6 11 0 9 -4 14 -10 11 -6 -3 -10 -1 -10 5 0 14 -20 34 -42 43 -11 4 -15
12 -12 22 5 11 2 14 -12 8 -11 -4 -15 -3 -11 4 4 6 -7 21 -23 33 -16 12 -32
31 -35 41 -4 11 -10 17 -15 14 -5 -3 -17 7 -27 22 -10 15 -35 45 -56 66 -21
20 -35 37 -30 37 4 0 -8 11 -26 24 -21 16 -28 26 -19 29 9 4 9 6 -2 6 -17 1
-50 35 -50 51 0 5 -13 17 -29 26 -17 10 -28 20 -26 24 2 3 -9 19 -26 34 -16
15 -26 33 -22 39 3 7 3 9 -2 5 -8 -8 -35 15 -35 30 0 5 -11 17 -25 26 -14 9
-25 23 -25 32 0 8 -4 13 -9 10 -9 -6 -26 22 -23 36 1 4 -6 4 -15 1 -10 -4 -14
-2 -9 5 3 6 -13 30 -36 53 -24 24 -37 39 -29 34 10 -5 12 -4 7 3 -4 7 -14 12
-21 12 -9 0 -12 6 -9 15 4 10 0 15 -12 15 -16 0 -17 2 -4 10 13 8 13 10 -2 10
-9 0 -25 14 -35 30 -9 17 -21 30 -25 30 -4 0 -8 9 -8 21 0 11 -4 18 -8 15 -10
-6 -52 47 -52 65 0 6 -7 9 -14 6 -11 -4 -13 -1 -9 10 5 12 3 14 -7 8 -8 -5
-11 -4 -6 3 3 6 -1 17 -9 25 -8 9 -15 20 -15 25 0 6 -7 13 -16 16 -8 3 -13 10
-10 15 3 5 -1 12 -10 15 -8 3 -12 10 -9 16 3 5 -1 10 -9 10 -10 0 -13 6 -10
15 4 9 0 15 -10 15 -9 0 -15 3 -14 8 3 16 -15 41 -26 35 -6 -3 -8 -3 -4 2 4 4
-1 19 -12 33 -11 13 -18 28 -15 32 3 4 -2 11 -11 14 -9 4 -14 9 -11 12 3 3 -3
14 -14 25 -11 11 -17 24 -14 29 4 6 1 10 -5 10 -6 0 -15 11 -22 25 -6 13 -15
22 -19 19 -5 -3 -6 1 -3 9 3 8 -6 31 -20 52 -14 21 -23 41 -20 46 3 5 0 8 -8
7 -8 -2 -12 4 -10 16 2 11 -1 15 -7 11 -7 -3 -11 2 -11 14 0 12 -5 21 -12 21
-6 0 -8 3 -5 6 3 4 0 16 -8 28 -8 11 -15 29 -15 39 0 10 -5 15 -10 12 -5 -3
-10 3 -10 14 0 12 -4 21 -8 21 -4 0 -8 10 -9 22 -1 11 -7 24 -14 28 -6 4 -9
12 -5 18 3 6 -1 18 -10 27 -9 9 -16 27 -16 41 0 13 -4 24 -9 24 -5 0 -9 14 -9
30 0 17 -4 30 -10 30 -5 0 -10 15 -10 34 0 19 -5 38 -11 42 -6 3 -9 15 -6 25
3 11 0 19 -6 19 -8 0 -7 3 1 9 11 6 10 10 -3 15 -14 5 -15 9 -5 21 7 8 8 15 3
15 -13 0 -13 193 1 202 8 6 8 8 -1 8 -14 0 -10 33 5 38 6 2 8 10 5 19 -4 9 -2
14 3 11 5 -4 10 5 11 19 0 14 7 29 15 34 10 7 10 9 -2 9 -13 0 -13 1 0 10 8 5
15 14 15 20 0 5 4 10 9 9 5 0 15 13 24 30 8 17 19 28 25 24 6 -4 8 0 4 10 -4
12 -1 17 9 17 9 0 29 14 45 31 16 17 29 26 29 20 0 -6 6 -11 14 -11 7 0 13 -8
13 -17 0 -46 4 -64 12 -59 5 3 8 -2 7 -10 0 -9 7 -18 17 -19 9 -2 17 1 17 6 0
4 7 6 15 3 8 -4 15 -1 15 5 0 6 9 11 21 11 13 0 18 4 13 12 -4 7 -3 8 5 4 6
-4 18 -3 26 4 10 8 15 8 20 -1 6 -8 9 -8 15 1 4 7 19 13 34 13 14 0 26 4 26 9
0 5 4 7 9 3 5 -3 12 -1 16 4 3 5 14 8 25 6 11 -2 20 1 20 7 0 7 5 7 14 -1 11
-9 15 -9 18 0 2 7 25 13 53 14 27 1 50 6 53 13 3 9 9 9 23 2 12 -7 19 -7 19
-1 0 6 6 8 14 5 8 -3 23 -1 34 5 11 6 22 7 26 4 11 -11 37 -12 30 -2 -3 6 5 8
20 5 14 -3 28 -2 30 2 2 4 41 7 85 6 50 0 81 4 81 10 0 7 3 8 8 1 11 -15 84
-16 75 -2 -3 7 3 4 14 -6 16 -14 23 -15 29 -6 5 8 3 10 -6 4 -9 -5 -11 -4 -6
4 4 6 11 9 16 6 4 -2 32 -7 61 -9 30 -2 48 -2 41 1 -6 3 -10 9 -6 14 3 5 2 9
-3 8 -20 -3 -34 2 -28 11 3 6 -3 10 -15 10 -14 0 -19 4 -14 12 5 8 2 9 -10 5
-10 -4 -19 -1 -22 8 -4 8 -10 13 -14 10 -5 -3 -15 1 -23 9 -8 8 -17 12 -21 9
-3 -4 -6 -1 -6 6 0 7 -4 9 -10 6 -5 -3 -10 -1 -10 5 0 6 -4 8 -10 5 -5 -3 -10
-1 -10 5 0 6 -4 8 -10 5 -5 -3 -10 -1 -10 4 0 6 -9 11 -20 11 -11 0 -20 5 -20
10 0 6 -7 10 -15 10 -9 0 -34 12 -56 26 -23 14 -38 21 -35 15 4 -6 3 -11 -2
-11 -6 0 -13 7 -16 16 -3 8 -10 12 -16 9 -5 -3 -10 -2 -10 4 0 6 -7 8 -15 5
-8 -4 -15 -1 -15 6 0 6 -4 8 -10 5 -5 -3 -10 -2 -10 4 0 5 -9 8 -20 6 -11 -2
-20 0 -20 6 0 5 -7 9 -16 9 -8 0 -13 3 -11 8 3 4 -9 8 -25 9 -17 1 -35 7 -42
12 -6 5 -22 11 -36 13 -14 1 -31 8 -38 15 -7 7 -20 9 -29 6 -11 -4 -14 -3 -9
5 4 8 2 10 -7 6 -8 -3 -18 -1 -22 5 -3 6 -11 11 -16 11 -6 0 -7 -4 -4 -10 8
-12 -57 21 -67 35 -5 6 -8 5 -8 -3 0 -10 -6 -10 -27 1 -16 7 -35 13 -43 12 -8
0 -17 3 -20 7 -3 3 -19 9 -35 12 -17 2 -32 5 -35 6 -3 1 -13 1 -24 0 -12 -1
-16 2 -11 10 5 8 3 11 -6 8 -8 -3 -22 -1 -33 4 -13 7 -16 7 -11 -2 4 -7 -7 -4
-25 5 -18 9 -29 12 -25 5 6 -9 2 -9 -13 -1 -23 12 -45 14 -55 4z"/>
<path d="M3482 6843 c-6 -2 -10 -8 -8 -11 2 -4 -48 -8 -113 -9 -64 0 -127 -4
-140 -7 -14 -3 -30 -1 -38 5 -9 8 -14 7 -19 -4 -3 -9 -12 -13 -20 -10 -8 3
-14 0 -14 -6 0 -7 -8 -8 -25 -1 -15 6 -26 6 -30 0 -4 -6 -17 -8 -31 -6 -16 3
-22 1 -18 -6 5 -7 0 -9 -14 -6 -12 4 -25 2 -28 -3 -3 -6 -12 -5 -22 3 -13 11
-15 11 -10 -2 4 -12 -1 -16 -21 -17 -51 -3 -81 -8 -81 -15 0 -4 -9 -5 -20 -3
-11 2 -20 0 -20 -5 0 -4 -7 -11 -16 -14 -8 -3 -12 -2 -9 4 3 6 1 10 -4 10 -6
0 -11 -4 -11 -9 0 -5 -7 -12 -16 -15 -8 -3 -13 -2 -10 3 4 5 -3 7 -14 4 -11
-3 -17 -10 -13 -16 3 -5 1 -7 -4 -4 -11 7 -59 -5 -98 -24 -12 -6 -30 -12 -40
-14 -11 -2 -22 -4 -25 -5 -3 -1 -8 -2 -12 -1 -5 0 -8 -4 -8 -10 0 -5 -4 -7
-10 -4 -5 3 -10 1 -10 -5 0 -7 -7 -10 -15 -6 -8 3 -15 1 -15 -5 0 -5 -8 -9
-17 -7 -10 2 -17 -1 -16 -7 1 -5 -10 -11 -24 -12 -14 0 -28 -5 -32 -10 -3 -4
-13 -9 -21 -11 -23 -4 -80 -36 -80 -44 0 -4 -7 -4 -17 -1 -12 5 -14 3 -8 -7 5
-8 3 -11 -6 -8 -8 3 -20 -2 -27 -11 -10 -12 -12 -13 -6 -1 7 13 5 13 -9 2 -9
-8 -22 -10 -29 -6 -10 6 -11 5 -1 -7 10 -12 8 -15 -10 -16 -12 -1 -23 -7 -25
-13 -2 -5 -8 -8 -13 -4 -5 3 -9 0 -9 -6 0 -6 -4 -9 -9 -6 -5 3 -12 -1 -15 -9
-3 -8 -9 -15 -13 -14 -20 3 -34 -2 -28 -10 3 -5 -5 -11 -17 -13 -13 -2 -22 -9
-21 -15 2 -7 -3 -10 -10 -8 -6 3 -25 -6 -41 -20 -16 -14 -35 -25 -43 -25 -8 0
-11 -4 -8 -10 3 -5 -3 -10 -15 -10 -11 0 -23 -7 -26 -15 -4 -8 -10 -15 -15
-15 -5 0 -18 -8 -28 -17 -38 -35 -51 -44 -51 -36 -1 4 -7 -3 -15 -17 -8 -14
-14 -21 -15 -16 0 5 -10 -2 -22 -15 -13 -14 -26 -26 -31 -27 -24 -7 -203 -183
-199 -196 2 -5 -5 -5 -15 -2 -9 4 -15 4 -11 1 9 -10 -24 -45 -35 -38 -6 3 -7
1 -3 -5 4 -7 3 -12 -1 -12 -5 0 -17 -14 -27 -30 -9 -17 -21 -28 -26 -25 -5 3
-11 -3 -15 -14 -3 -10 -19 -32 -35 -49 -15 -17 -26 -33 -23 -36 4 -3 -1 -6
-11 -6 -9 0 -15 -4 -12 -9 3 -5 -1 -14 -9 -21 -8 -7 -12 -16 -9 -21 3 -5 -1
-9 -9 -9 -20 0 -29 -50 -11 -57 8 -3 14 -14 14 -24 0 -10 5 -19 10 -19 6 0 10
-6 10 -13 0 -18 24 -67 33 -67 4 0 7 -8 8 -17 0 -11 3 -13 6 -5 2 6 9 9 15 6
5 -3 12 3 15 15 3 11 9 18 14 15 5 -3 9 2 9 11 0 8 7 18 15 21 8 4 12 10 9 15
-3 5 0 9 6 9 6 0 9 4 5 9 -3 6 4 15 15 21 11 6 18 15 16 19 -3 4 5 14 19 21
13 7 21 18 18 25 -2 7 5 16 17 20 12 4 19 9 17 12 -3 2 9 19 26 37 18 18 42
45 55 61 12 16 22 26 22 22 0 -4 6 -2 14 5 8 7 12 16 9 20 -2 5 7 13 21 19 14
7 23 15 21 19 -3 4 7 16 21 26 45 33 93 82 86 89 -3 3 2 3 13 -1 15 -6 17 -4
12 10 -4 10 -3 15 3 11 5 -3 24 9 41 27 18 18 30 28 26 22 -3 -6 0 -11 8 -11
8 0 12 4 9 9 -8 12 28 38 40 31 5 -4 6 -1 2 5 -4 7 3 16 18 22 14 5 34 18 46
30 11 11 20 18 20 15 0 -3 10 4 22 15 12 11 29 18 37 15 11 -5 12 -3 1 10 -11
13 -10 14 2 10 8 -3 21 1 28 10 7 8 19 15 27 15 7 0 16 7 19 15 4 8 10 12 15
9 5 -3 9 -1 9 5 0 5 9 8 20 6 12 -2 18 0 15 6 -4 5 7 14 24 20 17 6 31 15 31
20 0 5 3 8 8 7 13 -4 52 13 52 23 0 5 9 9 19 9 11 0 26 6 33 13 14 15 20 17
44 17 9 0 12 5 8 12 -5 8 -2 9 9 5 10 -3 17 -2 17 4 0 6 5 7 10 4 6 -3 10 -1
10 5 0 6 5 8 10 5 6 -3 10 -2 10 3 0 6 10 8 22 4 14 -3 19 -2 14 6 -5 8 1 12
15 12 12 0 28 8 36 18 8 9 12 11 8 5 -7 -15 11 -18 20 -3 4 6 11 8 16 5 5 -4
9 -1 9 5 0 6 5 8 10 5 6 -3 10 -2 10 4 0 6 7 8 15 5 8 -4 15 -2 15 4 0 6 11 9
25 8 15 -2 22 1 18 7 -4 6 0 8 10 4 10 -4 17 -2 17 5 0 6 6 5 17 -3 11 -10 14
-10 9 -1 -4 6 -2 12 3 12 21 0 26 2 40 13 12 10 13 9 6 -3 -7 -13 -6 -13 11 1
10 8 29 14 42 13 12 0 22 3 22 9 0 5 7 4 16 -3 12 -11 15 -11 12 0 -2 8 12 14
42 17 25 2 51 4 58 5 6 1 12 5 12 8 0 4 14 6 30 5 22 -2 30 2 30 14 0 10 3 12
8 5 10 -15 42 -25 39 -12 -1 5 6 12 16 13 9 2 17 -1 17 -7 0 -7 4 -7 13 -1 19
15 49 24 42 13 -3 -6 -1 -10 4 -10 6 0 11 5 11 10 0 7 6 7 20 0 11 -6 20 -7
20 -2 0 5 10 8 23 7 12 -1 28 3 36 9 12 9 13 8 7 -2 -7 -11 -4 -12 12 -3 14 7
23 8 27 1 4 -7 13 -7 26 0 13 8 19 7 19 0 0 -6 5 -8 12 -4 10 7 55 7 179 2 25
-1 51 2 57 6 6 3 14 1 18 -5 5 -8 3 -9 -7 -4 -8 5 -11 4 -6 0 12 -14 48 -13
54 1 4 11 7 11 18 0 8 -7 34 -12 63 -12 28 1 48 -3 44 -8 -3 -5 2 -7 11 -3 9
3 19 3 21 -2 3 -4 21 -7 40 -6 20 1 36 -2 36 -8 0 -5 8 -3 17 4 10 8 14 9 10
2 -4 -6 -3 -14 3 -18 5 -3 10 -1 10 6 0 9 4 9 15 -1 8 -6 19 -9 25 -5 5 3 10
1 10 -5 0 -8 6 -7 21 1 15 8 19 8 15 0 -7 -11 -3 -13 32 -14 9 -1 20 -6 24
-13 4 -6 18 -9 32 -7 13 3 27 0 30 -6 4 -5 13 -8 20 -5 8 3 17 1 20 -5 4 -6
13 -8 21 -4 8 3 15 0 15 -6 0 -6 8 -11 19 -11 10 0 34 -7 54 -15 19 -8 37 -11
41 -8 3 4 6 1 6 -5 0 -7 9 -12 19 -12 11 0 23 -5 26 -11 4 -6 13 -8 21 -5 8 3
14 -1 14 -11 0 -13 3 -13 15 -3 13 11 19 8 17 -10 -1 -5 17 -9 56 -12 6 -1 12
-7 12 -15 0 -7 9 -13 20 -13 11 0 20 -4 20 -10 0 -5 6 -7 14 -4 8 3 23 -3 33
-13 10 -10 27 -17 37 -15 11 3 16 0 12 -7 -4 -6 0 -11 8 -11 9 0 16 -5 16 -11
0 -5 5 -7 10 -4 6 3 13 -1 16 -9 3 -9 10 -13 15 -10 10 6 51 -20 44 -28 -3 -3
1 -8 10 -12 11 -4 14 -2 9 7 -4 6 4 2 17 -9 28 -25 71 -49 82 -46 7 2 11 -14
7 -33 -1 -5 4 -5 10 2 9 8 19 4 43 -18 16 -16 34 -29 38 -29 4 0 20 -11 34
-26 14 -14 30 -22 37 -18 7 4 8 3 4 -4 -4 -7 -1 -12 9 -12 9 0 13 -4 10 -10
-3 -5 1 -10 9 -10 9 0 16 -4 16 -8 0 -5 11 -15 25 -22 13 -7 22 -17 19 -22 -5
-7 10 -12 29 -9 5 1 7 -2 4 -6 -2 -5 11 -22 30 -40 18 -17 33 -29 33 -26 0 3
7 0 15 -7 8 -7 12 -16 9 -21 -5 -8 10 -13 29 -10 5 1 6 -3 2 -8 -3 -6 6 -18
20 -27 14 -9 25 -23 25 -31 0 -8 5 -11 10 -8 6 3 10 -1 10 -10 0 -9 3 -14 8
-12 4 3 13 -1 20 -9 7 -8 10 -14 7 -14 -3 0 13 -18 36 -39 22 -22 38 -44 35
-50 -4 -5 -1 -13 5 -17 8 -5 9 -3 4 7 -8 12 -6 12 8 0 9 -7 14 -17 11 -22 -3
-5 2 -9 11 -9 9 0 14 -4 11 -9 -3 -5 1 -11 9 -15 8 -3 15 -11 15 -18 0 -8 9
-20 19 -28 11 -7 18 -17 15 -22 -3 -4 0 -8 7 -8 7 0 9 -3 6 -6 -4 -4 1 -14 11
-23 9 -9 23 -28 31 -43 8 -16 18 -28 23 -28 5 0 6 -4 3 -10 -3 -5 -2 -10 4
-10 10 0 27 -39 23 -53 -1 -5 2 -6 8 -2 5 3 10 -1 10 -9 0 -9 5 -16 11 -16 5
0 7 -4 4 -10 -11 -18 3 -11 31 15 15 14 21 25 14 25 -7 0 -3 9 10 20 13 11 19
20 14 20 -5 0 -1 5 9 11 9 6 15 14 12 20 -4 5 -2 9 4 9 6 0 14 15 19 32 7 27
5 36 -12 51 -12 10 -14 15 -6 11 13 -7 13 -5 1 9 -7 9 -18 14 -24 10 -6 -4 -8
0 -5 9 4 9 -5 27 -20 44 -15 16 -27 31 -27 34 0 3 -3 4 -8 2 -4 -1 -6 1 -5 5
4 13 -43 83 -54 83 -6 0 -8 3 -5 7 4 3 -5 15 -20 25 -17 11 -22 18 -13 18 9 1
5 6 -10 15 -16 9 -19 15 -10 15 9 1 5 5 -8 11 -13 5 -20 13 -17 19 3 5 -1 10
-9 10 -9 0 -16 5 -16 11 0 5 -20 30 -44 54 -24 24 -42 46 -39 49 4 3 -2 6 -12
6 -10 0 -15 3 -12 7 4 3 -2 13 -13 20 -11 8 -17 19 -14 25 4 6 2 8 -4 4 -12
-7 -68 41 -64 56 1 5 -1 7 -6 4 -4 -2 -21 11 -37 30 -16 19 -33 34 -38 34 -5
0 -22 13 -38 29 -15 16 -30 27 -33 24 -3 -3 -8 2 -12 11 -3 9 -11 16 -18 16
-6 0 -18 9 -26 20 -8 11 -20 20 -27 20 -6 0 -16 8 -22 18 -5 9 -13 17 -18 17
-4 0 -7 3 -5 8 1 4 -1 6 -5 6 -21 -3 -33 2 -33 15 0 8 -8 13 -17 12 -10 0 -17
4 -16 10 1 6 -3 11 -10 11 -18 0 -87 44 -87 55 0 5 -5 6 -10 3 -6 -3 -17 0
-25 7 -26 23 -40 33 -55 36 -8 2 -17 8 -18 13 -2 5 -8 7 -13 3 -5 -3 -9 -1 -9
4 0 9 -37 25 -52 23 -5 -1 -8 4 -8 10 0 5 -4 7 -10 4 -5 -3 -10 -2 -10 3 0 9
-37 25 -52 23 -5 -1 -8 4 -8 10 0 6 -7 8 -16 5 -8 -3 -12 -2 -9 4 3 6 0 10 -7
10 -7 1 -31 9 -53 20 -22 10 -43 16 -47 14 -5 -3 -8 -1 -8 4 0 6 -7 13 -16 16
-10 4 -13 2 -9 -7 4 -6 -1 -3 -9 7 -9 11 -16 16 -16 11 0 -4 -10 0 -22 11 -12
10 -18 13 -14 7 4 -7 2 -13 -3 -13 -6 0 -11 5 -11 11 0 5 -4 7 -10 4 -5 -3
-10 -1 -10 5 0 6 -5 8 -10 5 -6 -4 -17 -2 -24 4 -7 6 -21 12 -32 14 -10 2 -27
7 -36 11 -9 4 -21 5 -27 2 -5 -4 -13 -1 -17 5 -5 8 -3 9 7 4 8 -5 11 -4 6 0
-4 5 -19 10 -35 12 -15 2 -35 4 -44 5 -10 1 -18 6 -18 11 0 5 -6 4 -14 -2 -17
-14 -31 2 -20 22 5 7 0 6 -11 -3 -14 -11 -19 -12 -22 -3 -4 10 -10 10 -25 2
-17 -9 -20 -9 -16 2 4 10 -3 15 -21 16 -14 1 -45 3 -68 5 -22 2 -39 6 -36 11
2 4 -3 7 -12 7 -9 0 -13 -5 -9 -11 3 -6 -5 -4 -18 5 -14 9 -28 13 -31 10 -4
-4 -14 -1 -24 7 -14 12 -16 12 -8 0 6 -11 4 -13 -9 -8 -10 4 -20 7 -22 7 -3 0
-2 6 2 13 4 6 -3 3 -16 -8 -13 -11 -20 -15 -17 -8 9 14 -9 27 -18 13 -4 -6
-12 -7 -18 -3 -17 10 -80 11 -94 1 -7 -6 -14 -4 -19 3 -5 8 -3 10 7 4 8 -5 10
-4 6 0 -12 14 -37 15 -37 2 0 -7 -5 -5 -10 3 -9 13 -10 13 -10 0 0 -13 -1 -13
-10 0 -5 8 -10 10 -10 5 0 -6 -12 -10 -27 -9 -16 1 -28 3 -28 4 0 1 -11 3 -25
4 -14 0 -30 5 -37 9 -6 4 -14 3 -18 -3 -3 -5 -11 -10 -16 -10 -6 0 -7 5 -4 10
7 11 6 11 -13 3z"/>
<path d="M3476 6382 c-3 -6 -18 -9 -32 -6 -19 3 -24 1 -18 -8 5 -10 4 -11 -7
0 -16 15 -33 16 -23 1 4 -8 0 -8 -15 0 -14 8 -21 8 -21 1 0 -5 -5 -10 -11 -10
-5 0 -7 4 -4 10 4 6 -2 7 -17 2 -13 -5 -30 -8 -38 -7 -8 1 -21 -3 -27 -8 -9
-6 -13 -5 -13 3 0 10 -4 10 -16 -1 -13 -10 -17 -10 -25 2 -7 11 -9 11 -9 0 0
-8 -7 -11 -20 -8 -11 3 -18 1 -15 -3 3 -5 -7 -8 -22 -8 -45 1 -55 -1 -48 -12
4 -6 1 -9 -7 -8 -7 2 -16 10 -20 18 -6 13 -7 12 -7 -2 -1 -12 -9 -15 -31 -14
-16 1 -30 -2 -30 -7 0 -5 -7 -7 -15 -3 -8 3 -15 1 -15 -5 0 -5 -6 -9 -12 -8
-28 3 -49 -1 -44 -10 3 -5 -8 -7 -24 -6 -17 1 -33 -1 -36 -6 -3 -5 -10 -7 -15
-4 -5 4 -9 2 -9 -3 0 -8 -6 -10 -50 -14 -11 -1 -20 -6 -20 -11 0 -4 -8 -7 -17
-5 -11 2 -17 -2 -15 -11 2 -8 -3 -11 -12 -8 -20 8 -27 -15 -10 -31 8 -7 14 -9
15 -5 0 4 5 -3 11 -17 6 -14 10 -29 9 -34 -1 -5 5 -6 14 -3 9 4 15 1 15 -8 0
-8 5 -15 10 -15 6 0 10 -7 10 -16 0 -8 3 -13 8 -11 9 6 33 -19 25 -27 -4 -3 1
-6 10 -6 10 0 17 -7 17 -15 0 -14 12 -20 33 -16 5 1 6 -2 3 -7 -6 -11 83 -88
97 -84 5 2 7 -4 4 -13 -4 -9 -1 -15 9 -15 8 0 17 -7 21 -16 4 -12 8 -12 13 -4
5 9 10 5 15 -10 6 -18 9 -20 16 -9 7 11 9 10 9 -5 0 -16 4 -15 27 10 15 16 27
32 25 36 -1 4 6 4 15 1 9 -4 14 -2 11 3 -3 5 0 15 8 22 8 7 14 10 14 7 0 -3
11 6 25 20 14 14 34 25 43 25 15 0 15 2 2 10 -13 8 -13 10 2 10 9 0 22 8 27
18 6 9 11 14 11 10 0 -5 8 0 18 10 38 35 67 57 75 54 4 -1 7 3 7 10 0 6 3 8 7
5 3 -4 12 1 19 11 7 9 17 18 23 18 6 1 16 2 21 3 6 0 9 7 8 13 -2 7 7 14 20
16 12 2 22 10 22 18 0 8 3 14 8 13 17 -3 51 14 46 22 -3 5 4 9 15 9 12 0 21 3
21 8 0 4 9 13 21 20 17 11 20 11 14 0 -3 -7 0 -5 8 4 8 10 17 15 20 11 4 -3 7
-1 7 6 0 8 6 11 16 7 8 -3 13 -2 10 2 -2 4 9 15 25 25 18 10 28 12 24 4 -4 -6
1 -3 9 7 9 11 16 16 16 11 0 -5 5 -4 11 2 6 6 19 9 28 6 9 -3 6 2 -7 12 -13 9
-26 14 -29 11 -3 -3 -15 -1 -26 5 -15 9 -18 8 -12 -2 5 -8 4 -10 -4 -5 -6 4
-23 9 -37 12 -19 3 -24 1 -18 -8 6 -11 5 -10 -8 0 -13 10 -17 10 -21 0 -4 -11
-6 -10 -6 0 -1 7 -5 10 -11 7 -5 -3 -10 -2 -10 3 0 5 -7 9 -15 9 -8 0 -12 -4
-9 -9 3 -4 1 -8 -5 -8 -5 0 -13 5 -16 10 -4 6 -12 7 -18 3 -18 -11 -51 -11
-58 -1 -4 7 -9 6 -13 0z"/>
<path d="M4232 6243 c-6 -3 -10 -9 -6 -14 3 -5 0 -9 -5 -9 -6 0 -11 6 -11 13
0 7 -3 8 -8 2 -4 -5 -16 -12 -27 -13 -11 -2 -22 -7 -25 -11 -3 -5 -15 -7 -27
-6 -15 1 -23 -4 -24 -14 0 -10 -2 -12 -6 -4 -3 10 -8 9 -20 -2 -8 -8 -18 -13
-23 -10 -5 3 -11 1 -15 -5 -4 -6 -11 -8 -16 -5 -5 4 -9 1 -9 -5 0 -6 -4 -8
-10 -5 -5 3 -10 1 -10 -5 0 -6 -5 -8 -10 -5 -6 3 -13 -1 -16 -9 -5 -12 -10
-13 -25 -5 -11 5 -18 6 -17 2 2 -4 0 -8 -3 -8 -3 0 -14 -8 -23 -18 -10 -10
-23 -16 -29 -14 -7 2 -20 -6 -30 -17 -10 -12 -15 -14 -11 -6 6 11 2 10 -13 -2
-11 -10 -25 -18 -32 -18 -6 0 -14 -7 -17 -15 -4 -8 -10 -12 -15 -9 -10 6 -40
-20 -34 -30 3 -3 0 -2 -7 4 -8 6 -19 1 -35 -16 -12 -14 -23 -22 -23 -18 0 3
-6 1 -13 -5 -8 -6 -18 -7 -22 -3 -5 4 -5 -1 -2 -10 4 -13 2 -15 -10 -11 -10 4
-14 2 -10 -4 4 -6 -3 -13 -16 -17 -12 -3 -34 -17 -49 -31 -16 -14 -28 -23 -28
-20 0 3 -11 -5 -23 -19 -13 -14 -27 -23 -30 -19 -4 3 -9 -2 -13 -11 -4 -10
-18 -22 -31 -27 -15 -5 -21 -14 -17 -21 5 -8 2 -9 -10 -5 -10 4 -15 3 -11 -3
3 -6 1 -10 -5 -10 -6 0 -8 -5 -4 -12 4 -6 3 -8 -3 -5 -6 4 -23 -5 -37 -18 -25
-23 -26 -25 -7 -25 12 0 21 -7 21 -15 0 -8 3 -15 8 -14 15 2 52 -14 52 -22 0
-5 8 -9 19 -9 10 0 24 -7 31 -15 14 -17 67 -45 85 -45 6 0 20 -8 31 -18 10 -9
26 -17 34 -17 8 0 21 -5 28 -12 7 -7 20 -13 28 -13 8 0 12 -4 9 -10 -3 -6 1
-7 9 -4 9 3 16 1 16 -5 0 -6 7 -8 15 -5 8 4 15 1 15 -5 0 -6 9 -11 20 -11 11
0 20 -4 20 -10 0 -5 3 -9 8 -9 22 4 42 -2 37 -11 -4 -6 5 -10 20 -10 15 0 33
-7 41 -15 8 -8 21 -12 29 -9 8 4 15 1 15 -5 0 -6 8 -11 18 -11 10 0 24 -6 31
-12 10 -11 11 -10 6 5 -4 10 -2 17 5 17 6 0 8 5 5 10 -3 6 -2 10 4 10 6 0 8 7
5 15 -4 8 -1 15 5 15 6 0 11 8 11 18 0 10 6 24 13 31 10 11 9 13 -3 7 -10 -5
-9 -3 2 7 14 11 15 16 5 27 -9 10 -9 11 1 6 8 -5 14 3 18 23 4 17 11 31 16 31
5 0 6 5 3 10 -3 6 -1 10 5 10 6 0 9 4 6 9 -8 12 4 42 14 36 4 -2 6 7 4 20 -1
14 2 25 7 25 5 0 9 9 9 21 0 11 4 18 9 15 5 -4 7 3 4 14 -3 12 0 20 8 20 7 0
9 3 6 7 -4 3 -2 12 5 20 6 7 8 16 5 19 -3 4 0 13 8 20 8 8 12 23 10 34 -2 11
0 18 5 15 8 -5 30 56 29 79 0 5 4 12 11 16 6 4 12 17 13 28 1 12 5 22 10 22 4
0 6 4 2 9 -3 5 1 16 9 24 11 11 12 17 3 26 -9 10 -9 12 3 9 10 -2 15 4 14 19
-1 13 2 20 6 18 4 -3 11 11 14 30 5 24 11 33 19 28 7 -4 7 0 -2 10 -11 13 -11
17 -1 17 8 0 11 2 8 5 -8 8 -41 13 -56 8z"/>
<path d="M4534 6141 c4 -5 1 -11 -4 -13 -10 -3 -17 -24 -19 -56 -1 -7 -5 -11
-10 -7 -6 3 -8 -4 -6 -15 2 -11 -1 -20 -6 -20 -5 0 -9 -6 -8 -12 2 -24 -13
-58 -24 -51 -6 4 -8 0 -4 -9 3 -9 -2 -26 -10 -39 -13 -17 -13 -20 -2 -14 11 7
12 6 2 -7 -7 -8 -10 -18 -6 -21 3 -4 2 -7 -4 -7 -5 0 -15 -12 -21 -26 -9 -18
-9 -23 -1 -18 7 4 0 -10 -14 -32 -18 -25 -23 -40 -16 -45 8 -4 5 -10 -6 -17
-12 -6 -16 -17 -12 -31 3 -13 1 -19 -6 -14 -7 4 -8 0 -4 -11 4 -10 3 -15 -3
-11 -6 3 -10 -3 -10 -15 0 -12 -4 -19 -8 -16 -4 2 -8 -3 -8 -12 -1 -25 -8 -46
-17 -53 -4 -3 -9 -16 -10 -27 -1 -12 -5 -22 -10 -22 -4 0 -6 -4 -2 -9 3 -5 1
-12 -5 -16 -6 -4 -8 -11 -5 -16 4 -5 1 -9 -5 -9 -6 0 -9 -4 -5 -9 3 -5 -2 -16
-10 -24 -17 -18 -20 -31 -4 -22 6 4 5 -2 -2 -13 -7 -12 -18 -18 -24 -14 -5 3
-4 -2 4 -11 9 -12 10 -17 2 -17 -7 0 -10 -4 -6 -9 3 -6 0 -13 -7 -18 -18 -11
-19 -43 -2 -43 8 0 14 -5 14 -11 0 -6 9 -9 20 -6 11 3 20 1 20 -5 0 -5 5 -6
10 -3 6 3 10 1 10 -4 0 -6 5 -11 11 -11 5 0 7 5 4 10 -4 6 10 1 30 -10 20 -11
33 -15 29 -8 -6 10 -4 11 7 1 7 -7 23 -13 35 -13 13 0 26 -5 29 -10 4 -6 12
-10 18 -9 28 3 58 -2 53 -9 -2 -4 9 -9 26 -10 17 -1 36 -6 42 -9 10 -7 51 -13
89 -14 11 0 15 -5 10 -12 -4 -7 2 -5 12 3 11 9 16 10 11 3 -5 -9 2 -13 24 -13
17 0 29 -4 26 -8 -2 -4 7 -7 22 -6 14 0 42 -2 62 -6 34 -6 36 -5 35 22 0 15
-4 28 -9 28 -5 0 -3 7 4 15 7 8 9 15 4 15 -5 0 -10 12 -10 28 -3 60 -9 102
-15 102 -4 0 -6 8 -6 18 0 51 -3 63 -15 56 -10 -6 -10 -4 0 8 9 11 9 18 3 23
-6 3 -11 16 -11 28 0 41 -3 57 -12 57 -5 0 -7 4 -4 8 3 5 -1 21 -9 36 -8 14
-10 24 -5 21 6 -4 10 -1 10 4 0 6 -4 11 -8 11 -5 0 -9 7 -10 15 -1 8 -3 22 -4
30 -1 8 -6 15 -11 15 -5 0 -7 9 -4 20 3 10 0 21 -5 22 -5 2 -11 16 -11 31 -1
15 -6 27 -10 27 -5 0 -5 5 -2 10 3 6 1 10 -6 10 -7 0 -9 10 -7 25 3 14 1 23
-6 22 -6 -1 -10 6 -10 16 1 9 -3 17 -8 17 -5 0 -8 6 -6 12 3 7 -2 19 -9 27 -8
7 -17 27 -20 43 -3 16 -12 32 -19 35 -8 3 -11 9 -8 14 3 5 1 9 -4 9 -6 0 -9 8
-8 18 0 9 -4 16 -9 15 -6 -1 -12 8 -12 19 -2 22 -43 88 -56 88 -5 0 -6 -4 -3
-9z"/>
<path d="M2422 6102 c-6 -2 -9 -9 -6 -14 4 -7 2 -8 -5 -4 -6 4 -25 -3 -43 -15
-18 -13 -28 -17 -24 -8 5 7 -3 2 -16 -13 -26 -29 -44 -37 -33 -15 4 6 0 4 -8
-5 -8 -10 -19 -18 -26 -18 -6 0 -11 -5 -11 -11 0 -5 -4 -7 -10 -4 -5 3 -10 1
-10 -5 0 -6 -12 -15 -26 -20 -14 -6 -22 -14 -19 -20 3 -6 -1 -7 -9 -4 -9 4
-18 -1 -22 -10 -3 -9 -10 -13 -15 -10 -5 3 -9 1 -9 -5 0 -5 -9 -13 -20 -16
-11 -4 -18 -10 -15 -15 2 -4 -8 -13 -24 -20 -16 -6 -32 -18 -35 -26 -3 -8 -12
-14 -21 -14 -8 0 -15 -7 -15 -16 0 -8 -4 -12 -10 -9 -5 3 -10 2 -10 -4 0 -5
-9 -13 -20 -16 -11 -4 -18 -11 -15 -16 4 -5 0 -12 -8 -15 -8 -3 -37 -26 -64
-52 -51 -49 -73 -92 -46 -92 8 0 11 -4 8 -10 -3 -5 2 -10 11 -10 10 0 15 -3
11 -6 -3 -3 10 -21 29 -40 19 -19 34 -39 34 -45 0 -6 4 -8 9 -5 4 3 17 -4 27
-16 11 -12 13 -18 5 -13 -10 5 -12 4 -7 -3 4 -7 12 -12 18 -12 14 0 98 -89 98
-103 0 -6 3 -8 6 -4 5 5 31 -16 104 -88 14 -14 31 -25 38 -25 7 0 10 -4 7 -10
-3 -5 -1 -10 4 -10 16 0 51 -32 45 -41 -2 -4 5 -6 16 -4 11 2 18 0 15 -4 -2
-5 6 -16 19 -24 13 -9 31 -23 40 -32 9 -9 16 -14 16 -10 0 3 11 -5 24 -19 30
-33 52 -33 60 -1 4 14 11 23 17 20 5 -4 9 -3 8 2 -4 22 2 43 11 38 6 -3 10 1
10 9 0 9 4 16 9 16 6 0 8 9 6 20 -2 11 -1 19 3 16 9 -5 32 20 25 28 -4 3 -1 6
6 6 7 0 10 3 8 8 -7 10 19 32 29 24 4 -4 4 -1 0 5 -4 7 2 22 13 34 11 12 18
26 15 31 -3 4 3 8 12 8 10 0 14 3 11 7 -4 3 1 12 11 20 11 10 12 12 2 8 -8 -3
-5 2 8 11 12 9 22 23 22 30 0 8 9 19 20 26 11 7 20 19 20 26 0 7 7 15 15 18 8
4 12 10 9 15 -3 5 3 9 12 9 10 0 15 3 11 6 -5 6 11 29 48 68 11 12 19 24 17
29 -1 4 5 7 14 7 10 0 14 5 10 16 -3 8 -2 12 3 9 5 -3 12 -2 15 3 5 9 -28 42
-42 42 -4 0 -14 9 -22 19 -7 11 -17 18 -22 15 -4 -3 -8 2 -8 10 0 9 -6 16 -14
16 -8 0 -17 7 -20 16 -3 8 -10 12 -16 9 -5 -3 -10 -1 -10 4 0 14 -32 46 -54
54 -9 4 -16 10 -13 14 4 10 -40 53 -47 45 -3 -3 -6 1 -6 9 0 8 -13 26 -30 39
-16 14 -29 31 -30 38 0 6 -4 12 -10 12 -5 0 -10 7 -10 15 0 8 -5 14 -12 13 -7
-2 -17 7 -23 20 -5 12 -13 22 -18 22 -4 0 -5 5 -2 10 3 6 -1 13 -9 16 -9 3
-14 9 -11 13 5 8 -13 10 -33 3z"/>
<path d="M4977 5883 c-10 -9 -9 -35 1 -30 4 3 8 -11 8 -30 1 -19 6 -38 12 -42
6 -4 12 -21 14 -39 1 -18 6 -32 10 -32 4 0 8 -13 8 -30 0 -16 5 -30 11 -30 6
0 9 -8 6 -19 -2 -10 0 -27 6 -37 6 -10 12 -36 13 -58 2 -22 9 -43 16 -48 10
-6 10 -8 -2 -8 -11 0 -12 -2 -3 -8 7 -4 12 -16 12 -27 1 -21 8 -70 11 -70 1 0
4 -22 6 -50 3 -27 10 -52 16 -56 7 -4 6 -8 -3 -12 -12 -4 -11 -7 1 -16 13 -9
13 -11 1 -11 -12 0 -12 -3 -3 -12 16 -16 16 -41 0 -32 -10 6 -10 4 0 -7 6 -7
12 -28 12 -47 0 -18 6 -40 14 -48 18 -17 30 -18 20 -1 -5 8 -3 8 9 -2 9 -7 26
-11 37 -8 11 3 23 1 26 -4 3 -6 11 -5 20 2 9 7 14 8 14 1 0 -5 9 -8 20 -5 13
3 20 0 20 -8 0 -11 2 -11 10 1 8 13 10 13 10 0 0 -11 3 -11 12 -2 14 14 32 16
24 4 -6 -11 25 -9 43 3 10 5 12 4 7 -3 -5 -8 3 -12 24 -12 22 0 29 4 24 13 -6
9 -4 9 7 1 24 -18 166 -18 184 0 10 9 11 17 5 21 -6 4 -8 10 -5 15 3 4 -2 10
-10 14 -8 3 -15 12 -15 21 0 8 -5 15 -11 15 -5 0 -7 5 -4 10 3 6 1 10 -5 10
-6 0 -8 5 -5 10 3 6 2 10 -3 10 -9 0 -25 37 -23 53 1 4 -6 7 -15 7 -8 0 -12 5
-9 10 3 6 1 10 -4 10 -6 0 -11 7 -11 15 0 8 -4 15 -10 15 -6 0 -9 3 -8 8 3 16
-15 42 -25 35 -6 -4 -8 0 -4 10 4 11 1 17 -8 17 -8 0 -15 9 -15 21 0 11 -4 17
-10 14 -5 -3 -10 -1 -10 5 0 17 -26 40 -35 32 -5 -4 -5 -1 -1 5 4 7 -4 24 -18
40 -14 15 -23 30 -20 35 3 5 2 7 -3 6 -4 -1 -26 16 -48 37 -22 21 -31 33 -20
26 11 -8 8 -2 -7 12 -16 14 -28 32 -28 38 0 7 -3 10 -6 6 -8 -8 -34 18 -34 33
0 6 -4 9 -8 6 -4 -2 -18 9 -31 25 -13 16 -27 27 -31 24 -5 -3 -11 4 -15 15 -3
11 -13 20 -21 20 -8 0 -12 5 -9 10 3 6 -1 10 -10 10 -9 0 -13 5 -10 10 3 6 -4
10 -15 10 -16 0 -20 5 -16 15 3 8 2 14 -2 14 -21 -3 -32 3 -32 19 0 13 -2 14
-9 3 -7 -11 -10 -9 -16 8 -6 21 -16 26 -28 14z"/>
<path d="M3104 5501 c4 -6 1 -11 -7 -11 -8 0 -22 -9 -32 -20 -10 -11 -14 -20
-9 -20 5 0 -4 -12 -21 -26 -16 -14 -23 -23 -15 -19 8 4 6 -1 -4 -9 -11 -9 -23
-16 -28 -16 -4 0 -4 -7 -1 -17 4 -9 2 -14 -3 -11 -5 3 -15 0 -22 -8 -7 -8 -11
-14 -8 -14 2 0 -10 -16 -27 -36 -18 -19 -32 -39 -32 -43 0 -4 -7 -15 -15 -24
-31 -34 -40 -46 -40 -57 0 -5 -8 -10 -17 -10 -15 0 -16 -2 -3 -10 13 -8 12
-10 -4 -10 -11 0 -16 -3 -13 -6 3 -4 1 -16 -5 -28 -7 -11 -11 -24 -10 -28 1
-4 -6 -4 -15 -1 -10 4 -14 2 -10 -4 4 -6 0 -16 -8 -23 -8 -7 -12 -16 -9 -21 3
-5 0 -9 -5 -9 -6 0 -11 -5 -11 -10 0 -6 -9 -21 -20 -33 -11 -12 -18 -28 -15
-35 4 -10 0 -12 -10 -8 -9 3 -14 2 -10 -3 3 -5 1 -11 -4 -13 -14 -5 7 -48 24
-48 8 0 15 -5 15 -11 0 -6 7 -8 16 -5 9 3 12 2 9 -5 -4 -6 2 -13 14 -16 11 -3
18 -10 14 -16 -3 -6 -1 -7 5 -3 7 4 22 -2 34 -13 12 -12 28 -21 35 -21 7 0 13
-5 13 -11 0 -5 5 -7 10 -4 6 3 10 1 10 -4 0 -6 7 -11 15 -11 8 0 15 -5 15 -11
0 -6 7 -8 16 -5 10 4 13 2 8 -6 -5 -8 -2 -9 10 -5 10 4 15 3 11 -3 -3 -6 1
-10 9 -10 9 0 16 -4 16 -10 0 -5 7 -10 15 -10 8 0 15 -6 15 -12 0 -9 4 -8 10
2 6 10 10 11 10 3 0 -7 16 -19 35 -27 19 -8 35 -20 35 -25 0 -6 3 -10 8 -9 14
4 52 -13 52 -23 0 -6 4 -8 9 -5 4 3 16 -1 27 -8 10 -8 24 -11 31 -9 8 3 13 0
11 -8 -2 -9 5 -14 19 -13 12 1 21 -2 20 -6 -1 -5 2 -8 6 -9 4 0 14 -7 22 -15
9 -8 24 -13 35 -11 11 2 19 -1 17 -7 -1 -6 5 -12 13 -14 45 -10 92 -32 79 -38
-8 -3 -6 -5 6 -3 11 2 26 -4 33 -13 11 -13 12 -13 6 0 -7 13 -6 13 10 0 10 -8
33 -19 51 -26 30 -10 33 -9 30 8 -2 10 0 16 5 13 5 -3 11 -1 14 4 4 5 1 13 -5
17 -7 4 -7 9 -2 13 13 8 43 70 43 88 0 7 5 13 11 13 8 0 7 6 -2 17 -8 9 -9 14
-4 11 6 -4 15 5 22 18 8 18 8 22 0 17 -7 -3 -3 3 7 15 11 12 16 22 11 22 -4 0
-2 6 4 13 6 8 8 17 4 20 -3 4 -1 7 5 7 7 0 11 3 11 8 -3 19 2 33 10 28 5 -4 7
3 4 14 -3 11 -1 20 4 20 5 0 10 7 11 15 1 8 3 22 4 30 1 8 5 15 10 15 4 0 8
11 8 25 0 14 5 25 10 25 6 0 10 9 10 20 0 11 6 20 13 20 8 0 7 4 -3 10 -8 5
-10 10 -4 10 11 0 20 19 29 59 2 8 8 17 13 20 5 3 8 14 6 24 -1 9 2 17 7 17 6
0 7 5 4 10 -3 6 -2 10 2 10 5 0 10 12 11 27 1 14 -1 24 -4 20 -4 -3 -13 0 -20
8 -8 8 -20 12 -27 9 -7 -2 -22 5 -34 16 -24 22 -38 27 -28 9 8 -12 -37 11 -46
25 -4 5 -18 9 -33 9 -14 0 -23 3 -20 8 3 5 -4 9 -15 9 -10 0 -21 5 -23 10 -2
6 -13 12 -26 13 -12 0 -22 5 -22 9 0 4 -9 8 -20 8 -11 0 -20 5 -20 10 0 6 -7
10 -16 10 -9 0 -12 5 -8 13 6 9 5 9 -7 0 -12 -10 -17 -8 -27 8 -7 11 -17 17
-22 14 -5 -3 -11 -1 -15 5 -4 6 -11 8 -16 5 -5 -4 -9 -2 -9 4 0 10 -42 27 -48
20 -2 -2 -8 4 -13 14 -6 9 -17 17 -25 17 -9 0 -22 7 -31 15 -8 8 -19 13 -24
10 -5 -4 -9 -1 -9 5 0 6 -4 8 -10 5 -5 -3 -10 1 -10 10 0 9 -4 14 -9 10 -5 -3
-16 2 -25 11 -9 8 -20 12 -26 9 -5 -3 -10 -2 -10 3 0 5 -12 17 -26 27 -15 9
-23 12 -20 6z"/>
<path d="M1615 5410 c-10 -11 -15 -20 -12 -20 7 0 -18 -32 -47 -60 -10 -10
-15 -23 -12 -28 3 -6 -1 -13 -9 -16 -8 -3 -14 -11 -13 -18 2 -7 -3 -12 -9 -11
-15 3 -11 -56 4 -66 5 -3 12 -14 16 -23 3 -10 14 -18 24 -18 15 0 16 -2 3 -10
-10 -6 -11 -10 -2 -10 6 0 12 -6 12 -13 0 -7 9 -18 20 -25 12 -7 18 -17 15
-22 -3 -6 1 -10 10 -10 9 0 14 -4 10 -9 -3 -5 8 -24 24 -42 17 -18 27 -37 24
-42 -3 -6 -1 -7 5 -3 7 4 12 3 12 -1 0 -5 11 -21 25 -36 14 -15 23 -27 20 -27
-2 0 5 -11 17 -25 11 -13 25 -22 29 -19 5 3 6 -2 3 -10 -3 -9 -1 -16 6 -16 6
0 8 -4 5 -10 -3 -5 1 -10 9 -10 8 0 18 -9 21 -20 3 -11 11 -20 16 -20 5 0 9
-7 9 -16 0 -8 5 -12 10 -9 9 6 14 -8 11 -27 0 -5 6 -8 14 -8 8 0 15 -5 15 -10
0 -6 12 -22 26 -35 15 -14 24 -25 21 -25 -3 0 5 -11 19 -25 14 -14 29 -25 35
-25 6 0 8 -4 5 -9 -7 -10 27 -51 42 -51 7 0 9 -8 5 -17 -3 -10 -3 -15 2 -11 9
8 28 -9 38 -34 3 -10 13 -18 22 -18 13 0 19 -12 16 -32 -2 -17 18 -7 24 12 3
11 11 20 16 20 6 0 8 4 5 9 -6 10 18 74 25 67 2 -2 5 10 6 27 2 18 9 36 16 42
8 5 12 16 10 22 -3 7 3 20 11 29 9 8 13 20 10 26 -4 6 -2 13 3 17 18 12 52 81
41 81 -7 0 -4 6 6 13 18 13 17 15 -13 46 -17 17 -31 28 -31 24 -1 -4 -7 3 -15
17 -9 15 -15 19 -15 10 0 -12 -3 -11 -11 3 -6 9 -16 14 -22 11 -7 -4 -9 -4 -5
1 8 9 -15 35 -31 35 -6 0 -11 5 -11 10 0 6 -7 10 -15 10 -8 0 -14 6 -13 13 2
7 -5 11 -15 9 -9 -2 -16 1 -15 5 5 13 -40 53 -59 53 -15 0 -16 2 -3 10 10 6
11 10 3 10 -7 0 -15 -1 -18 -2 -7 -4 -40 46 -37 55 1 5 -3 5 -9 2 -6 -4 -27
11 -49 33 -21 23 -40 38 -44 35 -3 -4 -6 1 -6 11 0 9 -4 14 -10 11 -5 -3 -10
1 -10 9 0 8 -9 18 -20 21 -11 4 -18 9 -16 13 2 4 -2 13 -10 20 -8 7 -14 9 -14
5 -1 -4 -8 4 -16 20 -8 15 -21 27 -29 27 -8 0 -15 7 -15 15 0 9 -10 20 -22 25
-13 5 -19 9 -14 9 5 1 -1 9 -12 20 -12 10 -19 21 -15 25 3 3 -4 6 -16 6 -12 0
-19 4 -16 10 10 17 -1 11 -20 -10z"/>
<path d="M4099 5034 c-12 -16 -12 -17 1 -10 8 4 7 1 -3 -7 -10 -8 -16 -21 -15
-28 2 -8 -2 -13 -8 -12 -7 1 -10 -12 -9 -32 1 -19 -1 -33 -3 -30 -3 3 -14 -9
-24 -25 -18 -31 -26 -57 -8 -30 5 8 10 11 10 5 -1 -5 -7 -19 -15 -29 -8 -11
-15 -26 -15 -34 0 -7 -6 -20 -14 -28 -8 -8 -13 -23 -11 -34 3 -13 0 -18 -7
-14 -7 5 -9 1 -5 -9 3 -10 2 -17 -3 -17 -6 0 -9 -3 -8 -7 1 -5 -4 -19 -12 -33
-7 -14 -13 -26 -12 -27 7 -11 0 -23 -10 -17 -7 4 -8 3 -4 -5 4 -6 2 -19 -6
-28 -11 -14 -11 -16 2 -9 12 6 11 4 -1 -6 -9 -7 -14 -18 -12 -24 2 -7 -2 -18
-9 -25 -7 -8 -13 -20 -14 -26 -2 -29 -4 -34 -12 -29 -4 3 -8 -7 -8 -22 1 -15
-4 -26 -10 -25 -7 1 -10 -6 -7 -16 3 -10 0 -22 -6 -25 -6 -4 -11 -17 -11 -30
0 -12 -5 -27 -12 -34 -9 -9 -8 -12 8 -12 11 0 30 -8 43 -17 18 -12 22 -13 16
-2 -8 12 -6 12 8 1 9 -8 22 -10 28 -6 8 4 9 3 5 -4 -4 -7 -4 -12 1 -13 4 0 19
-2 31 -3 13 -2 28 -9 33 -17 5 -8 9 -10 9 -5 0 5 8 2 17 -5 15 -12 16 -12 8 1
-7 12 -6 13 7 3 8 -7 18 -10 21 -6 4 3 7 1 7 -6 0 -7 5 -9 11 -6 5 4 20 -1 31
-12 14 -12 18 -13 13 -3 -8 13 -6 13 8 2 9 -8 22 -10 28 -6 8 5 11 2 7 -7 -4
-10 4 -15 31 -16 54 -4 61 -5 61 -16 0 -6 3 -8 6 -4 3 3 26 -1 52 -8 25 -8 49
-12 54 -9 4 3 8 0 8 -6 0 -6 5 -8 10 -5 6 3 10 2 10 -4 0 -5 8 -8 18 -6 9 1
26 -2 37 -9 11 -6 36 -11 56 -11 22 0 35 -4 32 -11 -2 -6 9 -9 26 -8 17 1 36
-4 42 -12 8 -10 15 -11 24 -4 8 7 15 7 19 1 3 -5 16 -7 28 -3 14 3 19 1 14 -6
-5 -9 0 -9 20 -2 22 9 25 8 16 -2 -8 -10 -2 -13 29 -13 34 -1 39 2 39 22 0 32
1 37 9 48 4 6 8 26 10 45 2 19 8 38 15 43 8 5 7 10 -4 17 -12 8 -12 10 -1 10
11 0 11 3 0 17 -10 11 -10 14 -1 9 7 -4 12 -1 13 8 1 9 2 24 3 34 1 9 5 23 9
30 5 7 3 12 -5 12 -10 0 -10 2 1 9 8 5 12 18 8 30 -3 12 -1 21 3 21 5 0 7 9 5
20 -2 11 1 22 7 26 7 4 6 9 -2 14 -8 5 -9 13 -4 21 10 17 12 38 16 151 2 54 7
84 13 80 6 -3 4 1 -3 10 -9 12 -10 18 -2 23 8 5 8 11 -1 21 -9 11 -8 14 2 14
12 0 12 2 0 9 -11 7 -11 9 0 14 12 4 11 7 -1 16 -8 6 -10 11 -4 11 6 0 11 7
11 15 0 8 -4 12 -9 9 -4 -3 -8 0 -8 6 0 7 -7 10 -15 6 -8 -3 -15 0 -15 6 0 7
-4 7 -14 -1 -9 -7 -15 -8 -18 -2 -1 6 -20 11 -40 13 -21 1 -38 6 -38 10 0 4
-7 8 -16 8 -9 0 -13 -5 -9 -12 4 -7 1 -6 -7 2 -7 8 -25 15 -40 14 -16 -1 -28
3 -28 9 0 5 -7 7 -15 4 -8 -4 -17 -2 -20 3 -3 5 -13 6 -21 3 -9 -3 -20 0 -25
8 -7 12 -9 12 -9 0 0 -11 -4 -9 -15 5 -10 13 -14 14 -15 5 0 -10 -3 -11 -13
-2 -8 6 -17 8 -20 4 -4 -3 -7 -2 -7 3 0 6 -17 11 -37 12 -21 2 -39 7 -41 12
-2 5 -10 6 -19 3 -11 -4 -14 -2 -9 5 5 8 2 10 -9 6 -8 -4 -23 0 -32 7 -9 8
-14 9 -10 3 3 -6 0 -11 -8 -11 -8 0 -13 5 -12 11 1 6 -8 10 -20 8 -14 -2 -23
2 -23 10 0 9 -3 9 -10 -2 -8 -12 -10 -12 -11 5 0 11 -3 15 -5 8 -3 -7 -12 -9
-20 -6 -7 3 -12 8 -10 12 2 3 -6 7 -17 7 -33 3 -51 8 -58 17 -3 4 -12 0 -20
-9z"/>
<path d="M5153 4803 c-3 -7 -10 -10 -17 -6 -6 4 -6 0 2 -9 10 -12 10 -18 1
-23 -8 -6 -8 -9 1 -15 9 -6 9 -12 0 -30 -7 -12 -8 -20 -3 -17 5 4 10 0 10 -8
0 -8 -4 -12 -9 -9 -4 3 -8 1 -8 -5 0 -5 4 -12 10 -16 5 -3 6 -15 2 -28 -5 -12
-8 -29 -7 -37 0 -8 -4 -18 -10 -22 -6 -5 -6 -8 2 -8 8 0 9 -9 4 -27 -3 -16 -6
-43 -5 -61 1 -19 -2 -30 -8 -26 -5 4 -5 -4 2 -16 8 -15 8 -20 1 -16 -15 10
-14 -7 2 -23 7 -9 8 -11 1 -7 -8 4 -13 -9 -16 -39 -2 -25 -3 -45 -2 -45 0 0
11 9 24 20 13 11 19 20 15 20 -4 0 4 11 18 24 14 13 23 27 20 30 -4 3 2 6 11
6 10 0 16 5 14 12 -3 7 6 22 19 34 13 12 23 24 23 28 0 4 12 18 26 31 15 14
23 25 18 25 -5 0 -4 4 2 8 5 4 23 25 40 47 16 22 35 46 42 53 6 7 12 18 12 23
0 6 5 7 11 3 7 -4 10 -1 7 6 -2 7 9 27 24 44 16 17 26 37 23 44 -3 7 -1 10 4
7 5 -3 12 -2 15 3 5 8 -39 15 -89 14 -16 -1 -37 2 -45 5 -22 9 -34 10 -45 3
-18 -11 -40 -5 -37 10 1 10 -3 8 -13 -4 -8 -11 -15 -15 -15 -9 0 16 -71 22
-77 6z"/>
<path d="M2530 4640 c0 -11 -5 -20 -11 -20 -6 0 -8 -7 -5 -16 4 -10 2 -13 -6
-8 -7 5 -9 0 -6 -14 4 -12 2 -20 -3 -16 -5 3 -9 -4 -9 -14 0 -11 -7 -23 -16
-26 -13 -5 -14 -9 -4 -21 10 -12 9 -16 -4 -21 -9 -3 -16 -14 -16 -24 0 -10 -6
-21 -12 -23 -10 -4 -10 -6 0 -6 10 -1 10 -5 -2 -17 -9 -8 -14 -20 -11 -25 4
-5 1 -9 -6 -9 -7 0 -9 -3 -6 -6 3 -4 1 -16 -5 -28 -13 -23 -15 -28 -17 -52 -1
-9 -6 -12 -13 -8 -10 6 -10 5 0 -8 10 -12 9 -18 -3 -28 -8 -7 -13 -16 -10 -20
3 -5 1 -11 -5 -15 -5 -3 -10 -13 -10 -21 0 -8 5 -12 10 -9 9 6 14 -8 11 -27 0
-5 4 -8 9 -8 15 0 60 -47 53 -54 -4 -3 1 -6 10 -6 9 0 17 -4 17 -8 0 -13 33
-48 53 -55 9 -3 17 -11 17 -17 0 -5 29 -39 65 -74 36 -35 65 -69 65 -75 0 -6
7 -8 17 -4 12 5 14 3 8 -7 -6 -10 -4 -12 8 -7 9 3 16 3 14 -1 -2 -9 77 -102
87 -102 4 0 20 -13 35 -29 16 -16 32 -27 37 -23 4 4 5 2 1 -4 -3 -5 19 -32 50
-60 31 -27 70 -63 88 -81 18 -17 36 -29 39 -26 3 4 6 1 6 -6 0 -16 25 -41 40
-41 6 0 8 -4 5 -10 -3 -5 1 -10 9 -10 8 0 20 -9 26 -20 6 -11 18 -20 26 -20 8
0 12 -4 9 -10 -3 -5 -4 -10 -1 -10 3 0 12 14 21 30 9 17 13 30 10 30 -2 0 4
16 15 36 11 19 18 39 15 45 -4 5 -1 9 4 9 6 0 10 3 9 8 -1 4 3 16 9 27 11 20
13 27 13 46 0 5 5 7 12 3 7 -4 8 -3 4 4 -4 6 -2 21 4 32 8 15 8 20 -2 21 -7 0
-2 5 12 10 20 8 22 12 10 19 -12 8 -12 10 3 16 9 3 15 10 12 14 -7 11 5 41 14
35 4 -2 7 9 6 25 -1 17 4 31 12 34 8 3 12 10 8 15 -3 5 -1 12 5 16 6 4 8 11 5
16 -4 5 -1 9 5 9 6 0 9 4 5 9 -3 5 0 13 6 17 8 4 7 9 -2 15 -11 7 -10 9 5 9
14 0 17 6 14 25 -4 19 -2 23 7 15 8 -7 11 -4 10 13 -3 30 5 48 17 41 6 -4 8 2
3 15 -3 11 -3 21 2 21 12 0 36 86 29 99 -4 6 -13 8 -21 4 -8 -3 -15 0 -15 7 0
6 -4 9 -9 5 -5 -3 -12 -1 -16 4 -3 6 -12 8 -20 4 -10 -3 -15 1 -15 12 0 10 -6
15 -17 13 -10 -2 -24 3 -31 12 -11 13 -12 13 -6 0 6 -11 2 -10 -13 3 -11 9
-27 17 -36 17 -9 0 -17 5 -17 10 0 6 -8 10 -19 10 -10 0 -24 6 -30 14 -7 8
-21 13 -32 11 -11 -2 -17 -1 -15 4 3 4 -11 13 -30 20 -18 7 -34 17 -34 22 0 6
-4 7 -10 4 -5 -3 -10 -1 -10 4 0 6 -3 10 -7 10 -20 -3 -34 2 -28 11 3 6 -1 7
-9 4 -9 -3 -16 -1 -16 6 0 6 -4 8 -10 5 -5 -3 -10 -1 -10 6 0 7 -3 10 -6 6 -4
-3 -13 1 -21 9 -8 8 -19 12 -24 9 -5 -4 -9 -1 -9 5 0 6 -4 9 -9 6 -5 -3 -11 1
-15 9 -3 8 -12 15 -20 15 -8 0 -17 6 -19 13 -4 9 -6 9 -6 -1 -1 -8 -8 -6 -23
8 -12 11 -28 20 -35 20 -7 0 -13 5 -13 10 0 6 -5 10 -11 10 -6 0 -17 7 -26 15
-8 8 -19 13 -24 10 -5 -4 -9 -2 -9 4 0 6 -11 13 -25 17 -14 3 -25 12 -25 20 0
8 -9 14 -21 14 -13 0 -18 4 -13 12 4 6 3 8 -4 4 -6 -3 -13 -2 -17 4 -4 6 -11
8 -16 5 -5 -4 -9 2 -9 11 0 10 -3 14 -7 11 -3 -4 -17 0 -30 8 -21 14 -23 14
-23 -5z"/>
<path d="M6299 4592 c-8 -10 -13 -24 -11 -31 3 -8 0 -11 -7 -7 -7 5 -11 -1
-11 -14 0 -13 -4 -19 -11 -14 -8 4 -9 0 -4 -15 5 -16 3 -20 -9 -15 -12 5 -15
2 -10 -10 3 -9 1 -16 -5 -16 -6 0 -11 -3 -10 -7 2 -13 -13 -53 -20 -53 -3 0
-12 -13 -19 -29 -14 -31 -12 -121 2 -121 5 0 3 -7 -4 -15 -9 -10 -9 -15 -1
-15 6 0 11 -5 11 -11 0 -5 -4 -8 -8 -5 -5 3 -9 -1 -9 -9 0 -8 4 -12 9 -9 5 3
8 -7 8 -23 -1 -104 5 -179 14 -185 7 -5 7 -8 1 -8 -13 0 -13 -69 -1 -89 6 -9
5 -12 -1 -8 -5 3 -10 -25 -10 -72 -2 -89 -4 -103 -18 -113 -5 -4 -1 -8 10 -8
16 0 17 -2 6 -9 -9 -6 -16 -32 -18 -68 -2 -32 -6 -65 -10 -73 -3 -8 -7 -28 -7
-45 -1 -16 -5 -36 -9 -42 -5 -7 -5 -13 -1 -13 3 0 0 -8 -7 -17 -12 -15 -12
-16 1 -8 12 6 12 5 3 -5 -6 -7 -9 -19 -6 -26 3 -8 0 -14 -7 -14 -6 0 -8 -5 -4
-11 3 -6 0 -15 -7 -20 -12 -7 -12 -9 0 -9 11 0 11 -3 1 -15 -7 -9 -10 -18 -6
-22 3 -3 -2 -15 -11 -26 -11 -12 -12 -17 -4 -12 10 6 12 4 5 -6 -5 -8 -10 -25
-12 -39 -2 -13 -8 -28 -14 -31 -6 -4 -8 -14 -5 -23 4 -9 2 -16 -4 -16 -6 0 -8
-4 -4 -9 3 -5 1 -13 -5 -16 -6 -4 -8 -16 -4 -27 4 -14 2 -18 -5 -14 -10 7 -12
2 -15 -36 -1 -7 -7 -17 -13 -23 -7 -5 -14 -25 -15 -42 -1 -18 -5 -33 -9 -33
-3 0 -12 -18 -19 -40 -7 -22 -17 -40 -22 -40 -5 0 -6 -4 -3 -10 3 -5 2 -10 -3
-10 -5 0 -9 -7 -10 -15 -1 -8 -3 -22 -4 -30 -1 -8 -7 -16 -14 -19 -7 -3 -15
-18 -19 -35 -4 -17 -11 -31 -16 -31 -5 0 -9 -7 -9 -15 0 -8 -5 -15 -10 -15 -6
0 -9 -3 -8 -7 4 -14 -13 -53 -22 -53 -5 0 -6 -7 -3 -17 4 -11 3 -14 -5 -9 -7
4 -12 3 -12 -3 0 -5 -7 -17 -16 -25 -9 -9 -11 -16 -4 -16 6 0 8 -5 5 -10 -4
-6 -11 -8 -16 -5 -5 4 -9 -3 -9 -15 0 -12 -4 -19 -9 -15 -5 3 -12 1 -16 -5 -3
-5 0 -10 7 -10 8 0 9 -3 3 -8 -6 -4 -21 -24 -35 -44 -13 -20 -29 -34 -34 -31
-5 3 -6 1 -2 -5 3 -6 2 -13 -4 -17 -6 -4 -8 -11 -4 -16 3 -5 0 -8 -7 -7 -7 2
-13 -2 -14 -7 0 -6 -6 -17 -13 -25 -7 -8 -26 -30 -42 -49 -16 -19 -27 -39 -23
-45 3 -6 3 -8 -1 -4 -8 7 -46 -26 -46 -40 0 -5 -16 -22 -35 -39 -19 -17 -35
-36 -35 -43 0 -6 -4 -9 -9 -6 -5 3 -12 -1 -15 -10 -3 -8 -10 -12 -16 -9 -6 4
-7 -1 -3 -11 3 -10 2 -15 -3 -12 -11 6 -65 -48 -56 -56 3 -3 -2 -6 -12 -6 -9
0 -15 -4 -12 -9 3 -4 -6 -13 -20 -20 -14 -6 -22 -16 -19 -21 4 -6 3 -10 -2 -9
-18 3 -34 -1 -30 -8 3 -5 -1 -14 -9 -21 -8 -7 -14 -9 -14 -5 0 4 -10 -3 -21
-17 -11 -14 -18 -18 -14 -10 4 10 2 9 -8 -2 -8 -10 -18 -14 -22 -10 -5 4 -5 2
-2 -4 7 -12 -19 -40 -41 -46 -8 -2 -27 -15 -44 -30 -16 -16 -35 -25 -41 -21
-5 3 -7 1 -4 -4 7 -11 -20 -28 -37 -24 -5 1 -6 -5 -3 -13 4 -10 1 -13 -9 -9
-7 3 -14 0 -14 -7 0 -6 -4 -8 -10 -5 -6 3 -10 1 -10 -4 0 -6 -7 -11 -15 -11
-8 0 -15 -4 -15 -10 0 -5 -7 -10 -15 -10 -8 0 -15 -5 -15 -12 0 -6 -3 -9 -6
-5 -3 3 -15 -3 -27 -13 -11 -11 -23 -17 -28 -15 -4 3 -13 -1 -21 -8 -20 -20
-79 -47 -89 -41 -5 3 -6 -2 -3 -10 4 -11 0 -14 -14 -11 -11 2 -23 -3 -26 -11
-3 -8 -14 -14 -25 -14 -10 0 -22 -7 -25 -16 -5 -13 -9 -14 -20 -5 -10 9 -15 8
-20 -4 -3 -9 -10 -13 -16 -10 -5 3 -10 1 -10 -5 0 -6 -4 -9 -9 -5 -5 3 -12 1
-16 -5 -4 -6 -11 -8 -16 -5 -5 4 -9 1 -9 -5 0 -6 -4 -8 -10 -5 -6 3 -10 2 -10
-2 0 -5 -10 -9 -22 -10 -11 -1 -24 -6 -27 -10 -3 -4 -15 -9 -26 -11 -34 -5
-46 -11 -41 -21 3 -5 -3 -7 -14 -4 -11 3 -28 -1 -37 -8 -13 -11 -15 -11 -9 -1
7 11 4 11 -15 1 -58 -30 -61 -31 -53 -17 6 10 5 11 -8 1 -8 -7 -18 -10 -21 -6
-4 3 -7 -2 -8 -13 0 -10 -3 -13 -6 -7 -3 10 -10 10 -24 2 -11 -5 -24 -7 -29
-4 -6 3 -10 3 -10 -2 0 -7 -18 -11 -72 -16 -10 -1 -18 -5 -18 -9 0 -4 -7 -5
-15 -2 -8 4 -15 1 -15 -6 0 -10 -3 -10 -15 0 -9 8 -15 8 -15 2 0 -6 -8 -11
-17 -11 -44 -1 -59 -4 -72 -15 -12 -9 -13 -8 -6 4 8 13 7 13 -8 1 -12 -9 -17
-10 -17 -2 0 7 -5 9 -12 4 -15 -9 -29 -11 -81 -15 -21 -1 -41 -6 -44 -10 -2
-5 -11 -4 -19 3 -11 9 -14 8 -14 -2 0 -11 -2 -11 -10 1 -5 8 -10 10 -10 4 0
-12 -28 -12 -47 -1 -6 4 -14 3 -17 -2 -3 -5 -29 -8 -57 -7 -42 1 -55 -3 -77
-23 -15 -14 -30 -25 -34 -23 -4 1 -12 -7 -18 -18 -6 -11 -18 -20 -26 -20 -8 0
-12 -4 -9 -10 3 -5 1 -10 -5 -10 -16 0 -40 -26 -32 -35 4 -4 2 -6 -3 -5 -21 5
-36 0 -30 -9 3 -5 -3 -11 -12 -14 -15 -3 -14 -6 7 -14 15 -7 26 -7 29 -1 1 5
12 1 24 -9 11 -10 17 -12 13 -5 -9 16 6 16 23 -1 8 -7 11 -7 8 -1 -4 7 3 12
18 12 15 0 22 -5 18 -12 -3 -6 0 -6 8 2 16 15 33 16 23 1 -4 -7 1 -7 16 1 18
9 24 9 30 0 6 -9 9 -9 13 1 5 12 7 12 15 0 8 -11 10 -11 15 0 4 12 7 11 16 -1
8 -12 11 -12 11 -1 0 11 3 11 17 0 9 -8 14 -9 10 -3 -4 7 11 11 44 13 38 1 49
-2 44 -11 -4 -7 -1 -6 7 2 12 14 50 19 166 22 12 0 22 3 22 7 0 3 15 7 33 7
17 1 41 5 51 9 15 7 17 5 11 -6 -7 -11 -4 -10 11 1 11 9 37 16 61 15 29 0 39
3 32 11 -6 8 -2 10 16 9 14 -2 27 1 31 6 3 5 13 5 25 -1 15 -8 21 -7 25 4 3 8
14 13 24 11 10 -2 24 3 30 10 6 8 18 11 26 8 8 -3 22 1 31 8 14 12 16 12 8 0
-6 -11 -3 -11 14 2 13 8 29 13 37 10 8 -3 17 3 20 12 5 13 9 14 15 3 6 -9 9
-9 9 -1 0 6 9 10 20 8 11 -2 18 0 15 6 -4 5 5 9 19 9 14 0 26 4 26 8 0 8 7 10
50 14 11 1 20 8 20 15 0 9 9 12 25 9 14 -3 24 0 22 6 -1 6 9 12 22 13 14 1 27
7 29 13 2 6 10 8 18 5 8 -3 14 -1 14 5 0 5 11 13 25 16 14 4 25 11 25 16 0 5
7 7 15 4 8 -4 15 -1 15 6 0 6 5 8 10 5 6 -3 10 -1 10 5 0 6 4 9 9 6 5 -4 11
-2 13 4 2 6 13 12 25 14 22 5 85 45 91 58 2 4 10 4 18 1 8 -3 14 1 14 8 0 7 3
10 6 6 8 -8 33 16 27 25 -2 4 3 5 11 2 9 -4 16 -1 16 6 0 7 7 10 16 6 8 -3 12
-2 9 4 -3 6 2 13 12 17 10 4 24 13 31 20 7 7 20 13 27 13 8 0 22 11 30 24 15
22 48 40 68 37 5 -1 6 3 3 8 -3 5 2 15 11 22 14 12 16 12 8 0 -5 -10 -4 -12 3
-7 7 4 12 14 12 22 0 8 4 13 10 9 5 -3 18 3 29 14 11 11 22 17 25 14 3 -4 6
-1 6 6 0 7 7 19 15 27 8 9 15 12 15 8 0 -4 11 5 25 20 13 14 29 26 35 26 6 0
8 5 5 10 -3 6 -1 10 5 10 13 0 46 30 33 30 -4 0 3 6 17 13 14 8 24 19 22 26
-1 7 2 10 6 7 5 -3 18 5 28 19 10 13 22 21 27 18 6 -3 7 -1 3 5 -3 6 2 17 12
24 11 7 20 17 20 23 0 5 9 12 19 16 10 4 15 8 11 8 -5 1 10 19 32 41 22 22 40
44 40 50 0 6 5 10 10 10 6 0 10 5 10 10 0 6 9 21 21 33 55 59 89 103 89 115 0
6 5 12 12 12 6 0 8 3 5 6 -4 4 6 18 21 32 15 13 20 21 12 17 -10 -4 -9 -1 2 8
10 8 15 17 11 20 -3 4 2 9 11 13 9 3 16 12 16 19 0 7 9 24 20 37 10 14 16 28
13 32 -3 3 1 6 10 6 10 0 14 5 11 15 -4 8 -1 15 5 15 6 0 11 9 11 21 0 11 5
17 10 14 6 -3 10 3 10 14 0 12 5 21 12 21 6 0 8 3 5 7 -4 3 1 12 11 20 9 8 10
11 3 7 -9 -4 -4 7 9 26 13 19 18 30 9 26 -7 -4 -6 -1 5 8 10 8 15 19 12 24 -3
6 1 13 10 16 8 3 13 10 9 15 -3 5 -1 12 5 16 5 3 10 15 10 26 0 11 7 22 15 25
8 4 13 10 10 14 -3 5 4 25 15 45 12 21 15 34 8 30 -7 -4 -4 1 6 9 11 9 16 16
12 16 -5 0 -3 7 4 15 6 8 9 19 5 25 -3 5 -2 10 4 10 5 0 8 9 6 21 -3 15 0 19
11 15 12 -4 12 -2 4 14 -8 14 -8 20 0 20 6 0 8 5 5 10 -3 6 -1 10 5 10 7 0 10
7 6 15 -3 8 -1 15 5 15 6 0 8 4 4 9 -3 5 -1 12 4 15 4 3 9 18 9 33 0 15 5 29
11 31 9 3 9 7 0 18 -9 11 -8 15 4 20 9 3 13 13 9 26 -4 15 -2 19 7 13 10 -6
11 -3 2 14 -7 12 -8 21 -4 20 20 -3 27 2 13 11 -11 7 -11 10 -2 10 7 0 10 5 7
10 -4 6 -1 17 5 25 10 12 10 15 -1 15 -10 0 -11 2 -2 8 7 4 14 24 16 45 2 21
7 40 11 44 3 3 0 13 -7 21 -9 13 -9 14 1 8 8 -5 12 2 12 23 0 18 5 31 13 31 7
0 8 3 2 8 -14 10 -17 32 -4 32 8 0 7 6 -2 17 -8 10 -9 14 -2 10 8 -5 11 6 10
43 -1 27 2 50 7 50 4 0 6 6 3 14 -3 7 0 19 6 26 9 10 9 14 -1 17 -10 4 -10 8
-1 20 10 11 10 16 0 23 -9 5 -10 13 -5 21 13 20 13 79 0 79 -6 0 -5 4 3 9 13
8 13 12 0 27 -8 10 -9 15 -2 11 8 -5 11 4 10 33 -1 22 -6 40 -12 40 -5 0 -4 4
4 9 13 8 13 12 0 27 -8 11 -9 15 -2 10 9 -5 12 0 11 18 -1 15 -6 26 -11 26 -5
0 -4 7 3 15 10 12 10 15 0 15 -10 0 -10 3 0 15 9 10 9 15 1 15 -6 0 -11 5 -11
11 0 5 6 7 13 3 10 -6 10 -4 0 7 -7 7 -13 19 -13 27 0 8 5 10 13 6 9 -6 9 -5
-1 8 -6 8 -13 34 -14 56 -1 23 -5 39 -10 36 -4 -3 -8 0 -8 5 0 6 6 11 13 11 9
0 8 3 -2 9 -11 7 -11 9 0 13 11 4 12 8 2 20 -7 8 -14 31 -15 51 -2 20 -7 37
-12 37 -5 0 -2 8 5 17 10 12 11 15 1 9 -9 -6 -11 -1 -8 18 3 14 0 28 -5 32 -5
3 -7 10 -4 15 4 5 1 9 -4 9 -6 0 -11 5 -11 11 0 5 6 7 13 3 9 -6 9 -5 0 8 -7
8 -10 18 -6 21 3 4 4 7 2 7 -3 0 -11 -8 -20 -18z"/>
<path d="M724 4423 c3 -6 2 -14 -2 -17 -5 -3 -8 -18 -7 -33 1 -15 -4 -47 -11
-70 -6 -24 -8 -40 -3 -37 6 3 7 -6 4 -23 -3 -15 -8 -49 -10 -75 -2 -26 -6 -52
-11 -59 -4 -8 -3 -9 4 -5 18 11 14 -5 -5 -26 -14 -15 -14 -19 -3 -16 11 2 14
-5 11 -27 -2 -16 -7 -38 -12 -47 -6 -11 -5 -19 3 -24 6 -4 8 -3 4 4 -3 6 -2
13 3 17 9 5 9 -2 1 -40 -1 -5 -1 -14 0 -20 6 -27 4 -51 -5 -57 -6 -5 -4 -8 4
-8 11 0 9 -5 -5 -21 -12 -14 -14 -19 -5 -17 11 2 14 -12 15 -64 1 -38 3 -68 6
-68 5 0 8 -25 13 -120 1 -19 9 -41 17 -48 8 -8 10 -11 4 -8 -7 3 -15 -1 -18
-10 -3 -8 -2 -13 3 -10 5 3 12 -1 15 -10 4 -10 2 -13 -7 -8 -9 6 -9 4 -1 -7 5
-8 10 -26 9 -41 0 -16 3 -28 9 -28 5 0 6 -3 3 -6 -3 -4 -2 -16 4 -27 8 -15 8
-18 -1 -12 -9 6 -9 2 0 -15 6 -12 9 -24 7 -27 -3 -2 1 -16 8 -30 7 -14 11 -32
8 -39 -3 -8 0 -14 6 -14 6 0 11 -12 11 -26 0 -14 5 -34 10 -44 6 -10 11 -30
12 -44 1 -15 6 -26 11 -26 4 0 6 -4 3 -8 -3 -5 1 -21 9 -36 10 -18 11 -25 2
-21 -7 4 -5 1 3 -7 9 -7 14 -21 12 -32 -3 -13 0 -16 9 -11 9 6 11 3 6 -8 -3
-10 -2 -17 4 -17 6 0 8 -4 5 -8 -3 -5 4 -26 15 -46 11 -21 14 -34 8 -30 -7 4
-3 -6 9 -23 12 -17 22 -38 22 -47 0 -9 4 -16 8 -16 4 0 8 -10 9 -22 1 -11 7
-24 14 -28 6 -4 12 -19 12 -34 -1 -14 3 -23 8 -21 10 7 23 -14 25 -39 0 -11 6
-22 13 -24 6 -2 9 -8 5 -13 -3 -5 0 -9 6 -9 6 0 8 -4 5 -10 -3 -5 -1 -10 4
-10 6 0 11 -7 11 -15 0 -8 4 -15 10 -15 5 0 7 -6 4 -14 -3 -7 2 -16 10 -19 9
-4 16 -13 16 -22 0 -8 5 -15 11 -15 5 0 8 -4 5 -9 -3 -5 1 -11 9 -15 8 -3 15
-14 15 -24 0 -10 9 -27 20 -37 11 -10 17 -22 14 -26 -3 -5 2 -9 10 -9 9 0 16
-6 16 -14 0 -22 43 -85 58 -86 7 0 11 -4 8 -8 -3 -5 9 -24 26 -43 17 -19 31
-36 31 -39 -1 -3 3 -4 9 -2 5 1 7 -1 4 -6 -3 -5 8 -23 25 -40 18 -19 28 -36
23 -43 -5 -9 -2 -10 9 -6 10 3 17 2 17 -3 0 -5 11 -20 25 -34 14 -14 25 -30
25 -37 0 -6 7 -9 15 -5 8 3 14 2 14 -2 -3 -20 3 -32 16 -32 14 0 19 -12 16
-32 0 -5 7 -8 17 -8 10 0 25 -11 32 -25 7 -14 15 -23 18 -21 7 7 30 -18 25
-26 -2 -5 3 -8 11 -8 9 0 16 -5 16 -11 0 -5 5 -7 10 -4 6 3 10 1 10 -5 0 -14
25 -40 39 -40 6 0 11 -4 11 -10 0 -5 8 -10 18 -10 14 0 15 -2 2 -10 -12 -8
-11 -10 8 -10 13 0 22 -6 22 -15 0 -9 6 -12 18 -8 9 3 14 3 10 -2 -8 -9 40
-55 57 -55 6 0 17 -9 25 -19 7 -11 17 -18 22 -15 4 3 8 0 8 -7 0 -7 3 -10 6
-6 3 3 18 -5 33 -19 14 -13 34 -27 43 -30 10 -3 18 -10 18 -15 0 -6 4 -8 9 -4
6 3 14 -2 19 -10 7 -14 10 -14 21 -2 7 9 21 13 33 9 14 -3 19 -1 14 6 -5 8 0
12 13 12 12 0 21 4 21 8 0 10 50 37 63 34 4 -1 7 5 7 13 0 8 3 14 8 14 22 -4
23 3 2 21 -12 11 -27 17 -31 14 -5 -3 -9 0 -9 5 0 6 -7 11 -16 11 -8 0 -12 5
-9 10 3 6 -3 10 -14 10 -12 0 -21 5 -21 10 0 6 -5 10 -11 10 -6 0 -28 14 -49
30 -21 17 -43 30 -50 30 -6 0 -8 5 -5 10 3 6 0 10 -8 10 -8 0 -28 14 -46 30
-17 17 -31 27 -31 23 0 -5 -5 0 -11 10 -5 9 -17 17 -24 17 -8 0 -15 7 -15 16
0 11 -5 14 -17 10 -10 -4 -14 -4 -11 0 8 8 -16 34 -32 34 -6 0 -8 5 -5 10 3 5
0 10 -7 10 -7 0 -19 9 -26 20 -7 11 -19 20 -26 20 -8 0 -18 9 -21 20 -4 11
-11 18 -16 15 -5 -4 -9 -1 -9 5 0 6 -25 35 -55 65 -30 31 -55 60 -55 66 0 6
-4 8 -9 4 -5 -3 -12 4 -16 15 -3 11 -17 28 -31 39 -13 10 -24 26 -24 36 0 9
-4 14 -9 10 -6 -3 -15 5 -22 17 -7 13 -19 28 -28 35 -9 7 -12 13 -6 13 5 0 -1
7 -13 16 -12 8 -22 22 -22 30 0 8 -4 14 -10 14 -5 0 -10 5 -10 10 0 6 -9 20
-20 32 -10 12 -17 25 -14 30 3 4 0 8 -6 8 -6 0 -15 11 -22 25 -6 13 -15 22
-19 19 -5 -3 -6 2 -3 10 3 9 2 16 -3 16 -5 0 -15 16 -23 35 -8 19 -17 35 -22
35 -4 0 -8 7 -8 16 0 8 -5 12 -11 9 -6 -4 -9 -1 -8 6 3 18 -32 89 -43 89 -5 0
-6 5 -3 11 4 6 -1 17 -11 24 -15 11 -16 14 -4 15 10 0 11 3 4 8 -15 9 -44 67
-44 87 0 8 -4 15 -10 15 -5 0 -10 9 -10 20 0 11 -4 20 -10 20 -5 0 -9 3 -9 8
3 19 -2 43 -9 39 -4 -3 -8 9 -9 26 -2 18 -7 33 -13 35 -5 2 -10 14 -10 27 0
13 -5 27 -10 30 -6 4 -8 11 -5 16 4 5 0 9 -7 9 -10 0 -9 3 2 10 13 8 13 10 -1
15 -8 3 -16 18 -17 33 -1 15 -7 29 -13 30 -6 3 -6 9 2 18 9 11 9 14 -1 14 -7
0 -10 7 -6 15 3 8 0 15 -6 15 -7 0 -6 5 2 15 11 13 10 14 -1 10 -14 -5 -18 11
-22 73 0 6 -3 12 -7 12 -4 0 -7 20 -6 44 1 24 -2 42 -6 40 -4 -2 -9 0 -13 6
-3 5 0 10 7 10 10 0 9 3 -2 10 -8 5 -11 12 -8 16 4 4 3 15 -3 25 -5 11 -6 19
-1 19 4 0 8 9 8 19 0 11 -4 18 -7 15 -4 -2 -10 0 -13 5 -4 5 -2 12 3 16 6 3 6
17 -1 35 -5 17 -8 37 -5 44 3 8 1 17 -6 20 -9 3 -9 5 0 5 7 1 10 8 6 17 -3 8
-7 32 -8 52 -1 20 -3 37 -5 37 -1 0 -3 10 -4 23 -2 12 2 22 8 22 6 0 5 4 -3 9
-9 6 -10 10 -2 16 9 5 9 10 1 20 -8 10 -8 15 0 20 8 5 8 10 0 20 -8 9 -8 15 0
20 6 3 7 12 3 18 -11 17 -10 31 2 39 6 5 5 8 -4 8 -10 0 -11 3 -2 14 9 10 9
16 1 21 -8 5 -6 13 6 26 17 19 17 20 0 13 -16 -6 -17 -5 -6 16 10 18 9 24 -1
31 -9 5 -10 9 -3 9 7 0 14 20 16 45 3 38 0 45 -15 45 -10 0 -16 4 -13 9 7 11
-40 62 -50 53 -4 -4 -4 1 -1 11 4 11 1 17 -8 17 -8 0 -15 4 -15 10 0 5 -16 27
-36 47 -20 21 -34 33 -30 26z"/>
<path d="M3723 4053 c-7 -3 -13 -11 -13 -19 0 -9 -4 -13 -8 -10 -7 4 -11 -10
-14 -51 -1 -7 -5 -13 -10 -13 -5 0 -6 -4 -3 -10 3 -5 1 -10 -6 -10 -7 0 -9 -3
-6 -7 4 -3 2 -12 -5 -20 -6 -7 -8 -16 -5 -20 4 -3 -1 -12 -11 -20 -11 -9 -11
-12 -2 -7 12 6 13 4 3 -7 -7 -7 -13 -21 -13 -32 0 -10 -4 -15 -10 -12 -6 4 -7
-1 -3 -11 5 -13 3 -15 -7 -9 -9 5 -11 4 -6 -4 4 -6 2 -19 -6 -28 -7 -9 -12
-18 -10 -20 6 -8 1 -34 -6 -29 -7 4 -11 -9 -14 -51 -1 -7 -7 -14 -14 -17 -8
-3 -11 -12 -8 -20 3 -8 0 -17 -5 -21 -6 -3 -9 -11 -6 -16 4 -5 1 -9 -4 -9 -6
0 -10 -3 -9 -7 1 -5 -4 -21 -11 -37 -6 -15 -12 -39 -13 -52 -1 -12 -5 -22 -9
-21 -4 1 -7 -2 -7 -6 0 -4 -8 -19 -17 -33 -9 -14 -14 -28 -11 -32 3 -3 -1 -16
-9 -29 -9 -13 -13 -28 -10 -33 3 -6 1 -10 -5 -10 -6 0 -8 -4 -5 -10 3 -5 2
-10 -4 -10 -6 0 -8 -7 -5 -15 4 -8 2 -15 -3 -15 -5 0 -9 -9 -10 -20 -1 -11 1
-19 5 -18 4 1 18 -4 31 -11 19 -11 22 -11 15 0 -4 7 7 3 24 -10 18 -12 32 -20
32 -18 0 3 23 -4 51 -14 27 -11 54 -17 59 -14 4 3 11 -2 14 -11 4 -9 13 -14
21 -10 8 3 15 1 15 -4 0 -5 7 -6 17 -3 10 4 14 2 10 -4 -4 -7 0 -10 10 -9 9 2
29 -4 45 -11 15 -8 32 -12 38 -8 5 3 10 2 10 -3 0 -5 6 -9 13 -10 42 -3 57 -7
61 -17 2 -6 22 -10 44 -10 22 0 38 -3 36 -7 -3 -5 0 -8 6 -8 6 0 13 7 16 15 4
8 10 13 14 10 5 -3 12 4 15 16 5 14 12 18 23 14 9 -3 14 -3 10 0 -9 9 33 56
44 49 4 -3 8 2 8 10 0 8 12 22 28 30 15 8 26 17 25 20 -7 14 -2 27 7 21 6 -3
10 -1 10 5 0 6 5 8 12 4 7 -4 8 -3 4 4 -3 6 3 16 14 22 11 6 19 14 17 18 -3
12 59 72 74 72 7 0 9 3 6 6 -3 4 5 15 18 26 14 11 23 24 19 29 -3 5 -2 9 3 8
20 -3 33 2 30 14 -1 6 4 11 11 9 8 -1 11 2 7 8 -3 5 1 13 9 16 9 3 16 12 16
19 0 8 9 17 20 20 11 3 20 13 20 21 0 8 5 12 10 9 6 -3 10 -1 10 5 0 15 26 41
34 33 3 -4 6 1 6 10 0 10 5 17 10 17 6 0 10 7 10 16 0 8 5 12 10 9 6 -3 10 -1
10 5 0 6 5 8 12 4 6 -4 8 -3 5 3 -8 13 22 55 34 47 5 -3 8 0 7 8 -2 7 2 12 9
11 6 -2 15 7 19 19 8 27 29 49 38 40 4 -3 4 2 0 12 -5 12 -9 14 -14 6 -5 -8
-10 -9 -14 -2 -4 6 -15 9 -26 7 -11 -2 -20 1 -20 7 0 6 -9 8 -20 5 -11 -3 -22
-1 -25 4 -3 4 -12 6 -20 2 -8 -3 -15 0 -15 7 0 6 -4 9 -9 5 -5 -3 -12 -1 -15
4 -3 5 -15 7 -26 4 -11 -3 -20 -1 -20 4 0 6 -12 8 -27 6 -22 -4 -25 -2 -13 6
11 8 7 9 -17 5 -19 -4 -33 -2 -33 3 0 10 -6 11 -55 14 -14 1 -25 5 -25 9 0 3
-6 7 -12 8 -7 0 -24 3 -38 7 -14 4 -31 7 -37 7 -7 1 -13 6 -13 11 0 6 -3 7 -7
4 -3 -4 -12 -2 -20 4 -9 8 -13 8 -13 1 0 -6 -7 -9 -15 -6 -8 4 -12 11 -8 17 4
6 0 8 -9 4 -9 -3 -21 0 -27 6 -8 8 -11 7 -11 -4 0 -11 -2 -11 -9 -1 -4 7 -18
14 -29 15 -12 1 -22 4 -22 8 0 4 -7 10 -16 13 -9 4 -13 2 -8 -6 4 -6 -8 -3
-27 7 -68 36 -71 37 -64 25 4 -7 -4 -5 -18 4 -13 9 -31 15 -38 14 -8 -2 -13 2
-12 9 2 7 -4 10 -12 7 -9 -4 -21 -2 -28 3 -18 14 -40 21 -54 16z"/>
<path d="M1340 4016 c0 -2 8 -10 18 -17 15 -13 16 -12 3 4 -13 16 -21 21 -21
13z"/>
<path d="M1136 3933 c-4 -9 -1 -20 6 -25 10 -6 10 -8 -2 -8 -9 0 -11 -3 -5 -8
13 -8 13 -22 1 -41 -6 -10 -5 -12 2 -7 7 4 12 1 12 -8 0 -9 -6 -16 -12 -16 -9
0 -10 -2 -2 -8 6 -4 11 -28 11 -53 0 -26 3 -51 7 -58 4 -6 4 -11 0 -11 -3 0 0
-8 7 -17 10 -11 10 -14 2 -9 -7 4 -13 2 -13 -3 0 -6 5 -11 10 -11 6 0 10 -7
10 -17 0 -9 3 -14 6 -10 8 8 33 -16 27 -25 -2 -5 1 -8 7 -8 12 0 40 -24 40
-35 0 -10 161 -165 171 -165 5 0 9 -7 9 -17 0 -9 3 -14 6 -10 4 3 24 -12 44
-33 21 -22 43 -40 49 -40 5 0 13 -9 16 -20 3 -11 11 -20 16 -20 5 0 18 -8 29
-17 10 -10 31 -28 44 -40 14 -13 30 -23 36 -23 5 0 10 -7 10 -16 0 -8 5 -12
10 -9 6 3 10 1 10 -4 0 -6 5 -11 11 -11 7 0 22 -12 35 -27 13 -16 24 -24 24
-18 0 5 7 -1 16 -13 8 -12 20 -22 26 -22 6 0 19 -9 29 -21 9 -11 21 -21 26
-21 16 -1 43 -25 36 -32 -4 -4 0 -4 8 -1 15 6 19 29 8 50 -3 6 -4 49 -4 98 1
68 -1 87 -12 87 -8 0 -11 5 -8 10 3 6 1 10 -5 10 -15 0 -41 26 -33 34 4 3 0 6
-8 6 -8 0 -23 11 -33 25 -10 13 -22 22 -27 19 -5 -3 -6 3 -2 12 4 11 3 15 -5
10 -6 -3 -13 -2 -17 4 -4 6 -11 8 -16 5 -5 -3 -6 2 -2 11 4 12 3 15 -5 10 -7
-4 -12 -2 -12 4 0 6 -5 8 -10 5 -6 -4 -10 -3 -9 2 3 19 -2 33 -11 33 -16 0
-60 47 -52 55 4 4 3 6 -3 5 -21 -5 -36 0 -30 10 3 5 -7 16 -22 24 -15 8 -24
15 -19 16 5 0 -8 13 -28 29 -23 19 -32 31 -24 34 7 3 3 6 -9 6 -14 1 -23 7
-23 17 0 8 -4 12 -10 9 -5 -3 -10 -2 -10 2 0 13 -57 73 -69 73 -6 0 -11 5 -11
11 0 15 -26 39 -34 32 -3 -4 -6 -1 -6 6 0 15 -86 101 -94 93 -3 -3 -6 0 -6 6
0 15 -42 58 -52 55 -7 -3 -12 11 -10 28 1 3 -10 11 -23 17 -19 9 -24 8 -29 -5z"/>
<path d="M5735 3669 c2 -3 -5 -13 -16 -22 -11 -10 -17 -23 -13 -30 4 -6 4 -9
-1 -5 -7 7 -44 -33 -37 -40 1 -1 -9 -14 -23 -28 -14 -14 -22 -30 -19 -36 4 -6
3 -8 -2 -5 -5 3 -21 -11 -34 -31 -14 -20 -31 -43 -37 -50 -7 -7 -13 -20 -13
-28 0 -8 -4 -13 -9 -10 -13 9 -34 -21 -25 -36 4 -7 4 -10 -1 -6 -7 7 -44 -33
-37 -40 1 -1 -13 -18 -33 -37 -19 -20 -35 -38 -35 -40 0 -3 0 -9 0 -15 0 -5
-7 -10 -15 -10 -8 0 -15 -5 -15 -10 0 -6 -12 -23 -27 -37 -16 -14 -21 -22 -13
-17 11 6 10 4 -2 -7 -9 -9 -14 -19 -11 -23 6 -6 -12 -10 -30 -7 -4 0 -6 -2 -5
-6 2 -13 -16 -52 -27 -55 -5 -2 -9 -6 -7 -10 1 -5 -5 -8 -13 -8 -8 0 -14 -4
-12 -9 1 -4 -7 -17 -18 -27 -12 -11 -14 -15 -5 -9 10 6 9 2 -4 -12 -10 -13
-23 -20 -29 -16 -6 3 -7 1 -3 -5 3 -6 -4 -18 -16 -28 -17 -12 -18 -15 -5 -10
10 3 27 1 38 -4 14 -8 19 -7 19 2 0 6 7 3 16 -8 8 -10 13 -14 10 -8 -6 13 31
27 39 14 2 -4 17 -5 32 -3 16 2 34 4 41 4 65 -3 311 7 320 13 6 3 13 0 15 -6
4 -10 6 -10 6 0 1 7 6 10 13 6 7 -5 9 -2 5 9 -4 11 -2 14 9 10 8 -3 14 -2 12
3 -1 5 3 25 10 44 7 19 13 37 13 40 0 3 7 9 15 13 8 5 12 12 9 17 -3 4 0 21 7
37 6 15 11 31 10 36 -1 4 2 7 6 7 8 0 10 7 14 50 1 11 6 20 10 20 4 0 8 11 8
25 0 14 4 25 10 25 5 0 7 7 4 15 -4 8 -2 15 3 15 6 0 9 13 8 30 -1 17 2 27 8
23 6 -4 8 0 4 10 -3 10 -2 17 3 17 5 0 7 9 5 20 -2 11 0 20 4 20 5 0 7 11 6
25 -2 14 0 25 5 25 4 0 6 9 3 20 -3 11 -1 20 4 20 5 0 9 16 8 35 0 19 4 35 10
35 5 0 3 5 -5 10 -8 5 -10 10 -5 10 6 0 11 8 12 18 1 9 4 31 6 48 4 31 4 31
-44 30 -28 0 -45 -4 -42 -9 4 -6 1 -7 -8 -1 -15 9 -89 12 -84 3z"/>
<path d="M1287 3130 c-3 -13 0 -20 9 -20 8 0 14 -5 14 -11 0 -5 -5 -7 -12 -3
-7 4 -2 -9 10 -30 12 -21 20 -42 17 -47 -4 -5 -1 -9 5 -9 7 0 9 -7 6 -16 -4
-10 -2 -13 6 -8 8 5 9 2 5 -10 -4 -10 -1 -19 9 -23 8 -3 13 -12 10 -20 -3 -7
1 -16 8 -19 8 -3 13 -15 11 -26 -3 -13 0 -18 9 -15 9 4 12 -2 10 -19 -1 -13 2
-22 7 -18 8 4 14 -17 10 -38 0 -5 5 -7 12 -5 6 1 11 -4 10 -10 -2 -7 1 -13 6
-13 8 0 19 -28 19 -47 0 -3 7 -10 16 -15 9 -5 14 -13 11 -19 -4 -5 -1 -9 4 -9
6 0 11 -7 11 -15 0 -8 5 -15 10 -15 6 0 10 -7 10 -15 0 -8 3 -15 8 -15 4 0 13
-9 20 -21 11 -17 11 -20 0 -15 -7 4 -3 -1 10 -10 12 -9 22 -22 22 -29 0 -7 7
-16 16 -19 8 -3 13 -10 10 -15 -3 -5 1 -12 10 -15 8 -3 12 -10 9 -16 -3 -5 2
-10 11 -10 10 0 14 -3 11 -6 -4 -4 3 -15 15 -25 11 -11 18 -19 15 -19 -3 0 12
-18 34 -41 22 -23 37 -45 33 -52 -4 -7 -4 -9 0 -5 9 8 55 -34 49 -44 -2 -5 1
-8 7 -8 6 0 37 -27 69 -59 33 -33 62 -57 65 -54 3 4 6 -1 6 -10 0 -9 6 -17 13
-17 7 0 20 -8 29 -17 9 -10 28 -26 42 -36 15 -10 23 -23 20 -29 -4 -6 -2 -8 4
-4 6 3 18 -2 28 -11 19 -20 44 -26 44 -11 0 6 -7 7 -16 4 -10 -4 -13 -2 -7 7
12 19 12 37 0 34 -5 -1 -11 11 -12 26 -1 16 -6 32 -11 35 -5 4 -11 18 -13 32
-1 14 -7 32 -12 41 -4 9 -7 26 -4 37 2 14 -1 19 -10 16 -9 -4 -13 3 -11 25 1
17 -2 31 -7 31 -4 0 -5 5 -2 10 3 6 1 10 -4 10 -6 0 -10 3 -10 8 4 22 -2 53
-9 48 -4 -3 -7 10 -6 27 1 18 -5 40 -14 50 -12 13 -13 20 -5 25 7 5 9 13 3 21
-4 8 -6 20 -3 28 3 7 1 13 -4 13 -5 0 -8 14 -7 30 1 17 -2 30 -8 30 -5 0 -7 4
-4 8 2 4 1 14 -5 22 -7 13 -9 13 -9 1 0 -9 -6 -7 -19 7 -10 12 -23 22 -30 22
-6 0 -11 4 -11 8 0 5 -12 14 -26 20 -14 7 -23 16 -20 20 2 4 -4 9 -16 9 -11 1
-28 11 -38 22 -9 12 -23 21 -29 21 -7 0 -9 5 -5 12 4 6 3 8 -4 4 -6 -3 -22 5
-36 19 -14 14 -30 25 -35 25 -6 0 -15 8 -20 18 -6 9 -11 13 -11 8 0 -5 -12 4
-26 20 -15 16 -23 22 -19 14 4 -8 -4 -3 -17 13 -14 15 -28 27 -32 27 -14 0
-55 44 -49 53 3 6 1 7 -5 3 -7 -4 -23 4 -37 18 -14 15 -30 26 -35 26 -6 0 -10
7 -10 16 0 10 -5 14 -16 10 -8 -3 -13 -2 -11 2 3 4 -1 13 -9 20 -8 7 -14 11
-14 8 0 -3 -11 6 -25 20 -14 14 -25 29 -25 34 0 18 -18 10 -23 -10z"/>
<path d="M2187 2933 c9 -3 10 -10 4 -22 -5 -9 -6 -22 -2 -29 4 -7 6 -25 5 -42
-1 -17 3 -30 9 -30 7 0 6 -4 -2 -9 -11 -7 -7 -14 20 -30 19 -11 39 -24 45 -30
7 -5 15 -7 18 -4 3 4 6 1 6 -6 0 -7 5 -9 10 -6 6 3 10 -1 10 -9 0 -10 7 -13
20 -11 11 2 18 0 15 -6 -4 -5 0 -9 8 -9 8 0 20 -7 27 -15 7 -8 16 -12 21 -9 5
3 9 0 9 -5 0 -6 9 -11 20 -11 12 0 20 -7 20 -17 0 -14 2 -15 9 -5 7 11 9 10
15 -3 3 -9 10 -14 15 -10 5 3 12 1 16 -5 4 -6 11 -8 16 -5 5 4 9 0 9 -9 0 -9
8 -13 25 -12 13 2 23 -2 22 -7 -1 -6 3 -11 10 -12 7 0 17 -5 24 -12 6 -6 18
-9 27 -6 10 4 13 2 8 -5 -5 -8 0 -12 13 -12 12 0 21 -4 21 -10 0 -5 4 -10 9
-10 5 0 7 9 4 20 -3 11 -9 17 -14 14 -5 -3 -12 2 -15 10 -3 9 -10 16 -15 16
-5 0 -22 14 -39 31 -16 18 -30 28 -30 24 0 -4 -11 4 -25 19 -14 15 -25 24 -25
20 0 -5 -15 9 -34 29 -22 25 -36 33 -39 25 -4 -10 -6 -10 -6 0 -1 7 -11 23
-22 35 -12 12 -18 16 -14 8 5 -9 4 -12 -3 -7 -7 4 -12 14 -12 22 0 8 -4 13 -9
9 -6 -3 -15 4 -21 15 -6 11 -15 20 -21 20 -5 0 -24 15 -41 33 -18 17 -35 32
-38 32 -2 0 -4 6 -2 12 2 8 -3 10 -13 7 -11 -5 -18 0 -21 13 -3 12 -15 19 -32
20 -15 1 -21 -1 -15 -4z"/>
<path d="M4883 2611 c-40 -51 -90 -101 -103 -101 -6 0 -9 -4 -6 -9 3 -5 -1
-14 -9 -21 -8 -7 -12 -16 -9 -21 3 -5 -2 -6 -11 -3 -11 5 -18 0 -22 -14 -3
-12 -14 -24 -24 -27 -10 -4 -18 -12 -16 -18 1 -7 -4 -11 -11 -9 -8 1 -11 -2
-7 -8 3 -5 -1 -13 -9 -16 -9 -3 -13 -10 -10 -15 3 -5 1 -9 -5 -9 -6 0 -29 -18
-52 -40 -23 -22 -40 -40 -36 -40 3 0 -13 -20 -36 -43 -23 -24 -45 -42 -49 -40
-5 2 -8 -1 -8 -8 0 -13 -38 -49 -52 -49 -5 0 -7 -4 -4 -8 6 -10 -30 -43 -38
-35 -9 9 -7 -10 2 -24 5 -7 13 -9 21 -3 18 11 43 1 34 -14 -4 -6 0 -6 9 2 12
9 18 10 23 2 5 -8 11 -8 21 1 13 11 18 6 15 -16 -1 -5 6 -1 14 9 8 11 15 14
15 7 0 -7 5 -9 13 -4 6 4 24 8 39 8 23 1 25 -2 15 -14 -10 -12 -9 -13 2 -6 8
4 27 8 42 7 16 0 29 5 30 11 0 7 4 3 9 -8 5 -11 9 -15 9 -9 1 7 12 9 27 6 16
-3 30 1 35 9 6 10 9 11 9 1 0 -14 61 -12 72 3 5 6 8 5 8 -3 0 -8 5 -10 13 -5
17 11 38 13 32 3 -6 -10 15 -8 34 4 8 5 16 3 22 -5 6 -9 9 -10 9 -2 0 12 30
10 52 -3 7 -5 8 -3 3 6 -6 10 -4 12 8 7 11 -4 17 -1 17 8 0 8 5 15 11 15 7 0
22 11 35 26 13 14 24 23 24 20 0 -3 20 14 44 39 24 24 47 41 50 38 3 -4 6 1 6
10 0 9 5 19 12 23 7 5 8 3 3 -7 -5 -8 5 0 23 18 18 17 32 36 32 42 0 6 6 11
14 11 8 0 18 5 22 12 4 7 3 8 -4 4 -8 -5 -10 -1 -6 9 4 9 13 14 20 11 8 -3 14
1 14 9 0 8 5 15 10 15 6 0 10 7 10 16 0 8 5 12 10 9 9 -6 14 8 11 28 -1 5 3 5
9 2 7 -4 14 2 17 14 3 11 9 18 14 15 5 -3 9 1 9 8 0 8 9 21 20 31 12 10 18 23
14 29 -5 7 -2 9 9 5 12 -4 15 -1 12 14 -2 11 0 17 5 14 11 -7 32 30 22 40 -4
5 -2 5 4 2 11 -6 50 50 41 59 -10 11 -42 11 -54 1 -9 -6 -13 -5 -13 4 0 9 -3
10 -8 4 -11 -16 -34 -17 -43 -3 -5 7 -9 8 -9 2 0 -15 -70 -17 -70 -1 0 8 -3 9
-8 1 -10 -15 -124 -16 -115 -1 4 8 1 7 -9 -1 -13 -10 -17 -10 -21 0 -4 10 -6
10 -6 1 -1 -7 -10 -13 -20 -13 -11 0 -22 6 -24 13 -4 9 -6 9 -6 -1 -1 -7 -5
-10 -11 -7 -5 3 -10 1 -10 -4 0 -6 -4 -11 -10 -11 -5 0 -6 8 -3 18 6 15 5 15
-10 3 -14 -11 -17 -11 -17 0 0 9 -3 10 -8 4 -9 -13 -42 -15 -42 -3 0 6 -6 5
-15 -2 -8 -7 -15 -9 -15 -4 0 5 -18 9 -41 9 -34 0 -44 -5 -66 -34z"/>
<path d="M2272 2424 c-9 -10 -9 -16 3 -28 11 -11 12 -16 2 -19 -9 -4 -9 -6 1
-6 6 -1 12 -13 12 -28 1 -16 7 -39 14 -52 8 -14 12 -31 9 -38 -3 -7 0 -13 7
-13 7 0 10 -7 6 -15 -3 -8 -1 -15 5 -15 6 0 7 -4 4 -10 -3 -5 -1 -10 4 -10 6
0 11 -11 11 -24 0 -13 5 -26 10 -28 6 -2 12 -13 13 -26 0 -12 4 -22 7 -22 3 0
7 -10 7 -22 1 -13 7 -24 13 -26 5 -2 10 -11 10 -20 0 -9 7 -26 15 -36 8 -10
12 -23 9 -27 -3 -5 -1 -9 4 -9 5 0 15 -13 22 -30 7 -16 17 -30 22 -30 5 0 6
-4 3 -10 -3 -5 -2 -10 4 -10 6 0 7 -7 4 -17 -4 -11 -3 -14 5 -9 7 4 12 3 12
-3 0 -5 9 -9 19 -8 11 0 17 5 15 9 -3 4 1 8 9 8 13 0 26 19 43 65 4 11 6 23 6
28 -1 4 3 7 9 7 5 0 8 4 4 9 -3 5 -1 12 5 16 6 4 8 11 5 16 -4 5 -2 9 3 9 5 0
9 6 9 13 1 20 37 111 47 118 5 4 6 16 3 28 -3 12 -1 18 4 15 18 -11 20 25 3
45 -13 15 -20 17 -26 8 -6 -9 -8 -8 -8 3 0 9 -10 16 -22 17 -11 1 -25 7 -29
14 -4 7 -14 9 -23 6 -9 -4 -15 -1 -13 6 1 7 -8 11 -20 11 -12 -1 -21 4 -20 10
1 6 -4 10 -11 8 -7 -1 -15 4 -18 11 -3 8 -16 13 -29 11 -14 -1 -23 3 -22 9 1
6 -8 13 -20 15 -13 2 -23 8 -23 13 0 5 -7 9 -15 9 -8 0 -15 4 -15 10 0 5 -6 7
-14 4 -7 -3 -16 2 -19 10 -4 9 -13 16 -21 16 -8 0 -21 6 -28 13 -11 12 -16 12
-26 1z"/>
<path d="M4106 1799 c3 -5 -2 -9 -10 -9 -9 0 -16 -5 -16 -11 0 -5 -4 -7 -10
-4 -5 3 -10 -1 -10 -9 0 -15 -12 -21 -33 -17 -5 1 -6 -3 -2 -9 3 -5 -1 -13 -9
-16 -9 -3 -14 -10 -11 -14 3 -5 -4 -11 -15 -15 -11 -3 -20 -11 -20 -16 0 -5
-7 -9 -15 -9 -8 0 -15 -5 -15 -11 0 -15 -56 -69 -64 -62 -3 4 -6 -1 -6 -9 0
-9 -5 -18 -12 -20 -7 -3 -5 -7 6 -11 10 -4 15 -3 11 3 -5 9 58 15 68 8 2 -2
12 4 22 12 14 11 17 11 11 2 -7 -12 -4 -12 14 -2 12 6 27 9 35 7 7 -3 18 0 24
6 12 12 15 13 69 15 18 1 31 5 29 10 -3 4 9 8 25 9 17 1 37 8 46 15 13 10 14
10 8 0 -4 -7 9 -3 29 8 20 11 33 15 30 9 -4 -6 4 -3 19 6 14 10 26 14 26 9 0
-4 5 -3 12 4 7 7 23 12 36 12 13 0 21 4 18 9 -4 5 2 8 11 7 10 -2 23 4 30 13
11 14 12 14 13 1 0 -9 3 -11 8 -5 10 14 49 35 66 35 8 0 17 4 20 8 5 9 -1 10
-49 13 -15 1 -22 6 -18 13 5 8 3 8 -8 0 -20 -15 -59 -15 -59 -1 0 7 -4 6 -10
-3 -9 -13 -10 -13 -10 0 0 13 -1 13 -10 0 -5 -8 -10 -10 -10 -3 0 6 -13 10
-30 9 -16 -1 -30 2 -30 7 0 4 -6 5 -12 0 -17 -10 -70 -4 -87 10 -12 9 -13 9
-7 0 4 -7 2 -13 -3 -13 -6 0 -11 6 -11 13 0 8 -4 7 -10 -3 -5 -8 -10 -10 -10
-3 0 6 -15 11 -35 11 -19 0 -32 -4 -29 -9z"/>
</g>
</svg>
