<svg width="30" height="30" fill="none" xmlns="http://www.w3.org/2000/svg"><path d="M26.075 4.696h0H3.927h0a3.083 3.083 0 00-3.08 3.08v14.449h0a3.083 3.083 0 003.08 3.08h22.147a3.083 3.083 0 003.08-3.08v0-14.45 0a3.083 3.083 0 00-3.08-3.08zm-12.31 12.07h0L2.318 7.962v-.186s0 0 0 0a1.61 1.61 0 011.608-1.608s0 0 0 0h22.147s0 0 0 0a1.61 1.61 0 011.608 1.608v.19l-11.216 8.803s0 0 0 0a2.192 2.192 0 01-2.7-.002zm3.607 1.162h0l2.553-2.003 7.455 7.237a1.608 1.608 0 01-1.305.67H3.927a1.61 1.61 0 01-1.301-.664l7.668-7.214 2.568 1.976s0 0 0 0a3.663 3.663 0 004.51-.002zm3.721-2.92l6.59-5.171v11.567l-6.59-6.396zM2.32 9.819l6.793 5.225-6.793 6.391V9.82z" fill="#582D7F" stroke="#582D7F" stroke-width=".3"/></svg>