<svg width="30" height="30" fill="none" xmlns="http://www.w3.org/2000/svg"><g clip-path="url(#clip0_400_12)" fill="#582D7F"><path d="M21.984 19.622a2.812 2.812 0 00-3.984 0l-1.36 1.36a24.953 24.953 0 01-7.622-7.622l1.36-1.36a2.813 2.813 0 000-3.984L7.725 5.372a2.747 2.747 0 00-1.978-.825 2.813 2.813 0 00-1.997.825L2.475 6.638a5.972 5.972 0 00-1.538 4.921c.3 3.516 2.607 7.744 6.16 11.307 3.553 3.562 7.828 5.859 11.344 6.197.262.014.525.014.787 0a5.69 5.69 0 004.134-1.538l1.266-1.275a2.812 2.812 0 00.825-1.997 2.747 2.747 0 00-.825-1.978l-2.644-2.653zm1.322 5.306l-1.275 1.266a4.283 4.283 0 01-3.431.937c-3.047-.262-6.928-2.419-10.134-5.625C5.259 18.3 3.103 14.446 2.812 11.4a4.247 4.247 0 01.938-3.431l1.322-1.275a.938.938 0 01.665-.272.938.938 0 01.666.272l2.653 2.681a.938.938 0 010 1.322l-1.875 1.875a.938.938 0 00-.15 1.134 25.771 25.771 0 004.06 5.232 25.768 25.768 0 005.23 4.059.938.938 0 001.135-.15l1.875-1.875a.938.938 0 011.322 0l2.653 2.653a.937.937 0 01.272.666.938.938 0 01-.272.637zm1.631-19.875A13.988 13.988 0 0015 .938a.937.937 0 100 1.875 12.188 12.188 0 0112.188 12.29.937.937 0 101.875 0 13.979 13.979 0 00-4.125-10.05z"/><path d="M19.603 10.416a5.623 5.623 0 011.66 4.04.938.938 0 001.875 0 7.5 7.5 0 00-7.5-7.593.937.937 0 000 1.875 5.625 5.625 0 013.965 1.678z"/></g><defs><clipPath id="clip0_400_12"><path fill="#fff" d="M0 0h30v30H0z"/></clipPath></defs></svg>