<svg width="30" height="19" fill="none" xmlns="http://www.w3.org/2000/svg"><path d="M28.828 0H1.172C.525 0 0 .6 0 1.342c0 .741.525 1.342 1.172 1.342h27.656c.647 0 1.172-.6 1.172-1.342C30 .601 29.475 0 28.828 0zm.001 7.895H11.843c-.648 0-1.172.6-1.172 1.342 0 .741.524 1.342 1.172 1.342h16.986c.647 0 1.172-.6 1.172-1.342 0-.741-.525-1.342-1.172-1.342zm0 7.895H11.843c-.648 0-1.172.6-1.172 1.341 0 .742.524 1.343 1.172 1.343h16.986c.647 0 1.172-.601 1.172-1.343 0-.74-.525-1.342-1.172-1.342z" fill="#fff"/></svg>