<svg width="21" height="38" fill="none" xmlns="http://www.w3.org/2000/svg"><path d="M17.968 0H2.364C1.064 0 0 1.154 0 2.567v32.865C0 36.845 1.064 38 2.364 38h15.604c1.3 0 2.364-1.153 2.364-2.567V2.567C20.332 1.154 19.268 0 17.968 0zM7.67 1.85h4.992c.158 0 .286.139.286.312 0 .171-.128.31-.286.31H7.67c-.158 0-.286-.139-.286-.31 0-.173.128-.312.286-.312zm2.496 34.867c-.653 0-1.182-.575-1.182-1.285s.529-1.283 1.182-1.283c.653 0 1.182.573 1.182 1.283s-.529 1.285-1.182 1.285zm9.5-3.467h-19V4.07h19v29.18z" fill="#582D7F"/></svg>