<svg width="1154" height="34" fill="none" xmlns="http://www.w3.org/2000/svg"><path d="M1154 16H4" stroke="#C4C4C4" stroke-width="1.3"/><circle cx="17" cy="17" r="16.5" fill="#093B54" stroke="#093B54"/><path d="M16.675 23v-9.914l-2.61 1.187v-1.68l3.418-1.652h.976V23h-1.784z" fill="#fff"/><circle cx="579" cy="17" r="16.5" fill="#fff" stroke="#C4C4C4"/><path d="M575.483 23v-.958l4.632-5.036c.387-.422.671-.744.853-.967a4.03 4.03 0 00.518-.853 2.38 2.38 0 00.246-1.028c0-.55-.216-1.031-.65-1.441-.434-.416-.967-.624-1.6-.624-.673 0-1.236.222-1.687.668-.445.44-.668 1.002-.668 1.687h-1.714c0-1.101.387-1.998 1.16-2.69.774-.69 1.749-1.036 2.927-1.036 1.131 0 2.068.328 2.812.984.75.65 1.126 1.45 1.126 2.4 0 .673-.15 1.265-.449 1.775-.299.51-.767 1.107-1.406 1.793l-3.524 3.814h5.8V23h-8.376z" fill="#C4C4C4"/><circle cx="1137" cy="17" r="16.5" fill="#fff" stroke="#C4C4C4"/><path d="M1140.52 22.227c-.76.662-1.77.993-3.05.993-1.27 0-2.27-.346-3.01-1.037-.74-.692-1.11-1.588-1.11-2.69h1.71c0 .674.22 1.237.66 1.688.44.445 1.03.668 1.77.668.77 0 1.37-.22 1.8-.66.44-.439.66-.987.66-1.643 0-.662-.24-1.198-.71-1.608-.47-.416-1.08-.624-1.84-.624h-1.4V16.03h1.4c.59 0 1.09-.187 1.51-.562.42-.381.63-.859.63-1.433 0-.55-.19-1.01-.58-1.38-.38-.375-.9-.562-1.56-.562-.64 0-1.15.187-1.53.562-.37.37-.56.835-.56 1.398h-1.71c0-.973.36-1.77 1.08-2.39.72-.628 1.65-.941 2.78-.941 1.1 0 2 .293 2.71.879.71.58 1.07 1.312 1.07 2.197 0 .662-.2 1.248-.6 1.758-.39.51-.92.867-1.58 1.072.79.182 1.42.542 1.89 1.081.48.539.72 1.198.72 1.977 0 1.032-.38 1.878-1.15 2.54z" fill="#C4C4C4"/></svg>